%TF.GenerationSoftware,KiCad,Pcbnew,10.0.4*%
%TF.CreationDate,2026-07-03T16:20:58-04:00*%
%TF.ProjectId,PCB_Armement_LC_2026,5043425f-4172-46d6-956d-656e745f4c43,rev?*%
%TF.SameCoordinates,Original*%
%TF.FileFunction,Legend,Bot*%
%TF.FilePolarity,Positive*%
%FSLAX46Y46*%
G04 Gerber Fmt 4.6, Leading zero omitted, Abs format (unit mm)*
G04 Created by KiCad (PCBNEW 10.0.4) date 2026-07-03 16:20:58*
%MOMM*%
%LPD*%
G01*
G04 APERTURE LIST*
%ADD10C,0.187500*%
%ADD11C,0.200000*%
%ADD12C,0.080000*%
%ADD13C,0.250000*%
%ADD14C,0.375000*%
%ADD15C,0.000000*%
%ADD16C,0.120000*%
%ADD17C,0.127000*%
G04 APERTURE END LIST*
D10*
X145305267Y-81085644D02*
X145305267Y-81885644D01*
X145305267Y-81885644D02*
X145555267Y-81314216D01*
X145555267Y-81314216D02*
X145805267Y-81885644D01*
X145805267Y-81885644D02*
X145805267Y-81085644D01*
X146269553Y-81085644D02*
X146198124Y-81123740D01*
X146198124Y-81123740D02*
X146162410Y-81161835D01*
X146162410Y-81161835D02*
X146126696Y-81238025D01*
X146126696Y-81238025D02*
X146126696Y-81466597D01*
X146126696Y-81466597D02*
X146162410Y-81542787D01*
X146162410Y-81542787D02*
X146198124Y-81580882D01*
X146198124Y-81580882D02*
X146269553Y-81618978D01*
X146269553Y-81618978D02*
X146376696Y-81618978D01*
X146376696Y-81618978D02*
X146448124Y-81580882D01*
X146448124Y-81580882D02*
X146483839Y-81542787D01*
X146483839Y-81542787D02*
X146519553Y-81466597D01*
X146519553Y-81466597D02*
X146519553Y-81238025D01*
X146519553Y-81238025D02*
X146483839Y-81161835D01*
X146483839Y-81161835D02*
X146448124Y-81123740D01*
X146448124Y-81123740D02*
X146376696Y-81085644D01*
X146376696Y-81085644D02*
X146269553Y-81085644D01*
X146733838Y-81618978D02*
X147019552Y-81618978D01*
X146840981Y-81885644D02*
X146840981Y-81199930D01*
X146840981Y-81199930D02*
X146876695Y-81123740D01*
X146876695Y-81123740D02*
X146948124Y-81085644D01*
X146948124Y-81085644D02*
X147019552Y-81085644D01*
X147376695Y-81085644D02*
X147305266Y-81123740D01*
X147305266Y-81123740D02*
X147269552Y-81161835D01*
X147269552Y-81161835D02*
X147233838Y-81238025D01*
X147233838Y-81238025D02*
X147233838Y-81466597D01*
X147233838Y-81466597D02*
X147269552Y-81542787D01*
X147269552Y-81542787D02*
X147305266Y-81580882D01*
X147305266Y-81580882D02*
X147376695Y-81618978D01*
X147376695Y-81618978D02*
X147483838Y-81618978D01*
X147483838Y-81618978D02*
X147555266Y-81580882D01*
X147555266Y-81580882D02*
X147590981Y-81542787D01*
X147590981Y-81542787D02*
X147626695Y-81466597D01*
X147626695Y-81466597D02*
X147626695Y-81238025D01*
X147626695Y-81238025D02*
X147590981Y-81161835D01*
X147590981Y-81161835D02*
X147555266Y-81123740D01*
X147555266Y-81123740D02*
X147483838Y-81085644D01*
X147483838Y-81085644D02*
X147376695Y-81085644D01*
X147948123Y-81085644D02*
X147948123Y-81618978D01*
X147948123Y-81466597D02*
X147983837Y-81542787D01*
X147983837Y-81542787D02*
X148019552Y-81580882D01*
X148019552Y-81580882D02*
X148090980Y-81618978D01*
X148090980Y-81618978D02*
X148162409Y-81618978D01*
X150662411Y-81314216D02*
X151019554Y-81314216D01*
X150590982Y-81085644D02*
X150840982Y-81885644D01*
X150840982Y-81885644D02*
X151090982Y-81085644D01*
X151340982Y-81618978D02*
X151340982Y-80818978D01*
X151340982Y-81580882D02*
X151412411Y-81618978D01*
X151412411Y-81618978D02*
X151555268Y-81618978D01*
X151555268Y-81618978D02*
X151626696Y-81580882D01*
X151626696Y-81580882D02*
X151662411Y-81542787D01*
X151662411Y-81542787D02*
X151698125Y-81466597D01*
X151698125Y-81466597D02*
X151698125Y-81238025D01*
X151698125Y-81238025D02*
X151662411Y-81161835D01*
X151662411Y-81161835D02*
X151626696Y-81123740D01*
X151626696Y-81123740D02*
X151555268Y-81085644D01*
X151555268Y-81085644D02*
X151412411Y-81085644D01*
X151412411Y-81085644D02*
X151340982Y-81123740D01*
X152126696Y-81085644D02*
X152055267Y-81123740D01*
X152055267Y-81123740D02*
X152019553Y-81161835D01*
X152019553Y-81161835D02*
X151983839Y-81238025D01*
X151983839Y-81238025D02*
X151983839Y-81466597D01*
X151983839Y-81466597D02*
X152019553Y-81542787D01*
X152019553Y-81542787D02*
X152055267Y-81580882D01*
X152055267Y-81580882D02*
X152126696Y-81618978D01*
X152126696Y-81618978D02*
X152233839Y-81618978D01*
X152233839Y-81618978D02*
X152305267Y-81580882D01*
X152305267Y-81580882D02*
X152340982Y-81542787D01*
X152340982Y-81542787D02*
X152376696Y-81466597D01*
X152376696Y-81466597D02*
X152376696Y-81238025D01*
X152376696Y-81238025D02*
X152340982Y-81161835D01*
X152340982Y-81161835D02*
X152305267Y-81123740D01*
X152305267Y-81123740D02*
X152233839Y-81085644D01*
X152233839Y-81085644D02*
X152126696Y-81085644D01*
X153233839Y-81123740D02*
X153340982Y-81085644D01*
X153340982Y-81085644D02*
X153519553Y-81085644D01*
X153519553Y-81085644D02*
X153590982Y-81123740D01*
X153590982Y-81123740D02*
X153626696Y-81161835D01*
X153626696Y-81161835D02*
X153662410Y-81238025D01*
X153662410Y-81238025D02*
X153662410Y-81314216D01*
X153662410Y-81314216D02*
X153626696Y-81390406D01*
X153626696Y-81390406D02*
X153590982Y-81428501D01*
X153590982Y-81428501D02*
X153519553Y-81466597D01*
X153519553Y-81466597D02*
X153376696Y-81504692D01*
X153376696Y-81504692D02*
X153305267Y-81542787D01*
X153305267Y-81542787D02*
X153269553Y-81580882D01*
X153269553Y-81580882D02*
X153233839Y-81657073D01*
X153233839Y-81657073D02*
X153233839Y-81733263D01*
X153233839Y-81733263D02*
X153269553Y-81809454D01*
X153269553Y-81809454D02*
X153305267Y-81847549D01*
X153305267Y-81847549D02*
X153376696Y-81885644D01*
X153376696Y-81885644D02*
X153555267Y-81885644D01*
X153555267Y-81885644D02*
X153662410Y-81847549D01*
X155090983Y-81314216D02*
X155448126Y-81314216D01*
X155019554Y-81085644D02*
X155269554Y-81885644D01*
X155269554Y-81885644D02*
X155519554Y-81085644D01*
X155769554Y-81618978D02*
X155769554Y-80818978D01*
X155769554Y-81580882D02*
X155840983Y-81618978D01*
X155840983Y-81618978D02*
X155983840Y-81618978D01*
X155983840Y-81618978D02*
X156055268Y-81580882D01*
X156055268Y-81580882D02*
X156090983Y-81542787D01*
X156090983Y-81542787D02*
X156126697Y-81466597D01*
X156126697Y-81466597D02*
X156126697Y-81238025D01*
X156126697Y-81238025D02*
X156090983Y-81161835D01*
X156090983Y-81161835D02*
X156055268Y-81123740D01*
X156055268Y-81123740D02*
X155983840Y-81085644D01*
X155983840Y-81085644D02*
X155840983Y-81085644D01*
X155840983Y-81085644D02*
X155769554Y-81123740D01*
X156555268Y-81085644D02*
X156483839Y-81123740D01*
X156483839Y-81123740D02*
X156448125Y-81161835D01*
X156448125Y-81161835D02*
X156412411Y-81238025D01*
X156412411Y-81238025D02*
X156412411Y-81466597D01*
X156412411Y-81466597D02*
X156448125Y-81542787D01*
X156448125Y-81542787D02*
X156483839Y-81580882D01*
X156483839Y-81580882D02*
X156555268Y-81618978D01*
X156555268Y-81618978D02*
X156662411Y-81618978D01*
X156662411Y-81618978D02*
X156733839Y-81580882D01*
X156733839Y-81580882D02*
X156769554Y-81542787D01*
X156769554Y-81542787D02*
X156805268Y-81466597D01*
X156805268Y-81466597D02*
X156805268Y-81238025D01*
X156805268Y-81238025D02*
X156769554Y-81161835D01*
X156769554Y-81161835D02*
X156733839Y-81123740D01*
X156733839Y-81123740D02*
X156662411Y-81085644D01*
X156662411Y-81085644D02*
X156555268Y-81085644D01*
X157948125Y-81504692D02*
X158055268Y-81466597D01*
X158055268Y-81466597D02*
X158090982Y-81428501D01*
X158090982Y-81428501D02*
X158126696Y-81352311D01*
X158126696Y-81352311D02*
X158126696Y-81238025D01*
X158126696Y-81238025D02*
X158090982Y-81161835D01*
X158090982Y-81161835D02*
X158055268Y-81123740D01*
X158055268Y-81123740D02*
X157983839Y-81085644D01*
X157983839Y-81085644D02*
X157698125Y-81085644D01*
X157698125Y-81085644D02*
X157698125Y-81885644D01*
X157698125Y-81885644D02*
X157948125Y-81885644D01*
X157948125Y-81885644D02*
X158019554Y-81847549D01*
X158019554Y-81847549D02*
X158055268Y-81809454D01*
X158055268Y-81809454D02*
X158090982Y-81733263D01*
X158090982Y-81733263D02*
X158090982Y-81657073D01*
X158090982Y-81657073D02*
X158055268Y-81580882D01*
X158055268Y-81580882D02*
X158019554Y-81542787D01*
X158019554Y-81542787D02*
X157948125Y-81504692D01*
X157948125Y-81504692D02*
X157698125Y-81504692D01*
X158876696Y-81085644D02*
X158626696Y-81466597D01*
X158448125Y-81085644D02*
X158448125Y-81885644D01*
X158448125Y-81885644D02*
X158733839Y-81885644D01*
X158733839Y-81885644D02*
X158805268Y-81847549D01*
X158805268Y-81847549D02*
X158840982Y-81809454D01*
X158840982Y-81809454D02*
X158876696Y-81733263D01*
X158876696Y-81733263D02*
X158876696Y-81618978D01*
X158876696Y-81618978D02*
X158840982Y-81542787D01*
X158840982Y-81542787D02*
X158805268Y-81504692D01*
X158805268Y-81504692D02*
X158733839Y-81466597D01*
X158733839Y-81466597D02*
X158448125Y-81466597D01*
D11*
X134881610Y-109321950D02*
X140648542Y-109321950D01*
X140648542Y-122082267D01*
X134881610Y-122082267D01*
X134881610Y-109321950D01*
X134909515Y-128861457D02*
X140676447Y-128861457D01*
X140676447Y-141621774D01*
X134909515Y-141621774D01*
X134909515Y-128861457D01*
X147092952Y-89823397D02*
X152859884Y-89823397D01*
X152859884Y-102583714D01*
X147092952Y-102583714D01*
X147092952Y-89823397D01*
X147104447Y-128846960D02*
X152871379Y-128846960D01*
X152871379Y-141607277D01*
X147104447Y-141607277D01*
X147104447Y-128846960D01*
X147135529Y-109330648D02*
X152902461Y-109330648D01*
X152902461Y-122090965D01*
X147135529Y-122090965D01*
X147135529Y-109330648D01*
X159289231Y-128879578D02*
X165056163Y-128879578D01*
X165056163Y-141639895D01*
X159289231Y-141639895D01*
X159289231Y-128879578D01*
X159290057Y-109304553D02*
X165056989Y-109304553D01*
X165056989Y-122064870D01*
X159290057Y-122064870D01*
X159290057Y-109304553D01*
X159331375Y-89811800D02*
X165098307Y-89811800D01*
X165098307Y-102572117D01*
X159331375Y-102572117D01*
X159331375Y-89811800D01*
D10*
X117315115Y-129962894D02*
X118007935Y-129562894D01*
X118007935Y-129562894D02*
X117388064Y-129632102D01*
X117388064Y-129632102D02*
X117757935Y-129129881D01*
X117757935Y-129129881D02*
X117065115Y-129529881D01*
X117507935Y-128696869D02*
X117436507Y-128573151D01*
X117436507Y-128573151D02*
X117367801Y-128530339D01*
X117367801Y-128530339D02*
X117266104Y-128506576D01*
X117266104Y-128506576D02*
X117116281Y-128551837D01*
X117116281Y-128551837D02*
X116885341Y-128685170D01*
X116885341Y-128685170D02*
X116771232Y-128792290D01*
X116771232Y-128792290D02*
X116740964Y-128892244D01*
X116740964Y-128892244D02*
X116743686Y-128973151D01*
X116743686Y-128973151D02*
X116815115Y-129096869D01*
X116815115Y-129096869D02*
X116883821Y-129139680D01*
X116883821Y-129139680D02*
X116985518Y-129163444D01*
X116985518Y-129163444D02*
X117135341Y-129118183D01*
X117135341Y-129118183D02*
X117366281Y-128984849D01*
X117366281Y-128984849D02*
X117480390Y-128877729D01*
X117480390Y-128877729D02*
X117510658Y-128777775D01*
X117510658Y-128777775D02*
X117507935Y-128696869D01*
X116544535Y-128552020D02*
X116457972Y-128478279D01*
X116457972Y-128478279D02*
X116368687Y-128323632D01*
X116368687Y-128323632D02*
X116365964Y-128242725D01*
X116365964Y-128242725D02*
X116381098Y-128192748D01*
X116381098Y-128192748D02*
X116429224Y-128123724D01*
X116429224Y-128123724D02*
X116495207Y-128085628D01*
X116495207Y-128085628D02*
X116579047Y-128078463D01*
X116579047Y-128078463D02*
X116629895Y-128090344D01*
X116629895Y-128090344D02*
X116698601Y-128133156D01*
X116698601Y-128133156D02*
X116803021Y-128237826D01*
X116803021Y-128237826D02*
X116871727Y-128280637D01*
X116871727Y-128280637D02*
X116922575Y-128292519D01*
X116922575Y-128292519D02*
X117006415Y-128285353D01*
X117006415Y-128285353D02*
X117072398Y-128247258D01*
X117072398Y-128247258D02*
X117120524Y-128178234D01*
X117120524Y-128178234D02*
X117135658Y-128128256D01*
X117135658Y-128128256D02*
X117132935Y-128047350D01*
X117132935Y-128047350D02*
X117043650Y-127892702D01*
X117043650Y-127892702D02*
X116957087Y-127818962D01*
X116374449Y-127495518D02*
X116499449Y-127712025D01*
X116136544Y-127921548D02*
X116829364Y-127521548D01*
X116829364Y-127521548D02*
X116650792Y-127212254D01*
X116178021Y-127155294D02*
X116053021Y-126938788D01*
X115636544Y-127055523D02*
X115815115Y-127364818D01*
X115815115Y-127364818D02*
X116507935Y-126964818D01*
X116507935Y-126964818D02*
X116329364Y-126655523D01*
X116222221Y-126469947D02*
X116007936Y-126098793D01*
X115422258Y-126684370D02*
X116115078Y-126284370D01*
D12*
D11*
X113363463Y-120569844D02*
X112863463Y-119703819D01*
X112863463Y-119703819D02*
X112657266Y-119822867D01*
X112657266Y-119822867D02*
X112557358Y-119935535D01*
X112557358Y-119935535D02*
X112522498Y-120065632D01*
X112522498Y-120065632D02*
X112528878Y-120171920D01*
X112528878Y-120171920D02*
X112582877Y-120360687D01*
X112582877Y-120360687D02*
X112654305Y-120484405D01*
X112654305Y-120484405D02*
X112790783Y-120625553D01*
X112790783Y-120625553D02*
X112879641Y-120684222D01*
X112879641Y-120684222D02*
X113009739Y-120719081D01*
X113009739Y-120719081D02*
X113157266Y-120688892D01*
X113157266Y-120688892D02*
X113363463Y-120569844D01*
X112079916Y-120156200D02*
X111502566Y-120489533D01*
X111502566Y-120489533D02*
X112579916Y-121022225D01*
X112579916Y-121022225D02*
X112002566Y-121355559D01*
X111219019Y-121807940D02*
X111713890Y-121522225D01*
X111466455Y-121665083D02*
X110966455Y-120799057D01*
X110966455Y-120799057D02*
X111120362Y-120875156D01*
X111120362Y-120875156D02*
X111250459Y-120910016D01*
X111250459Y-120910016D02*
X111356748Y-120903636D01*
X113618591Y-114855559D02*
X113669171Y-114276499D01*
X114113463Y-114569844D02*
X113613463Y-113703819D01*
X113613463Y-113703819D02*
X113283548Y-113894295D01*
X113283548Y-113894295D02*
X113224879Y-113983154D01*
X113224879Y-113983154D02*
X113207449Y-114048202D01*
X113207449Y-114048202D02*
X113213829Y-114154491D01*
X113213829Y-114154491D02*
X113285258Y-114278208D01*
X113285258Y-114278208D02*
X113374116Y-114336878D01*
X113374116Y-114336878D02*
X113439165Y-114354307D01*
X113439165Y-114354307D02*
X113545453Y-114347928D01*
X113545453Y-114347928D02*
X113875367Y-114157451D01*
X112793805Y-115331749D02*
X113288677Y-115046035D01*
X113041241Y-115188892D02*
X112541241Y-114322867D01*
X112541241Y-114322867D02*
X112695148Y-114398966D01*
X112695148Y-114398966D02*
X112825246Y-114433825D01*
X112825246Y-114433825D02*
X112931534Y-114427445D01*
X123268951Y-116792679D02*
X123334000Y-116810109D01*
X123334000Y-116810109D02*
X123481527Y-116779920D01*
X123481527Y-116779920D02*
X123564006Y-116732301D01*
X123564006Y-116732301D02*
X123663914Y-116619633D01*
X123663914Y-116619633D02*
X123698774Y-116489535D01*
X123698774Y-116489535D02*
X123692394Y-116383247D01*
X123692394Y-116383247D02*
X123638395Y-116194480D01*
X123638395Y-116194480D02*
X123566967Y-116070762D01*
X123566967Y-116070762D02*
X123430489Y-115929615D01*
X123430489Y-115929615D02*
X123341631Y-115870945D01*
X123341631Y-115870945D02*
X123211533Y-115836086D01*
X123211533Y-115836086D02*
X123064006Y-115866275D01*
X123064006Y-115866275D02*
X122981527Y-115913894D01*
X122981527Y-115913894D02*
X122881619Y-116026562D01*
X122881619Y-116026562D02*
X122864189Y-116091611D01*
X122527895Y-116175799D02*
X121991784Y-116485323D01*
X121991784Y-116485323D02*
X122470935Y-116648571D01*
X122470935Y-116648571D02*
X122347217Y-116719999D01*
X122347217Y-116719999D02*
X122288548Y-116808857D01*
X122288548Y-116808857D02*
X122271118Y-116873906D01*
X122271118Y-116873906D02*
X122277498Y-116980194D01*
X122277498Y-116980194D02*
X122396546Y-117186391D01*
X122396546Y-117186391D02*
X122485404Y-117245060D01*
X122485404Y-117245060D02*
X122550453Y-117262490D01*
X122550453Y-117262490D02*
X122656741Y-117256110D01*
X122656741Y-117256110D02*
X122904177Y-117113253D01*
X122904177Y-117113253D02*
X122962846Y-117024395D01*
X122962846Y-117024395D02*
X122980276Y-116959346D01*
D13*
X141939093Y-80841224D02*
X141939093Y-79641224D01*
X141939093Y-79641224D02*
X141481950Y-79641224D01*
X141481950Y-79641224D02*
X141367665Y-79698367D01*
X141367665Y-79698367D02*
X141310522Y-79755510D01*
X141310522Y-79755510D02*
X141253379Y-79869796D01*
X141253379Y-79869796D02*
X141253379Y-80041224D01*
X141253379Y-80041224D02*
X141310522Y-80155510D01*
X141310522Y-80155510D02*
X141367665Y-80212653D01*
X141367665Y-80212653D02*
X141481950Y-80269796D01*
X141481950Y-80269796D02*
X141939093Y-80269796D01*
X140053379Y-80726939D02*
X140110522Y-80784082D01*
X140110522Y-80784082D02*
X140281950Y-80841224D01*
X140281950Y-80841224D02*
X140396236Y-80841224D01*
X140396236Y-80841224D02*
X140567665Y-80784082D01*
X140567665Y-80784082D02*
X140681950Y-80669796D01*
X140681950Y-80669796D02*
X140739093Y-80555510D01*
X140739093Y-80555510D02*
X140796236Y-80326939D01*
X140796236Y-80326939D02*
X140796236Y-80155510D01*
X140796236Y-80155510D02*
X140739093Y-79926939D01*
X140739093Y-79926939D02*
X140681950Y-79812653D01*
X140681950Y-79812653D02*
X140567665Y-79698367D01*
X140567665Y-79698367D02*
X140396236Y-79641224D01*
X140396236Y-79641224D02*
X140281950Y-79641224D01*
X140281950Y-79641224D02*
X140110522Y-79698367D01*
X140110522Y-79698367D02*
X140053379Y-79755510D01*
X139139093Y-80212653D02*
X138967665Y-80269796D01*
X138967665Y-80269796D02*
X138910522Y-80326939D01*
X138910522Y-80326939D02*
X138853379Y-80441224D01*
X138853379Y-80441224D02*
X138853379Y-80612653D01*
X138853379Y-80612653D02*
X138910522Y-80726939D01*
X138910522Y-80726939D02*
X138967665Y-80784082D01*
X138967665Y-80784082D02*
X139081950Y-80841224D01*
X139081950Y-80841224D02*
X139539093Y-80841224D01*
X139539093Y-80841224D02*
X139539093Y-79641224D01*
X139539093Y-79641224D02*
X139139093Y-79641224D01*
X139139093Y-79641224D02*
X139024808Y-79698367D01*
X139024808Y-79698367D02*
X138967665Y-79755510D01*
X138967665Y-79755510D02*
X138910522Y-79869796D01*
X138910522Y-79869796D02*
X138910522Y-79984082D01*
X138910522Y-79984082D02*
X138967665Y-80098367D01*
X138967665Y-80098367D02*
X139024808Y-80155510D01*
X139024808Y-80155510D02*
X139139093Y-80212653D01*
X139139093Y-80212653D02*
X139539093Y-80212653D01*
X137481950Y-80498367D02*
X136910522Y-80498367D01*
X137596236Y-80841224D02*
X137196236Y-79641224D01*
X137196236Y-79641224D02*
X136796236Y-80841224D01*
X136396236Y-80841224D02*
X136396236Y-80041224D01*
X136396236Y-80269796D02*
X136339093Y-80155510D01*
X136339093Y-80155510D02*
X136281951Y-80098367D01*
X136281951Y-80098367D02*
X136167665Y-80041224D01*
X136167665Y-80041224D02*
X136053379Y-80041224D01*
X135653379Y-80841224D02*
X135653379Y-80041224D01*
X135653379Y-80155510D02*
X135596236Y-80098367D01*
X135596236Y-80098367D02*
X135481951Y-80041224D01*
X135481951Y-80041224D02*
X135310522Y-80041224D01*
X135310522Y-80041224D02*
X135196236Y-80098367D01*
X135196236Y-80098367D02*
X135139094Y-80212653D01*
X135139094Y-80212653D02*
X135139094Y-80841224D01*
X135139094Y-80212653D02*
X135081951Y-80098367D01*
X135081951Y-80098367D02*
X134967665Y-80041224D01*
X134967665Y-80041224D02*
X134796236Y-80041224D01*
X134796236Y-80041224D02*
X134681951Y-80098367D01*
X134681951Y-80098367D02*
X134624808Y-80212653D01*
X134624808Y-80212653D02*
X134624808Y-80841224D01*
X133596236Y-80784082D02*
X133710522Y-80841224D01*
X133710522Y-80841224D02*
X133939094Y-80841224D01*
X133939094Y-80841224D02*
X134053379Y-80784082D01*
X134053379Y-80784082D02*
X134110522Y-80669796D01*
X134110522Y-80669796D02*
X134110522Y-80212653D01*
X134110522Y-80212653D02*
X134053379Y-80098367D01*
X134053379Y-80098367D02*
X133939094Y-80041224D01*
X133939094Y-80041224D02*
X133710522Y-80041224D01*
X133710522Y-80041224D02*
X133596236Y-80098367D01*
X133596236Y-80098367D02*
X133539094Y-80212653D01*
X133539094Y-80212653D02*
X133539094Y-80326939D01*
X133539094Y-80326939D02*
X134110522Y-80441224D01*
X133024808Y-80841224D02*
X133024808Y-80041224D01*
X133024808Y-80155510D02*
X132967665Y-80098367D01*
X132967665Y-80098367D02*
X132853380Y-80041224D01*
X132853380Y-80041224D02*
X132681951Y-80041224D01*
X132681951Y-80041224D02*
X132567665Y-80098367D01*
X132567665Y-80098367D02*
X132510523Y-80212653D01*
X132510523Y-80212653D02*
X132510523Y-80841224D01*
X132510523Y-80212653D02*
X132453380Y-80098367D01*
X132453380Y-80098367D02*
X132339094Y-80041224D01*
X132339094Y-80041224D02*
X132167665Y-80041224D01*
X132167665Y-80041224D02*
X132053380Y-80098367D01*
X132053380Y-80098367D02*
X131996237Y-80212653D01*
X131996237Y-80212653D02*
X131996237Y-80841224D01*
X130967665Y-80784082D02*
X131081951Y-80841224D01*
X131081951Y-80841224D02*
X131310523Y-80841224D01*
X131310523Y-80841224D02*
X131424808Y-80784082D01*
X131424808Y-80784082D02*
X131481951Y-80669796D01*
X131481951Y-80669796D02*
X131481951Y-80212653D01*
X131481951Y-80212653D02*
X131424808Y-80098367D01*
X131424808Y-80098367D02*
X131310523Y-80041224D01*
X131310523Y-80041224D02*
X131081951Y-80041224D01*
X131081951Y-80041224D02*
X130967665Y-80098367D01*
X130967665Y-80098367D02*
X130910523Y-80212653D01*
X130910523Y-80212653D02*
X130910523Y-80326939D01*
X130910523Y-80326939D02*
X131481951Y-80441224D01*
X130396237Y-80041224D02*
X130396237Y-80841224D01*
X130396237Y-80155510D02*
X130339094Y-80098367D01*
X130339094Y-80098367D02*
X130224809Y-80041224D01*
X130224809Y-80041224D02*
X130053380Y-80041224D01*
X130053380Y-80041224D02*
X129939094Y-80098367D01*
X129939094Y-80098367D02*
X129881952Y-80212653D01*
X129881952Y-80212653D02*
X129881952Y-80841224D01*
X129481952Y-80041224D02*
X129024809Y-80041224D01*
X129310523Y-79641224D02*
X129310523Y-80669796D01*
X129310523Y-80669796D02*
X129253380Y-80784082D01*
X129253380Y-80784082D02*
X129139095Y-80841224D01*
X129139095Y-80841224D02*
X129024809Y-80841224D01*
X127139095Y-80841224D02*
X127710523Y-80841224D01*
X127710523Y-80841224D02*
X127710523Y-79641224D01*
X126053380Y-80726939D02*
X126110523Y-80784082D01*
X126110523Y-80784082D02*
X126281951Y-80841224D01*
X126281951Y-80841224D02*
X126396237Y-80841224D01*
X126396237Y-80841224D02*
X126567666Y-80784082D01*
X126567666Y-80784082D02*
X126681951Y-80669796D01*
X126681951Y-80669796D02*
X126739094Y-80555510D01*
X126739094Y-80555510D02*
X126796237Y-80326939D01*
X126796237Y-80326939D02*
X126796237Y-80155510D01*
X126796237Y-80155510D02*
X126739094Y-79926939D01*
X126739094Y-79926939D02*
X126681951Y-79812653D01*
X126681951Y-79812653D02*
X126567666Y-79698367D01*
X126567666Y-79698367D02*
X126396237Y-79641224D01*
X126396237Y-79641224D02*
X126281951Y-79641224D01*
X126281951Y-79641224D02*
X126110523Y-79698367D01*
X126110523Y-79698367D02*
X126053380Y-79755510D01*
X124681951Y-79755510D02*
X124624808Y-79698367D01*
X124624808Y-79698367D02*
X124510523Y-79641224D01*
X124510523Y-79641224D02*
X124224808Y-79641224D01*
X124224808Y-79641224D02*
X124110523Y-79698367D01*
X124110523Y-79698367D02*
X124053380Y-79755510D01*
X124053380Y-79755510D02*
X123996237Y-79869796D01*
X123996237Y-79869796D02*
X123996237Y-79984082D01*
X123996237Y-79984082D02*
X124053380Y-80155510D01*
X124053380Y-80155510D02*
X124739094Y-80841224D01*
X124739094Y-80841224D02*
X123996237Y-80841224D01*
X123253380Y-79641224D02*
X123139094Y-79641224D01*
X123139094Y-79641224D02*
X123024808Y-79698367D01*
X123024808Y-79698367D02*
X122967666Y-79755510D01*
X122967666Y-79755510D02*
X122910523Y-79869796D01*
X122910523Y-79869796D02*
X122853380Y-80098367D01*
X122853380Y-80098367D02*
X122853380Y-80384082D01*
X122853380Y-80384082D02*
X122910523Y-80612653D01*
X122910523Y-80612653D02*
X122967666Y-80726939D01*
X122967666Y-80726939D02*
X123024808Y-80784082D01*
X123024808Y-80784082D02*
X123139094Y-80841224D01*
X123139094Y-80841224D02*
X123253380Y-80841224D01*
X123253380Y-80841224D02*
X123367666Y-80784082D01*
X123367666Y-80784082D02*
X123424808Y-80726939D01*
X123424808Y-80726939D02*
X123481951Y-80612653D01*
X123481951Y-80612653D02*
X123539094Y-80384082D01*
X123539094Y-80384082D02*
X123539094Y-80098367D01*
X123539094Y-80098367D02*
X123481951Y-79869796D01*
X123481951Y-79869796D02*
X123424808Y-79755510D01*
X123424808Y-79755510D02*
X123367666Y-79698367D01*
X123367666Y-79698367D02*
X123253380Y-79641224D01*
X122396237Y-79755510D02*
X122339094Y-79698367D01*
X122339094Y-79698367D02*
X122224809Y-79641224D01*
X122224809Y-79641224D02*
X121939094Y-79641224D01*
X121939094Y-79641224D02*
X121824809Y-79698367D01*
X121824809Y-79698367D02*
X121767666Y-79755510D01*
X121767666Y-79755510D02*
X121710523Y-79869796D01*
X121710523Y-79869796D02*
X121710523Y-79984082D01*
X121710523Y-79984082D02*
X121767666Y-80155510D01*
X121767666Y-80155510D02*
X122453380Y-80841224D01*
X122453380Y-80841224D02*
X121710523Y-80841224D01*
X120681952Y-79641224D02*
X120910523Y-79641224D01*
X120910523Y-79641224D02*
X121024809Y-79698367D01*
X121024809Y-79698367D02*
X121081952Y-79755510D01*
X121081952Y-79755510D02*
X121196237Y-79926939D01*
X121196237Y-79926939D02*
X121253380Y-80155510D01*
X121253380Y-80155510D02*
X121253380Y-80612653D01*
X121253380Y-80612653D02*
X121196237Y-80726939D01*
X121196237Y-80726939D02*
X121139094Y-80784082D01*
X121139094Y-80784082D02*
X121024809Y-80841224D01*
X121024809Y-80841224D02*
X120796237Y-80841224D01*
X120796237Y-80841224D02*
X120681952Y-80784082D01*
X120681952Y-80784082D02*
X120624809Y-80726939D01*
X120624809Y-80726939D02*
X120567666Y-80612653D01*
X120567666Y-80612653D02*
X120567666Y-80326939D01*
X120567666Y-80326939D02*
X120624809Y-80212653D01*
X120624809Y-80212653D02*
X120681952Y-80155510D01*
X120681952Y-80155510D02*
X120796237Y-80098367D01*
X120796237Y-80098367D02*
X121024809Y-80098367D01*
X121024809Y-80098367D02*
X121139094Y-80155510D01*
X121139094Y-80155510D02*
X121196237Y-80212653D01*
X121196237Y-80212653D02*
X121253380Y-80326939D01*
X141996236Y-82430300D02*
X141424808Y-82430300D01*
X142110522Y-82773157D02*
X141710522Y-81573157D01*
X141710522Y-81573157D02*
X141310522Y-82773157D01*
X140739094Y-82773157D02*
X140853379Y-82716015D01*
X140853379Y-82716015D02*
X140910522Y-82601729D01*
X140910522Y-82601729D02*
X140910522Y-81573157D01*
X139824808Y-82716015D02*
X139939094Y-82773157D01*
X139939094Y-82773157D02*
X140167666Y-82773157D01*
X140167666Y-82773157D02*
X140281951Y-82716015D01*
X140281951Y-82716015D02*
X140339094Y-82601729D01*
X140339094Y-82601729D02*
X140339094Y-82144586D01*
X140339094Y-82144586D02*
X140281951Y-82030300D01*
X140281951Y-82030300D02*
X140167666Y-81973157D01*
X140167666Y-81973157D02*
X139939094Y-81973157D01*
X139939094Y-81973157D02*
X139824808Y-82030300D01*
X139824808Y-82030300D02*
X139767666Y-82144586D01*
X139767666Y-82144586D02*
X139767666Y-82258872D01*
X139767666Y-82258872D02*
X140339094Y-82373157D01*
X139367666Y-82773157D02*
X138739095Y-81973157D01*
X139367666Y-81973157D02*
X138739095Y-82773157D01*
X138281951Y-82773157D02*
X138281951Y-81973157D01*
X138281951Y-81573157D02*
X138339094Y-81630300D01*
X138339094Y-81630300D02*
X138281951Y-81687443D01*
X138281951Y-81687443D02*
X138224808Y-81630300D01*
X138224808Y-81630300D02*
X138281951Y-81573157D01*
X138281951Y-81573157D02*
X138281951Y-81687443D01*
X137767665Y-82716015D02*
X137653379Y-82773157D01*
X137653379Y-82773157D02*
X137424808Y-82773157D01*
X137424808Y-82773157D02*
X137310522Y-82716015D01*
X137310522Y-82716015D02*
X137253379Y-82601729D01*
X137253379Y-82601729D02*
X137253379Y-82544586D01*
X137253379Y-82544586D02*
X137310522Y-82430300D01*
X137310522Y-82430300D02*
X137424808Y-82373157D01*
X137424808Y-82373157D02*
X137596237Y-82373157D01*
X137596237Y-82373157D02*
X137710522Y-82316015D01*
X137710522Y-82316015D02*
X137767665Y-82201729D01*
X137767665Y-82201729D02*
X137767665Y-82144586D01*
X137767665Y-82144586D02*
X137710522Y-82030300D01*
X137710522Y-82030300D02*
X137596237Y-81973157D01*
X137596237Y-81973157D02*
X137424808Y-81973157D01*
X137424808Y-81973157D02*
X137310522Y-82030300D01*
X135196236Y-81630300D02*
X135310522Y-81573157D01*
X135310522Y-81573157D02*
X135481950Y-81573157D01*
X135481950Y-81573157D02*
X135653379Y-81630300D01*
X135653379Y-81630300D02*
X135767664Y-81744586D01*
X135767664Y-81744586D02*
X135824807Y-81858872D01*
X135824807Y-81858872D02*
X135881950Y-82087443D01*
X135881950Y-82087443D02*
X135881950Y-82258872D01*
X135881950Y-82258872D02*
X135824807Y-82487443D01*
X135824807Y-82487443D02*
X135767664Y-82601729D01*
X135767664Y-82601729D02*
X135653379Y-82716015D01*
X135653379Y-82716015D02*
X135481950Y-82773157D01*
X135481950Y-82773157D02*
X135367664Y-82773157D01*
X135367664Y-82773157D02*
X135196236Y-82716015D01*
X135196236Y-82716015D02*
X135139093Y-82658872D01*
X135139093Y-82658872D02*
X135139093Y-82258872D01*
X135139093Y-82258872D02*
X135367664Y-82258872D01*
X134624807Y-82773157D02*
X134624807Y-81973157D01*
X134624807Y-81573157D02*
X134681950Y-81630300D01*
X134681950Y-81630300D02*
X134624807Y-81687443D01*
X134624807Y-81687443D02*
X134567664Y-81630300D01*
X134567664Y-81630300D02*
X134624807Y-81573157D01*
X134624807Y-81573157D02*
X134624807Y-81687443D01*
X134053378Y-82773157D02*
X134053378Y-81973157D01*
X134053378Y-82201729D02*
X133996235Y-82087443D01*
X133996235Y-82087443D02*
X133939093Y-82030300D01*
X133939093Y-82030300D02*
X133824807Y-81973157D01*
X133824807Y-81973157D02*
X133710521Y-81973157D01*
X133139093Y-82773157D02*
X133253378Y-82716015D01*
X133253378Y-82716015D02*
X133310521Y-82658872D01*
X133310521Y-82658872D02*
X133367664Y-82544586D01*
X133367664Y-82544586D02*
X133367664Y-82201729D01*
X133367664Y-82201729D02*
X133310521Y-82087443D01*
X133310521Y-82087443D02*
X133253378Y-82030300D01*
X133253378Y-82030300D02*
X133139093Y-81973157D01*
X133139093Y-81973157D02*
X132967664Y-81973157D01*
X132967664Y-81973157D02*
X132853378Y-82030300D01*
X132853378Y-82030300D02*
X132796236Y-82087443D01*
X132796236Y-82087443D02*
X132739093Y-82201729D01*
X132739093Y-82201729D02*
X132739093Y-82544586D01*
X132739093Y-82544586D02*
X132796236Y-82658872D01*
X132796236Y-82658872D02*
X132853378Y-82716015D01*
X132853378Y-82716015D02*
X132967664Y-82773157D01*
X132967664Y-82773157D02*
X133139093Y-82773157D01*
X131710522Y-81973157D02*
X131710522Y-82773157D01*
X132224807Y-81973157D02*
X132224807Y-82601729D01*
X132224807Y-82601729D02*
X132167664Y-82716015D01*
X132167664Y-82716015D02*
X132053379Y-82773157D01*
X132053379Y-82773157D02*
X131881950Y-82773157D01*
X131881950Y-82773157D02*
X131767664Y-82716015D01*
X131767664Y-82716015D02*
X131710522Y-82658872D01*
X131253379Y-82773157D02*
X130624808Y-81973157D01*
X131253379Y-81973157D02*
X130624808Y-82773157D01*
D14*
X141462466Y-122126868D02*
X141391037Y-121912583D01*
X141391037Y-121912583D02*
X141391037Y-121555440D01*
X141391037Y-121555440D02*
X141462466Y-121412583D01*
X141462466Y-121412583D02*
X141533894Y-121341154D01*
X141533894Y-121341154D02*
X141676751Y-121269725D01*
X141676751Y-121269725D02*
X141819608Y-121269725D01*
X141819608Y-121269725D02*
X141962466Y-121341154D01*
X141962466Y-121341154D02*
X142033894Y-121412583D01*
X142033894Y-121412583D02*
X142105323Y-121555440D01*
X142105323Y-121555440D02*
X142176751Y-121841154D01*
X142176751Y-121841154D02*
X142248180Y-121984011D01*
X142248180Y-121984011D02*
X142319608Y-122055440D01*
X142319608Y-122055440D02*
X142462466Y-122126868D01*
X142462466Y-122126868D02*
X142605323Y-122126868D01*
X142605323Y-122126868D02*
X142748180Y-122055440D01*
X142748180Y-122055440D02*
X142819608Y-121984011D01*
X142819608Y-121984011D02*
X142891037Y-121841154D01*
X142891037Y-121841154D02*
X142891037Y-121484011D01*
X142891037Y-121484011D02*
X142819608Y-121269725D01*
X141391037Y-120626869D02*
X142891037Y-120626869D01*
X141391037Y-119984012D02*
X142176751Y-119984012D01*
X142176751Y-119984012D02*
X142319608Y-120055440D01*
X142319608Y-120055440D02*
X142391037Y-120198297D01*
X142391037Y-120198297D02*
X142391037Y-120412583D01*
X142391037Y-120412583D02*
X142319608Y-120555440D01*
X142319608Y-120555440D02*
X142248180Y-120626869D01*
X142391037Y-118626869D02*
X141391037Y-118626869D01*
X142391037Y-119269726D02*
X141605323Y-119269726D01*
X141605323Y-119269726D02*
X141462466Y-119198297D01*
X141462466Y-119198297D02*
X141391037Y-119055440D01*
X141391037Y-119055440D02*
X141391037Y-118841154D01*
X141391037Y-118841154D02*
X141462466Y-118698297D01*
X141462466Y-118698297D02*
X141533894Y-118626869D01*
X142391037Y-117912583D02*
X141391037Y-117912583D01*
X142248180Y-117912583D02*
X142319608Y-117841154D01*
X142319608Y-117841154D02*
X142391037Y-117698297D01*
X142391037Y-117698297D02*
X142391037Y-117484011D01*
X142391037Y-117484011D02*
X142319608Y-117341154D01*
X142319608Y-117341154D02*
X142176751Y-117269726D01*
X142176751Y-117269726D02*
X141391037Y-117269726D01*
X142391037Y-116769725D02*
X142391037Y-116198297D01*
X142891037Y-116555440D02*
X141605323Y-116555440D01*
X141605323Y-116555440D02*
X141462466Y-116484011D01*
X141462466Y-116484011D02*
X141391037Y-116341154D01*
X141391037Y-116341154D02*
X141391037Y-116198297D01*
X141391037Y-114555440D02*
X142891037Y-114555440D01*
X142891037Y-114555440D02*
X141819608Y-114055440D01*
X141819608Y-114055440D02*
X142891037Y-113555440D01*
X142891037Y-113555440D02*
X141391037Y-113555440D01*
X141391037Y-112626868D02*
X141462466Y-112769725D01*
X141462466Y-112769725D02*
X141533894Y-112841154D01*
X141533894Y-112841154D02*
X141676751Y-112912582D01*
X141676751Y-112912582D02*
X142105323Y-112912582D01*
X142105323Y-112912582D02*
X142248180Y-112841154D01*
X142248180Y-112841154D02*
X142319608Y-112769725D01*
X142319608Y-112769725D02*
X142391037Y-112626868D01*
X142391037Y-112626868D02*
X142391037Y-112412582D01*
X142391037Y-112412582D02*
X142319608Y-112269725D01*
X142319608Y-112269725D02*
X142248180Y-112198297D01*
X142248180Y-112198297D02*
X142105323Y-112126868D01*
X142105323Y-112126868D02*
X141676751Y-112126868D01*
X141676751Y-112126868D02*
X141533894Y-112198297D01*
X141533894Y-112198297D02*
X141462466Y-112269725D01*
X141462466Y-112269725D02*
X141391037Y-112412582D01*
X141391037Y-112412582D02*
X141391037Y-112626868D01*
X142391037Y-111698296D02*
X142391037Y-111126868D01*
X142891037Y-111484011D02*
X141605323Y-111484011D01*
X141605323Y-111484011D02*
X141462466Y-111412582D01*
X141462466Y-111412582D02*
X141391037Y-111269725D01*
X141391037Y-111269725D02*
X141391037Y-111126868D01*
X141391037Y-110412582D02*
X141462466Y-110555439D01*
X141462466Y-110555439D02*
X141533894Y-110626868D01*
X141533894Y-110626868D02*
X141676751Y-110698296D01*
X141676751Y-110698296D02*
X142105323Y-110698296D01*
X142105323Y-110698296D02*
X142248180Y-110626868D01*
X142248180Y-110626868D02*
X142319608Y-110555439D01*
X142319608Y-110555439D02*
X142391037Y-110412582D01*
X142391037Y-110412582D02*
X142391037Y-110198296D01*
X142391037Y-110198296D02*
X142319608Y-110055439D01*
X142319608Y-110055439D02*
X142248180Y-109984011D01*
X142248180Y-109984011D02*
X142105323Y-109912582D01*
X142105323Y-109912582D02*
X141676751Y-109912582D01*
X141676751Y-109912582D02*
X141533894Y-109984011D01*
X141533894Y-109984011D02*
X141462466Y-110055439D01*
X141462466Y-110055439D02*
X141391037Y-110198296D01*
X141391037Y-110198296D02*
X141391037Y-110412582D01*
X141391037Y-109269725D02*
X142391037Y-109269725D01*
X142105323Y-109269725D02*
X142248180Y-109198296D01*
X142248180Y-109198296D02*
X142319608Y-109126868D01*
X142319608Y-109126868D02*
X142391037Y-108984010D01*
X142391037Y-108984010D02*
X142391037Y-108841153D01*
X141462466Y-138537184D02*
X141391037Y-138322899D01*
X141391037Y-138322899D02*
X141391037Y-137965756D01*
X141391037Y-137965756D02*
X141462466Y-137822899D01*
X141462466Y-137822899D02*
X141533894Y-137751470D01*
X141533894Y-137751470D02*
X141676751Y-137680041D01*
X141676751Y-137680041D02*
X141819608Y-137680041D01*
X141819608Y-137680041D02*
X141962466Y-137751470D01*
X141962466Y-137751470D02*
X142033894Y-137822899D01*
X142033894Y-137822899D02*
X142105323Y-137965756D01*
X142105323Y-137965756D02*
X142176751Y-138251470D01*
X142176751Y-138251470D02*
X142248180Y-138394327D01*
X142248180Y-138394327D02*
X142319608Y-138465756D01*
X142319608Y-138465756D02*
X142462466Y-138537184D01*
X142462466Y-138537184D02*
X142605323Y-138537184D01*
X142605323Y-138537184D02*
X142748180Y-138465756D01*
X142748180Y-138465756D02*
X142819608Y-138394327D01*
X142819608Y-138394327D02*
X142891037Y-138251470D01*
X142891037Y-138251470D02*
X142891037Y-137894327D01*
X142891037Y-137894327D02*
X142819608Y-137680041D01*
X142391037Y-137180042D02*
X141391037Y-136822899D01*
X142391037Y-136465756D02*
X141391037Y-136822899D01*
X141391037Y-136822899D02*
X141033894Y-136965756D01*
X141033894Y-136965756D02*
X140962466Y-137037185D01*
X140962466Y-137037185D02*
X140891037Y-137180042D01*
X141462466Y-135965756D02*
X141391037Y-135822899D01*
X141391037Y-135822899D02*
X141391037Y-135537185D01*
X141391037Y-135537185D02*
X141462466Y-135394328D01*
X141462466Y-135394328D02*
X141605323Y-135322899D01*
X141605323Y-135322899D02*
X141676751Y-135322899D01*
X141676751Y-135322899D02*
X141819608Y-135394328D01*
X141819608Y-135394328D02*
X141891037Y-135537185D01*
X141891037Y-135537185D02*
X141891037Y-135751471D01*
X141891037Y-135751471D02*
X141962466Y-135894328D01*
X141962466Y-135894328D02*
X142105323Y-135965756D01*
X142105323Y-135965756D02*
X142176751Y-135965756D01*
X142176751Y-135965756D02*
X142319608Y-135894328D01*
X142319608Y-135894328D02*
X142391037Y-135751471D01*
X142391037Y-135751471D02*
X142391037Y-135537185D01*
X142391037Y-135537185D02*
X142319608Y-135394328D01*
X142391037Y-134894327D02*
X142391037Y-134322899D01*
X142891037Y-134680042D02*
X141605323Y-134680042D01*
X141605323Y-134680042D02*
X141462466Y-134608613D01*
X141462466Y-134608613D02*
X141391037Y-134465756D01*
X141391037Y-134465756D02*
X141391037Y-134322899D01*
X141462466Y-133251470D02*
X141391037Y-133394327D01*
X141391037Y-133394327D02*
X141391037Y-133680042D01*
X141391037Y-133680042D02*
X141462466Y-133822899D01*
X141462466Y-133822899D02*
X141605323Y-133894327D01*
X141605323Y-133894327D02*
X142176751Y-133894327D01*
X142176751Y-133894327D02*
X142319608Y-133822899D01*
X142319608Y-133822899D02*
X142391037Y-133680042D01*
X142391037Y-133680042D02*
X142391037Y-133394327D01*
X142391037Y-133394327D02*
X142319608Y-133251470D01*
X142319608Y-133251470D02*
X142176751Y-133180042D01*
X142176751Y-133180042D02*
X142033894Y-133180042D01*
X142033894Y-133180042D02*
X141891037Y-133894327D01*
X141391037Y-132537185D02*
X142391037Y-132537185D01*
X142248180Y-132537185D02*
X142319608Y-132465756D01*
X142319608Y-132465756D02*
X142391037Y-132322899D01*
X142391037Y-132322899D02*
X142391037Y-132108613D01*
X142391037Y-132108613D02*
X142319608Y-131965756D01*
X142319608Y-131965756D02*
X142176751Y-131894328D01*
X142176751Y-131894328D02*
X141391037Y-131894328D01*
X142176751Y-131894328D02*
X142319608Y-131822899D01*
X142319608Y-131822899D02*
X142391037Y-131680042D01*
X142391037Y-131680042D02*
X142391037Y-131465756D01*
X142391037Y-131465756D02*
X142319608Y-131322899D01*
X142319608Y-131322899D02*
X142176751Y-131251470D01*
X142176751Y-131251470D02*
X141391037Y-131251470D01*
X154023238Y-102142620D02*
X154023238Y-101428335D01*
X153594667Y-102285477D02*
X155094667Y-101785477D01*
X155094667Y-101785477D02*
X153594667Y-101285477D01*
X154594667Y-100785478D02*
X153094667Y-100785478D01*
X154523238Y-100785478D02*
X154594667Y-100642621D01*
X154594667Y-100642621D02*
X154594667Y-100356906D01*
X154594667Y-100356906D02*
X154523238Y-100214049D01*
X154523238Y-100214049D02*
X154451810Y-100142621D01*
X154451810Y-100142621D02*
X154308953Y-100071192D01*
X154308953Y-100071192D02*
X153880381Y-100071192D01*
X153880381Y-100071192D02*
X153737524Y-100142621D01*
X153737524Y-100142621D02*
X153666096Y-100214049D01*
X153666096Y-100214049D02*
X153594667Y-100356906D01*
X153594667Y-100356906D02*
X153594667Y-100642621D01*
X153594667Y-100642621D02*
X153666096Y-100785478D01*
X153594667Y-99214049D02*
X153666096Y-99356906D01*
X153666096Y-99356906D02*
X153737524Y-99428335D01*
X153737524Y-99428335D02*
X153880381Y-99499763D01*
X153880381Y-99499763D02*
X154308953Y-99499763D01*
X154308953Y-99499763D02*
X154451810Y-99428335D01*
X154451810Y-99428335D02*
X154523238Y-99356906D01*
X154523238Y-99356906D02*
X154594667Y-99214049D01*
X154594667Y-99214049D02*
X154594667Y-98999763D01*
X154594667Y-98999763D02*
X154523238Y-98856906D01*
X154523238Y-98856906D02*
X154451810Y-98785478D01*
X154451810Y-98785478D02*
X154308953Y-98714049D01*
X154308953Y-98714049D02*
X153880381Y-98714049D01*
X153880381Y-98714049D02*
X153737524Y-98785478D01*
X153737524Y-98785478D02*
X153666096Y-98856906D01*
X153666096Y-98856906D02*
X153594667Y-98999763D01*
X153594667Y-98999763D02*
X153594667Y-99214049D01*
X153666096Y-96999763D02*
X153594667Y-96785478D01*
X153594667Y-96785478D02*
X153594667Y-96428335D01*
X153594667Y-96428335D02*
X153666096Y-96285478D01*
X153666096Y-96285478D02*
X153737524Y-96214049D01*
X153737524Y-96214049D02*
X153880381Y-96142620D01*
X153880381Y-96142620D02*
X154023238Y-96142620D01*
X154023238Y-96142620D02*
X154166096Y-96214049D01*
X154166096Y-96214049D02*
X154237524Y-96285478D01*
X154237524Y-96285478D02*
X154308953Y-96428335D01*
X154308953Y-96428335D02*
X154380381Y-96714049D01*
X154380381Y-96714049D02*
X154451810Y-96856906D01*
X154451810Y-96856906D02*
X154523238Y-96928335D01*
X154523238Y-96928335D02*
X154666096Y-96999763D01*
X154666096Y-96999763D02*
X154808953Y-96999763D01*
X154808953Y-96999763D02*
X154951810Y-96928335D01*
X154951810Y-96928335D02*
X155023238Y-96856906D01*
X155023238Y-96856906D02*
X155094667Y-96714049D01*
X155094667Y-96714049D02*
X155094667Y-96356906D01*
X155094667Y-96356906D02*
X155023238Y-96142620D01*
X154594667Y-95714049D02*
X154594667Y-95142621D01*
X155094667Y-95499764D02*
X153808953Y-95499764D01*
X153808953Y-95499764D02*
X153666096Y-95428335D01*
X153666096Y-95428335D02*
X153594667Y-95285478D01*
X153594667Y-95285478D02*
X153594667Y-95142621D01*
X153594667Y-94642621D02*
X154594667Y-94642621D01*
X154308953Y-94642621D02*
X154451810Y-94571192D01*
X154451810Y-94571192D02*
X154523238Y-94499764D01*
X154523238Y-94499764D02*
X154594667Y-94356906D01*
X154594667Y-94356906D02*
X154594667Y-94214049D01*
X153594667Y-93071193D02*
X154380381Y-93071193D01*
X154380381Y-93071193D02*
X154523238Y-93142621D01*
X154523238Y-93142621D02*
X154594667Y-93285478D01*
X154594667Y-93285478D02*
X154594667Y-93571193D01*
X154594667Y-93571193D02*
X154523238Y-93714050D01*
X153666096Y-93071193D02*
X153594667Y-93214050D01*
X153594667Y-93214050D02*
X153594667Y-93571193D01*
X153594667Y-93571193D02*
X153666096Y-93714050D01*
X153666096Y-93714050D02*
X153808953Y-93785478D01*
X153808953Y-93785478D02*
X153951810Y-93785478D01*
X153951810Y-93785478D02*
X154094667Y-93714050D01*
X154094667Y-93714050D02*
X154166096Y-93571193D01*
X154166096Y-93571193D02*
X154166096Y-93214050D01*
X154166096Y-93214050D02*
X154237524Y-93071193D01*
X154594667Y-92571192D02*
X154594667Y-91999764D01*
X155094667Y-92356907D02*
X153808953Y-92356907D01*
X153808953Y-92356907D02*
X153666096Y-92285478D01*
X153666096Y-92285478D02*
X153594667Y-92142621D01*
X153594667Y-92142621D02*
X153594667Y-91999764D01*
X153594667Y-91285478D02*
X153666096Y-91428335D01*
X153666096Y-91428335D02*
X153737524Y-91499764D01*
X153737524Y-91499764D02*
X153880381Y-91571192D01*
X153880381Y-91571192D02*
X154308953Y-91571192D01*
X154308953Y-91571192D02*
X154451810Y-91499764D01*
X154451810Y-91499764D02*
X154523238Y-91428335D01*
X154523238Y-91428335D02*
X154594667Y-91285478D01*
X154594667Y-91285478D02*
X154594667Y-91071192D01*
X154594667Y-91071192D02*
X154523238Y-90928335D01*
X154523238Y-90928335D02*
X154451810Y-90856907D01*
X154451810Y-90856907D02*
X154308953Y-90785478D01*
X154308953Y-90785478D02*
X153880381Y-90785478D01*
X153880381Y-90785478D02*
X153737524Y-90856907D01*
X153737524Y-90856907D02*
X153666096Y-90928335D01*
X153666096Y-90928335D02*
X153594667Y-91071192D01*
X153594667Y-91071192D02*
X153594667Y-91285478D01*
X153594667Y-122226686D02*
X155094667Y-122226686D01*
X155094667Y-122226686D02*
X154023238Y-121726686D01*
X154023238Y-121726686D02*
X155094667Y-121226686D01*
X155094667Y-121226686D02*
X153594667Y-121226686D01*
X153594667Y-119869543D02*
X154380381Y-119869543D01*
X154380381Y-119869543D02*
X154523238Y-119940971D01*
X154523238Y-119940971D02*
X154594667Y-120083828D01*
X154594667Y-120083828D02*
X154594667Y-120369543D01*
X154594667Y-120369543D02*
X154523238Y-120512400D01*
X153666096Y-119869543D02*
X153594667Y-120012400D01*
X153594667Y-120012400D02*
X153594667Y-120369543D01*
X153594667Y-120369543D02*
X153666096Y-120512400D01*
X153666096Y-120512400D02*
X153808953Y-120583828D01*
X153808953Y-120583828D02*
X153951810Y-120583828D01*
X153951810Y-120583828D02*
X154094667Y-120512400D01*
X154094667Y-120512400D02*
X154166096Y-120369543D01*
X154166096Y-120369543D02*
X154166096Y-120012400D01*
X154166096Y-120012400D02*
X154237524Y-119869543D01*
X153594667Y-119155257D02*
X154594667Y-119155257D01*
X155094667Y-119155257D02*
X155023238Y-119226685D01*
X155023238Y-119226685D02*
X154951810Y-119155257D01*
X154951810Y-119155257D02*
X155023238Y-119083828D01*
X155023238Y-119083828D02*
X155094667Y-119155257D01*
X155094667Y-119155257D02*
X154951810Y-119155257D01*
X154594667Y-118440971D02*
X153594667Y-118440971D01*
X154451810Y-118440971D02*
X154523238Y-118369542D01*
X154523238Y-118369542D02*
X154594667Y-118226685D01*
X154594667Y-118226685D02*
X154594667Y-118012399D01*
X154594667Y-118012399D02*
X154523238Y-117869542D01*
X154523238Y-117869542D02*
X154380381Y-117798114D01*
X154380381Y-117798114D02*
X153594667Y-117798114D01*
X153666096Y-116012399D02*
X153594667Y-115798114D01*
X153594667Y-115798114D02*
X153594667Y-115440971D01*
X153594667Y-115440971D02*
X153666096Y-115298114D01*
X153666096Y-115298114D02*
X153737524Y-115226685D01*
X153737524Y-115226685D02*
X153880381Y-115155256D01*
X153880381Y-115155256D02*
X154023238Y-115155256D01*
X154023238Y-115155256D02*
X154166096Y-115226685D01*
X154166096Y-115226685D02*
X154237524Y-115298114D01*
X154237524Y-115298114D02*
X154308953Y-115440971D01*
X154308953Y-115440971D02*
X154380381Y-115726685D01*
X154380381Y-115726685D02*
X154451810Y-115869542D01*
X154451810Y-115869542D02*
X154523238Y-115940971D01*
X154523238Y-115940971D02*
X154666096Y-116012399D01*
X154666096Y-116012399D02*
X154808953Y-116012399D01*
X154808953Y-116012399D02*
X154951810Y-115940971D01*
X154951810Y-115940971D02*
X155023238Y-115869542D01*
X155023238Y-115869542D02*
X155094667Y-115726685D01*
X155094667Y-115726685D02*
X155094667Y-115369542D01*
X155094667Y-115369542D02*
X155023238Y-115155256D01*
X154594667Y-114726685D02*
X154594667Y-114155257D01*
X155094667Y-114512400D02*
X153808953Y-114512400D01*
X153808953Y-114512400D02*
X153666096Y-114440971D01*
X153666096Y-114440971D02*
X153594667Y-114298114D01*
X153594667Y-114298114D02*
X153594667Y-114155257D01*
X153594667Y-113655257D02*
X154594667Y-113655257D01*
X154308953Y-113655257D02*
X154451810Y-113583828D01*
X154451810Y-113583828D02*
X154523238Y-113512400D01*
X154523238Y-113512400D02*
X154594667Y-113369542D01*
X154594667Y-113369542D02*
X154594667Y-113226685D01*
X153594667Y-112083829D02*
X154380381Y-112083829D01*
X154380381Y-112083829D02*
X154523238Y-112155257D01*
X154523238Y-112155257D02*
X154594667Y-112298114D01*
X154594667Y-112298114D02*
X154594667Y-112583829D01*
X154594667Y-112583829D02*
X154523238Y-112726686D01*
X153666096Y-112083829D02*
X153594667Y-112226686D01*
X153594667Y-112226686D02*
X153594667Y-112583829D01*
X153594667Y-112583829D02*
X153666096Y-112726686D01*
X153666096Y-112726686D02*
X153808953Y-112798114D01*
X153808953Y-112798114D02*
X153951810Y-112798114D01*
X153951810Y-112798114D02*
X154094667Y-112726686D01*
X154094667Y-112726686D02*
X154166096Y-112583829D01*
X154166096Y-112583829D02*
X154166096Y-112226686D01*
X154166096Y-112226686D02*
X154237524Y-112083829D01*
X154594667Y-111583828D02*
X154594667Y-111012400D01*
X155094667Y-111369543D02*
X153808953Y-111369543D01*
X153808953Y-111369543D02*
X153666096Y-111298114D01*
X153666096Y-111298114D02*
X153594667Y-111155257D01*
X153594667Y-111155257D02*
X153594667Y-111012400D01*
X153594667Y-110298114D02*
X153666096Y-110440971D01*
X153666096Y-110440971D02*
X153737524Y-110512400D01*
X153737524Y-110512400D02*
X153880381Y-110583828D01*
X153880381Y-110583828D02*
X154308953Y-110583828D01*
X154308953Y-110583828D02*
X154451810Y-110512400D01*
X154451810Y-110512400D02*
X154523238Y-110440971D01*
X154523238Y-110440971D02*
X154594667Y-110298114D01*
X154594667Y-110298114D02*
X154594667Y-110083828D01*
X154594667Y-110083828D02*
X154523238Y-109940971D01*
X154523238Y-109940971D02*
X154451810Y-109869543D01*
X154451810Y-109869543D02*
X154308953Y-109798114D01*
X154308953Y-109798114D02*
X153880381Y-109798114D01*
X153880381Y-109798114D02*
X153737524Y-109869543D01*
X153737524Y-109869543D02*
X153666096Y-109940971D01*
X153666096Y-109940971D02*
X153594667Y-110083828D01*
X153594667Y-110083828D02*
X153594667Y-110298114D01*
X153666096Y-142466069D02*
X153594667Y-142251784D01*
X153594667Y-142251784D02*
X153594667Y-141894641D01*
X153594667Y-141894641D02*
X153666096Y-141751784D01*
X153666096Y-141751784D02*
X153737524Y-141680355D01*
X153737524Y-141680355D02*
X153880381Y-141608926D01*
X153880381Y-141608926D02*
X154023238Y-141608926D01*
X154023238Y-141608926D02*
X154166096Y-141680355D01*
X154166096Y-141680355D02*
X154237524Y-141751784D01*
X154237524Y-141751784D02*
X154308953Y-141894641D01*
X154308953Y-141894641D02*
X154380381Y-142180355D01*
X154380381Y-142180355D02*
X154451810Y-142323212D01*
X154451810Y-142323212D02*
X154523238Y-142394641D01*
X154523238Y-142394641D02*
X154666096Y-142466069D01*
X154666096Y-142466069D02*
X154808953Y-142466069D01*
X154808953Y-142466069D02*
X154951810Y-142394641D01*
X154951810Y-142394641D02*
X155023238Y-142323212D01*
X155023238Y-142323212D02*
X155094667Y-142180355D01*
X155094667Y-142180355D02*
X155094667Y-141823212D01*
X155094667Y-141823212D02*
X155023238Y-141608926D01*
X154594667Y-141108927D02*
X153594667Y-140823213D01*
X153594667Y-140823213D02*
X154308953Y-140537498D01*
X154308953Y-140537498D02*
X153594667Y-140251784D01*
X153594667Y-140251784D02*
X154594667Y-139966070D01*
X153594667Y-139394641D02*
X154594667Y-139394641D01*
X155094667Y-139394641D02*
X155023238Y-139466069D01*
X155023238Y-139466069D02*
X154951810Y-139394641D01*
X154951810Y-139394641D02*
X155023238Y-139323212D01*
X155023238Y-139323212D02*
X155094667Y-139394641D01*
X155094667Y-139394641D02*
X154951810Y-139394641D01*
X154594667Y-138894640D02*
X154594667Y-138323212D01*
X155094667Y-138680355D02*
X153808953Y-138680355D01*
X153808953Y-138680355D02*
X153666096Y-138608926D01*
X153666096Y-138608926D02*
X153594667Y-138466069D01*
X153594667Y-138466069D02*
X153594667Y-138323212D01*
X153666096Y-137180355D02*
X153594667Y-137323212D01*
X153594667Y-137323212D02*
X153594667Y-137608926D01*
X153594667Y-137608926D02*
X153666096Y-137751783D01*
X153666096Y-137751783D02*
X153737524Y-137823212D01*
X153737524Y-137823212D02*
X153880381Y-137894640D01*
X153880381Y-137894640D02*
X154308953Y-137894640D01*
X154308953Y-137894640D02*
X154451810Y-137823212D01*
X154451810Y-137823212D02*
X154523238Y-137751783D01*
X154523238Y-137751783D02*
X154594667Y-137608926D01*
X154594667Y-137608926D02*
X154594667Y-137323212D01*
X154594667Y-137323212D02*
X154523238Y-137180355D01*
X153594667Y-136537498D02*
X155094667Y-136537498D01*
X153594667Y-135894641D02*
X154380381Y-135894641D01*
X154380381Y-135894641D02*
X154523238Y-135966069D01*
X154523238Y-135966069D02*
X154594667Y-136108926D01*
X154594667Y-136108926D02*
X154594667Y-136323212D01*
X154594667Y-136323212D02*
X154523238Y-136466069D01*
X154523238Y-136466069D02*
X154451810Y-136537498D01*
X153666096Y-134108926D02*
X153594667Y-133894641D01*
X153594667Y-133894641D02*
X153594667Y-133537498D01*
X153594667Y-133537498D02*
X153666096Y-133394641D01*
X153666096Y-133394641D02*
X153737524Y-133323212D01*
X153737524Y-133323212D02*
X153880381Y-133251783D01*
X153880381Y-133251783D02*
X154023238Y-133251783D01*
X154023238Y-133251783D02*
X154166096Y-133323212D01*
X154166096Y-133323212D02*
X154237524Y-133394641D01*
X154237524Y-133394641D02*
X154308953Y-133537498D01*
X154308953Y-133537498D02*
X154380381Y-133823212D01*
X154380381Y-133823212D02*
X154451810Y-133966069D01*
X154451810Y-133966069D02*
X154523238Y-134037498D01*
X154523238Y-134037498D02*
X154666096Y-134108926D01*
X154666096Y-134108926D02*
X154808953Y-134108926D01*
X154808953Y-134108926D02*
X154951810Y-134037498D01*
X154951810Y-134037498D02*
X155023238Y-133966069D01*
X155023238Y-133966069D02*
X155094667Y-133823212D01*
X155094667Y-133823212D02*
X155094667Y-133466069D01*
X155094667Y-133466069D02*
X155023238Y-133251783D01*
X154594667Y-132823212D02*
X154594667Y-132251784D01*
X155094667Y-132608927D02*
X153808953Y-132608927D01*
X153808953Y-132608927D02*
X153666096Y-132537498D01*
X153666096Y-132537498D02*
X153594667Y-132394641D01*
X153594667Y-132394641D02*
X153594667Y-132251784D01*
X153594667Y-131751784D02*
X154594667Y-131751784D01*
X154308953Y-131751784D02*
X154451810Y-131680355D01*
X154451810Y-131680355D02*
X154523238Y-131608927D01*
X154523238Y-131608927D02*
X154594667Y-131466069D01*
X154594667Y-131466069D02*
X154594667Y-131323212D01*
X153594667Y-130180356D02*
X154380381Y-130180356D01*
X154380381Y-130180356D02*
X154523238Y-130251784D01*
X154523238Y-130251784D02*
X154594667Y-130394641D01*
X154594667Y-130394641D02*
X154594667Y-130680356D01*
X154594667Y-130680356D02*
X154523238Y-130823213D01*
X153666096Y-130180356D02*
X153594667Y-130323213D01*
X153594667Y-130323213D02*
X153594667Y-130680356D01*
X153594667Y-130680356D02*
X153666096Y-130823213D01*
X153666096Y-130823213D02*
X153808953Y-130894641D01*
X153808953Y-130894641D02*
X153951810Y-130894641D01*
X153951810Y-130894641D02*
X154094667Y-130823213D01*
X154094667Y-130823213D02*
X154166096Y-130680356D01*
X154166096Y-130680356D02*
X154166096Y-130323213D01*
X154166096Y-130323213D02*
X154237524Y-130180356D01*
X154594667Y-129680355D02*
X154594667Y-129108927D01*
X155094667Y-129466070D02*
X153808953Y-129466070D01*
X153808953Y-129466070D02*
X153666096Y-129394641D01*
X153666096Y-129394641D02*
X153594667Y-129251784D01*
X153594667Y-129251784D02*
X153594667Y-129108927D01*
X153594667Y-128394641D02*
X153666096Y-128537498D01*
X153666096Y-128537498D02*
X153737524Y-128608927D01*
X153737524Y-128608927D02*
X153880381Y-128680355D01*
X153880381Y-128680355D02*
X154308953Y-128680355D01*
X154308953Y-128680355D02*
X154451810Y-128608927D01*
X154451810Y-128608927D02*
X154523238Y-128537498D01*
X154523238Y-128537498D02*
X154594667Y-128394641D01*
X154594667Y-128394641D02*
X154594667Y-128180355D01*
X154594667Y-128180355D02*
X154523238Y-128037498D01*
X154523238Y-128037498D02*
X154451810Y-127966070D01*
X154451810Y-127966070D02*
X154308953Y-127894641D01*
X154308953Y-127894641D02*
X153880381Y-127894641D01*
X153880381Y-127894641D02*
X153737524Y-127966070D01*
X153737524Y-127966070D02*
X153666096Y-128037498D01*
X153666096Y-128037498D02*
X153594667Y-128180355D01*
X153594667Y-128180355D02*
X153594667Y-128394641D01*
X166419861Y-99690306D02*
X166419861Y-98976021D01*
X165991290Y-99833163D02*
X167491290Y-99333163D01*
X167491290Y-99333163D02*
X165991290Y-98833163D01*
X166991290Y-98333164D02*
X165491290Y-98333164D01*
X166919861Y-98333164D02*
X166991290Y-98190307D01*
X166991290Y-98190307D02*
X166991290Y-97904592D01*
X166991290Y-97904592D02*
X166919861Y-97761735D01*
X166919861Y-97761735D02*
X166848433Y-97690307D01*
X166848433Y-97690307D02*
X166705576Y-97618878D01*
X166705576Y-97618878D02*
X166277004Y-97618878D01*
X166277004Y-97618878D02*
X166134147Y-97690307D01*
X166134147Y-97690307D02*
X166062719Y-97761735D01*
X166062719Y-97761735D02*
X165991290Y-97904592D01*
X165991290Y-97904592D02*
X165991290Y-98190307D01*
X165991290Y-98190307D02*
X166062719Y-98333164D01*
X165991290Y-96761735D02*
X166062719Y-96904592D01*
X166062719Y-96904592D02*
X166134147Y-96976021D01*
X166134147Y-96976021D02*
X166277004Y-97047449D01*
X166277004Y-97047449D02*
X166705576Y-97047449D01*
X166705576Y-97047449D02*
X166848433Y-96976021D01*
X166848433Y-96976021D02*
X166919861Y-96904592D01*
X166919861Y-96904592D02*
X166991290Y-96761735D01*
X166991290Y-96761735D02*
X166991290Y-96547449D01*
X166991290Y-96547449D02*
X166919861Y-96404592D01*
X166919861Y-96404592D02*
X166848433Y-96333164D01*
X166848433Y-96333164D02*
X166705576Y-96261735D01*
X166705576Y-96261735D02*
X166277004Y-96261735D01*
X166277004Y-96261735D02*
X166134147Y-96333164D01*
X166134147Y-96333164D02*
X166062719Y-96404592D01*
X166062719Y-96404592D02*
X165991290Y-96547449D01*
X165991290Y-96547449D02*
X165991290Y-96761735D01*
X166777004Y-93976021D02*
X166705576Y-93761735D01*
X166705576Y-93761735D02*
X166634147Y-93690306D01*
X166634147Y-93690306D02*
X166491290Y-93618878D01*
X166491290Y-93618878D02*
X166277004Y-93618878D01*
X166277004Y-93618878D02*
X166134147Y-93690306D01*
X166134147Y-93690306D02*
X166062719Y-93761735D01*
X166062719Y-93761735D02*
X165991290Y-93904592D01*
X165991290Y-93904592D02*
X165991290Y-94476021D01*
X165991290Y-94476021D02*
X167491290Y-94476021D01*
X167491290Y-94476021D02*
X167491290Y-93976021D01*
X167491290Y-93976021D02*
X167419861Y-93833164D01*
X167419861Y-93833164D02*
X167348433Y-93761735D01*
X167348433Y-93761735D02*
X167205576Y-93690306D01*
X167205576Y-93690306D02*
X167062719Y-93690306D01*
X167062719Y-93690306D02*
X166919861Y-93761735D01*
X166919861Y-93761735D02*
X166848433Y-93833164D01*
X166848433Y-93833164D02*
X166777004Y-93976021D01*
X166777004Y-93976021D02*
X166777004Y-94476021D01*
X165991290Y-92118878D02*
X166705576Y-92618878D01*
X165991290Y-92976021D02*
X167491290Y-92976021D01*
X167491290Y-92976021D02*
X167491290Y-92404592D01*
X167491290Y-92404592D02*
X167419861Y-92261735D01*
X167419861Y-92261735D02*
X167348433Y-92190306D01*
X167348433Y-92190306D02*
X167205576Y-92118878D01*
X167205576Y-92118878D02*
X166991290Y-92118878D01*
X166991290Y-92118878D02*
X166848433Y-92190306D01*
X166848433Y-92190306D02*
X166777004Y-92261735D01*
X166777004Y-92261735D02*
X166705576Y-92404592D01*
X166705576Y-92404592D02*
X166705576Y-92976021D01*
X165991290Y-119207856D02*
X167491290Y-119207856D01*
X167491290Y-119207856D02*
X166419861Y-118707856D01*
X166419861Y-118707856D02*
X167491290Y-118207856D01*
X167491290Y-118207856D02*
X165991290Y-118207856D01*
X165991290Y-116850713D02*
X166777004Y-116850713D01*
X166777004Y-116850713D02*
X166919861Y-116922141D01*
X166919861Y-116922141D02*
X166991290Y-117064998D01*
X166991290Y-117064998D02*
X166991290Y-117350713D01*
X166991290Y-117350713D02*
X166919861Y-117493570D01*
X166062719Y-116850713D02*
X165991290Y-116993570D01*
X165991290Y-116993570D02*
X165991290Y-117350713D01*
X165991290Y-117350713D02*
X166062719Y-117493570D01*
X166062719Y-117493570D02*
X166205576Y-117564998D01*
X166205576Y-117564998D02*
X166348433Y-117564998D01*
X166348433Y-117564998D02*
X166491290Y-117493570D01*
X166491290Y-117493570D02*
X166562719Y-117350713D01*
X166562719Y-117350713D02*
X166562719Y-116993570D01*
X166562719Y-116993570D02*
X166634147Y-116850713D01*
X165991290Y-116136427D02*
X166991290Y-116136427D01*
X167491290Y-116136427D02*
X167419861Y-116207855D01*
X167419861Y-116207855D02*
X167348433Y-116136427D01*
X167348433Y-116136427D02*
X167419861Y-116064998D01*
X167419861Y-116064998D02*
X167491290Y-116136427D01*
X167491290Y-116136427D02*
X167348433Y-116136427D01*
X166991290Y-115422141D02*
X165991290Y-115422141D01*
X166848433Y-115422141D02*
X166919861Y-115350712D01*
X166919861Y-115350712D02*
X166991290Y-115207855D01*
X166991290Y-115207855D02*
X166991290Y-114993569D01*
X166991290Y-114993569D02*
X166919861Y-114850712D01*
X166919861Y-114850712D02*
X166777004Y-114779284D01*
X166777004Y-114779284D02*
X165991290Y-114779284D01*
X166777004Y-112422141D02*
X166705576Y-112207855D01*
X166705576Y-112207855D02*
X166634147Y-112136426D01*
X166634147Y-112136426D02*
X166491290Y-112064998D01*
X166491290Y-112064998D02*
X166277004Y-112064998D01*
X166277004Y-112064998D02*
X166134147Y-112136426D01*
X166134147Y-112136426D02*
X166062719Y-112207855D01*
X166062719Y-112207855D02*
X165991290Y-112350712D01*
X165991290Y-112350712D02*
X165991290Y-112922141D01*
X165991290Y-112922141D02*
X167491290Y-112922141D01*
X167491290Y-112922141D02*
X167491290Y-112422141D01*
X167491290Y-112422141D02*
X167419861Y-112279284D01*
X167419861Y-112279284D02*
X167348433Y-112207855D01*
X167348433Y-112207855D02*
X167205576Y-112136426D01*
X167205576Y-112136426D02*
X167062719Y-112136426D01*
X167062719Y-112136426D02*
X166919861Y-112207855D01*
X166919861Y-112207855D02*
X166848433Y-112279284D01*
X166848433Y-112279284D02*
X166777004Y-112422141D01*
X166777004Y-112422141D02*
X166777004Y-112922141D01*
X165991290Y-110564998D02*
X166705576Y-111064998D01*
X165991290Y-111422141D02*
X167491290Y-111422141D01*
X167491290Y-111422141D02*
X167491290Y-110850712D01*
X167491290Y-110850712D02*
X167419861Y-110707855D01*
X167419861Y-110707855D02*
X167348433Y-110636426D01*
X167348433Y-110636426D02*
X167205576Y-110564998D01*
X167205576Y-110564998D02*
X166991290Y-110564998D01*
X166991290Y-110564998D02*
X166848433Y-110636426D01*
X166848433Y-110636426D02*
X166777004Y-110707855D01*
X166777004Y-110707855D02*
X166705576Y-110850712D01*
X166705576Y-110850712D02*
X166705576Y-111422141D01*
X165991290Y-140137858D02*
X167491290Y-140137858D01*
X167491290Y-140137858D02*
X167491290Y-139566429D01*
X167491290Y-139566429D02*
X167419861Y-139423572D01*
X167419861Y-139423572D02*
X167348433Y-139352143D01*
X167348433Y-139352143D02*
X167205576Y-139280715D01*
X167205576Y-139280715D02*
X166991290Y-139280715D01*
X166991290Y-139280715D02*
X166848433Y-139352143D01*
X166848433Y-139352143D02*
X166777004Y-139423572D01*
X166777004Y-139423572D02*
X166705576Y-139566429D01*
X166705576Y-139566429D02*
X166705576Y-140137858D01*
X165991290Y-138423572D02*
X166062719Y-138566429D01*
X166062719Y-138566429D02*
X166134147Y-138637858D01*
X166134147Y-138637858D02*
X166277004Y-138709286D01*
X166277004Y-138709286D02*
X166705576Y-138709286D01*
X166705576Y-138709286D02*
X166848433Y-138637858D01*
X166848433Y-138637858D02*
X166919861Y-138566429D01*
X166919861Y-138566429D02*
X166991290Y-138423572D01*
X166991290Y-138423572D02*
X166991290Y-138209286D01*
X166991290Y-138209286D02*
X166919861Y-138066429D01*
X166919861Y-138066429D02*
X166848433Y-137995001D01*
X166848433Y-137995001D02*
X166705576Y-137923572D01*
X166705576Y-137923572D02*
X166277004Y-137923572D01*
X166277004Y-137923572D02*
X166134147Y-137995001D01*
X166134147Y-137995001D02*
X166062719Y-138066429D01*
X166062719Y-138066429D02*
X165991290Y-138209286D01*
X165991290Y-138209286D02*
X165991290Y-138423572D01*
X166991290Y-137423572D02*
X165991290Y-137137858D01*
X165991290Y-137137858D02*
X166705576Y-136852143D01*
X166705576Y-136852143D02*
X165991290Y-136566429D01*
X165991290Y-136566429D02*
X166991290Y-136280715D01*
X166062719Y-135137857D02*
X165991290Y-135280714D01*
X165991290Y-135280714D02*
X165991290Y-135566429D01*
X165991290Y-135566429D02*
X166062719Y-135709286D01*
X166062719Y-135709286D02*
X166205576Y-135780714D01*
X166205576Y-135780714D02*
X166777004Y-135780714D01*
X166777004Y-135780714D02*
X166919861Y-135709286D01*
X166919861Y-135709286D02*
X166991290Y-135566429D01*
X166991290Y-135566429D02*
X166991290Y-135280714D01*
X166991290Y-135280714D02*
X166919861Y-135137857D01*
X166919861Y-135137857D02*
X166777004Y-135066429D01*
X166777004Y-135066429D02*
X166634147Y-135066429D01*
X166634147Y-135066429D02*
X166491290Y-135780714D01*
X165991290Y-134423572D02*
X166991290Y-134423572D01*
X166705576Y-134423572D02*
X166848433Y-134352143D01*
X166848433Y-134352143D02*
X166919861Y-134280715D01*
X166919861Y-134280715D02*
X166991290Y-134137857D01*
X166991290Y-134137857D02*
X166991290Y-133995000D01*
X166777004Y-131852144D02*
X166705576Y-131637858D01*
X166705576Y-131637858D02*
X166634147Y-131566429D01*
X166634147Y-131566429D02*
X166491290Y-131495001D01*
X166491290Y-131495001D02*
X166277004Y-131495001D01*
X166277004Y-131495001D02*
X166134147Y-131566429D01*
X166134147Y-131566429D02*
X166062719Y-131637858D01*
X166062719Y-131637858D02*
X165991290Y-131780715D01*
X165991290Y-131780715D02*
X165991290Y-132352144D01*
X165991290Y-132352144D02*
X167491290Y-132352144D01*
X167491290Y-132352144D02*
X167491290Y-131852144D01*
X167491290Y-131852144D02*
X167419861Y-131709287D01*
X167419861Y-131709287D02*
X167348433Y-131637858D01*
X167348433Y-131637858D02*
X167205576Y-131566429D01*
X167205576Y-131566429D02*
X167062719Y-131566429D01*
X167062719Y-131566429D02*
X166919861Y-131637858D01*
X166919861Y-131637858D02*
X166848433Y-131709287D01*
X166848433Y-131709287D02*
X166777004Y-131852144D01*
X166777004Y-131852144D02*
X166777004Y-132352144D01*
X165991290Y-129995001D02*
X166705576Y-130495001D01*
X165991290Y-130852144D02*
X167491290Y-130852144D01*
X167491290Y-130852144D02*
X167491290Y-130280715D01*
X167491290Y-130280715D02*
X167419861Y-130137858D01*
X167419861Y-130137858D02*
X167348433Y-130066429D01*
X167348433Y-130066429D02*
X167205576Y-129995001D01*
X167205576Y-129995001D02*
X166991290Y-129995001D01*
X166991290Y-129995001D02*
X166848433Y-130066429D01*
X166848433Y-130066429D02*
X166777004Y-130137858D01*
X166777004Y-130137858D02*
X166705576Y-130280715D01*
X166705576Y-130280715D02*
X166705576Y-130852144D01*
D15*
%TO.C,G\u002A\u002A\u002A*%
G36*
X123171306Y-84036283D02*
G01*
X123177723Y-84046210D01*
X123230946Y-84110025D01*
X123286279Y-84154045D01*
X123296584Y-84159675D01*
X123341119Y-84192314D01*
X123338377Y-84219349D01*
X123288552Y-84248836D01*
X123272292Y-84258379D01*
X123219380Y-84308011D01*
X123171008Y-84375171D01*
X123114234Y-84473816D01*
X123084992Y-84404268D01*
X123076694Y-84387759D01*
X123029790Y-84324405D01*
X122967777Y-84264525D01*
X122879805Y-84194331D01*
X122953087Y-84149766D01*
X123018233Y-84096101D01*
X123072873Y-84028730D01*
X123119377Y-83952261D01*
X123171306Y-84036283D01*
G37*
G36*
X124261458Y-86831956D02*
G01*
X124300935Y-86888554D01*
X124331767Y-86992226D01*
X124338596Y-87022794D01*
X124407540Y-87212459D01*
X124513878Y-87370850D01*
X124654253Y-87494884D01*
X124825311Y-87581481D01*
X125023694Y-87627558D01*
X125101472Y-87642460D01*
X125168057Y-87675049D01*
X125189728Y-87720089D01*
X125164395Y-87775381D01*
X125154026Y-87785154D01*
X125091299Y-87806918D01*
X124998464Y-87807409D01*
X124886081Y-87788877D01*
X124764714Y-87753576D01*
X124644924Y-87703756D01*
X124537273Y-87641671D01*
X124407751Y-87532430D01*
X124283550Y-87374787D01*
X124196514Y-87196037D01*
X124152937Y-87006581D01*
X124148195Y-86927883D01*
X124156665Y-86875242D01*
X124181890Y-86841968D01*
X124214201Y-86823304D01*
X124261458Y-86831956D01*
G37*
G36*
X124609458Y-86807219D02*
G01*
X124653153Y-86862960D01*
X124695343Y-86967058D01*
X124710608Y-87008337D01*
X124776655Y-87123980D01*
X124862628Y-87208446D01*
X124959954Y-87252485D01*
X124971385Y-87254865D01*
X125074691Y-87278490D01*
X125138759Y-87299177D01*
X125172776Y-87320773D01*
X125185927Y-87347126D01*
X125186083Y-87374090D01*
X125164394Y-87427096D01*
X125163080Y-87428627D01*
X125108194Y-87456180D01*
X125024386Y-87458077D01*
X124923321Y-87436738D01*
X124816667Y-87394586D01*
X124716086Y-87334041D01*
X124700143Y-87321561D01*
X124627437Y-87244630D01*
X124567191Y-87150040D01*
X124523387Y-87048880D01*
X124500004Y-86952240D01*
X124501026Y-86871209D01*
X124530431Y-86816879D01*
X124562723Y-86798437D01*
X124609458Y-86807219D01*
G37*
G36*
X123921227Y-86865289D02*
G01*
X123958962Y-86928354D01*
X123981493Y-87038271D01*
X123992400Y-87104682D01*
X124050170Y-87281171D01*
X124144207Y-87456271D01*
X124266363Y-87618485D01*
X124408495Y-87756315D01*
X124562455Y-87858265D01*
X124666421Y-87902819D01*
X124800018Y-87945067D01*
X124932712Y-87974560D01*
X125043178Y-87985646D01*
X125056024Y-87985903D01*
X125135392Y-88003764D01*
X125177870Y-88046341D01*
X125178203Y-88108840D01*
X125172275Y-88123814D01*
X125149553Y-88146585D01*
X125103374Y-88157078D01*
X125020663Y-88159494D01*
X124883339Y-88150801D01*
X124658784Y-88099486D01*
X124449149Y-88006012D01*
X124259409Y-87874847D01*
X124094542Y-87710459D01*
X123959523Y-87517316D01*
X123859328Y-87299885D01*
X123798933Y-87062633D01*
X123789292Y-86991616D01*
X123787881Y-86920358D01*
X123803483Y-86878689D01*
X123838161Y-86855730D01*
X123867742Y-86848379D01*
X123921227Y-86865289D01*
G37*
G36*
X130679559Y-88584125D02*
G01*
X130735864Y-88615367D01*
X130819602Y-88687238D01*
X130930356Y-88799320D01*
X131067707Y-88951198D01*
X131231237Y-89142453D01*
X131332819Y-89267635D01*
X131515930Y-89518975D01*
X131658321Y-89754365D01*
X131758760Y-89971644D01*
X131816018Y-90168653D01*
X131816509Y-90171283D01*
X131820138Y-90230446D01*
X131800856Y-90248959D01*
X131749652Y-90238025D01*
X131658392Y-90195772D01*
X131546857Y-90127051D01*
X131422767Y-90037517D01*
X131293840Y-89932826D01*
X131167795Y-89818632D01*
X131052352Y-89700590D01*
X131046408Y-89693967D01*
X130989614Y-89624907D01*
X130916521Y-89528838D01*
X130832893Y-89414116D01*
X130744492Y-89289097D01*
X130657083Y-89162138D01*
X130576426Y-89041594D01*
X130508287Y-88935821D01*
X130458427Y-88853175D01*
X130432611Y-88802013D01*
X130431134Y-88794137D01*
X130447801Y-88748874D01*
X130492449Y-88693531D01*
X130552588Y-88639676D01*
X130615728Y-88598878D01*
X130669377Y-88582708D01*
X130679559Y-88584125D01*
G37*
G36*
X124282881Y-84214154D02*
G01*
X124330681Y-84253840D01*
X124405743Y-84319616D01*
X124503135Y-84406902D01*
X124617926Y-84511119D01*
X124745187Y-84627687D01*
X124879985Y-84752026D01*
X125017391Y-84879558D01*
X125152474Y-85005702D01*
X125280302Y-85125879D01*
X125395946Y-85235510D01*
X125494475Y-85330015D01*
X125570957Y-85404814D01*
X125620462Y-85455328D01*
X125638059Y-85476978D01*
X125637822Y-85478470D01*
X125618235Y-85509542D01*
X125571746Y-85568115D01*
X125504796Y-85646384D01*
X125423826Y-85736545D01*
X125360364Y-85804299D01*
X125271120Y-85892520D01*
X125210038Y-85941809D01*
X125177775Y-85951589D01*
X125166288Y-85943232D01*
X125120276Y-85904438D01*
X125046807Y-85839523D01*
X124950821Y-85753075D01*
X124837260Y-85649680D01*
X124711063Y-85533926D01*
X124577173Y-85410399D01*
X124440530Y-85283688D01*
X124306075Y-85158380D01*
X124178750Y-85039062D01*
X124063495Y-84930320D01*
X123965251Y-84836743D01*
X123888959Y-84762918D01*
X123839561Y-84713432D01*
X123821997Y-84692871D01*
X123827127Y-84682199D01*
X123858871Y-84640109D01*
X123912903Y-84575849D01*
X123981413Y-84497984D01*
X124056588Y-84415075D01*
X124130618Y-84335686D01*
X124195692Y-84268377D01*
X124243999Y-84221713D01*
X124267728Y-84204256D01*
X124282881Y-84214154D01*
G37*
G36*
X126442931Y-86229063D02*
G01*
X126483503Y-86261760D01*
X126552649Y-86321119D01*
X126645411Y-86402633D01*
X126756832Y-86501795D01*
X126881957Y-86614095D01*
X127015827Y-86735027D01*
X127153486Y-86860082D01*
X127289978Y-86984752D01*
X127420345Y-87104530D01*
X127539631Y-87214908D01*
X127642879Y-87311376D01*
X127725132Y-87389429D01*
X127781432Y-87444557D01*
X127806825Y-87472254D01*
X127808959Y-87476581D01*
X127805711Y-87502865D01*
X127780243Y-87545698D01*
X127729085Y-87609503D01*
X127648768Y-87698704D01*
X127535822Y-87817723D01*
X127495786Y-87859002D01*
X127431326Y-87924089D01*
X127385082Y-87968939D01*
X127365093Y-87985646D01*
X127349928Y-87973742D01*
X127302561Y-87932120D01*
X127227924Y-87864949D01*
X127130924Y-87776762D01*
X127016469Y-87672095D01*
X126889465Y-87555482D01*
X126754822Y-87431457D01*
X126617446Y-87304554D01*
X126482245Y-87179309D01*
X126354127Y-87060255D01*
X126238000Y-86951927D01*
X126138770Y-86858858D01*
X126061346Y-86785585D01*
X126010635Y-86736640D01*
X125991545Y-86716559D01*
X125995484Y-86707043D01*
X126025108Y-86666937D01*
X126077129Y-86604154D01*
X126143956Y-86527140D01*
X126217993Y-86444336D01*
X126291648Y-86364187D01*
X126357328Y-86295137D01*
X126407440Y-86245630D01*
X126434390Y-86224109D01*
X126442931Y-86229063D01*
G37*
G36*
X125853728Y-85506760D02*
G01*
X125904156Y-85535201D01*
X125947749Y-85555856D01*
X125995501Y-85557901D01*
X126022645Y-85560610D01*
X126082981Y-85595564D01*
X126165158Y-85663636D01*
X126173987Y-85671717D01*
X126258843Y-85750932D01*
X126312608Y-85806388D01*
X126341261Y-85846239D01*
X126350785Y-85878639D01*
X126347161Y-85911742D01*
X126346769Y-85947689D01*
X126372188Y-85995640D01*
X126391879Y-86016661D01*
X126409264Y-86056846D01*
X126399500Y-86074402D01*
X126361991Y-86123269D01*
X126302656Y-86194740D01*
X126228244Y-86281245D01*
X126145503Y-86375213D01*
X126061183Y-86469072D01*
X125982031Y-86555252D01*
X125914797Y-86626183D01*
X125866228Y-86674294D01*
X125843074Y-86692013D01*
X125836297Y-86689630D01*
X125798470Y-86666282D01*
X125742899Y-86626083D01*
X125656461Y-86560153D01*
X125721893Y-86671804D01*
X125757980Y-86744622D01*
X125783994Y-86839772D01*
X125779505Y-86916118D01*
X125743789Y-86963993D01*
X125743225Y-86964322D01*
X125669839Y-86979183D01*
X125565590Y-86958003D01*
X125433277Y-86901348D01*
X125416119Y-86892756D01*
X125314649Y-86852210D01*
X125235174Y-86843909D01*
X125165260Y-86866223D01*
X125158384Y-86869691D01*
X125115393Y-86875874D01*
X125100797Y-86845352D01*
X125117943Y-86783944D01*
X125120333Y-86778508D01*
X125129341Y-86742315D01*
X125122131Y-86700727D01*
X125094845Y-86641786D01*
X125043626Y-86553533D01*
X125032998Y-86535739D01*
X124974208Y-86425518D01*
X124946890Y-86343564D01*
X124949522Y-86282152D01*
X124980581Y-86233555D01*
X125031924Y-86201761D01*
X125105640Y-86199709D01*
X125206539Y-86231778D01*
X125272046Y-86256962D01*
X125318384Y-86266624D01*
X125324358Y-86250689D01*
X125291503Y-86208742D01*
X125256155Y-86158245D01*
X125254396Y-86115451D01*
X125260281Y-86106476D01*
X125297733Y-86058501D01*
X125357527Y-85988168D01*
X125432775Y-85902955D01*
X125516591Y-85810339D01*
X125602090Y-85717795D01*
X125682384Y-85632802D01*
X125750588Y-85562835D01*
X125799816Y-85515372D01*
X125823180Y-85497889D01*
X125853728Y-85506760D01*
G37*
G36*
X126217183Y-82103366D02*
G01*
X126612972Y-82165531D01*
X126842367Y-82220352D01*
X127231921Y-82352417D01*
X127607017Y-82528586D01*
X127963705Y-82745709D01*
X128298038Y-83000636D01*
X128606065Y-83290216D01*
X128883839Y-83611299D01*
X129127410Y-83960735D01*
X129332830Y-84335374D01*
X129441332Y-84583349D01*
X129529073Y-84837527D01*
X129594130Y-85099669D01*
X129638486Y-85379662D01*
X129664121Y-85687396D01*
X129673018Y-86032757D01*
X129674467Y-86480553D01*
X129822640Y-86684592D01*
X129905335Y-86796532D01*
X130051665Y-86982321D01*
X130187294Y-87135230D01*
X130319823Y-87262913D01*
X130456854Y-87373021D01*
X130605988Y-87473207D01*
X130640099Y-87494425D01*
X130901341Y-87662397D01*
X131124915Y-87816510D01*
X131309250Y-87955518D01*
X131452776Y-88078177D01*
X131553921Y-88183243D01*
X131611116Y-88269471D01*
X131636301Y-88334232D01*
X131654696Y-88408524D01*
X131656415Y-88462441D01*
X131639773Y-88483402D01*
X131611068Y-88478834D01*
X131541461Y-88465834D01*
X131438994Y-88445949D01*
X131311651Y-88420729D01*
X131167415Y-88391723D01*
X130713716Y-88299841D01*
X130540202Y-88418398D01*
X130527885Y-88426873D01*
X130430766Y-88497147D01*
X130338452Y-88569046D01*
X130269428Y-88628245D01*
X130172169Y-88719535D01*
X130131574Y-89163621D01*
X130119280Y-89292639D01*
X130105822Y-89422031D01*
X130093675Y-89526968D01*
X130083812Y-89599077D01*
X130077211Y-89629985D01*
X130073202Y-89634364D01*
X130037056Y-89634599D01*
X129980158Y-89606896D01*
X129913670Y-89557888D01*
X129848755Y-89494212D01*
X129809911Y-89440014D01*
X129749059Y-89324542D01*
X129681246Y-89164992D01*
X129607566Y-88964203D01*
X129529113Y-88725017D01*
X129446980Y-88450276D01*
X129391780Y-88264179D01*
X129338589Y-88100464D01*
X129294085Y-87982139D01*
X129258695Y-87910323D01*
X129232842Y-87886136D01*
X129231054Y-87887639D01*
X129210539Y-87917158D01*
X129173104Y-87976663D01*
X129125226Y-88055932D01*
X129103443Y-88091618D01*
X129024813Y-88210019D01*
X128930239Y-88340768D01*
X128824742Y-88478021D01*
X128713346Y-88615935D01*
X128601070Y-88748665D01*
X128492938Y-88870367D01*
X128393971Y-88975197D01*
X128309191Y-89057311D01*
X128243618Y-89110865D01*
X128202276Y-89130015D01*
X128192567Y-89128571D01*
X128144103Y-89103256D01*
X128089451Y-89056374D01*
X128018898Y-88982733D01*
X128304806Y-88701869D01*
X128508384Y-88492344D01*
X128682812Y-88289859D01*
X128837295Y-88082228D01*
X128983662Y-87854688D01*
X129100194Y-87661536D01*
X129013069Y-87543718D01*
X128942427Y-87447854D01*
X128643732Y-87034070D01*
X128377700Y-86650870D01*
X128144788Y-86298984D01*
X127945452Y-85979139D01*
X127780152Y-85692064D01*
X127649343Y-85438487D01*
X127553484Y-85219139D01*
X127542483Y-85190234D01*
X127500182Y-85071391D01*
X127456103Y-84937508D01*
X127412777Y-84797466D01*
X127372736Y-84660146D01*
X127338511Y-84534431D01*
X127312632Y-84429203D01*
X127297632Y-84353344D01*
X127296040Y-84315735D01*
X127309952Y-84296643D01*
X127355384Y-84278888D01*
X127357987Y-84279044D01*
X127403708Y-84296263D01*
X127480748Y-84338470D01*
X127581831Y-84400688D01*
X127699682Y-84477939D01*
X127827024Y-84565245D01*
X127956582Y-84657628D01*
X128081080Y-84750110D01*
X128193242Y-84837713D01*
X128285793Y-84915459D01*
X128334452Y-84959436D01*
X128483751Y-85102333D01*
X128649766Y-85270683D01*
X128822785Y-85454063D01*
X128993099Y-85642047D01*
X129150998Y-85824210D01*
X129286771Y-85990127D01*
X129289418Y-85993488D01*
X129364344Y-86088203D01*
X129429161Y-86169320D01*
X129477014Y-86228313D01*
X129501050Y-86256655D01*
X129507702Y-86250460D01*
X129513282Y-86204498D01*
X129515723Y-86123132D01*
X129515333Y-86014383D01*
X129512418Y-85886272D01*
X129507285Y-85746820D01*
X129500241Y-85604047D01*
X129491593Y-85465974D01*
X129481648Y-85340621D01*
X129470712Y-85236009D01*
X129459094Y-85160159D01*
X129454532Y-85137948D01*
X129348893Y-84753558D01*
X129195967Y-84382800D01*
X128996770Y-84027500D01*
X128752317Y-83689481D01*
X128463622Y-83370570D01*
X128360530Y-83271063D01*
X128033898Y-82994369D01*
X127694255Y-82764683D01*
X127338430Y-82580525D01*
X126963250Y-82440411D01*
X126565541Y-82342861D01*
X126142132Y-82286393D01*
X126091679Y-82282510D01*
X125662412Y-82276023D01*
X125244533Y-82317950D01*
X124838206Y-82408234D01*
X124443595Y-82546820D01*
X124060866Y-82733650D01*
X123690183Y-82968669D01*
X123331709Y-83251819D01*
X123285616Y-83291418D01*
X123212648Y-83351459D01*
X123158241Y-83392789D01*
X123131652Y-83408173D01*
X123113154Y-83390685D01*
X123080073Y-83339182D01*
X123040972Y-83265568D01*
X122971032Y-83122963D01*
X123054448Y-83053195D01*
X123236609Y-82910981D01*
X123463410Y-82754054D01*
X123705503Y-82603939D01*
X123950451Y-82467904D01*
X124185817Y-82353220D01*
X124399162Y-82267158D01*
X124673949Y-82186016D01*
X125035729Y-82116485D01*
X125419542Y-82079257D01*
X125816367Y-82074746D01*
X126217183Y-82103366D01*
G37*
%TO.C,DZ1*%
D16*
X117494821Y-116443186D02*
X114022059Y-118448186D01*
X117494821Y-116443186D02*
X118494821Y-118175237D01*
X118494821Y-118175237D02*
X115022059Y-120180236D01*
D15*
%TO.C,G\u002A\u002A\u002A*%
G36*
X127721669Y-97908612D02*
G01*
X127933257Y-97913344D01*
X128068033Y-98123898D01*
X128089171Y-98157015D01*
X128134002Y-98227929D01*
X128170056Y-98285908D01*
X128194077Y-98325681D01*
X128202808Y-98341979D01*
X128202514Y-98342497D01*
X128182954Y-98346048D01*
X128138802Y-98348555D01*
X128078554Y-98349506D01*
X127954301Y-98349506D01*
X127732191Y-98126692D01*
X127510081Y-97903879D01*
X127721669Y-97908612D01*
G37*
G36*
X122919057Y-99434339D02*
G01*
X122940021Y-99486947D01*
X122967564Y-99549510D01*
X123003330Y-99595667D01*
X123054899Y-99629437D01*
X123131360Y-99658993D01*
X123132626Y-99659413D01*
X123148309Y-99668087D01*
X123138284Y-99678320D01*
X123098949Y-99694000D01*
X123065237Y-99706928D01*
X123014200Y-99735184D01*
X122978695Y-99774588D01*
X122946912Y-99836185D01*
X122913411Y-99911753D01*
X122891787Y-99848851D01*
X122888884Y-99840573D01*
X122859239Y-99777013D01*
X122818658Y-99734019D01*
X122755943Y-99699261D01*
X122688406Y-99668984D01*
X122762251Y-99639436D01*
X122791082Y-99626466D01*
X122835974Y-99592581D01*
X122867898Y-99539866D01*
X122874969Y-99523311D01*
X122893136Y-99469501D01*
X122901092Y-99427081D01*
X122901180Y-99425055D01*
X122906288Y-99413983D01*
X122919057Y-99434339D01*
G37*
G36*
X131656719Y-100684253D02*
G01*
X131658875Y-100694332D01*
X131693387Y-100816327D01*
X131736552Y-100905501D01*
X131788295Y-100961698D01*
X131822231Y-100981089D01*
X131892793Y-101010170D01*
X131980836Y-101038009D01*
X132076707Y-101061272D01*
X132084295Y-101062966D01*
X132109013Y-101073907D01*
X132101004Y-101086101D01*
X132061480Y-101098833D01*
X131991653Y-101111390D01*
X131941261Y-101120072D01*
X131865081Y-101142217D01*
X131804740Y-101176450D01*
X131756555Y-101227178D01*
X131716844Y-101298803D01*
X131681927Y-101395732D01*
X131648122Y-101522368D01*
X131635747Y-101573681D01*
X131620301Y-101505263D01*
X131600738Y-101422554D01*
X131575345Y-101332330D01*
X131549533Y-101266347D01*
X131520392Y-101218977D01*
X131485012Y-101184590D01*
X131440482Y-101157561D01*
X131423273Y-101149699D01*
X131358512Y-101127502D01*
X131292237Y-101112734D01*
X131264941Y-101108470D01*
X131215442Y-101099251D01*
X131185433Y-101091590D01*
X131179635Y-101088949D01*
X131169438Y-101073298D01*
X131184901Y-101058542D01*
X131219693Y-101051997D01*
X131223452Y-101051936D01*
X131282242Y-101042119D01*
X131354429Y-101019154D01*
X131425957Y-100988245D01*
X131482769Y-100954596D01*
X131512621Y-100928159D01*
X131553156Y-100871100D01*
X131585821Y-100791778D01*
X131613489Y-100684253D01*
X131635181Y-100581627D01*
X131656719Y-100684253D01*
G37*
G36*
X135606537Y-101059026D02*
G01*
X135890207Y-101059226D01*
X136159477Y-101059533D01*
X136412822Y-101059940D01*
X136648720Y-101060440D01*
X136865646Y-101061027D01*
X137062076Y-101061693D01*
X137236488Y-101062433D01*
X137387356Y-101063239D01*
X137513159Y-101064105D01*
X137612370Y-101065025D01*
X137683468Y-101065991D01*
X137724929Y-101066996D01*
X137735228Y-101068036D01*
X137712841Y-101069102D01*
X137691303Y-101069646D01*
X137596938Y-101071393D01*
X137472254Y-101072980D01*
X137320256Y-101074405D01*
X137143950Y-101075669D01*
X136946341Y-101076771D01*
X136730435Y-101077710D01*
X136499237Y-101078485D01*
X136255754Y-101079096D01*
X136002990Y-101079542D01*
X135743950Y-101079823D01*
X135481642Y-101079937D01*
X135219069Y-101079885D01*
X134959239Y-101079665D01*
X134705155Y-101079277D01*
X134459824Y-101078720D01*
X134226251Y-101077994D01*
X134007442Y-101077099D01*
X133806402Y-101076032D01*
X133626137Y-101074795D01*
X133469653Y-101073385D01*
X133339954Y-101071803D01*
X133240047Y-101070048D01*
X133202138Y-101068962D01*
X133188158Y-101067729D01*
X133205839Y-101066547D01*
X133253804Y-101065423D01*
X133330677Y-101064365D01*
X133435083Y-101063379D01*
X133565645Y-101062473D01*
X133720988Y-101061654D01*
X133899734Y-101060929D01*
X134100510Y-101060305D01*
X134321937Y-101059789D01*
X134562640Y-101059389D01*
X134821243Y-101059110D01*
X135096371Y-101058962D01*
X135386646Y-101058949D01*
X135606537Y-101059026D01*
G37*
G36*
X128012344Y-98452172D02*
G01*
X128105192Y-98453078D01*
X128169596Y-98455490D01*
X128210044Y-98459826D01*
X128231021Y-98466502D01*
X128237017Y-98475934D01*
X128226352Y-98494296D01*
X128194256Y-98510469D01*
X128151495Y-98521201D01*
X128151495Y-99247485D01*
X128151495Y-99973770D01*
X128194256Y-99984502D01*
X128218645Y-99994664D01*
X128237024Y-100019851D01*
X128225614Y-100048540D01*
X128221633Y-100050130D01*
X128190097Y-100053995D01*
X128133202Y-100057109D01*
X128057376Y-100059187D01*
X127969048Y-100059943D01*
X127942542Y-100059934D01*
X127854077Y-100059520D01*
X127793350Y-100057959D01*
X127755164Y-100054525D01*
X127734323Y-100048493D01*
X127725628Y-100039138D01*
X127723885Y-100025735D01*
X127728631Y-100005762D01*
X127748940Y-99991526D01*
X127754844Y-99991235D01*
X127768445Y-99986784D01*
X127779597Y-99974654D01*
X127788540Y-99951900D01*
X127795514Y-99915571D01*
X127800757Y-99862722D01*
X127804510Y-99790403D01*
X127807012Y-99695668D01*
X127808502Y-99575568D01*
X127809221Y-99427157D01*
X127809407Y-99247485D01*
X127809383Y-99174842D01*
X127809022Y-99007482D01*
X127808036Y-98870255D01*
X127806187Y-98760211D01*
X127803234Y-98674403D01*
X127798939Y-98609884D01*
X127793062Y-98563705D01*
X127785363Y-98532920D01*
X127775603Y-98514580D01*
X127763542Y-98505737D01*
X127748940Y-98503445D01*
X127737269Y-98500472D01*
X127723885Y-98477788D01*
X127725279Y-98471691D01*
X127736442Y-98463382D01*
X127762787Y-98457747D01*
X127809066Y-98454310D01*
X127880036Y-98452597D01*
X127980451Y-98452132D01*
X128012344Y-98452172D01*
G37*
G36*
X129034273Y-101034969D02*
G01*
X129217334Y-101035462D01*
X129400594Y-101036519D01*
X129580924Y-101038078D01*
X129755198Y-101040082D01*
X129920286Y-101042470D01*
X130073060Y-101045182D01*
X130210394Y-101048160D01*
X130329159Y-101051343D01*
X130426227Y-101054672D01*
X130498471Y-101058088D01*
X130542761Y-101061530D01*
X130555971Y-101064940D01*
X130555166Y-101065485D01*
X130531945Y-101071293D01*
X130484966Y-101078945D01*
X130423303Y-101086938D01*
X130409285Y-101087872D01*
X130359395Y-101089315D01*
X130279004Y-101090546D01*
X130170461Y-101091574D01*
X130036112Y-101092404D01*
X129878307Y-101093044D01*
X129699394Y-101093501D01*
X129501720Y-101093782D01*
X129287633Y-101093893D01*
X129059483Y-101093842D01*
X128819615Y-101093636D01*
X128570380Y-101093282D01*
X128314125Y-101092787D01*
X128053197Y-101092157D01*
X127789946Y-101091399D01*
X127526719Y-101090522D01*
X127265863Y-101089531D01*
X127009729Y-101088433D01*
X126760662Y-101087237D01*
X126521012Y-101085947D01*
X126293126Y-101084573D01*
X126079353Y-101083119D01*
X125882041Y-101081595D01*
X125703537Y-101080005D01*
X125546191Y-101078359D01*
X125412349Y-101076661D01*
X125304360Y-101074920D01*
X125224572Y-101073143D01*
X125175333Y-101071336D01*
X125167157Y-101070713D01*
X125170641Y-101069097D01*
X125205179Y-101067338D01*
X125268539Y-101065457D01*
X125358489Y-101063475D01*
X125472799Y-101061414D01*
X125609237Y-101059295D01*
X125765572Y-101057140D01*
X125939574Y-101054969D01*
X126129010Y-101052805D01*
X126331649Y-101050668D01*
X126545262Y-101048580D01*
X126767615Y-101046562D01*
X126996478Y-101044636D01*
X127229621Y-101042823D01*
X127464811Y-101041144D01*
X127699817Y-101039620D01*
X127932409Y-101038273D01*
X128160355Y-101037125D01*
X128381424Y-101036196D01*
X128593385Y-101035508D01*
X128794006Y-101035082D01*
X128981057Y-101034940D01*
X129034273Y-101034969D01*
G37*
G36*
X138854106Y-98452321D02*
G01*
X138936038Y-98453516D01*
X138991606Y-98456207D01*
X139025495Y-98460847D01*
X139042392Y-98467890D01*
X139046983Y-98477788D01*
X139041999Y-98491741D01*
X139016195Y-98503445D01*
X139011923Y-98503467D01*
X138995380Y-98504824D01*
X138981784Y-98510458D01*
X138970846Y-98523361D01*
X138962278Y-98546528D01*
X138955789Y-98582950D01*
X138951092Y-98635622D01*
X138947896Y-98707537D01*
X138945914Y-98801687D01*
X138944856Y-98921067D01*
X138944433Y-99068668D01*
X138944357Y-99247485D01*
X138944359Y-99297735D01*
X138944494Y-99468039D01*
X138945048Y-99607915D01*
X138946317Y-99720358D01*
X138948593Y-99808361D01*
X138952171Y-99874918D01*
X138957345Y-99923021D01*
X138964409Y-99955666D01*
X138973658Y-99975845D01*
X138985384Y-99986552D01*
X138999884Y-99990781D01*
X139017449Y-99991526D01*
X139037136Y-99996420D01*
X139043730Y-100021459D01*
X139041389Y-100027419D01*
X139033966Y-100033533D01*
X139018749Y-100038574D01*
X138992803Y-100042672D01*
X138953192Y-100045958D01*
X138896983Y-100048559D01*
X138821239Y-100050607D01*
X138723027Y-100052229D01*
X138599410Y-100053556D01*
X138447455Y-100054717D01*
X138264226Y-100055842D01*
X138263943Y-100055843D01*
X138079047Y-100057023D01*
X137925544Y-100058316D01*
X137800626Y-100059830D01*
X137701481Y-100061675D01*
X137625300Y-100063960D01*
X137569272Y-100066792D01*
X137530587Y-100070281D01*
X137506434Y-100074535D01*
X137494004Y-100079663D01*
X137490485Y-100085774D01*
X137484063Y-100100645D01*
X137456276Y-100111257D01*
X137444675Y-100110169D01*
X137434165Y-100102697D01*
X137427539Y-100083247D01*
X137423906Y-100046260D01*
X137422379Y-99986181D01*
X137422067Y-99897452D01*
X137422241Y-99824948D01*
X137423437Y-99759261D01*
X137426549Y-99717844D01*
X137432466Y-99695141D01*
X137442079Y-99685594D01*
X137456276Y-99683647D01*
X137476199Y-99688363D01*
X137490485Y-99709727D01*
X137491945Y-99719896D01*
X137501985Y-99733984D01*
X137524254Y-99745185D01*
X137561892Y-99753809D01*
X137618037Y-99760168D01*
X137695828Y-99764572D01*
X137798403Y-99767333D01*
X137928903Y-99768762D01*
X138090465Y-99769169D01*
X138602696Y-99769169D01*
X138598206Y-99149135D01*
X138593717Y-98529102D01*
X138555232Y-98512217D01*
X138530695Y-98496460D01*
X138516747Y-98473733D01*
X138524138Y-98465509D01*
X138550544Y-98459194D01*
X138599776Y-98455065D01*
X138675621Y-98452814D01*
X138781865Y-98452132D01*
X138854106Y-98452321D01*
G37*
G36*
X123135409Y-98550482D02*
G01*
X123135544Y-98565093D01*
X123138736Y-98592840D01*
X123146861Y-98626961D01*
X123161301Y-98670963D01*
X123183443Y-98728355D01*
X123214669Y-98802643D01*
X123256363Y-98897336D01*
X123309910Y-99015940D01*
X123376694Y-99161964D01*
X123378571Y-99166053D01*
X123462557Y-99348874D01*
X123533605Y-99503098D01*
X123592956Y-99631200D01*
X123641851Y-99735652D01*
X123681529Y-99818929D01*
X123713233Y-99883502D01*
X123738202Y-99931847D01*
X123757677Y-99966435D01*
X123772899Y-99989741D01*
X123785109Y-100004238D01*
X123795547Y-100012399D01*
X123805454Y-100016697D01*
X123826903Y-100028442D01*
X123841192Y-100052544D01*
X123839954Y-100057657D01*
X123828306Y-100065758D01*
X123800638Y-100071327D01*
X123752407Y-100074785D01*
X123679067Y-100076552D01*
X123576074Y-100077048D01*
X123503833Y-100076858D01*
X123421901Y-100075663D01*
X123366333Y-100072973D01*
X123332444Y-100068333D01*
X123315547Y-100061290D01*
X123310956Y-100051391D01*
X123313671Y-100039471D01*
X123334518Y-100025735D01*
X123350011Y-100021947D01*
X123379122Y-100000382D01*
X123382762Y-99989187D01*
X123380276Y-99967650D01*
X123370174Y-99933135D01*
X123351264Y-99882663D01*
X123322356Y-99813252D01*
X123282256Y-99721924D01*
X123229776Y-99605698D01*
X123163721Y-99461594D01*
X123125005Y-99377820D01*
X123070828Y-99261649D01*
X123022129Y-99158465D01*
X122980653Y-99071897D01*
X122948142Y-99005572D01*
X122926339Y-98963117D01*
X122916987Y-98948159D01*
X122909431Y-98958742D01*
X122889226Y-98996398D01*
X122858787Y-99057090D01*
X122820176Y-99136385D01*
X122775457Y-99229847D01*
X122726691Y-99333042D01*
X122675943Y-99441536D01*
X122625274Y-99550895D01*
X122576748Y-99656684D01*
X122532427Y-99754467D01*
X122494375Y-99839812D01*
X122464653Y-99908284D01*
X122445325Y-99955447D01*
X122438454Y-99976868D01*
X122441571Y-99991245D01*
X122464289Y-100014816D01*
X122476108Y-100022315D01*
X122489946Y-100050854D01*
X122487672Y-100058672D01*
X122475089Y-100066535D01*
X122447250Y-100071836D01*
X122399417Y-100075043D01*
X122326855Y-100076625D01*
X122224828Y-100077048D01*
X122158664Y-100076887D01*
X122074671Y-100075735D01*
X122017418Y-100073094D01*
X121982266Y-100068524D01*
X121964576Y-100061583D01*
X121959710Y-100051830D01*
X121959721Y-100051292D01*
X121974228Y-100026338D01*
X122007979Y-100001652D01*
X122013000Y-99998644D01*
X122027588Y-99985445D01*
X122045215Y-99962495D01*
X122067271Y-99927120D01*
X122095146Y-99876646D01*
X122130229Y-99808400D01*
X122173909Y-99719707D01*
X122227576Y-99607894D01*
X122292621Y-99470286D01*
X122370432Y-99304210D01*
X122439890Y-99155252D01*
X122504618Y-99015495D01*
X122556993Y-98900908D01*
X122598263Y-98808478D01*
X122629676Y-98735193D01*
X122652479Y-98678039D01*
X122667920Y-98634005D01*
X122677246Y-98600075D01*
X122681705Y-98573239D01*
X122682545Y-98550482D01*
X122680473Y-98469236D01*
X122909003Y-98469236D01*
X123137533Y-98469236D01*
X123135409Y-98550482D01*
G37*
G36*
X133795939Y-99247485D02*
G01*
X133795939Y-99975268D01*
X133838700Y-99991526D01*
X133856688Y-99999528D01*
X133880383Y-100022583D01*
X133870058Y-100048540D01*
X133864739Y-100050414D01*
X133831051Y-100054176D01*
X133772317Y-100057199D01*
X133694845Y-100059212D01*
X133604940Y-100059943D01*
X133574306Y-100059930D01*
X133484903Y-100059478D01*
X133423186Y-100057890D01*
X133384057Y-100054505D01*
X133362419Y-100048657D01*
X133353174Y-100039685D01*
X133351225Y-100026924D01*
X133357536Y-100005383D01*
X133389710Y-99988439D01*
X133391432Y-99988191D01*
X133404919Y-99984933D01*
X133414727Y-99976502D01*
X133421550Y-99958061D01*
X133426083Y-99924770D01*
X133429019Y-99871790D01*
X133431053Y-99794283D01*
X133432877Y-99687409D01*
X133437559Y-99391845D01*
X133220840Y-99396635D01*
X133004121Y-99401425D01*
X132810388Y-99675095D01*
X132802698Y-99685970D01*
X132743760Y-99770060D01*
X132692609Y-99844325D01*
X132652277Y-99904267D01*
X132625796Y-99945390D01*
X132616196Y-99963195D01*
X132622442Y-99973343D01*
X132649946Y-99986570D01*
X132669708Y-99997632D01*
X132684155Y-100027730D01*
X132683570Y-100035216D01*
X132677891Y-100045068D01*
X132662145Y-100051893D01*
X132631505Y-100056242D01*
X132581141Y-100058666D01*
X132506226Y-100059716D01*
X132401932Y-100059943D01*
X132329929Y-100059866D01*
X132245538Y-100059193D01*
X132187338Y-100057347D01*
X132150494Y-100053764D01*
X132130167Y-100047876D01*
X132121518Y-100039118D01*
X132119710Y-100026924D01*
X132125576Y-100006085D01*
X132156431Y-99988439D01*
X132174126Y-99978419D01*
X132208216Y-99944205D01*
X132257218Y-99884615D01*
X132322146Y-99798402D01*
X132404016Y-99684320D01*
X132614878Y-99385667D01*
X132512282Y-99348517D01*
X132478356Y-99335636D01*
X132366125Y-99280475D01*
X132283955Y-99214639D01*
X132228932Y-99134214D01*
X132198141Y-99035289D01*
X132191841Y-98954570D01*
X132534181Y-98954570D01*
X132548525Y-99005717D01*
X132549695Y-99009059D01*
X132571322Y-99054699D01*
X132603962Y-99087667D01*
X132658498Y-99119192D01*
X132669484Y-99124615D01*
X132699300Y-99137881D01*
X132729950Y-99147744D01*
X132766996Y-99154830D01*
X132816000Y-99159769D01*
X132882525Y-99163189D01*
X132972132Y-99165718D01*
X133090384Y-99167985D01*
X133436747Y-99174028D01*
X133436747Y-98941363D01*
X133436747Y-98708698D01*
X133139755Y-98708698D01*
X133023604Y-98709504D01*
X132891948Y-98713726D01*
X132787847Y-98722494D01*
X132707526Y-98736841D01*
X132647211Y-98757802D01*
X132603124Y-98786412D01*
X132571491Y-98823707D01*
X132548537Y-98870719D01*
X132534861Y-98914396D01*
X132534181Y-98954570D01*
X132191841Y-98954570D01*
X132188670Y-98913950D01*
X132198176Y-98804053D01*
X132233662Y-98694830D01*
X132296157Y-98606338D01*
X132386437Y-98537530D01*
X132505279Y-98487362D01*
X132528325Y-98480524D01*
X132559842Y-98472605D01*
X132594466Y-98466305D01*
X132636085Y-98461442D01*
X132688586Y-98457831D01*
X132755858Y-98455289D01*
X132841788Y-98453632D01*
X132950263Y-98452676D01*
X133085172Y-98452237D01*
X133250401Y-98452132D01*
X133364631Y-98452238D01*
X133519352Y-98452924D01*
X133643443Y-98454416D01*
X133739098Y-98456902D01*
X133808510Y-98460576D01*
X133853873Y-98465628D01*
X133877380Y-98472250D01*
X133881225Y-98480632D01*
X133867600Y-98490967D01*
X133838700Y-98503445D01*
X133795939Y-98519703D01*
X133795939Y-98941363D01*
X133795939Y-99247485D01*
G37*
G36*
X140098391Y-98376701D02*
G01*
X140124567Y-98405095D01*
X140155715Y-98443580D01*
X140884177Y-98448715D01*
X140886192Y-98448729D01*
X141067535Y-98450180D01*
X141217404Y-98451805D01*
X141338507Y-98453708D01*
X141433550Y-98455993D01*
X141505242Y-98458766D01*
X141556289Y-98462131D01*
X141589400Y-98466191D01*
X141607281Y-98471052D01*
X141612639Y-98476818D01*
X141609707Y-98488574D01*
X141586983Y-98509630D01*
X141581105Y-98523814D01*
X141575012Y-98568567D01*
X141569846Y-98639550D01*
X141565605Y-98732446D01*
X141562292Y-98842938D01*
X141559904Y-98966711D01*
X141558443Y-99099449D01*
X141557909Y-99236835D01*
X141558301Y-99374553D01*
X141559619Y-99508288D01*
X141561863Y-99633723D01*
X141565035Y-99746543D01*
X141569132Y-99842430D01*
X141574156Y-99917070D01*
X141580106Y-99966145D01*
X141586983Y-99985340D01*
X141600734Y-99995695D01*
X141612639Y-100027565D01*
X141612633Y-100028368D01*
X141611239Y-100035977D01*
X141605343Y-100042255D01*
X141591973Y-100047329D01*
X141568160Y-100051329D01*
X141530932Y-100054381D01*
X141477319Y-100056612D01*
X141404351Y-100058152D01*
X141309057Y-100059127D01*
X141188465Y-100059666D01*
X141039607Y-100059895D01*
X140859510Y-100059943D01*
X140702689Y-100060029D01*
X140546913Y-100060404D01*
X140419996Y-100061168D01*
X140319045Y-100062419D01*
X140241166Y-100064255D01*
X140183463Y-100066772D01*
X140143043Y-100070067D01*
X140117011Y-100074239D01*
X140102473Y-100079384D01*
X140096535Y-100085600D01*
X140089268Y-100097460D01*
X140062863Y-100111257D01*
X140054806Y-100107689D01*
X140047101Y-100089539D01*
X140042263Y-100051662D01*
X140039754Y-99989240D01*
X140039037Y-99897452D01*
X140040185Y-99813827D01*
X140043556Y-99745015D01*
X140048750Y-99699866D01*
X140055364Y-99683647D01*
X140057330Y-99683886D01*
X140081565Y-99697755D01*
X140114452Y-99726408D01*
X140157212Y-99769169D01*
X140688752Y-99769169D01*
X141220292Y-99769169D01*
X141215489Y-99559640D01*
X141210687Y-99350112D01*
X140902808Y-99350266D01*
X140854165Y-99350345D01*
X140738494Y-99351361D01*
X140651284Y-99354103D01*
X140588298Y-99359274D01*
X140545301Y-99367582D01*
X140518055Y-99379732D01*
X140502323Y-99396429D01*
X140493869Y-99418380D01*
X140480427Y-99446691D01*
X140457768Y-99461290D01*
X140454233Y-99460863D01*
X140445015Y-99452279D01*
X140438741Y-99428945D01*
X140434896Y-99386000D01*
X140432966Y-99318582D01*
X140432437Y-99221829D01*
X140432495Y-99183887D01*
X140433437Y-99098270D01*
X140435943Y-99040211D01*
X140440538Y-99004809D01*
X140447747Y-98987161D01*
X140458094Y-98982368D01*
X140469897Y-98984297D01*
X140483751Y-98999472D01*
X140492847Y-99020152D01*
X140517959Y-99050785D01*
X140519005Y-99051822D01*
X140533079Y-99063384D01*
X140551679Y-99071904D01*
X140579751Y-99077844D01*
X140622243Y-99081662D01*
X140684101Y-99083820D01*
X140770272Y-99084777D01*
X140885703Y-99084994D01*
X141219239Y-99084994D01*
X141219239Y-98896846D01*
X141219239Y-98708698D01*
X140688836Y-98708698D01*
X140649948Y-98708701D01*
X140508803Y-98708844D01*
X140397218Y-98709368D01*
X140311446Y-98710501D01*
X140247743Y-98712471D01*
X140202361Y-98715509D01*
X140171556Y-98719842D01*
X140151582Y-98725700D01*
X140138692Y-98733312D01*
X140129142Y-98742906D01*
X140106761Y-98766531D01*
X140085296Y-98778804D01*
X140070717Y-98768321D01*
X140061809Y-98732236D01*
X140057355Y-98667700D01*
X140056141Y-98571863D01*
X140056800Y-98493570D01*
X140060133Y-98423931D01*
X140067375Y-98383191D01*
X140079727Y-98368423D01*
X140098391Y-98376701D01*
G37*
G36*
X134984182Y-98376701D02*
G01*
X135010358Y-98405095D01*
X135041506Y-98443580D01*
X135769969Y-98448715D01*
X135771984Y-98448729D01*
X135953326Y-98450180D01*
X136103195Y-98451805D01*
X136224298Y-98453708D01*
X136319341Y-98455993D01*
X136391033Y-98458766D01*
X136442081Y-98462131D01*
X136475191Y-98466191D01*
X136493072Y-98471052D01*
X136498431Y-98476818D01*
X136495498Y-98488574D01*
X136472774Y-98509630D01*
X136468403Y-98512855D01*
X136462844Y-98524372D01*
X136458322Y-98546548D01*
X136454735Y-98582326D01*
X136451981Y-98634649D01*
X136449957Y-98706462D01*
X136448561Y-98800709D01*
X136447691Y-98920333D01*
X136447244Y-99068277D01*
X136447118Y-99247485D01*
X136447172Y-99371532D01*
X136447503Y-99529401D01*
X136448223Y-99657985D01*
X136449436Y-99760227D01*
X136451242Y-99839070D01*
X136453746Y-99897459D01*
X136457048Y-99938336D01*
X136461252Y-99964647D01*
X136466460Y-99979334D01*
X136472774Y-99985340D01*
X136486526Y-99995695D01*
X136498431Y-100027565D01*
X136498425Y-100028368D01*
X136497030Y-100035977D01*
X136491134Y-100042255D01*
X136477764Y-100047329D01*
X136453951Y-100051329D01*
X136416723Y-100054381D01*
X136363111Y-100056612D01*
X136290142Y-100058152D01*
X136194848Y-100059127D01*
X136074257Y-100059666D01*
X135925398Y-100059895D01*
X135745301Y-100059943D01*
X135588481Y-100060029D01*
X135432704Y-100060404D01*
X135305787Y-100061168D01*
X135204837Y-100062419D01*
X135126957Y-100064255D01*
X135069254Y-100066772D01*
X135028834Y-100070067D01*
X135002803Y-100074239D01*
X134988265Y-100079384D01*
X134982327Y-100085600D01*
X134975060Y-100097460D01*
X134948655Y-100111257D01*
X134940597Y-100107689D01*
X134932892Y-100089539D01*
X134928054Y-100051662D01*
X134925545Y-99989240D01*
X134924828Y-99897452D01*
X134925977Y-99813827D01*
X134929348Y-99745015D01*
X134934541Y-99699866D01*
X134941155Y-99683647D01*
X134943122Y-99683886D01*
X134967356Y-99697755D01*
X135000243Y-99726408D01*
X135043004Y-99769169D01*
X135565991Y-99769169D01*
X136088979Y-99769169D01*
X136084176Y-99559640D01*
X136079373Y-99350112D01*
X135780047Y-99350112D01*
X135754958Y-99350128D01*
X135634542Y-99350961D01*
X135543314Y-99353583D01*
X135477033Y-99358715D01*
X135431454Y-99367079D01*
X135402334Y-99379399D01*
X135385431Y-99396395D01*
X135376500Y-99418790D01*
X135363596Y-99446714D01*
X135342031Y-99461290D01*
X135341173Y-99461258D01*
X135331690Y-99454085D01*
X135325113Y-99431167D01*
X135320983Y-99387893D01*
X135318841Y-99319651D01*
X135318229Y-99221829D01*
X135318286Y-99183887D01*
X135319229Y-99098270D01*
X135321735Y-99040211D01*
X135326329Y-99004809D01*
X135333538Y-98987161D01*
X135343885Y-98982368D01*
X135355688Y-98984297D01*
X135369542Y-98999472D01*
X135378638Y-99020152D01*
X135403751Y-99050785D01*
X135417411Y-99062429D01*
X135435542Y-99071318D01*
X135462756Y-99077517D01*
X135504078Y-99081506D01*
X135564533Y-99083763D01*
X135649147Y-99084766D01*
X135762942Y-99084994D01*
X136087926Y-99084994D01*
X136087926Y-98896846D01*
X136087926Y-98708698D01*
X135566242Y-98708698D01*
X135546244Y-98708698D01*
X135402630Y-98708821D01*
X135288938Y-98709315D01*
X135201351Y-98710416D01*
X135136054Y-98712358D01*
X135089230Y-98715376D01*
X135057064Y-98719705D01*
X135035739Y-98725580D01*
X135021440Y-98733235D01*
X135010350Y-98742906D01*
X134982633Y-98766075D01*
X134959037Y-98777115D01*
X134953279Y-98767932D01*
X134947193Y-98728621D01*
X134943302Y-98661960D01*
X134941932Y-98571863D01*
X134942591Y-98493570D01*
X134945924Y-98423931D01*
X134953166Y-98383191D01*
X134965519Y-98368423D01*
X134984182Y-98376701D01*
G37*
G36*
X130982269Y-99247485D02*
G01*
X130982269Y-99982974D01*
X131020754Y-99988439D01*
X131044817Y-99997271D01*
X131059239Y-100026924D01*
X131058973Y-100032835D01*
X131054620Y-100043707D01*
X131041003Y-100051209D01*
X131013134Y-100055962D01*
X130966023Y-100058588D01*
X130894681Y-100059708D01*
X130794121Y-100059943D01*
X130746665Y-100059910D01*
X130659371Y-100059368D01*
X130599135Y-100057672D01*
X130560969Y-100054201D01*
X130539884Y-100048334D01*
X130530892Y-100039449D01*
X130529003Y-100026924D01*
X130535313Y-100005383D01*
X130567488Y-99988439D01*
X130569105Y-99988207D01*
X130582629Y-99984963D01*
X130592464Y-99976573D01*
X130599305Y-99958194D01*
X130603849Y-99924983D01*
X130606791Y-99872096D01*
X130608827Y-99794691D01*
X130610653Y-99687923D01*
X130615333Y-99392873D01*
X130403846Y-99392873D01*
X130192359Y-99392873D01*
X130007183Y-99653714D01*
X129965575Y-99712726D01*
X129900006Y-99808433D01*
X129853635Y-99881078D01*
X129825169Y-99933185D01*
X129813316Y-99967280D01*
X129816784Y-99985885D01*
X129834282Y-99991526D01*
X129850406Y-99997242D01*
X129861932Y-100025735D01*
X129861180Y-100035506D01*
X129855345Y-100045422D01*
X129839544Y-100052217D01*
X129808929Y-100056479D01*
X129758650Y-100058795D01*
X129683860Y-100059754D01*
X129579710Y-100059943D01*
X129499097Y-100059852D01*
X129417292Y-100059145D01*
X129361234Y-100057230D01*
X129326072Y-100053519D01*
X129306960Y-100047424D01*
X129299048Y-100038359D01*
X129297488Y-100025735D01*
X129302444Y-100004822D01*
X129329046Y-99991526D01*
X129353216Y-99985570D01*
X129387420Y-99961593D01*
X129396950Y-99949529D01*
X129423832Y-99913100D01*
X129463126Y-99858638D01*
X129511242Y-99791238D01*
X129564591Y-99715996D01*
X129619581Y-99638007D01*
X129672624Y-99562366D01*
X129720129Y-99494169D01*
X129758505Y-99438513D01*
X129784164Y-99400491D01*
X129793515Y-99385200D01*
X129790460Y-99383156D01*
X129764547Y-99373512D01*
X129720821Y-99359890D01*
X129697162Y-99352446D01*
X129585795Y-99302136D01*
X129492600Y-99234194D01*
X129422852Y-99153226D01*
X129381825Y-99063838D01*
X129374269Y-99022830D01*
X129368890Y-98951977D01*
X129369056Y-98941094D01*
X129719396Y-98941094D01*
X129719520Y-98948932D01*
X129736735Y-99024478D01*
X129783818Y-99085325D01*
X129861932Y-99133041D01*
X129872499Y-99137173D01*
X129909276Y-99146366D01*
X129962889Y-99153584D01*
X130037679Y-99159189D01*
X130137989Y-99163544D01*
X130268161Y-99167013D01*
X130614525Y-99174451D01*
X130614525Y-98939846D01*
X130614525Y-98705241D01*
X130259609Y-98711684D01*
X130190465Y-98713037D01*
X130083180Y-98715845D01*
X130002248Y-98719379D01*
X129942530Y-98724108D01*
X129898887Y-98730504D01*
X129866180Y-98739037D01*
X129839271Y-98750178D01*
X129837653Y-98750976D01*
X129769752Y-98798038D01*
X129731434Y-98859657D01*
X129719396Y-98941094D01*
X129369056Y-98941094D01*
X129369990Y-98879741D01*
X129373942Y-98840353D01*
X129402565Y-98726239D01*
X129456850Y-98632777D01*
X129538933Y-98557049D01*
X129650951Y-98496138D01*
X129653355Y-98495117D01*
X129676055Y-98486298D01*
X129700650Y-98479080D01*
X129730728Y-98473270D01*
X129769882Y-98468670D01*
X129821700Y-98465087D01*
X129889775Y-98462324D01*
X129977697Y-98460187D01*
X130089055Y-98458479D01*
X130227441Y-98457006D01*
X130396444Y-98455572D01*
X130447880Y-98455171D01*
X130608632Y-98454108D01*
X130739082Y-98453666D01*
X130842270Y-98453935D01*
X130921239Y-98455009D01*
X130979029Y-98456980D01*
X131018683Y-98459940D01*
X131043242Y-98463981D01*
X131055746Y-98469195D01*
X131059239Y-98475675D01*
X131050843Y-98492652D01*
X131020754Y-98506532D01*
X130982269Y-98511997D01*
X130982269Y-98939846D01*
X130982269Y-99247485D01*
G37*
G36*
X126402538Y-98452330D02*
G01*
X126484291Y-98453537D01*
X126539738Y-98456236D01*
X126573554Y-98460878D01*
X126590415Y-98467912D01*
X126594996Y-98477788D01*
X126592248Y-98489714D01*
X126571170Y-98503445D01*
X126558214Y-98506908D01*
X126536961Y-98530501D01*
X126536275Y-98533482D01*
X126533876Y-98565006D01*
X126531826Y-98625080D01*
X126530126Y-98709221D01*
X126528774Y-98812947D01*
X126527772Y-98931774D01*
X126527120Y-99061221D01*
X126526816Y-99196804D01*
X126526862Y-99334041D01*
X126527257Y-99468449D01*
X126528001Y-99595546D01*
X126529095Y-99710849D01*
X126530537Y-99809876D01*
X126532329Y-99888143D01*
X126534471Y-99941169D01*
X126536961Y-99964470D01*
X126545077Y-99977673D01*
X126571170Y-99991526D01*
X126586492Y-99997692D01*
X126594925Y-100021852D01*
X126583107Y-100049027D01*
X126582532Y-100049457D01*
X126559042Y-100053499D01*
X126508939Y-100056109D01*
X126439172Y-100057066D01*
X126356684Y-100056153D01*
X126346200Y-100055916D01*
X126258563Y-100053238D01*
X126199203Y-100049471D01*
X126162724Y-100043819D01*
X126143734Y-100035485D01*
X126136836Y-100023670D01*
X126139804Y-100005550D01*
X126166559Y-99986786D01*
X126169851Y-99985874D01*
X126179127Y-99981548D01*
X126186394Y-99972325D01*
X126191898Y-99954542D01*
X126195882Y-99924535D01*
X126198592Y-99878640D01*
X126200274Y-99813191D01*
X126201172Y-99724527D01*
X126201531Y-99608981D01*
X126201596Y-99462891D01*
X126201569Y-99413639D01*
X126201247Y-99288802D01*
X126200601Y-99177302D01*
X126199676Y-99083313D01*
X126198522Y-99011010D01*
X126197185Y-98964567D01*
X126195714Y-98948159D01*
X126193576Y-98949698D01*
X126172821Y-98969656D01*
X126132715Y-99010161D01*
X126076309Y-99068018D01*
X126006650Y-99140030D01*
X125926790Y-99223000D01*
X125839776Y-99313732D01*
X125748659Y-99409029D01*
X125656488Y-99505694D01*
X125566312Y-99600532D01*
X125481181Y-99690346D01*
X125404144Y-99771938D01*
X125338250Y-99842114D01*
X125286549Y-99897675D01*
X125252090Y-99935426D01*
X125237922Y-99952170D01*
X125233677Y-99971236D01*
X125255026Y-100000182D01*
X125273584Y-100016983D01*
X125277193Y-100034400D01*
X125254824Y-100046564D01*
X125204462Y-100053937D01*
X125124092Y-100056985D01*
X125011697Y-100056169D01*
X124944826Y-100054654D01*
X124869242Y-100051929D01*
X124819063Y-100048001D01*
X124788999Y-100042115D01*
X124773762Y-100033519D01*
X124768062Y-100021459D01*
X124768689Y-100004719D01*
X124787400Y-99991526D01*
X124800942Y-99988076D01*
X124822863Y-99964470D01*
X124823550Y-99961489D01*
X124825949Y-99929965D01*
X124827998Y-99869891D01*
X124829699Y-99785749D01*
X124831050Y-99682024D01*
X124832052Y-99563197D01*
X124832705Y-99433750D01*
X124833008Y-99298167D01*
X124832962Y-99160930D01*
X124832567Y-99026522D01*
X124831823Y-98899425D01*
X124830730Y-98784122D01*
X124829287Y-98685095D01*
X124827495Y-98606828D01*
X124825354Y-98553802D01*
X124822863Y-98530501D01*
X124814748Y-98517298D01*
X124788655Y-98503445D01*
X124777580Y-98500486D01*
X124764828Y-98477788D01*
X124765366Y-98473723D01*
X124774161Y-98464550D01*
X124797549Y-98458329D01*
X124840433Y-98454536D01*
X124907713Y-98452646D01*
X125004289Y-98452132D01*
X125024503Y-98452149D01*
X125116063Y-98452955D01*
X125179031Y-98455319D01*
X125218144Y-98459725D01*
X125238138Y-98466657D01*
X125243751Y-98476599D01*
X125235355Y-98493002D01*
X125205266Y-98506532D01*
X125166781Y-98511997D01*
X125163152Y-99016576D01*
X125159524Y-99521155D01*
X125274331Y-99398716D01*
X125275941Y-99397000D01*
X125319483Y-99350949D01*
X125382181Y-99285103D01*
X125459651Y-99204045D01*
X125547507Y-99112355D01*
X125641364Y-99014618D01*
X125736838Y-98915414D01*
X125819465Y-98829528D01*
X125902115Y-98742975D01*
X125965319Y-98675501D01*
X126011524Y-98624106D01*
X126043181Y-98585791D01*
X126062736Y-98557556D01*
X126072640Y-98536402D01*
X126075342Y-98519331D01*
X126073290Y-98503342D01*
X126062043Y-98452132D01*
X126328519Y-98452132D01*
X126402538Y-98452330D01*
G37*
G36*
X131584424Y-94219580D02*
G01*
X131592035Y-94222383D01*
X131601676Y-94228447D01*
X131614356Y-94239014D01*
X131631085Y-94255324D01*
X131652873Y-94278618D01*
X131680730Y-94310136D01*
X131715665Y-94351120D01*
X131758688Y-94402811D01*
X131810809Y-94466448D01*
X131873038Y-94543273D01*
X131946384Y-94634527D01*
X132031858Y-94741449D01*
X132130468Y-94865282D01*
X132243225Y-95007265D01*
X132371139Y-95168639D01*
X132515219Y-95350646D01*
X132676474Y-95554526D01*
X132855916Y-95781519D01*
X133054553Y-96032866D01*
X133273395Y-96309809D01*
X133292736Y-96334270D01*
X133382667Y-96447620D01*
X133465550Y-96551464D01*
X133539036Y-96642902D01*
X133600778Y-96719036D01*
X133648428Y-96776969D01*
X133679638Y-96813800D01*
X133692060Y-96826633D01*
X133693406Y-96825799D01*
X133710823Y-96806685D01*
X133744903Y-96765364D01*
X133792402Y-96705890D01*
X133850075Y-96632314D01*
X133914676Y-96548687D01*
X133988487Y-96452521D01*
X134126403Y-96273104D01*
X134245736Y-96118331D01*
X134347899Y-95986449D01*
X134434309Y-95875704D01*
X134506380Y-95784342D01*
X134565527Y-95710608D01*
X134613165Y-95652749D01*
X134650710Y-95609010D01*
X134679576Y-95577638D01*
X134701178Y-95556877D01*
X134716932Y-95544975D01*
X134728253Y-95540178D01*
X134730726Y-95539915D01*
X134740369Y-95542145D01*
X134753610Y-95550320D01*
X134771773Y-95566069D01*
X134796184Y-95591024D01*
X134828168Y-95626814D01*
X134869050Y-95675071D01*
X134920155Y-95737424D01*
X134982808Y-95815504D01*
X135058335Y-95910941D01*
X135148060Y-96025367D01*
X135253310Y-96160410D01*
X135375408Y-96317702D01*
X135515681Y-96498874D01*
X135675453Y-96705554D01*
X135676028Y-96706298D01*
X135834783Y-96911845D01*
X135973819Y-97092079D01*
X136094383Y-97248708D01*
X136197723Y-97383442D01*
X136285087Y-97497987D01*
X136357724Y-97594052D01*
X136416880Y-97673345D01*
X136463805Y-97737574D01*
X136499746Y-97788447D01*
X136525951Y-97827672D01*
X136543667Y-97856957D01*
X136554144Y-97878011D01*
X136558628Y-97892541D01*
X136558368Y-97902256D01*
X136554612Y-97908862D01*
X136536489Y-97928031D01*
X136523959Y-97939001D01*
X136523562Y-97938780D01*
X136510000Y-97923345D01*
X136481771Y-97888386D01*
X136444338Y-97840650D01*
X136428674Y-97820442D01*
X136328523Y-97691104D01*
X136208605Y-97536050D01*
X136069838Y-97356470D01*
X135913142Y-97153555D01*
X135739438Y-96928496D01*
X135549644Y-96682484D01*
X135344681Y-96416711D01*
X135293727Y-96350660D01*
X135189114Y-96215254D01*
X135091124Y-96088690D01*
X135001791Y-95973576D01*
X134923148Y-95872525D01*
X134857228Y-95788146D01*
X134806066Y-95723050D01*
X134771694Y-95679847D01*
X134756147Y-95661149D01*
X134750944Y-95656969D01*
X134741710Y-95655256D01*
X134728844Y-95660757D01*
X134710438Y-95675689D01*
X134684586Y-95702267D01*
X134649381Y-95742709D01*
X134602916Y-95799231D01*
X134543283Y-95874049D01*
X134468576Y-95969380D01*
X134376887Y-96087440D01*
X134266309Y-96230446D01*
X134200923Y-96315117D01*
X134107123Y-96436632D01*
X134020514Y-96548890D01*
X133943384Y-96648923D01*
X133878020Y-96733763D01*
X133826711Y-96800440D01*
X133791743Y-96845986D01*
X133775406Y-96867432D01*
X133768909Y-96876950D01*
X133764702Y-96888733D01*
X133766112Y-96903876D01*
X133775094Y-96925308D01*
X133793605Y-96955959D01*
X133823598Y-96998759D01*
X133867030Y-97056639D01*
X133925857Y-97132528D01*
X134002034Y-97229356D01*
X134097516Y-97350054D01*
X134192873Y-97470409D01*
X134281329Y-97582051D01*
X134352049Y-97671636D01*
X134406805Y-97741746D01*
X134447369Y-97794959D01*
X134475511Y-97833855D01*
X134493002Y-97861012D01*
X134501615Y-97879011D01*
X134503119Y-97890431D01*
X134499286Y-97897852D01*
X134491887Y-97903852D01*
X134482693Y-97911010D01*
X134482303Y-97911360D01*
X134473391Y-97917059D01*
X134462569Y-97917153D01*
X134447703Y-97909274D01*
X134426660Y-97891053D01*
X134397307Y-97860122D01*
X134357512Y-97814113D01*
X134305141Y-97750657D01*
X134238062Y-97667385D01*
X134154142Y-97561930D01*
X134051247Y-97431923D01*
X133975588Y-97336211D01*
X133880510Y-97215940D01*
X133774769Y-97082188D01*
X133657404Y-96933742D01*
X133527457Y-96769388D01*
X133383967Y-96587911D01*
X133225976Y-96388099D01*
X133052522Y-96168737D01*
X132862647Y-95928612D01*
X132655391Y-95666511D01*
X132429794Y-95381218D01*
X132184897Y-95071521D01*
X131919739Y-94736206D01*
X131876508Y-94681658D01*
X131797289Y-94582356D01*
X131726054Y-94493907D01*
X131665431Y-94419522D01*
X131618045Y-94362414D01*
X131586525Y-94325793D01*
X131573496Y-94312873D01*
X131572494Y-94312940D01*
X131569587Y-94314046D01*
X131565007Y-94317523D01*
X131557724Y-94324661D01*
X131546713Y-94336746D01*
X131530944Y-94355068D01*
X131509390Y-94380914D01*
X131481024Y-94415573D01*
X131444818Y-94460333D01*
X131399743Y-94516482D01*
X131344773Y-94585308D01*
X131278880Y-94668099D01*
X131201036Y-94766144D01*
X131110213Y-94880731D01*
X131005383Y-95013148D01*
X130885520Y-95164683D01*
X130749594Y-95336625D01*
X130596579Y-95530261D01*
X130425447Y-95746880D01*
X130235170Y-95987770D01*
X130024720Y-96254219D01*
X129887805Y-96427552D01*
X129728098Y-96629691D01*
X129575187Y-96823176D01*
X129430383Y-97006354D01*
X129294993Y-97177569D01*
X129170328Y-97335168D01*
X129057696Y-97477497D01*
X128958406Y-97602901D01*
X128873767Y-97709726D01*
X128805089Y-97796318D01*
X128753681Y-97861022D01*
X128720852Y-97902185D01*
X128707911Y-97918153D01*
X128704305Y-97921892D01*
X128684688Y-97929155D01*
X128659857Y-97908973D01*
X128654325Y-97901357D01*
X128651723Y-97889945D01*
X128655410Y-97873602D01*
X128667258Y-97849596D01*
X128689142Y-97815195D01*
X128722935Y-97767667D01*
X128770512Y-97704280D01*
X128833745Y-97622302D01*
X128914509Y-97519002D01*
X129014676Y-97391648D01*
X129040209Y-97359226D01*
X129135478Y-97238087D01*
X129211869Y-97140354D01*
X129271263Y-97063243D01*
X129315537Y-97003973D01*
X129346573Y-96959761D01*
X129366249Y-96927825D01*
X129376444Y-96905383D01*
X129379038Y-96889652D01*
X129375911Y-96877851D01*
X129368941Y-96867196D01*
X129360198Y-96855714D01*
X129331206Y-96817913D01*
X129285135Y-96757979D01*
X129224266Y-96678876D01*
X129150879Y-96583567D01*
X129067257Y-96475015D01*
X128975680Y-96356184D01*
X128878431Y-96230036D01*
X128416613Y-95631095D01*
X128368871Y-95686092D01*
X128364269Y-95691468D01*
X128352888Y-95705186D01*
X128337132Y-95724685D01*
X128315902Y-95751384D01*
X128288095Y-95786705D01*
X128252612Y-95832068D01*
X128208351Y-95888894D01*
X128154211Y-95958605D01*
X128089092Y-96042620D01*
X128011893Y-96142361D01*
X127921513Y-96259248D01*
X127816852Y-96394703D01*
X127696807Y-96550145D01*
X127560279Y-96726997D01*
X127406167Y-96926678D01*
X127233370Y-97150610D01*
X127040787Y-97400213D01*
X127028853Y-97415670D01*
X126940028Y-97530034D01*
X126857432Y-97635217D01*
X126783486Y-97728216D01*
X126720613Y-97806030D01*
X126671234Y-97865658D01*
X126637772Y-97904100D01*
X126622648Y-97918354D01*
X126609221Y-97917836D01*
X126581420Y-97900491D01*
X126576802Y-97885115D01*
X126586154Y-97857453D01*
X126613293Y-97814060D01*
X126660774Y-97750094D01*
X126672374Y-97735058D01*
X126709791Y-97686589D01*
X126764818Y-97615333D01*
X126835265Y-97524124D01*
X126918940Y-97415798D01*
X127013655Y-97293188D01*
X127117218Y-97159130D01*
X127227440Y-97016459D01*
X127342131Y-96868009D01*
X127459099Y-96716616D01*
X127576156Y-96565113D01*
X127691110Y-96416337D01*
X127801773Y-96273121D01*
X127905952Y-96138300D01*
X128001459Y-96014710D01*
X128086103Y-95905185D01*
X128157694Y-95812560D01*
X128214041Y-95739670D01*
X128217394Y-95735336D01*
X128282022Y-95653353D01*
X128330497Y-95595823D01*
X128366136Y-95559334D01*
X128392256Y-95540472D01*
X128412176Y-95535824D01*
X128414841Y-95536362D01*
X128432167Y-95547413D01*
X128459961Y-95573905D01*
X128499647Y-95617552D01*
X128552653Y-95680064D01*
X128620403Y-95763153D01*
X128704325Y-95868531D01*
X128805844Y-95997909D01*
X128926386Y-96153000D01*
X129004161Y-96253427D01*
X129098511Y-96375306D01*
X129185302Y-96487473D01*
X129262300Y-96587041D01*
X129327275Y-96671122D01*
X129377992Y-96736828D01*
X129412221Y-96781269D01*
X129427727Y-96801560D01*
X129445037Y-96822830D01*
X129460006Y-96824451D01*
X129482249Y-96799867D01*
X129496714Y-96781769D01*
X129530613Y-96739110D01*
X129579804Y-96677082D01*
X129641100Y-96599710D01*
X129711314Y-96511014D01*
X129787256Y-96415019D01*
X129798998Y-96400170D01*
X129862950Y-96319304D01*
X129944820Y-96215780D01*
X130041917Y-96092999D01*
X130151552Y-95954363D01*
X130271035Y-95803275D01*
X130397674Y-95643136D01*
X130528781Y-95477349D01*
X130661663Y-95309314D01*
X130793632Y-95142435D01*
X130896698Y-95012171D01*
X131026356Y-94848594D01*
X131137536Y-94708830D01*
X131231775Y-94591051D01*
X131310614Y-94493429D01*
X131375592Y-94414137D01*
X131428248Y-94351347D01*
X131470123Y-94303231D01*
X131502755Y-94267961D01*
X131527684Y-94243711D01*
X131546449Y-94228652D01*
X131560591Y-94220957D01*
X131571648Y-94218799D01*
X131577832Y-94218799D01*
X131584424Y-94219580D01*
G37*
%TO.C,Q1*%
D17*
X116061276Y-125260219D02*
X118846275Y-130083980D01*
X118846275Y-130083980D02*
X118993502Y-129998979D01*
X121759723Y-121970217D02*
X116061276Y-125260219D01*
X124397500Y-126878980D02*
X124544720Y-126793978D01*
X124544720Y-126793978D02*
X121759723Y-121970217D01*
D11*
X114959442Y-121098579D02*
G75*
G02*
X114759438Y-121098579I-100002J0D01*
G01*
X114759438Y-121098579D02*
G75*
G02*
X114959442Y-121098579I100002J0D01*
G01*
%TO.C,C3*%
D16*
X120586982Y-118686966D02*
X119875730Y-117455042D01*
X122163148Y-117776966D02*
X121451896Y-116545042D01*
%TO.C,R1*%
X113469342Y-115644984D02*
X114728656Y-114917921D01*
X114379344Y-117221151D02*
X115638658Y-116494088D01*
%TD*%
M02*
