%TF.GenerationSoftware,KiCad,Pcbnew,10.0.4*%
%TF.CreationDate,2026-07-03T16:20:58-04:00*%
%TF.ProjectId,PCB_Armement_LC_2026,5043425f-4172-46d6-956d-656e745f4c43,rev?*%
%TF.SameCoordinates,Original*%
%TF.FileFunction,Legend,Top*%
%TF.FilePolarity,Positive*%
%FSLAX46Y46*%
G04 Gerber Fmt 4.6, Leading zero omitted, Abs format (unit mm)*
G04 Created by KiCad (PCBNEW 10.0.4) date 2026-07-03 16:20:58*
%MOMM*%
%LPD*%
G01*
G04 APERTURE LIST*
%ADD10C,0.500000*%
%ADD11C,0.160000*%
%ADD12C,0.300000*%
%ADD13C,0.200000*%
%ADD14C,0.187500*%
%ADD15C,0.250000*%
%ADD16C,0.375000*%
%ADD17C,0.150000*%
%ADD18C,0.152400*%
%ADD19C,0.508000*%
%ADD20C,0.120000*%
G04 APERTURE END LIST*
D10*
X131700000Y-106000000D02*
X131650000Y-146100000D01*
X131700000Y-106000000D02*
G75*
G02*
X134700000Y-103000000I3000000J0D01*
G01*
X134700000Y-103000000D02*
X140900000Y-103000000D01*
X143900000Y-86500000D02*
G75*
G02*
X146900000Y-83500000I3000000J0D01*
G01*
X143900000Y-100000000D02*
G75*
G02*
X140900000Y-103000000I-3000000J0D01*
G01*
X143900000Y-100000000D02*
X143900000Y-86500000D01*
D11*
X146900000Y-83500000D02*
X165300000Y-83475000D01*
D12*
X149128909Y-80688180D02*
X149128909Y-83496972D01*
X154080489Y-80753443D02*
X154080489Y-83479245D01*
D10*
X165300000Y-83475000D02*
G75*
G02*
X168300000Y-86475000I0J-3000000D01*
G01*
X168350000Y-146100000D02*
X168300000Y-86475000D01*
D13*
X173225000Y-98375000D02*
X173225000Y-96200000D01*
D14*
X144960855Y-82928874D02*
X144960855Y-82128874D01*
X144960855Y-82128874D02*
X145210855Y-82700302D01*
X145210855Y-82700302D02*
X145460855Y-82128874D01*
X145460855Y-82128874D02*
X145460855Y-82928874D01*
X145925141Y-82928874D02*
X145853712Y-82890779D01*
X145853712Y-82890779D02*
X145817998Y-82852683D01*
X145817998Y-82852683D02*
X145782284Y-82776493D01*
X145782284Y-82776493D02*
X145782284Y-82547921D01*
X145782284Y-82547921D02*
X145817998Y-82471731D01*
X145817998Y-82471731D02*
X145853712Y-82433636D01*
X145853712Y-82433636D02*
X145925141Y-82395540D01*
X145925141Y-82395540D02*
X146032284Y-82395540D01*
X146032284Y-82395540D02*
X146103712Y-82433636D01*
X146103712Y-82433636D02*
X146139427Y-82471731D01*
X146139427Y-82471731D02*
X146175141Y-82547921D01*
X146175141Y-82547921D02*
X146175141Y-82776493D01*
X146175141Y-82776493D02*
X146139427Y-82852683D01*
X146139427Y-82852683D02*
X146103712Y-82890779D01*
X146103712Y-82890779D02*
X146032284Y-82928874D01*
X146032284Y-82928874D02*
X145925141Y-82928874D01*
X146389426Y-82395540D02*
X146675140Y-82395540D01*
X146496569Y-82128874D02*
X146496569Y-82814588D01*
X146496569Y-82814588D02*
X146532283Y-82890779D01*
X146532283Y-82890779D02*
X146603712Y-82928874D01*
X146603712Y-82928874D02*
X146675140Y-82928874D01*
X147032283Y-82928874D02*
X146960854Y-82890779D01*
X146960854Y-82890779D02*
X146925140Y-82852683D01*
X146925140Y-82852683D02*
X146889426Y-82776493D01*
X146889426Y-82776493D02*
X146889426Y-82547921D01*
X146889426Y-82547921D02*
X146925140Y-82471731D01*
X146925140Y-82471731D02*
X146960854Y-82433636D01*
X146960854Y-82433636D02*
X147032283Y-82395540D01*
X147032283Y-82395540D02*
X147139426Y-82395540D01*
X147139426Y-82395540D02*
X147210854Y-82433636D01*
X147210854Y-82433636D02*
X147246569Y-82471731D01*
X147246569Y-82471731D02*
X147282283Y-82547921D01*
X147282283Y-82547921D02*
X147282283Y-82776493D01*
X147282283Y-82776493D02*
X147246569Y-82852683D01*
X147246569Y-82852683D02*
X147210854Y-82890779D01*
X147210854Y-82890779D02*
X147139426Y-82928874D01*
X147139426Y-82928874D02*
X147032283Y-82928874D01*
X147603711Y-82928874D02*
X147603711Y-82395540D01*
X147603711Y-82547921D02*
X147639425Y-82471731D01*
X147639425Y-82471731D02*
X147675140Y-82433636D01*
X147675140Y-82433636D02*
X147746568Y-82395540D01*
X147746568Y-82395540D02*
X147817997Y-82395540D01*
X150317999Y-82700302D02*
X150675142Y-82700302D01*
X150246570Y-82928874D02*
X150496570Y-82128874D01*
X150496570Y-82128874D02*
X150746570Y-82928874D01*
X150996570Y-82395540D02*
X150996570Y-83195540D01*
X150996570Y-82433636D02*
X151067999Y-82395540D01*
X151067999Y-82395540D02*
X151210856Y-82395540D01*
X151210856Y-82395540D02*
X151282284Y-82433636D01*
X151282284Y-82433636D02*
X151317999Y-82471731D01*
X151317999Y-82471731D02*
X151353713Y-82547921D01*
X151353713Y-82547921D02*
X151353713Y-82776493D01*
X151353713Y-82776493D02*
X151317999Y-82852683D01*
X151317999Y-82852683D02*
X151282284Y-82890779D01*
X151282284Y-82890779D02*
X151210856Y-82928874D01*
X151210856Y-82928874D02*
X151067999Y-82928874D01*
X151067999Y-82928874D02*
X150996570Y-82890779D01*
X151782284Y-82928874D02*
X151710855Y-82890779D01*
X151710855Y-82890779D02*
X151675141Y-82852683D01*
X151675141Y-82852683D02*
X151639427Y-82776493D01*
X151639427Y-82776493D02*
X151639427Y-82547921D01*
X151639427Y-82547921D02*
X151675141Y-82471731D01*
X151675141Y-82471731D02*
X151710855Y-82433636D01*
X151710855Y-82433636D02*
X151782284Y-82395540D01*
X151782284Y-82395540D02*
X151889427Y-82395540D01*
X151889427Y-82395540D02*
X151960855Y-82433636D01*
X151960855Y-82433636D02*
X151996570Y-82471731D01*
X151996570Y-82471731D02*
X152032284Y-82547921D01*
X152032284Y-82547921D02*
X152032284Y-82776493D01*
X152032284Y-82776493D02*
X151996570Y-82852683D01*
X151996570Y-82852683D02*
X151960855Y-82890779D01*
X151960855Y-82890779D02*
X151889427Y-82928874D01*
X151889427Y-82928874D02*
X151782284Y-82928874D01*
X152889427Y-82890779D02*
X152996570Y-82928874D01*
X152996570Y-82928874D02*
X153175141Y-82928874D01*
X153175141Y-82928874D02*
X153246570Y-82890779D01*
X153246570Y-82890779D02*
X153282284Y-82852683D01*
X153282284Y-82852683D02*
X153317998Y-82776493D01*
X153317998Y-82776493D02*
X153317998Y-82700302D01*
X153317998Y-82700302D02*
X153282284Y-82624112D01*
X153282284Y-82624112D02*
X153246570Y-82586017D01*
X153246570Y-82586017D02*
X153175141Y-82547921D01*
X153175141Y-82547921D02*
X153032284Y-82509826D01*
X153032284Y-82509826D02*
X152960855Y-82471731D01*
X152960855Y-82471731D02*
X152925141Y-82433636D01*
X152925141Y-82433636D02*
X152889427Y-82357445D01*
X152889427Y-82357445D02*
X152889427Y-82281255D01*
X152889427Y-82281255D02*
X152925141Y-82205064D01*
X152925141Y-82205064D02*
X152960855Y-82166969D01*
X152960855Y-82166969D02*
X153032284Y-82128874D01*
X153032284Y-82128874D02*
X153210855Y-82128874D01*
X153210855Y-82128874D02*
X153317998Y-82166969D01*
X154746571Y-82700302D02*
X155103714Y-82700302D01*
X154675142Y-82928874D02*
X154925142Y-82128874D01*
X154925142Y-82128874D02*
X155175142Y-82928874D01*
X155425142Y-82395540D02*
X155425142Y-83195540D01*
X155425142Y-82433636D02*
X155496571Y-82395540D01*
X155496571Y-82395540D02*
X155639428Y-82395540D01*
X155639428Y-82395540D02*
X155710856Y-82433636D01*
X155710856Y-82433636D02*
X155746571Y-82471731D01*
X155746571Y-82471731D02*
X155782285Y-82547921D01*
X155782285Y-82547921D02*
X155782285Y-82776493D01*
X155782285Y-82776493D02*
X155746571Y-82852683D01*
X155746571Y-82852683D02*
X155710856Y-82890779D01*
X155710856Y-82890779D02*
X155639428Y-82928874D01*
X155639428Y-82928874D02*
X155496571Y-82928874D01*
X155496571Y-82928874D02*
X155425142Y-82890779D01*
X156210856Y-82928874D02*
X156139427Y-82890779D01*
X156139427Y-82890779D02*
X156103713Y-82852683D01*
X156103713Y-82852683D02*
X156067999Y-82776493D01*
X156067999Y-82776493D02*
X156067999Y-82547921D01*
X156067999Y-82547921D02*
X156103713Y-82471731D01*
X156103713Y-82471731D02*
X156139427Y-82433636D01*
X156139427Y-82433636D02*
X156210856Y-82395540D01*
X156210856Y-82395540D02*
X156317999Y-82395540D01*
X156317999Y-82395540D02*
X156389427Y-82433636D01*
X156389427Y-82433636D02*
X156425142Y-82471731D01*
X156425142Y-82471731D02*
X156460856Y-82547921D01*
X156460856Y-82547921D02*
X156460856Y-82776493D01*
X156460856Y-82776493D02*
X156425142Y-82852683D01*
X156425142Y-82852683D02*
X156389427Y-82890779D01*
X156389427Y-82890779D02*
X156317999Y-82928874D01*
X156317999Y-82928874D02*
X156210856Y-82928874D01*
X157603713Y-82509826D02*
X157710856Y-82547921D01*
X157710856Y-82547921D02*
X157746570Y-82586017D01*
X157746570Y-82586017D02*
X157782284Y-82662207D01*
X157782284Y-82662207D02*
X157782284Y-82776493D01*
X157782284Y-82776493D02*
X157746570Y-82852683D01*
X157746570Y-82852683D02*
X157710856Y-82890779D01*
X157710856Y-82890779D02*
X157639427Y-82928874D01*
X157639427Y-82928874D02*
X157353713Y-82928874D01*
X157353713Y-82928874D02*
X157353713Y-82128874D01*
X157353713Y-82128874D02*
X157603713Y-82128874D01*
X157603713Y-82128874D02*
X157675142Y-82166969D01*
X157675142Y-82166969D02*
X157710856Y-82205064D01*
X157710856Y-82205064D02*
X157746570Y-82281255D01*
X157746570Y-82281255D02*
X157746570Y-82357445D01*
X157746570Y-82357445D02*
X157710856Y-82433636D01*
X157710856Y-82433636D02*
X157675142Y-82471731D01*
X157675142Y-82471731D02*
X157603713Y-82509826D01*
X157603713Y-82509826D02*
X157353713Y-82509826D01*
X158532284Y-82928874D02*
X158282284Y-82547921D01*
X158103713Y-82928874D02*
X158103713Y-82128874D01*
X158103713Y-82128874D02*
X158389427Y-82128874D01*
X158389427Y-82128874D02*
X158460856Y-82166969D01*
X158460856Y-82166969D02*
X158496570Y-82205064D01*
X158496570Y-82205064D02*
X158532284Y-82281255D01*
X158532284Y-82281255D02*
X158532284Y-82395540D01*
X158532284Y-82395540D02*
X158496570Y-82471731D01*
X158496570Y-82471731D02*
X158460856Y-82509826D01*
X158460856Y-82509826D02*
X158389427Y-82547921D01*
X158389427Y-82547921D02*
X158103713Y-82547921D01*
X169280517Y-97605420D02*
X169280517Y-96805420D01*
X169280517Y-96805420D02*
X169530517Y-97376848D01*
X169530517Y-97376848D02*
X169780517Y-96805420D01*
X169780517Y-96805420D02*
X169780517Y-97605420D01*
X170459089Y-97605420D02*
X170459089Y-97186372D01*
X170459089Y-97186372D02*
X170423374Y-97110182D01*
X170423374Y-97110182D02*
X170351946Y-97072086D01*
X170351946Y-97072086D02*
X170209089Y-97072086D01*
X170209089Y-97072086D02*
X170137660Y-97110182D01*
X170459089Y-97567325D02*
X170387660Y-97605420D01*
X170387660Y-97605420D02*
X170209089Y-97605420D01*
X170209089Y-97605420D02*
X170137660Y-97567325D01*
X170137660Y-97567325D02*
X170101946Y-97491134D01*
X170101946Y-97491134D02*
X170101946Y-97414944D01*
X170101946Y-97414944D02*
X170137660Y-97338753D01*
X170137660Y-97338753D02*
X170209089Y-97300658D01*
X170209089Y-97300658D02*
X170387660Y-97300658D01*
X170387660Y-97300658D02*
X170459089Y-97262563D01*
X170816231Y-97605420D02*
X170816231Y-97072086D01*
X170816231Y-96805420D02*
X170780517Y-96843515D01*
X170780517Y-96843515D02*
X170816231Y-96881610D01*
X170816231Y-96881610D02*
X170851945Y-96843515D01*
X170851945Y-96843515D02*
X170816231Y-96805420D01*
X170816231Y-96805420D02*
X170816231Y-96881610D01*
X171173374Y-97072086D02*
X171173374Y-97605420D01*
X171173374Y-97148277D02*
X171209088Y-97110182D01*
X171209088Y-97110182D02*
X171280517Y-97072086D01*
X171280517Y-97072086D02*
X171387660Y-97072086D01*
X171387660Y-97072086D02*
X171459088Y-97110182D01*
X171459088Y-97110182D02*
X171494803Y-97186372D01*
X171494803Y-97186372D02*
X171494803Y-97605420D01*
X172387660Y-97567325D02*
X172494803Y-97605420D01*
X172494803Y-97605420D02*
X172673374Y-97605420D01*
X172673374Y-97605420D02*
X172744803Y-97567325D01*
X172744803Y-97567325D02*
X172780517Y-97529229D01*
X172780517Y-97529229D02*
X172816231Y-97453039D01*
X172816231Y-97453039D02*
X172816231Y-97376848D01*
X172816231Y-97376848D02*
X172780517Y-97300658D01*
X172780517Y-97300658D02*
X172744803Y-97262563D01*
X172744803Y-97262563D02*
X172673374Y-97224467D01*
X172673374Y-97224467D02*
X172530517Y-97186372D01*
X172530517Y-97186372D02*
X172459088Y-97148277D01*
X172459088Y-97148277D02*
X172423374Y-97110182D01*
X172423374Y-97110182D02*
X172387660Y-97033991D01*
X172387660Y-97033991D02*
X172387660Y-96957801D01*
X172387660Y-96957801D02*
X172423374Y-96881610D01*
X172423374Y-96881610D02*
X172459088Y-96843515D01*
X172459088Y-96843515D02*
X172530517Y-96805420D01*
X172530517Y-96805420D02*
X172709088Y-96805420D01*
X172709088Y-96805420D02*
X172816231Y-96843515D01*
X173709089Y-97605420D02*
X173709089Y-96805420D01*
X173709089Y-96805420D02*
X173959089Y-97376848D01*
X173959089Y-97376848D02*
X174209089Y-96805420D01*
X174209089Y-96805420D02*
X174209089Y-97605420D01*
X174887661Y-97605420D02*
X174887661Y-97186372D01*
X174887661Y-97186372D02*
X174851946Y-97110182D01*
X174851946Y-97110182D02*
X174780518Y-97072086D01*
X174780518Y-97072086D02*
X174637661Y-97072086D01*
X174637661Y-97072086D02*
X174566232Y-97110182D01*
X174887661Y-97567325D02*
X174816232Y-97605420D01*
X174816232Y-97605420D02*
X174637661Y-97605420D01*
X174637661Y-97605420D02*
X174566232Y-97567325D01*
X174566232Y-97567325D02*
X174530518Y-97491134D01*
X174530518Y-97491134D02*
X174530518Y-97414944D01*
X174530518Y-97414944D02*
X174566232Y-97338753D01*
X174566232Y-97338753D02*
X174637661Y-97300658D01*
X174637661Y-97300658D02*
X174816232Y-97300658D01*
X174816232Y-97300658D02*
X174887661Y-97262563D01*
X175244803Y-97605420D02*
X175244803Y-97072086D01*
X175244803Y-96805420D02*
X175209089Y-96843515D01*
X175209089Y-96843515D02*
X175244803Y-96881610D01*
X175244803Y-96881610D02*
X175280517Y-96843515D01*
X175280517Y-96843515D02*
X175244803Y-96805420D01*
X175244803Y-96805420D02*
X175244803Y-96881610D01*
X175601946Y-97072086D02*
X175601946Y-97605420D01*
X175601946Y-97148277D02*
X175637660Y-97110182D01*
X175637660Y-97110182D02*
X175709089Y-97072086D01*
X175709089Y-97072086D02*
X175816232Y-97072086D01*
X175816232Y-97072086D02*
X175887660Y-97110182D01*
X175887660Y-97110182D02*
X175923375Y-97186372D01*
X175923375Y-97186372D02*
X175923375Y-97605420D01*
X177101946Y-97186372D02*
X177209089Y-97224467D01*
X177209089Y-97224467D02*
X177244803Y-97262563D01*
X177244803Y-97262563D02*
X177280517Y-97338753D01*
X177280517Y-97338753D02*
X177280517Y-97453039D01*
X177280517Y-97453039D02*
X177244803Y-97529229D01*
X177244803Y-97529229D02*
X177209089Y-97567325D01*
X177209089Y-97567325D02*
X177137660Y-97605420D01*
X177137660Y-97605420D02*
X176851946Y-97605420D01*
X176851946Y-97605420D02*
X176851946Y-96805420D01*
X176851946Y-96805420D02*
X177101946Y-96805420D01*
X177101946Y-96805420D02*
X177173375Y-96843515D01*
X177173375Y-96843515D02*
X177209089Y-96881610D01*
X177209089Y-96881610D02*
X177244803Y-96957801D01*
X177244803Y-96957801D02*
X177244803Y-97033991D01*
X177244803Y-97033991D02*
X177209089Y-97110182D01*
X177209089Y-97110182D02*
X177173375Y-97148277D01*
X177173375Y-97148277D02*
X177101946Y-97186372D01*
X177101946Y-97186372D02*
X176851946Y-97186372D01*
X178030517Y-97605420D02*
X177780517Y-97224467D01*
X177601946Y-97605420D02*
X177601946Y-96805420D01*
X177601946Y-96805420D02*
X177887660Y-96805420D01*
X177887660Y-96805420D02*
X177959089Y-96843515D01*
X177959089Y-96843515D02*
X177994803Y-96881610D01*
X177994803Y-96881610D02*
X178030517Y-96957801D01*
X178030517Y-96957801D02*
X178030517Y-97072086D01*
X178030517Y-97072086D02*
X177994803Y-97148277D01*
X177994803Y-97148277D02*
X177959089Y-97186372D01*
X177959089Y-97186372D02*
X177887660Y-97224467D01*
X177887660Y-97224467D02*
X177601946Y-97224467D01*
X186376926Y-105798297D02*
X186126926Y-105798297D01*
X186126926Y-106217345D02*
X186126926Y-105417345D01*
X186126926Y-105417345D02*
X186484069Y-105417345D01*
X187055497Y-106179250D02*
X186984069Y-106217345D01*
X186984069Y-106217345D02*
X186841212Y-106217345D01*
X186841212Y-106217345D02*
X186769783Y-106179250D01*
X186769783Y-106179250D02*
X186734069Y-106103059D01*
X186734069Y-106103059D02*
X186734069Y-105798297D01*
X186734069Y-105798297D02*
X186769783Y-105722107D01*
X186769783Y-105722107D02*
X186841212Y-105684011D01*
X186841212Y-105684011D02*
X186984069Y-105684011D01*
X186984069Y-105684011D02*
X187055497Y-105722107D01*
X187055497Y-105722107D02*
X187091212Y-105798297D01*
X187091212Y-105798297D02*
X187091212Y-105874488D01*
X187091212Y-105874488D02*
X186734069Y-105950678D01*
X187734069Y-106217345D02*
X187734069Y-105798297D01*
X187734069Y-105798297D02*
X187698354Y-105722107D01*
X187698354Y-105722107D02*
X187626926Y-105684011D01*
X187626926Y-105684011D02*
X187484069Y-105684011D01*
X187484069Y-105684011D02*
X187412640Y-105722107D01*
X187734069Y-106179250D02*
X187662640Y-106217345D01*
X187662640Y-106217345D02*
X187484069Y-106217345D01*
X187484069Y-106217345D02*
X187412640Y-106179250D01*
X187412640Y-106179250D02*
X187376926Y-106103059D01*
X187376926Y-106103059D02*
X187376926Y-106026869D01*
X187376926Y-106026869D02*
X187412640Y-105950678D01*
X187412640Y-105950678D02*
X187484069Y-105912583D01*
X187484069Y-105912583D02*
X187662640Y-105912583D01*
X187662640Y-105912583D02*
X187734069Y-105874488D01*
X187984068Y-105684011D02*
X188269782Y-105684011D01*
X188091211Y-105417345D02*
X188091211Y-106103059D01*
X188091211Y-106103059D02*
X188126925Y-106179250D01*
X188126925Y-106179250D02*
X188198354Y-106217345D01*
X188198354Y-106217345D02*
X188269782Y-106217345D01*
X188519782Y-106217345D02*
X188519782Y-105417345D01*
X188841211Y-106217345D02*
X188841211Y-105798297D01*
X188841211Y-105798297D02*
X188805496Y-105722107D01*
X188805496Y-105722107D02*
X188734068Y-105684011D01*
X188734068Y-105684011D02*
X188626925Y-105684011D01*
X188626925Y-105684011D02*
X188555496Y-105722107D01*
X188555496Y-105722107D02*
X188519782Y-105760202D01*
X189484067Y-106179250D02*
X189412639Y-106217345D01*
X189412639Y-106217345D02*
X189269782Y-106217345D01*
X189269782Y-106217345D02*
X189198353Y-106179250D01*
X189198353Y-106179250D02*
X189162639Y-106103059D01*
X189162639Y-106103059D02*
X189162639Y-105798297D01*
X189162639Y-105798297D02*
X189198353Y-105722107D01*
X189198353Y-105722107D02*
X189269782Y-105684011D01*
X189269782Y-105684011D02*
X189412639Y-105684011D01*
X189412639Y-105684011D02*
X189484067Y-105722107D01*
X189484067Y-105722107D02*
X189519782Y-105798297D01*
X189519782Y-105798297D02*
X189519782Y-105874488D01*
X189519782Y-105874488D02*
X189162639Y-105950678D01*
X189841210Y-106217345D02*
X189841210Y-105684011D01*
X189841210Y-105836392D02*
X189876924Y-105760202D01*
X189876924Y-105760202D02*
X189912639Y-105722107D01*
X189912639Y-105722107D02*
X189984067Y-105684011D01*
X189984067Y-105684011D02*
X190055496Y-105684011D01*
X190234067Y-105684011D02*
X190376925Y-106217345D01*
X190376925Y-106217345D02*
X190519782Y-105836392D01*
X190519782Y-105836392D02*
X190662639Y-106217345D01*
X190662639Y-106217345D02*
X190805496Y-105684011D01*
X191376924Y-106179250D02*
X191305496Y-106217345D01*
X191305496Y-106217345D02*
X191162639Y-106217345D01*
X191162639Y-106217345D02*
X191091210Y-106179250D01*
X191091210Y-106179250D02*
X191055496Y-106103059D01*
X191055496Y-106103059D02*
X191055496Y-105798297D01*
X191055496Y-105798297D02*
X191091210Y-105722107D01*
X191091210Y-105722107D02*
X191162639Y-105684011D01*
X191162639Y-105684011D02*
X191305496Y-105684011D01*
X191305496Y-105684011D02*
X191376924Y-105722107D01*
X191376924Y-105722107D02*
X191412639Y-105798297D01*
X191412639Y-105798297D02*
X191412639Y-105874488D01*
X191412639Y-105874488D02*
X191055496Y-105950678D01*
X191734067Y-106217345D02*
X191734067Y-105684011D01*
X191734067Y-105417345D02*
X191698353Y-105455440D01*
X191698353Y-105455440D02*
X191734067Y-105493535D01*
X191734067Y-105493535D02*
X191769781Y-105455440D01*
X191769781Y-105455440D02*
X191734067Y-105417345D01*
X191734067Y-105417345D02*
X191734067Y-105493535D01*
X192412639Y-105684011D02*
X192412639Y-106331630D01*
X192412639Y-106331630D02*
X192376924Y-106407821D01*
X192376924Y-106407821D02*
X192341210Y-106445916D01*
X192341210Y-106445916D02*
X192269781Y-106484011D01*
X192269781Y-106484011D02*
X192162639Y-106484011D01*
X192162639Y-106484011D02*
X192091210Y-106445916D01*
X192412639Y-106179250D02*
X192341210Y-106217345D01*
X192341210Y-106217345D02*
X192198353Y-106217345D01*
X192198353Y-106217345D02*
X192126924Y-106179250D01*
X192126924Y-106179250D02*
X192091210Y-106141154D01*
X192091210Y-106141154D02*
X192055496Y-106064964D01*
X192055496Y-106064964D02*
X192055496Y-105836392D01*
X192055496Y-105836392D02*
X192091210Y-105760202D01*
X192091210Y-105760202D02*
X192126924Y-105722107D01*
X192126924Y-105722107D02*
X192198353Y-105684011D01*
X192198353Y-105684011D02*
X192341210Y-105684011D01*
X192341210Y-105684011D02*
X192412639Y-105722107D01*
X192769781Y-106217345D02*
X192769781Y-105417345D01*
X193091210Y-106217345D02*
X193091210Y-105798297D01*
X193091210Y-105798297D02*
X193055495Y-105722107D01*
X193055495Y-105722107D02*
X192984067Y-105684011D01*
X192984067Y-105684011D02*
X192876924Y-105684011D01*
X192876924Y-105684011D02*
X192805495Y-105722107D01*
X192805495Y-105722107D02*
X192769781Y-105760202D01*
X193341209Y-105684011D02*
X193626923Y-105684011D01*
X193448352Y-105417345D02*
X193448352Y-106103059D01*
X193448352Y-106103059D02*
X193484066Y-106179250D01*
X193484066Y-106179250D02*
X193555495Y-106217345D01*
X193555495Y-106217345D02*
X193626923Y-106217345D01*
X187926926Y-107112583D02*
X188498355Y-107112583D01*
X188212640Y-107417345D02*
X188212640Y-106807821D01*
X189998355Y-107112583D02*
X190569784Y-107112583D01*
X176744678Y-139573115D02*
X175944678Y-139573115D01*
X175944678Y-139573115D02*
X176516106Y-139323115D01*
X176516106Y-139323115D02*
X175944678Y-139073115D01*
X175944678Y-139073115D02*
X176744678Y-139073115D01*
X175944678Y-138573115D02*
X175944678Y-138430258D01*
X175944678Y-138430258D02*
X175982773Y-138358829D01*
X175982773Y-138358829D02*
X176058963Y-138287401D01*
X176058963Y-138287401D02*
X176211344Y-138251686D01*
X176211344Y-138251686D02*
X176478011Y-138251686D01*
X176478011Y-138251686D02*
X176630392Y-138287401D01*
X176630392Y-138287401D02*
X176706583Y-138358829D01*
X176706583Y-138358829D02*
X176744678Y-138430258D01*
X176744678Y-138430258D02*
X176744678Y-138573115D01*
X176744678Y-138573115D02*
X176706583Y-138644544D01*
X176706583Y-138644544D02*
X176630392Y-138715972D01*
X176630392Y-138715972D02*
X176478011Y-138751686D01*
X176478011Y-138751686D02*
X176211344Y-138751686D01*
X176211344Y-138751686D02*
X176058963Y-138715972D01*
X176058963Y-138715972D02*
X175982773Y-138644544D01*
X175982773Y-138644544D02*
X175944678Y-138573115D01*
X176706583Y-137965972D02*
X176744678Y-137858830D01*
X176744678Y-137858830D02*
X176744678Y-137680258D01*
X176744678Y-137680258D02*
X176706583Y-137608830D01*
X176706583Y-137608830D02*
X176668487Y-137573115D01*
X176668487Y-137573115D02*
X176592297Y-137537401D01*
X176592297Y-137537401D02*
X176516106Y-137537401D01*
X176516106Y-137537401D02*
X176439916Y-137573115D01*
X176439916Y-137573115D02*
X176401821Y-137608830D01*
X176401821Y-137608830D02*
X176363725Y-137680258D01*
X176363725Y-137680258D02*
X176325630Y-137823115D01*
X176325630Y-137823115D02*
X176287535Y-137894544D01*
X176287535Y-137894544D02*
X176249440Y-137930258D01*
X176249440Y-137930258D02*
X176173249Y-137965972D01*
X176173249Y-137965972D02*
X176097059Y-137965972D01*
X176097059Y-137965972D02*
X176020868Y-137930258D01*
X176020868Y-137930258D02*
X175982773Y-137894544D01*
X175982773Y-137894544D02*
X175944678Y-137823115D01*
X175944678Y-137823115D02*
X175944678Y-137644544D01*
X175944678Y-137644544D02*
X175982773Y-137537401D01*
X176325630Y-136965972D02*
X176325630Y-137215972D01*
X176744678Y-137215972D02*
X175944678Y-137215972D01*
X175944678Y-137215972D02*
X175944678Y-136858829D01*
X176325630Y-136573115D02*
X176325630Y-136323115D01*
X176744678Y-136215972D02*
X176744678Y-136573115D01*
X176744678Y-136573115D02*
X175944678Y-136573115D01*
X175944678Y-136573115D02*
X175944678Y-136215972D01*
X175944678Y-136001687D02*
X175944678Y-135573116D01*
X176744678Y-135787401D02*
X175944678Y-135787401D01*
X193593962Y-120821664D02*
X193593962Y-121178807D01*
X193593962Y-121178807D02*
X192793962Y-121178807D01*
X193593962Y-120571664D02*
X192793962Y-120571664D01*
X192793962Y-120571664D02*
X192793962Y-120393093D01*
X192793962Y-120393093D02*
X192832057Y-120285950D01*
X192832057Y-120285950D02*
X192908247Y-120214521D01*
X192908247Y-120214521D02*
X192984438Y-120178807D01*
X192984438Y-120178807D02*
X193136819Y-120143093D01*
X193136819Y-120143093D02*
X193251105Y-120143093D01*
X193251105Y-120143093D02*
X193403486Y-120178807D01*
X193403486Y-120178807D02*
X193479676Y-120214521D01*
X193479676Y-120214521D02*
X193555867Y-120285950D01*
X193555867Y-120285950D02*
X193593962Y-120393093D01*
X193593962Y-120393093D02*
X193593962Y-120571664D01*
X192793962Y-119678807D02*
X192793962Y-119535950D01*
X192793962Y-119535950D02*
X192832057Y-119464521D01*
X192832057Y-119464521D02*
X192908247Y-119393093D01*
X192908247Y-119393093D02*
X193060628Y-119357378D01*
X193060628Y-119357378D02*
X193327295Y-119357378D01*
X193327295Y-119357378D02*
X193479676Y-119393093D01*
X193479676Y-119393093D02*
X193555867Y-119464521D01*
X193555867Y-119464521D02*
X193593962Y-119535950D01*
X193593962Y-119535950D02*
X193593962Y-119678807D01*
X193593962Y-119678807D02*
X193555867Y-119750236D01*
X193555867Y-119750236D02*
X193479676Y-119821664D01*
X193479676Y-119821664D02*
X193327295Y-119857378D01*
X193327295Y-119857378D02*
X193060628Y-119857378D01*
X193060628Y-119857378D02*
X192908247Y-119821664D01*
X192908247Y-119821664D02*
X192832057Y-119750236D01*
X192832057Y-119750236D02*
X192793962Y-119678807D01*
D11*
X170972263Y-131623341D02*
X170972263Y-130823341D01*
X170972263Y-130823341D02*
X171210358Y-130823341D01*
X171210358Y-130823341D02*
X171353215Y-130861436D01*
X171353215Y-130861436D02*
X171448453Y-130937626D01*
X171448453Y-130937626D02*
X171496072Y-131013817D01*
X171496072Y-131013817D02*
X171543691Y-131166198D01*
X171543691Y-131166198D02*
X171543691Y-131280484D01*
X171543691Y-131280484D02*
X171496072Y-131432865D01*
X171496072Y-131432865D02*
X171448453Y-131509055D01*
X171448453Y-131509055D02*
X171353215Y-131585246D01*
X171353215Y-131585246D02*
X171210358Y-131623341D01*
X171210358Y-131623341D02*
X170972263Y-131623341D01*
X171877025Y-130823341D02*
X172543691Y-130823341D01*
X172543691Y-130823341D02*
X171877025Y-131623341D01*
X171877025Y-131623341D02*
X172543691Y-131623341D01*
X172877025Y-130899531D02*
X172924644Y-130861436D01*
X172924644Y-130861436D02*
X173019882Y-130823341D01*
X173019882Y-130823341D02*
X173257977Y-130823341D01*
X173257977Y-130823341D02*
X173353215Y-130861436D01*
X173353215Y-130861436D02*
X173400834Y-130899531D01*
X173400834Y-130899531D02*
X173448453Y-130975722D01*
X173448453Y-130975722D02*
X173448453Y-131051912D01*
X173448453Y-131051912D02*
X173400834Y-131166198D01*
X173400834Y-131166198D02*
X172829406Y-131623341D01*
X172829406Y-131623341D02*
X173448453Y-131623341D01*
X171692822Y-125370638D02*
X171645203Y-125418258D01*
X171645203Y-125418258D02*
X171502346Y-125465877D01*
X171502346Y-125465877D02*
X171407108Y-125465877D01*
X171407108Y-125465877D02*
X171264251Y-125418258D01*
X171264251Y-125418258D02*
X171169013Y-125323019D01*
X171169013Y-125323019D02*
X171121394Y-125227781D01*
X171121394Y-125227781D02*
X171073775Y-125037305D01*
X171073775Y-125037305D02*
X171073775Y-124894448D01*
X171073775Y-124894448D02*
X171121394Y-124703972D01*
X171121394Y-124703972D02*
X171169013Y-124608734D01*
X171169013Y-124608734D02*
X171264251Y-124513496D01*
X171264251Y-124513496D02*
X171407108Y-124465877D01*
X171407108Y-124465877D02*
X171502346Y-124465877D01*
X171502346Y-124465877D02*
X171645203Y-124513496D01*
X171645203Y-124513496D02*
X171692822Y-124561115D01*
X172549965Y-124799210D02*
X172549965Y-125465877D01*
X172311870Y-124418258D02*
X172073775Y-125132543D01*
X172073775Y-125132543D02*
X172692822Y-125132543D01*
X175588854Y-125764138D02*
X175255521Y-125287947D01*
X175017426Y-125764138D02*
X175017426Y-124764138D01*
X175017426Y-124764138D02*
X175398378Y-124764138D01*
X175398378Y-124764138D02*
X175493616Y-124811757D01*
X175493616Y-124811757D02*
X175541235Y-124859376D01*
X175541235Y-124859376D02*
X175588854Y-124954614D01*
X175588854Y-124954614D02*
X175588854Y-125097471D01*
X175588854Y-125097471D02*
X175541235Y-125192709D01*
X175541235Y-125192709D02*
X175493616Y-125240328D01*
X175493616Y-125240328D02*
X175398378Y-125287947D01*
X175398378Y-125287947D02*
X175017426Y-125287947D01*
X175969807Y-124859376D02*
X176017426Y-124811757D01*
X176017426Y-124811757D02*
X176112664Y-124764138D01*
X176112664Y-124764138D02*
X176350759Y-124764138D01*
X176350759Y-124764138D02*
X176445997Y-124811757D01*
X176445997Y-124811757D02*
X176493616Y-124859376D01*
X176493616Y-124859376D02*
X176541235Y-124954614D01*
X176541235Y-124954614D02*
X176541235Y-125049852D01*
X176541235Y-125049852D02*
X176493616Y-125192709D01*
X176493616Y-125192709D02*
X175922188Y-125764138D01*
X175922188Y-125764138D02*
X176541235Y-125764138D01*
D15*
X122206463Y-96135107D02*
X122349320Y-96182726D01*
X122349320Y-96182726D02*
X122587415Y-96182726D01*
X122587415Y-96182726D02*
X122682653Y-96135107D01*
X122682653Y-96135107D02*
X122730272Y-96087487D01*
X122730272Y-96087487D02*
X122777891Y-95992249D01*
X122777891Y-95992249D02*
X122777891Y-95897011D01*
X122777891Y-95897011D02*
X122730272Y-95801773D01*
X122730272Y-95801773D02*
X122682653Y-95754154D01*
X122682653Y-95754154D02*
X122587415Y-95706535D01*
X122587415Y-95706535D02*
X122396939Y-95658916D01*
X122396939Y-95658916D02*
X122301701Y-95611297D01*
X122301701Y-95611297D02*
X122254082Y-95563678D01*
X122254082Y-95563678D02*
X122206463Y-95468440D01*
X122206463Y-95468440D02*
X122206463Y-95373202D01*
X122206463Y-95373202D02*
X122254082Y-95277964D01*
X122254082Y-95277964D02*
X122301701Y-95230345D01*
X122301701Y-95230345D02*
X122396939Y-95182726D01*
X122396939Y-95182726D02*
X122635034Y-95182726D01*
X122635034Y-95182726D02*
X122777891Y-95230345D01*
X123111225Y-95516059D02*
X123301701Y-96182726D01*
X123301701Y-96182726D02*
X123492177Y-95706535D01*
X123492177Y-95706535D02*
X123682653Y-96182726D01*
X123682653Y-96182726D02*
X123873129Y-95516059D01*
X124254082Y-96182726D02*
X124254082Y-95516059D01*
X124254082Y-95182726D02*
X124206463Y-95230345D01*
X124206463Y-95230345D02*
X124254082Y-95277964D01*
X124254082Y-95277964D02*
X124301701Y-95230345D01*
X124301701Y-95230345D02*
X124254082Y-95182726D01*
X124254082Y-95182726D02*
X124254082Y-95277964D01*
X124587415Y-95516059D02*
X124968367Y-95516059D01*
X124730272Y-95182726D02*
X124730272Y-96039868D01*
X124730272Y-96039868D02*
X124777891Y-96135107D01*
X124777891Y-96135107D02*
X124873129Y-96182726D01*
X124873129Y-96182726D02*
X124968367Y-96182726D01*
X125730272Y-96135107D02*
X125635034Y-96182726D01*
X125635034Y-96182726D02*
X125444558Y-96182726D01*
X125444558Y-96182726D02*
X125349320Y-96135107D01*
X125349320Y-96135107D02*
X125301701Y-96087487D01*
X125301701Y-96087487D02*
X125254082Y-95992249D01*
X125254082Y-95992249D02*
X125254082Y-95706535D01*
X125254082Y-95706535D02*
X125301701Y-95611297D01*
X125301701Y-95611297D02*
X125349320Y-95563678D01*
X125349320Y-95563678D02*
X125444558Y-95516059D01*
X125444558Y-95516059D02*
X125635034Y-95516059D01*
X125635034Y-95516059D02*
X125730272Y-95563678D01*
X126158844Y-96182726D02*
X126158844Y-95182726D01*
X126587415Y-96182726D02*
X126587415Y-95658916D01*
X126587415Y-95658916D02*
X126539796Y-95563678D01*
X126539796Y-95563678D02*
X126444558Y-95516059D01*
X126444558Y-95516059D02*
X126301701Y-95516059D01*
X126301701Y-95516059D02*
X126206463Y-95563678D01*
X126206463Y-95563678D02*
X126158844Y-95611297D01*
X129301702Y-95897011D02*
X129777892Y-95897011D01*
X129206464Y-96182726D02*
X129539797Y-95182726D01*
X129539797Y-95182726D02*
X129873130Y-96182726D01*
X130206464Y-95516059D02*
X130206464Y-96516059D01*
X130206464Y-95563678D02*
X130301702Y-95516059D01*
X130301702Y-95516059D02*
X130492178Y-95516059D01*
X130492178Y-95516059D02*
X130587416Y-95563678D01*
X130587416Y-95563678D02*
X130635035Y-95611297D01*
X130635035Y-95611297D02*
X130682654Y-95706535D01*
X130682654Y-95706535D02*
X130682654Y-95992249D01*
X130682654Y-95992249D02*
X130635035Y-96087487D01*
X130635035Y-96087487D02*
X130587416Y-96135107D01*
X130587416Y-96135107D02*
X130492178Y-96182726D01*
X130492178Y-96182726D02*
X130301702Y-96182726D01*
X130301702Y-96182726D02*
X130206464Y-96135107D01*
X131254083Y-96182726D02*
X131158845Y-96135107D01*
X131158845Y-96135107D02*
X131111226Y-96087487D01*
X131111226Y-96087487D02*
X131063607Y-95992249D01*
X131063607Y-95992249D02*
X131063607Y-95706535D01*
X131063607Y-95706535D02*
X131111226Y-95611297D01*
X131111226Y-95611297D02*
X131158845Y-95563678D01*
X131158845Y-95563678D02*
X131254083Y-95516059D01*
X131254083Y-95516059D02*
X131396940Y-95516059D01*
X131396940Y-95516059D02*
X131492178Y-95563678D01*
X131492178Y-95563678D02*
X131539797Y-95611297D01*
X131539797Y-95611297D02*
X131587416Y-95706535D01*
X131587416Y-95706535D02*
X131587416Y-95992249D01*
X131587416Y-95992249D02*
X131539797Y-96087487D01*
X131539797Y-96087487D02*
X131492178Y-96135107D01*
X131492178Y-96135107D02*
X131396940Y-96182726D01*
X131396940Y-96182726D02*
X131254083Y-96182726D01*
X135063608Y-96182726D02*
X135063608Y-95182726D01*
X135063608Y-95182726D02*
X135396941Y-95897011D01*
X135396941Y-95897011D02*
X135730274Y-95182726D01*
X135730274Y-95182726D02*
X135730274Y-96182726D01*
X136635036Y-96182726D02*
X136635036Y-95658916D01*
X136635036Y-95658916D02*
X136587417Y-95563678D01*
X136587417Y-95563678D02*
X136492179Y-95516059D01*
X136492179Y-95516059D02*
X136301703Y-95516059D01*
X136301703Y-95516059D02*
X136206465Y-95563678D01*
X136635036Y-96135107D02*
X136539798Y-96182726D01*
X136539798Y-96182726D02*
X136301703Y-96182726D01*
X136301703Y-96182726D02*
X136206465Y-96135107D01*
X136206465Y-96135107D02*
X136158846Y-96039868D01*
X136158846Y-96039868D02*
X136158846Y-95944630D01*
X136158846Y-95944630D02*
X136206465Y-95849392D01*
X136206465Y-95849392D02*
X136301703Y-95801773D01*
X136301703Y-95801773D02*
X136539798Y-95801773D01*
X136539798Y-95801773D02*
X136635036Y-95754154D01*
X137111227Y-96182726D02*
X137111227Y-95516059D01*
X137111227Y-95182726D02*
X137063608Y-95230345D01*
X137063608Y-95230345D02*
X137111227Y-95277964D01*
X137111227Y-95277964D02*
X137158846Y-95230345D01*
X137158846Y-95230345D02*
X137111227Y-95182726D01*
X137111227Y-95182726D02*
X137111227Y-95277964D01*
X137587417Y-95516059D02*
X137587417Y-96182726D01*
X137587417Y-95611297D02*
X137635036Y-95563678D01*
X137635036Y-95563678D02*
X137730274Y-95516059D01*
X137730274Y-95516059D02*
X137873131Y-95516059D01*
X137873131Y-95516059D02*
X137968369Y-95563678D01*
X137968369Y-95563678D02*
X138015988Y-95658916D01*
X138015988Y-95658916D02*
X138015988Y-96182726D01*
X172881139Y-112638008D02*
X172881139Y-113304675D01*
X172643044Y-112257056D02*
X172404949Y-112971341D01*
X172404949Y-112971341D02*
X173023996Y-112971341D01*
X173262092Y-112638008D02*
X173643044Y-112638008D01*
X173404949Y-112304675D02*
X173404949Y-113161817D01*
X173404949Y-113161817D02*
X173452568Y-113257056D01*
X173452568Y-113257056D02*
X173547806Y-113304675D01*
X173547806Y-113304675D02*
X173643044Y-113304675D01*
X173976378Y-113304675D02*
X173976378Y-112304675D01*
X174404949Y-113304675D02*
X174404949Y-112780865D01*
X174404949Y-112780865D02*
X174357330Y-112685627D01*
X174357330Y-112685627D02*
X174262092Y-112638008D01*
X174262092Y-112638008D02*
X174119235Y-112638008D01*
X174119235Y-112638008D02*
X174023997Y-112685627D01*
X174023997Y-112685627D02*
X173976378Y-112733246D01*
X175547807Y-112304675D02*
X176166854Y-112304675D01*
X176166854Y-112304675D02*
X175833521Y-112685627D01*
X175833521Y-112685627D02*
X175976378Y-112685627D01*
X175976378Y-112685627D02*
X176071616Y-112733246D01*
X176071616Y-112733246D02*
X176119235Y-112780865D01*
X176119235Y-112780865D02*
X176166854Y-112876103D01*
X176166854Y-112876103D02*
X176166854Y-113114198D01*
X176166854Y-113114198D02*
X176119235Y-113209436D01*
X176119235Y-113209436D02*
X176071616Y-113257056D01*
X176071616Y-113257056D02*
X175976378Y-113304675D01*
X175976378Y-113304675D02*
X175690664Y-113304675D01*
X175690664Y-113304675D02*
X175595426Y-113257056D01*
X175595426Y-113257056D02*
X175547807Y-113209436D01*
X176595426Y-113304675D02*
X176595426Y-112638008D01*
X176595426Y-112828484D02*
X176643045Y-112733246D01*
X176643045Y-112733246D02*
X176690664Y-112685627D01*
X176690664Y-112685627D02*
X176785902Y-112638008D01*
X176785902Y-112638008D02*
X176881140Y-112638008D01*
X177643045Y-113304675D02*
X177643045Y-112304675D01*
X177643045Y-113257056D02*
X177547807Y-113304675D01*
X177547807Y-113304675D02*
X177357331Y-113304675D01*
X177357331Y-113304675D02*
X177262093Y-113257056D01*
X177262093Y-113257056D02*
X177214474Y-113209436D01*
X177214474Y-113209436D02*
X177166855Y-113114198D01*
X177166855Y-113114198D02*
X177166855Y-112828484D01*
X177166855Y-112828484D02*
X177214474Y-112733246D01*
X177214474Y-112733246D02*
X177262093Y-112685627D01*
X177262093Y-112685627D02*
X177357331Y-112638008D01*
X177357331Y-112638008D02*
X177547807Y-112638008D01*
X177547807Y-112638008D02*
X177643045Y-112685627D01*
X178881141Y-113304675D02*
X178881141Y-112304675D01*
X178881141Y-112304675D02*
X179214474Y-113018960D01*
X179214474Y-113018960D02*
X179547807Y-112304675D01*
X179547807Y-112304675D02*
X179547807Y-113304675D01*
X180452569Y-113304675D02*
X180452569Y-112780865D01*
X180452569Y-112780865D02*
X180404950Y-112685627D01*
X180404950Y-112685627D02*
X180309712Y-112638008D01*
X180309712Y-112638008D02*
X180119236Y-112638008D01*
X180119236Y-112638008D02*
X180023998Y-112685627D01*
X180452569Y-113257056D02*
X180357331Y-113304675D01*
X180357331Y-113304675D02*
X180119236Y-113304675D01*
X180119236Y-113304675D02*
X180023998Y-113257056D01*
X180023998Y-113257056D02*
X179976379Y-113161817D01*
X179976379Y-113161817D02*
X179976379Y-113066579D01*
X179976379Y-113066579D02*
X180023998Y-112971341D01*
X180023998Y-112971341D02*
X180119236Y-112923722D01*
X180119236Y-112923722D02*
X180357331Y-112923722D01*
X180357331Y-112923722D02*
X180452569Y-112876103D01*
X180928760Y-113304675D02*
X180928760Y-112638008D01*
X180928760Y-112304675D02*
X180881141Y-112352294D01*
X180881141Y-112352294D02*
X180928760Y-112399913D01*
X180928760Y-112399913D02*
X180976379Y-112352294D01*
X180976379Y-112352294D02*
X180928760Y-112304675D01*
X180928760Y-112304675D02*
X180928760Y-112399913D01*
X181404950Y-112638008D02*
X181404950Y-113304675D01*
X181404950Y-112733246D02*
X181452569Y-112685627D01*
X181452569Y-112685627D02*
X181547807Y-112638008D01*
X181547807Y-112638008D02*
X181690664Y-112638008D01*
X181690664Y-112638008D02*
X181785902Y-112685627D01*
X181785902Y-112685627D02*
X181833521Y-112780865D01*
X181833521Y-112780865D02*
X181833521Y-113304675D01*
X172404949Y-114628904D02*
X172881139Y-114628904D01*
X172309711Y-114914619D02*
X172643044Y-113914619D01*
X172643044Y-113914619D02*
X172976377Y-114914619D01*
X173309711Y-114247952D02*
X173309711Y-115247952D01*
X173309711Y-114295571D02*
X173404949Y-114247952D01*
X173404949Y-114247952D02*
X173595425Y-114247952D01*
X173595425Y-114247952D02*
X173690663Y-114295571D01*
X173690663Y-114295571D02*
X173738282Y-114343190D01*
X173738282Y-114343190D02*
X173785901Y-114438428D01*
X173785901Y-114438428D02*
X173785901Y-114724142D01*
X173785901Y-114724142D02*
X173738282Y-114819380D01*
X173738282Y-114819380D02*
X173690663Y-114867000D01*
X173690663Y-114867000D02*
X173595425Y-114914619D01*
X173595425Y-114914619D02*
X173404949Y-114914619D01*
X173404949Y-114914619D02*
X173309711Y-114867000D01*
X174357330Y-114914619D02*
X174262092Y-114867000D01*
X174262092Y-114867000D02*
X174214473Y-114819380D01*
X174214473Y-114819380D02*
X174166854Y-114724142D01*
X174166854Y-114724142D02*
X174166854Y-114438428D01*
X174166854Y-114438428D02*
X174214473Y-114343190D01*
X174214473Y-114343190D02*
X174262092Y-114295571D01*
X174262092Y-114295571D02*
X174357330Y-114247952D01*
X174357330Y-114247952D02*
X174500187Y-114247952D01*
X174500187Y-114247952D02*
X174595425Y-114295571D01*
X174595425Y-114295571D02*
X174643044Y-114343190D01*
X174643044Y-114343190D02*
X174690663Y-114438428D01*
X174690663Y-114438428D02*
X174690663Y-114724142D01*
X174690663Y-114724142D02*
X174643044Y-114819380D01*
X174643044Y-114819380D02*
X174595425Y-114867000D01*
X174595425Y-114867000D02*
X174500187Y-114914619D01*
X174500187Y-114914619D02*
X174357330Y-114914619D01*
X176643045Y-114533666D02*
X177404950Y-114533666D01*
X180166855Y-114533666D02*
X180928760Y-114533666D01*
X180547807Y-114914619D02*
X180547807Y-114152714D01*
X184201075Y-134415095D02*
X184313742Y-134315186D01*
X184313742Y-134315186D02*
X184378791Y-134297757D01*
X184378791Y-134297757D02*
X184485079Y-134304136D01*
X184485079Y-134304136D02*
X184608797Y-134375565D01*
X184608797Y-134375565D02*
X184667466Y-134464423D01*
X184667466Y-134464423D02*
X184684896Y-134529472D01*
X184684896Y-134529472D02*
X184678516Y-134635760D01*
X184678516Y-134635760D02*
X184488040Y-134965675D01*
X184488040Y-134965675D02*
X183622015Y-134465675D01*
X183622015Y-134465675D02*
X183788682Y-134177000D01*
X183788682Y-134177000D02*
X183877540Y-134118330D01*
X183877540Y-134118330D02*
X183942589Y-134100901D01*
X183942589Y-134100901D02*
X184048877Y-134107280D01*
X184048877Y-134107280D02*
X184131355Y-134154899D01*
X184131355Y-134154899D02*
X184190025Y-134243758D01*
X184190025Y-134243758D02*
X184207454Y-134308807D01*
X184207454Y-134308807D02*
X184201075Y-134415095D01*
X184201075Y-134415095D02*
X184034408Y-134703770D01*
X185202326Y-133728496D02*
X184748694Y-133466591D01*
X184748694Y-133466591D02*
X184642406Y-133460211D01*
X184642406Y-133460211D02*
X184553547Y-133518880D01*
X184553547Y-133518880D02*
X184458309Y-133683837D01*
X184458309Y-133683837D02*
X184451929Y-133790125D01*
X185161087Y-133704686D02*
X185154707Y-133810974D01*
X185154707Y-133810974D02*
X185035659Y-134017171D01*
X185035659Y-134017171D02*
X184946801Y-134075840D01*
X184946801Y-134075840D02*
X184840513Y-134069460D01*
X184840513Y-134069460D02*
X184758034Y-134021841D01*
X184758034Y-134021841D02*
X184699365Y-133932983D01*
X184699365Y-133932983D02*
X184705745Y-133826694D01*
X184705745Y-133826694D02*
X184824793Y-133620498D01*
X184824793Y-133620498D02*
X184831172Y-133514210D01*
X184791642Y-133106487D02*
X184982119Y-132776573D01*
X184574396Y-132816102D02*
X185316703Y-133244674D01*
X185316703Y-133244674D02*
X185422991Y-133251054D01*
X185422991Y-133251054D02*
X185511850Y-133192385D01*
X185511850Y-133192385D02*
X185559469Y-133109906D01*
X185077357Y-132611615D02*
X185267833Y-132281701D01*
X184860110Y-132321230D02*
X185602418Y-132749802D01*
X185602418Y-132749802D02*
X185708706Y-132756182D01*
X185708706Y-132756182D02*
X185797564Y-132697512D01*
X185797564Y-132697512D02*
X185845183Y-132615034D01*
X186161087Y-131972634D02*
X186154707Y-132078923D01*
X186154707Y-132078923D02*
X186059469Y-132243880D01*
X186059469Y-132243880D02*
X185970611Y-132302549D01*
X185970611Y-132302549D02*
X185864323Y-132296169D01*
X185864323Y-132296169D02*
X185534408Y-132105693D01*
X185534408Y-132105693D02*
X185475739Y-132016835D01*
X185475739Y-132016835D02*
X185482119Y-131910546D01*
X185482119Y-131910546D02*
X185577357Y-131745589D01*
X185577357Y-131745589D02*
X185666216Y-131686920D01*
X185666216Y-131686920D02*
X185772504Y-131693300D01*
X185772504Y-131693300D02*
X185854982Y-131740919D01*
X185854982Y-131740919D02*
X185699366Y-132200931D01*
X186440422Y-131584051D02*
X185863072Y-131250717D01*
X186028029Y-131345956D02*
X185969360Y-131257097D01*
X185969360Y-131257097D02*
X185951930Y-131192048D01*
X185951930Y-131192048D02*
X185958310Y-131085760D01*
X185958310Y-131085760D02*
X186005929Y-131003282D01*
X186124976Y-130797085D02*
X186821374Y-130924222D01*
X186363072Y-130384692D02*
X186821374Y-130924222D01*
X186821374Y-130924222D02*
X186979952Y-131125748D01*
X186979952Y-131125748D02*
X186997382Y-131190797D01*
X186997382Y-131190797D02*
X186991002Y-131297085D01*
X187773756Y-129274649D02*
X187488041Y-129769521D01*
X187630898Y-129522085D02*
X186764873Y-129022085D01*
X186764873Y-129022085D02*
X186840972Y-129175992D01*
X186840972Y-129175992D02*
X186875831Y-129306090D01*
X186875831Y-129306090D02*
X186869452Y-129412378D01*
X187922992Y-128920925D02*
X188011851Y-128862256D01*
X188011851Y-128862256D02*
X188107089Y-128697299D01*
X188107089Y-128697299D02*
X188113469Y-128591010D01*
X188113469Y-128591010D02*
X188054800Y-128502152D01*
X188054800Y-128502152D02*
X188013560Y-128478343D01*
X188013560Y-128478343D02*
X187907272Y-128471963D01*
X187907272Y-128471963D02*
X187818414Y-128530632D01*
X187818414Y-128530632D02*
X187746985Y-128654350D01*
X187746985Y-128654350D02*
X187658127Y-128713019D01*
X187658127Y-128713019D02*
X187551839Y-128706639D01*
X187551839Y-128706639D02*
X187510599Y-128682830D01*
X187510599Y-128682830D02*
X187451930Y-128593971D01*
X187451930Y-128593971D02*
X187458310Y-128487683D01*
X187458310Y-128487683D02*
X187529739Y-128363965D01*
X187529739Y-128363965D02*
X187618597Y-128305296D01*
D12*
X109600634Y-121216257D02*
X108850634Y-119917218D01*
X108850634Y-119917218D02*
X109819361Y-120595103D01*
X109819361Y-120595103D02*
X109716660Y-119417218D01*
X109716660Y-119417218D02*
X110466660Y-120716257D01*
X111641980Y-120037685D02*
X111249123Y-119357236D01*
X111249123Y-119357236D02*
X111115835Y-119269233D01*
X111115835Y-119269233D02*
X110956403Y-119278802D01*
X110956403Y-119278802D02*
X110708967Y-119421660D01*
X110708967Y-119421660D02*
X110620964Y-119554947D01*
X111606266Y-119975826D02*
X111518262Y-120109114D01*
X111518262Y-120109114D02*
X111208967Y-120287685D01*
X111208967Y-120287685D02*
X111049535Y-120297255D01*
X111049535Y-120297255D02*
X110916248Y-120209251D01*
X110916248Y-120209251D02*
X110844819Y-120085533D01*
X110844819Y-120085533D02*
X110835250Y-119926101D01*
X110835250Y-119926101D02*
X110923253Y-119792813D01*
X110923253Y-119792813D02*
X111232548Y-119614242D01*
X111232548Y-119614242D02*
X111320552Y-119480954D01*
X112260570Y-119680542D02*
X111760570Y-118814517D01*
X111510570Y-118381504D02*
X111484425Y-118479077D01*
X111484425Y-118479077D02*
X111581998Y-118505222D01*
X111581998Y-118505222D02*
X111608143Y-118407649D01*
X111608143Y-118407649D02*
X111510570Y-118381504D01*
X111510570Y-118381504D02*
X111581998Y-118505222D01*
X112379160Y-118457374D02*
X112879160Y-119323399D01*
X112450588Y-118581092D02*
X112476733Y-118483518D01*
X112476733Y-118483518D02*
X112564737Y-118350231D01*
X112564737Y-118350231D02*
X112750313Y-118243088D01*
X112750313Y-118243088D02*
X112909746Y-118233518D01*
X112909746Y-118233518D02*
X113043033Y-118321522D01*
X113043033Y-118321522D02*
X113435890Y-119001970D01*
X115084379Y-117142951D02*
X115305670Y-117097667D01*
X115305670Y-117097667D02*
X115403243Y-117123811D01*
X115403243Y-117123811D02*
X115536531Y-117211815D01*
X115536531Y-117211815D02*
X115643673Y-117397392D01*
X115643673Y-117397392D02*
X115653243Y-117556824D01*
X115653243Y-117556824D02*
X115627098Y-117654397D01*
X115627098Y-117654397D02*
X115539095Y-117787685D01*
X115539095Y-117787685D02*
X115044223Y-118073399D01*
X115044223Y-118073399D02*
X114294223Y-116774361D01*
X114294223Y-116774361D02*
X114727236Y-116524361D01*
X114727236Y-116524361D02*
X114886668Y-116514791D01*
X114886668Y-116514791D02*
X114984241Y-116540936D01*
X114984241Y-116540936D02*
X115117529Y-116628940D01*
X115117529Y-116628940D02*
X115188957Y-116752658D01*
X115188957Y-116752658D02*
X115198527Y-116912090D01*
X115198527Y-116912090D02*
X115172382Y-117009663D01*
X115172382Y-117009663D02*
X115084379Y-117142951D01*
X115084379Y-117142951D02*
X114651366Y-117392951D01*
X116899992Y-117001970D02*
X116507135Y-116321522D01*
X116507135Y-116321522D02*
X116373847Y-116233518D01*
X116373847Y-116233518D02*
X116214415Y-116243088D01*
X116214415Y-116243088D02*
X115966979Y-116385945D01*
X115966979Y-116385945D02*
X115878976Y-116519233D01*
X116864278Y-116940112D02*
X116776274Y-117073399D01*
X116776274Y-117073399D02*
X116466979Y-117251970D01*
X116466979Y-117251970D02*
X116307547Y-117261540D01*
X116307547Y-117261540D02*
X116174259Y-117173536D01*
X116174259Y-117173536D02*
X116102831Y-117049819D01*
X116102831Y-117049819D02*
X116093261Y-116890386D01*
X116093261Y-116890386D02*
X116181265Y-116757099D01*
X116181265Y-116757099D02*
X116490560Y-116578527D01*
X116490560Y-116578527D02*
X116578563Y-116445240D01*
X116833005Y-115885945D02*
X117327876Y-115600231D01*
X116768582Y-115345789D02*
X117411439Y-116459251D01*
X117411439Y-116459251D02*
X117544726Y-116547254D01*
X117544726Y-116547254D02*
X117704158Y-116537685D01*
X117704158Y-116537685D02*
X117827876Y-116466256D01*
X117575312Y-115457374D02*
X118070184Y-115171659D01*
X117510889Y-114917218D02*
X118153746Y-116030679D01*
X118153746Y-116030679D02*
X118287034Y-116118683D01*
X118287034Y-116118683D02*
X118446466Y-116109113D01*
X118446466Y-116109113D02*
X118570184Y-116037685D01*
X119462354Y-115440111D02*
X119374351Y-115573399D01*
X119374351Y-115573399D02*
X119126915Y-115716256D01*
X119126915Y-115716256D02*
X118967483Y-115725826D01*
X118967483Y-115725826D02*
X118834195Y-115637822D01*
X118834195Y-115637822D02*
X118548481Y-115142950D01*
X118548481Y-115142950D02*
X118538911Y-114983518D01*
X118538911Y-114983518D02*
X118626915Y-114850231D01*
X118626915Y-114850231D02*
X118874351Y-114707373D01*
X118874351Y-114707373D02*
X119033783Y-114697804D01*
X119033783Y-114697804D02*
X119167070Y-114785807D01*
X119167070Y-114785807D02*
X119238499Y-114909525D01*
X119238499Y-114909525D02*
X118691338Y-115390386D01*
X120116658Y-115144828D02*
X119616658Y-114278802D01*
X119759515Y-114526238D02*
X119749945Y-114366806D01*
X119749945Y-114366806D02*
X119776090Y-114269233D01*
X119776090Y-114269233D02*
X119864094Y-114135945D01*
X119864094Y-114135945D02*
X119987812Y-114064516D01*
X120297106Y-113885945D02*
X121106401Y-114573399D01*
X120915696Y-113528802D02*
X121106401Y-114573399D01*
X121106401Y-114573399D02*
X121161254Y-114954123D01*
X121161254Y-114954123D02*
X121135110Y-115051696D01*
X121135110Y-115051696D02*
X121047106Y-115184983D01*
D16*
X121948613Y-98852598D02*
X122162899Y-98924026D01*
X122162899Y-98924026D02*
X122520041Y-98924026D01*
X122520041Y-98924026D02*
X122662899Y-98852598D01*
X122662899Y-98852598D02*
X122734327Y-98781169D01*
X122734327Y-98781169D02*
X122805756Y-98638312D01*
X122805756Y-98638312D02*
X122805756Y-98495455D01*
X122805756Y-98495455D02*
X122734327Y-98352598D01*
X122734327Y-98352598D02*
X122662899Y-98281169D01*
X122662899Y-98281169D02*
X122520041Y-98209740D01*
X122520041Y-98209740D02*
X122234327Y-98138312D01*
X122234327Y-98138312D02*
X122091470Y-98066883D01*
X122091470Y-98066883D02*
X122020041Y-97995455D01*
X122020041Y-97995455D02*
X121948613Y-97852598D01*
X121948613Y-97852598D02*
X121948613Y-97709740D01*
X121948613Y-97709740D02*
X122020041Y-97566883D01*
X122020041Y-97566883D02*
X122091470Y-97495455D01*
X122091470Y-97495455D02*
X122234327Y-97424026D01*
X122234327Y-97424026D02*
X122591470Y-97424026D01*
X122591470Y-97424026D02*
X122805756Y-97495455D01*
X123234327Y-97924026D02*
X123805755Y-97924026D01*
X123448612Y-97424026D02*
X123448612Y-98709740D01*
X123448612Y-98709740D02*
X123520041Y-98852598D01*
X123520041Y-98852598D02*
X123662898Y-98924026D01*
X123662898Y-98924026D02*
X123805755Y-98924026D01*
X124305755Y-98924026D02*
X124305755Y-97924026D01*
X124305755Y-98209740D02*
X124377184Y-98066883D01*
X124377184Y-98066883D02*
X124448613Y-97995455D01*
X124448613Y-97995455D02*
X124591470Y-97924026D01*
X124591470Y-97924026D02*
X124734327Y-97924026D01*
X125877184Y-98924026D02*
X125877184Y-98138312D01*
X125877184Y-98138312D02*
X125805755Y-97995455D01*
X125805755Y-97995455D02*
X125662898Y-97924026D01*
X125662898Y-97924026D02*
X125377184Y-97924026D01*
X125377184Y-97924026D02*
X125234326Y-97995455D01*
X125877184Y-98852598D02*
X125734326Y-98924026D01*
X125734326Y-98924026D02*
X125377184Y-98924026D01*
X125377184Y-98924026D02*
X125234326Y-98852598D01*
X125234326Y-98852598D02*
X125162898Y-98709740D01*
X125162898Y-98709740D02*
X125162898Y-98566883D01*
X125162898Y-98566883D02*
X125234326Y-98424026D01*
X125234326Y-98424026D02*
X125377184Y-98352598D01*
X125377184Y-98352598D02*
X125734326Y-98352598D01*
X125734326Y-98352598D02*
X125877184Y-98281169D01*
X126377184Y-97924026D02*
X126948612Y-97924026D01*
X126591469Y-97424026D02*
X126591469Y-98709740D01*
X126591469Y-98709740D02*
X126662898Y-98852598D01*
X126662898Y-98852598D02*
X126805755Y-98924026D01*
X126805755Y-98924026D02*
X126948612Y-98924026D01*
X127662898Y-98924026D02*
X127520041Y-98852598D01*
X127520041Y-98852598D02*
X127448612Y-98781169D01*
X127448612Y-98781169D02*
X127377184Y-98638312D01*
X127377184Y-98638312D02*
X127377184Y-98209740D01*
X127377184Y-98209740D02*
X127448612Y-98066883D01*
X127448612Y-98066883D02*
X127520041Y-97995455D01*
X127520041Y-97995455D02*
X127662898Y-97924026D01*
X127662898Y-97924026D02*
X127877184Y-97924026D01*
X127877184Y-97924026D02*
X128020041Y-97995455D01*
X128020041Y-97995455D02*
X128091470Y-98066883D01*
X128091470Y-98066883D02*
X128162898Y-98209740D01*
X128162898Y-98209740D02*
X128162898Y-98638312D01*
X128162898Y-98638312D02*
X128091470Y-98781169D01*
X128091470Y-98781169D02*
X128020041Y-98852598D01*
X128020041Y-98852598D02*
X127877184Y-98924026D01*
X127877184Y-98924026D02*
X127662898Y-98924026D01*
X129020041Y-98924026D02*
X128877184Y-98852598D01*
X128877184Y-98852598D02*
X128805755Y-98709740D01*
X128805755Y-98709740D02*
X128805755Y-97424026D01*
X129805755Y-98924026D02*
X129662898Y-98852598D01*
X129662898Y-98852598D02*
X129591469Y-98781169D01*
X129591469Y-98781169D02*
X129520041Y-98638312D01*
X129520041Y-98638312D02*
X129520041Y-98209740D01*
X129520041Y-98209740D02*
X129591469Y-98066883D01*
X129591469Y-98066883D02*
X129662898Y-97995455D01*
X129662898Y-97995455D02*
X129805755Y-97924026D01*
X129805755Y-97924026D02*
X130020041Y-97924026D01*
X130020041Y-97924026D02*
X130162898Y-97995455D01*
X130162898Y-97995455D02*
X130234327Y-98066883D01*
X130234327Y-98066883D02*
X130305755Y-98209740D01*
X130305755Y-98209740D02*
X130305755Y-98638312D01*
X130305755Y-98638312D02*
X130234327Y-98781169D01*
X130234327Y-98781169D02*
X130162898Y-98852598D01*
X130162898Y-98852598D02*
X130020041Y-98924026D01*
X130020041Y-98924026D02*
X129805755Y-98924026D01*
X131591470Y-97924026D02*
X131591470Y-99138312D01*
X131591470Y-99138312D02*
X131520041Y-99281169D01*
X131520041Y-99281169D02*
X131448612Y-99352598D01*
X131448612Y-99352598D02*
X131305755Y-99424026D01*
X131305755Y-99424026D02*
X131091470Y-99424026D01*
X131091470Y-99424026D02*
X130948612Y-99352598D01*
X131591470Y-98852598D02*
X131448612Y-98924026D01*
X131448612Y-98924026D02*
X131162898Y-98924026D01*
X131162898Y-98924026D02*
X131020041Y-98852598D01*
X131020041Y-98852598D02*
X130948612Y-98781169D01*
X130948612Y-98781169D02*
X130877184Y-98638312D01*
X130877184Y-98638312D02*
X130877184Y-98209740D01*
X130877184Y-98209740D02*
X130948612Y-98066883D01*
X130948612Y-98066883D02*
X131020041Y-97995455D01*
X131020041Y-97995455D02*
X131162898Y-97924026D01*
X131162898Y-97924026D02*
X131448612Y-97924026D01*
X131448612Y-97924026D02*
X131591470Y-97995455D01*
X132948613Y-97924026D02*
X132948613Y-99138312D01*
X132948613Y-99138312D02*
X132877184Y-99281169D01*
X132877184Y-99281169D02*
X132805755Y-99352598D01*
X132805755Y-99352598D02*
X132662898Y-99424026D01*
X132662898Y-99424026D02*
X132448613Y-99424026D01*
X132448613Y-99424026D02*
X132305755Y-99352598D01*
X132948613Y-98852598D02*
X132805755Y-98924026D01*
X132805755Y-98924026D02*
X132520041Y-98924026D01*
X132520041Y-98924026D02*
X132377184Y-98852598D01*
X132377184Y-98852598D02*
X132305755Y-98781169D01*
X132305755Y-98781169D02*
X132234327Y-98638312D01*
X132234327Y-98638312D02*
X132234327Y-98209740D01*
X132234327Y-98209740D02*
X132305755Y-98066883D01*
X132305755Y-98066883D02*
X132377184Y-97995455D01*
X132377184Y-97995455D02*
X132520041Y-97924026D01*
X132520041Y-97924026D02*
X132805755Y-97924026D01*
X132805755Y-97924026D02*
X132948613Y-97995455D01*
X134234327Y-98852598D02*
X134091470Y-98924026D01*
X134091470Y-98924026D02*
X133805756Y-98924026D01*
X133805756Y-98924026D02*
X133662898Y-98852598D01*
X133662898Y-98852598D02*
X133591470Y-98709740D01*
X133591470Y-98709740D02*
X133591470Y-98138312D01*
X133591470Y-98138312D02*
X133662898Y-97995455D01*
X133662898Y-97995455D02*
X133805756Y-97924026D01*
X133805756Y-97924026D02*
X134091470Y-97924026D01*
X134091470Y-97924026D02*
X134234327Y-97995455D01*
X134234327Y-97995455D02*
X134305756Y-98138312D01*
X134305756Y-98138312D02*
X134305756Y-98281169D01*
X134305756Y-98281169D02*
X133591470Y-98424026D01*
X134948612Y-98924026D02*
X134948612Y-97924026D01*
X134948612Y-98209740D02*
X135020041Y-98066883D01*
X135020041Y-98066883D02*
X135091470Y-97995455D01*
X135091470Y-97995455D02*
X135234327Y-97924026D01*
X135234327Y-97924026D02*
X135377184Y-97924026D01*
X137877183Y-98781169D02*
X137805755Y-98852598D01*
X137805755Y-98852598D02*
X137591469Y-98924026D01*
X137591469Y-98924026D02*
X137448612Y-98924026D01*
X137448612Y-98924026D02*
X137234326Y-98852598D01*
X137234326Y-98852598D02*
X137091469Y-98709740D01*
X137091469Y-98709740D02*
X137020040Y-98566883D01*
X137020040Y-98566883D02*
X136948612Y-98281169D01*
X136948612Y-98281169D02*
X136948612Y-98066883D01*
X136948612Y-98066883D02*
X137020040Y-97781169D01*
X137020040Y-97781169D02*
X137091469Y-97638312D01*
X137091469Y-97638312D02*
X137234326Y-97495455D01*
X137234326Y-97495455D02*
X137448612Y-97424026D01*
X137448612Y-97424026D02*
X137591469Y-97424026D01*
X137591469Y-97424026D02*
X137805755Y-97495455D01*
X137805755Y-97495455D02*
X137877183Y-97566883D01*
X139020040Y-98138312D02*
X138520040Y-98138312D01*
X138520040Y-98924026D02*
X138520040Y-97424026D01*
X138520040Y-97424026D02*
X139234326Y-97424026D01*
X171328852Y-110736214D02*
X171543138Y-110807642D01*
X171543138Y-110807642D02*
X171614567Y-110879071D01*
X171614567Y-110879071D02*
X171685995Y-111021928D01*
X171685995Y-111021928D02*
X171685995Y-111236214D01*
X171685995Y-111236214D02*
X171614567Y-111379071D01*
X171614567Y-111379071D02*
X171543138Y-111450500D01*
X171543138Y-111450500D02*
X171400281Y-111521928D01*
X171400281Y-111521928D02*
X170828852Y-111521928D01*
X170828852Y-111521928D02*
X170828852Y-110021928D01*
X170828852Y-110021928D02*
X171328852Y-110021928D01*
X171328852Y-110021928D02*
X171471710Y-110093357D01*
X171471710Y-110093357D02*
X171543138Y-110164785D01*
X171543138Y-110164785D02*
X171614567Y-110307642D01*
X171614567Y-110307642D02*
X171614567Y-110450500D01*
X171614567Y-110450500D02*
X171543138Y-110593357D01*
X171543138Y-110593357D02*
X171471710Y-110664785D01*
X171471710Y-110664785D02*
X171328852Y-110736214D01*
X171328852Y-110736214D02*
X170828852Y-110736214D01*
X172543138Y-111521928D02*
X172400281Y-111450500D01*
X172400281Y-111450500D02*
X172328852Y-111307642D01*
X172328852Y-111307642D02*
X172328852Y-110021928D01*
X173757424Y-110521928D02*
X173757424Y-111521928D01*
X173114566Y-110521928D02*
X173114566Y-111307642D01*
X173114566Y-111307642D02*
X173185995Y-111450500D01*
X173185995Y-111450500D02*
X173328852Y-111521928D01*
X173328852Y-111521928D02*
X173543138Y-111521928D01*
X173543138Y-111521928D02*
X173685995Y-111450500D01*
X173685995Y-111450500D02*
X173757424Y-111379071D01*
X175043138Y-111450500D02*
X174900281Y-111521928D01*
X174900281Y-111521928D02*
X174614567Y-111521928D01*
X174614567Y-111521928D02*
X174471709Y-111450500D01*
X174471709Y-111450500D02*
X174400281Y-111307642D01*
X174400281Y-111307642D02*
X174400281Y-110736214D01*
X174400281Y-110736214D02*
X174471709Y-110593357D01*
X174471709Y-110593357D02*
X174614567Y-110521928D01*
X174614567Y-110521928D02*
X174900281Y-110521928D01*
X174900281Y-110521928D02*
X175043138Y-110593357D01*
X175043138Y-110593357D02*
X175114567Y-110736214D01*
X175114567Y-110736214D02*
X175114567Y-110879071D01*
X175114567Y-110879071D02*
X174400281Y-111021928D01*
X177757423Y-111521928D02*
X177257423Y-110807642D01*
X176900280Y-111521928D02*
X176900280Y-110021928D01*
X176900280Y-110021928D02*
X177471709Y-110021928D01*
X177471709Y-110021928D02*
X177614566Y-110093357D01*
X177614566Y-110093357D02*
X177685995Y-110164785D01*
X177685995Y-110164785D02*
X177757423Y-110307642D01*
X177757423Y-110307642D02*
X177757423Y-110521928D01*
X177757423Y-110521928D02*
X177685995Y-110664785D01*
X177685995Y-110664785D02*
X177614566Y-110736214D01*
X177614566Y-110736214D02*
X177471709Y-110807642D01*
X177471709Y-110807642D02*
X176900280Y-110807642D01*
X179043138Y-111521928D02*
X179043138Y-110736214D01*
X179043138Y-110736214D02*
X178971709Y-110593357D01*
X178971709Y-110593357D02*
X178828852Y-110521928D01*
X178828852Y-110521928D02*
X178543138Y-110521928D01*
X178543138Y-110521928D02*
X178400280Y-110593357D01*
X179043138Y-111450500D02*
X178900280Y-111521928D01*
X178900280Y-111521928D02*
X178543138Y-111521928D01*
X178543138Y-111521928D02*
X178400280Y-111450500D01*
X178400280Y-111450500D02*
X178328852Y-111307642D01*
X178328852Y-111307642D02*
X178328852Y-111164785D01*
X178328852Y-111164785D02*
X178400280Y-111021928D01*
X178400280Y-111021928D02*
X178543138Y-110950500D01*
X178543138Y-110950500D02*
X178900280Y-110950500D01*
X178900280Y-110950500D02*
X179043138Y-110879071D01*
X179614566Y-110521928D02*
X179971709Y-111521928D01*
X179971709Y-111521928D02*
X180328852Y-110521928D01*
X181471709Y-111450500D02*
X181328852Y-111521928D01*
X181328852Y-111521928D02*
X181043138Y-111521928D01*
X181043138Y-111521928D02*
X180900280Y-111450500D01*
X180900280Y-111450500D02*
X180828852Y-111307642D01*
X180828852Y-111307642D02*
X180828852Y-110736214D01*
X180828852Y-110736214D02*
X180900280Y-110593357D01*
X180900280Y-110593357D02*
X181043138Y-110521928D01*
X181043138Y-110521928D02*
X181328852Y-110521928D01*
X181328852Y-110521928D02*
X181471709Y-110593357D01*
X181471709Y-110593357D02*
X181543138Y-110736214D01*
X181543138Y-110736214D02*
X181543138Y-110879071D01*
X181543138Y-110879071D02*
X180828852Y-111021928D01*
X182185994Y-110521928D02*
X182185994Y-111521928D01*
X182185994Y-110664785D02*
X182257423Y-110593357D01*
X182257423Y-110593357D02*
X182400280Y-110521928D01*
X182400280Y-110521928D02*
X182614566Y-110521928D01*
X182614566Y-110521928D02*
X182757423Y-110593357D01*
X182757423Y-110593357D02*
X182828852Y-110736214D01*
X182828852Y-110736214D02*
X182828852Y-111521928D01*
X179493138Y-103107012D02*
X178778852Y-103107012D01*
X178778852Y-103107012D02*
X178778852Y-101607012D01*
X179993138Y-103107012D02*
X179993138Y-102107012D01*
X179993138Y-101607012D02*
X179921710Y-101678441D01*
X179921710Y-101678441D02*
X179993138Y-101749869D01*
X179993138Y-101749869D02*
X180064567Y-101678441D01*
X180064567Y-101678441D02*
X179993138Y-101607012D01*
X179993138Y-101607012D02*
X179993138Y-101749869D01*
X180707424Y-102107012D02*
X180707424Y-103107012D01*
X180707424Y-102249869D02*
X180778853Y-102178441D01*
X180778853Y-102178441D02*
X180921710Y-102107012D01*
X180921710Y-102107012D02*
X181135996Y-102107012D01*
X181135996Y-102107012D02*
X181278853Y-102178441D01*
X181278853Y-102178441D02*
X181350282Y-102321298D01*
X181350282Y-102321298D02*
X181350282Y-103107012D01*
X182635996Y-103035584D02*
X182493139Y-103107012D01*
X182493139Y-103107012D02*
X182207425Y-103107012D01*
X182207425Y-103107012D02*
X182064567Y-103035584D01*
X182064567Y-103035584D02*
X181993139Y-102892726D01*
X181993139Y-102892726D02*
X181993139Y-102321298D01*
X181993139Y-102321298D02*
X182064567Y-102178441D01*
X182064567Y-102178441D02*
X182207425Y-102107012D01*
X182207425Y-102107012D02*
X182493139Y-102107012D01*
X182493139Y-102107012D02*
X182635996Y-102178441D01*
X182635996Y-102178441D02*
X182707425Y-102321298D01*
X182707425Y-102321298D02*
X182707425Y-102464155D01*
X182707425Y-102464155D02*
X181993139Y-102607012D01*
X179635995Y-105379071D02*
X179564567Y-105450500D01*
X179564567Y-105450500D02*
X179350281Y-105521928D01*
X179350281Y-105521928D02*
X179207424Y-105521928D01*
X179207424Y-105521928D02*
X178993138Y-105450500D01*
X178993138Y-105450500D02*
X178850281Y-105307642D01*
X178850281Y-105307642D02*
X178778852Y-105164785D01*
X178778852Y-105164785D02*
X178707424Y-104879071D01*
X178707424Y-104879071D02*
X178707424Y-104664785D01*
X178707424Y-104664785D02*
X178778852Y-104379071D01*
X178778852Y-104379071D02*
X178850281Y-104236214D01*
X178850281Y-104236214D02*
X178993138Y-104093357D01*
X178993138Y-104093357D02*
X179207424Y-104021928D01*
X179207424Y-104021928D02*
X179350281Y-104021928D01*
X179350281Y-104021928D02*
X179564567Y-104093357D01*
X179564567Y-104093357D02*
X179635995Y-104164785D01*
X180921710Y-104521928D02*
X180921710Y-105521928D01*
X180278852Y-104521928D02*
X180278852Y-105307642D01*
X180278852Y-105307642D02*
X180350281Y-105450500D01*
X180350281Y-105450500D02*
X180493138Y-105521928D01*
X180493138Y-105521928D02*
X180707424Y-105521928D01*
X180707424Y-105521928D02*
X180850281Y-105450500D01*
X180850281Y-105450500D02*
X180921710Y-105379071D01*
X181421710Y-104521928D02*
X181993138Y-104521928D01*
X181635995Y-104021928D02*
X181635995Y-105307642D01*
X181635995Y-105307642D02*
X181707424Y-105450500D01*
X181707424Y-105450500D02*
X181850281Y-105521928D01*
X181850281Y-105521928D02*
X181993138Y-105521928D01*
X182278853Y-104521928D02*
X182850281Y-104521928D01*
X182493138Y-104021928D02*
X182493138Y-105307642D01*
X182493138Y-105307642D02*
X182564567Y-105450500D01*
X182564567Y-105450500D02*
X182707424Y-105521928D01*
X182707424Y-105521928D02*
X182850281Y-105521928D01*
X183921710Y-105450500D02*
X183778853Y-105521928D01*
X183778853Y-105521928D02*
X183493139Y-105521928D01*
X183493139Y-105521928D02*
X183350281Y-105450500D01*
X183350281Y-105450500D02*
X183278853Y-105307642D01*
X183278853Y-105307642D02*
X183278853Y-104736214D01*
X183278853Y-104736214D02*
X183350281Y-104593357D01*
X183350281Y-104593357D02*
X183493139Y-104521928D01*
X183493139Y-104521928D02*
X183778853Y-104521928D01*
X183778853Y-104521928D02*
X183921710Y-104593357D01*
X183921710Y-104593357D02*
X183993139Y-104736214D01*
X183993139Y-104736214D02*
X183993139Y-104879071D01*
X183993139Y-104879071D02*
X183278853Y-105021928D01*
X184635995Y-105521928D02*
X184635995Y-104521928D01*
X184635995Y-104807642D02*
X184707424Y-104664785D01*
X184707424Y-104664785D02*
X184778853Y-104593357D01*
X184778853Y-104593357D02*
X184921710Y-104521928D01*
X184921710Y-104521928D02*
X185064567Y-104521928D01*
D17*
X171528571Y-95239700D02*
X172671429Y-95239700D01*
X172100000Y-95811128D02*
X172100000Y-94668271D01*
X176878571Y-94964700D02*
X178021429Y-94964700D01*
D11*
X159995739Y-132993775D02*
X159995739Y-132193775D01*
X159995739Y-132193775D02*
X160186215Y-132193775D01*
X160186215Y-132193775D02*
X160300501Y-132231870D01*
X160300501Y-132231870D02*
X160376691Y-132308060D01*
X160376691Y-132308060D02*
X160414786Y-132384251D01*
X160414786Y-132384251D02*
X160452882Y-132536632D01*
X160452882Y-132536632D02*
X160452882Y-132650918D01*
X160452882Y-132650918D02*
X160414786Y-132803299D01*
X160414786Y-132803299D02*
X160376691Y-132879489D01*
X160376691Y-132879489D02*
X160300501Y-132955680D01*
X160300501Y-132955680D02*
X160186215Y-132993775D01*
X160186215Y-132993775D02*
X159995739Y-132993775D01*
X160757643Y-132269965D02*
X160795739Y-132231870D01*
X160795739Y-132231870D02*
X160871929Y-132193775D01*
X160871929Y-132193775D02*
X161062405Y-132193775D01*
X161062405Y-132193775D02*
X161138596Y-132231870D01*
X161138596Y-132231870D02*
X161176691Y-132269965D01*
X161176691Y-132269965D02*
X161214786Y-132346156D01*
X161214786Y-132346156D02*
X161214786Y-132422346D01*
X161214786Y-132422346D02*
X161176691Y-132536632D01*
X161176691Y-132536632D02*
X160719548Y-132993775D01*
X160719548Y-132993775D02*
X161214786Y-132993775D01*
X161824310Y-132574727D02*
X161557644Y-132574727D01*
X161557644Y-132993775D02*
X161557644Y-132193775D01*
X161557644Y-132193775D02*
X161938596Y-132193775D01*
X162243358Y-132689013D02*
X162852882Y-132689013D01*
X163614786Y-132993775D02*
X163233834Y-132993775D01*
X163233834Y-132993775D02*
X163233834Y-132193775D01*
X163805262Y-132193775D02*
X164300500Y-132193775D01*
X164300500Y-132193775D02*
X164033834Y-132498537D01*
X164033834Y-132498537D02*
X164148119Y-132498537D01*
X164148119Y-132498537D02*
X164224310Y-132536632D01*
X164224310Y-132536632D02*
X164262405Y-132574727D01*
X164262405Y-132574727D02*
X164300500Y-132650918D01*
X164300500Y-132650918D02*
X164300500Y-132841394D01*
X164300500Y-132841394D02*
X164262405Y-132917584D01*
X164262405Y-132917584D02*
X164224310Y-132955680D01*
X164224310Y-132955680D02*
X164148119Y-132993775D01*
X164148119Y-132993775D02*
X163919548Y-132993775D01*
X163919548Y-132993775D02*
X163843357Y-132955680D01*
X163843357Y-132955680D02*
X163805262Y-132917584D01*
X159995739Y-113493775D02*
X159995739Y-112693775D01*
X159995739Y-112693775D02*
X160186215Y-112693775D01*
X160186215Y-112693775D02*
X160300501Y-112731870D01*
X160300501Y-112731870D02*
X160376691Y-112808060D01*
X160376691Y-112808060D02*
X160414786Y-112884251D01*
X160414786Y-112884251D02*
X160452882Y-113036632D01*
X160452882Y-113036632D02*
X160452882Y-113150918D01*
X160452882Y-113150918D02*
X160414786Y-113303299D01*
X160414786Y-113303299D02*
X160376691Y-113379489D01*
X160376691Y-113379489D02*
X160300501Y-113455680D01*
X160300501Y-113455680D02*
X160186215Y-113493775D01*
X160186215Y-113493775D02*
X159995739Y-113493775D01*
X160757643Y-112769965D02*
X160795739Y-112731870D01*
X160795739Y-112731870D02*
X160871929Y-112693775D01*
X160871929Y-112693775D02*
X161062405Y-112693775D01*
X161062405Y-112693775D02*
X161138596Y-112731870D01*
X161138596Y-112731870D02*
X161176691Y-112769965D01*
X161176691Y-112769965D02*
X161214786Y-112846156D01*
X161214786Y-112846156D02*
X161214786Y-112922346D01*
X161214786Y-112922346D02*
X161176691Y-113036632D01*
X161176691Y-113036632D02*
X160719548Y-113493775D01*
X160719548Y-113493775D02*
X161214786Y-113493775D01*
X161824310Y-113074727D02*
X161557644Y-113074727D01*
X161557644Y-113493775D02*
X161557644Y-112693775D01*
X161557644Y-112693775D02*
X161938596Y-112693775D01*
X162243358Y-113189013D02*
X162852882Y-113189013D01*
X163614786Y-113493775D02*
X163233834Y-113493775D01*
X163233834Y-113493775D02*
X163233834Y-112693775D01*
X163805262Y-112693775D02*
X164300500Y-112693775D01*
X164300500Y-112693775D02*
X164033834Y-112998537D01*
X164033834Y-112998537D02*
X164148119Y-112998537D01*
X164148119Y-112998537D02*
X164224310Y-113036632D01*
X164224310Y-113036632D02*
X164262405Y-113074727D01*
X164262405Y-113074727D02*
X164300500Y-113150918D01*
X164300500Y-113150918D02*
X164300500Y-113341394D01*
X164300500Y-113341394D02*
X164262405Y-113417584D01*
X164262405Y-113417584D02*
X164224310Y-113455680D01*
X164224310Y-113455680D02*
X164148119Y-113493775D01*
X164148119Y-113493775D02*
X163919548Y-113493775D01*
X163919548Y-113493775D02*
X163843357Y-113455680D01*
X163843357Y-113455680D02*
X163805262Y-113417584D01*
D17*
X176244667Y-118048819D02*
X176244667Y-118763104D01*
X176244667Y-118763104D02*
X176197048Y-118905961D01*
X176197048Y-118905961D02*
X176101810Y-119001200D01*
X176101810Y-119001200D02*
X175958953Y-119048819D01*
X175958953Y-119048819D02*
X175863715Y-119048819D01*
X176625620Y-118048819D02*
X177292286Y-118048819D01*
X177292286Y-118048819D02*
X176863715Y-119048819D01*
D11*
X147795739Y-132993775D02*
X147795739Y-132193775D01*
X147795739Y-132193775D02*
X147986215Y-132193775D01*
X147986215Y-132193775D02*
X148100501Y-132231870D01*
X148100501Y-132231870D02*
X148176691Y-132308060D01*
X148176691Y-132308060D02*
X148214786Y-132384251D01*
X148214786Y-132384251D02*
X148252882Y-132536632D01*
X148252882Y-132536632D02*
X148252882Y-132650918D01*
X148252882Y-132650918D02*
X148214786Y-132803299D01*
X148214786Y-132803299D02*
X148176691Y-132879489D01*
X148176691Y-132879489D02*
X148100501Y-132955680D01*
X148100501Y-132955680D02*
X147986215Y-132993775D01*
X147986215Y-132993775D02*
X147795739Y-132993775D01*
X148557643Y-132269965D02*
X148595739Y-132231870D01*
X148595739Y-132231870D02*
X148671929Y-132193775D01*
X148671929Y-132193775D02*
X148862405Y-132193775D01*
X148862405Y-132193775D02*
X148938596Y-132231870D01*
X148938596Y-132231870D02*
X148976691Y-132269965D01*
X148976691Y-132269965D02*
X149014786Y-132346156D01*
X149014786Y-132346156D02*
X149014786Y-132422346D01*
X149014786Y-132422346D02*
X148976691Y-132536632D01*
X148976691Y-132536632D02*
X148519548Y-132993775D01*
X148519548Y-132993775D02*
X149014786Y-132993775D01*
X149624310Y-132574727D02*
X149357644Y-132574727D01*
X149357644Y-132993775D02*
X149357644Y-132193775D01*
X149357644Y-132193775D02*
X149738596Y-132193775D01*
X150043358Y-132689013D02*
X150652882Y-132689013D01*
X151414786Y-132993775D02*
X151033834Y-132993775D01*
X151033834Y-132993775D02*
X151033834Y-132193775D01*
X151605262Y-132193775D02*
X152100500Y-132193775D01*
X152100500Y-132193775D02*
X151833834Y-132498537D01*
X151833834Y-132498537D02*
X151948119Y-132498537D01*
X151948119Y-132498537D02*
X152024310Y-132536632D01*
X152024310Y-132536632D02*
X152062405Y-132574727D01*
X152062405Y-132574727D02*
X152100500Y-132650918D01*
X152100500Y-132650918D02*
X152100500Y-132841394D01*
X152100500Y-132841394D02*
X152062405Y-132917584D01*
X152062405Y-132917584D02*
X152024310Y-132955680D01*
X152024310Y-132955680D02*
X151948119Y-132993775D01*
X151948119Y-132993775D02*
X151719548Y-132993775D01*
X151719548Y-132993775D02*
X151643357Y-132955680D01*
X151643357Y-132955680D02*
X151605262Y-132917584D01*
X194361098Y-115712555D02*
X194323002Y-115750651D01*
X194323002Y-115750651D02*
X194208717Y-115788746D01*
X194208717Y-115788746D02*
X194132526Y-115788746D01*
X194132526Y-115788746D02*
X194018240Y-115750651D01*
X194018240Y-115750651D02*
X193942050Y-115674460D01*
X193942050Y-115674460D02*
X193903955Y-115598270D01*
X193903955Y-115598270D02*
X193865859Y-115445889D01*
X193865859Y-115445889D02*
X193865859Y-115331603D01*
X193865859Y-115331603D02*
X193903955Y-115179222D01*
X193903955Y-115179222D02*
X193942050Y-115103031D01*
X193942050Y-115103031D02*
X194018240Y-115026841D01*
X194018240Y-115026841D02*
X194132526Y-114988746D01*
X194132526Y-114988746D02*
X194208717Y-114988746D01*
X194208717Y-114988746D02*
X194323002Y-115026841D01*
X194323002Y-115026841D02*
X194361098Y-115064936D01*
X195123002Y-115788746D02*
X194665859Y-115788746D01*
X194894431Y-115788746D02*
X194894431Y-114988746D01*
X194894431Y-114988746D02*
X194818240Y-115103031D01*
X194818240Y-115103031D02*
X194742050Y-115179222D01*
X194742050Y-115179222D02*
X194665859Y-115217317D01*
X147795739Y-113493775D02*
X147795739Y-112693775D01*
X147795739Y-112693775D02*
X147986215Y-112693775D01*
X147986215Y-112693775D02*
X148100501Y-112731870D01*
X148100501Y-112731870D02*
X148176691Y-112808060D01*
X148176691Y-112808060D02*
X148214786Y-112884251D01*
X148214786Y-112884251D02*
X148252882Y-113036632D01*
X148252882Y-113036632D02*
X148252882Y-113150918D01*
X148252882Y-113150918D02*
X148214786Y-113303299D01*
X148214786Y-113303299D02*
X148176691Y-113379489D01*
X148176691Y-113379489D02*
X148100501Y-113455680D01*
X148100501Y-113455680D02*
X147986215Y-113493775D01*
X147986215Y-113493775D02*
X147795739Y-113493775D01*
X148557643Y-112769965D02*
X148595739Y-112731870D01*
X148595739Y-112731870D02*
X148671929Y-112693775D01*
X148671929Y-112693775D02*
X148862405Y-112693775D01*
X148862405Y-112693775D02*
X148938596Y-112731870D01*
X148938596Y-112731870D02*
X148976691Y-112769965D01*
X148976691Y-112769965D02*
X149014786Y-112846156D01*
X149014786Y-112846156D02*
X149014786Y-112922346D01*
X149014786Y-112922346D02*
X148976691Y-113036632D01*
X148976691Y-113036632D02*
X148519548Y-113493775D01*
X148519548Y-113493775D02*
X149014786Y-113493775D01*
X149624310Y-113074727D02*
X149357644Y-113074727D01*
X149357644Y-113493775D02*
X149357644Y-112693775D01*
X149357644Y-112693775D02*
X149738596Y-112693775D01*
X150043358Y-113189013D02*
X150652882Y-113189013D01*
X151414786Y-113493775D02*
X151033834Y-113493775D01*
X151033834Y-113493775D02*
X151033834Y-112693775D01*
X151605262Y-112693775D02*
X152100500Y-112693775D01*
X152100500Y-112693775D02*
X151833834Y-112998537D01*
X151833834Y-112998537D02*
X151948119Y-112998537D01*
X151948119Y-112998537D02*
X152024310Y-113036632D01*
X152024310Y-113036632D02*
X152062405Y-113074727D01*
X152062405Y-113074727D02*
X152100500Y-113150918D01*
X152100500Y-113150918D02*
X152100500Y-113341394D01*
X152100500Y-113341394D02*
X152062405Y-113417584D01*
X152062405Y-113417584D02*
X152024310Y-113455680D01*
X152024310Y-113455680D02*
X151948119Y-113493775D01*
X151948119Y-113493775D02*
X151719548Y-113493775D01*
X151719548Y-113493775D02*
X151643357Y-113455680D01*
X151643357Y-113455680D02*
X151605262Y-113417584D01*
D17*
X171628571Y-81964700D02*
X172771429Y-81964700D01*
X172200000Y-82536128D02*
X172200000Y-81393271D01*
X176678571Y-82014700D02*
X177821429Y-82014700D01*
D13*
X120184628Y-138764927D02*
X121174372Y-138193498D01*
X120965214Y-138974084D02*
X120393786Y-137984341D01*
X130981282Y-132484326D02*
X131641111Y-132103374D01*
D11*
X135595739Y-113493775D02*
X135595739Y-112693775D01*
X135595739Y-112693775D02*
X135786215Y-112693775D01*
X135786215Y-112693775D02*
X135900501Y-112731870D01*
X135900501Y-112731870D02*
X135976691Y-112808060D01*
X135976691Y-112808060D02*
X136014786Y-112884251D01*
X136014786Y-112884251D02*
X136052882Y-113036632D01*
X136052882Y-113036632D02*
X136052882Y-113150918D01*
X136052882Y-113150918D02*
X136014786Y-113303299D01*
X136014786Y-113303299D02*
X135976691Y-113379489D01*
X135976691Y-113379489D02*
X135900501Y-113455680D01*
X135900501Y-113455680D02*
X135786215Y-113493775D01*
X135786215Y-113493775D02*
X135595739Y-113493775D01*
X136357643Y-112769965D02*
X136395739Y-112731870D01*
X136395739Y-112731870D02*
X136471929Y-112693775D01*
X136471929Y-112693775D02*
X136662405Y-112693775D01*
X136662405Y-112693775D02*
X136738596Y-112731870D01*
X136738596Y-112731870D02*
X136776691Y-112769965D01*
X136776691Y-112769965D02*
X136814786Y-112846156D01*
X136814786Y-112846156D02*
X136814786Y-112922346D01*
X136814786Y-112922346D02*
X136776691Y-113036632D01*
X136776691Y-113036632D02*
X136319548Y-113493775D01*
X136319548Y-113493775D02*
X136814786Y-113493775D01*
X137424310Y-113074727D02*
X137157644Y-113074727D01*
X137157644Y-113493775D02*
X137157644Y-112693775D01*
X137157644Y-112693775D02*
X137538596Y-112693775D01*
X137843358Y-113189013D02*
X138452882Y-113189013D01*
X139214786Y-113493775D02*
X138833834Y-113493775D01*
X138833834Y-113493775D02*
X138833834Y-112693775D01*
X139405262Y-112693775D02*
X139900500Y-112693775D01*
X139900500Y-112693775D02*
X139633834Y-112998537D01*
X139633834Y-112998537D02*
X139748119Y-112998537D01*
X139748119Y-112998537D02*
X139824310Y-113036632D01*
X139824310Y-113036632D02*
X139862405Y-113074727D01*
X139862405Y-113074727D02*
X139900500Y-113150918D01*
X139900500Y-113150918D02*
X139900500Y-113341394D01*
X139900500Y-113341394D02*
X139862405Y-113417584D01*
X139862405Y-113417584D02*
X139824310Y-113455680D01*
X139824310Y-113455680D02*
X139748119Y-113493775D01*
X139748119Y-113493775D02*
X139519548Y-113493775D01*
X139519548Y-113493775D02*
X139443357Y-113455680D01*
X139443357Y-113455680D02*
X139405262Y-113417584D01*
X135595739Y-132993775D02*
X135595739Y-132193775D01*
X135595739Y-132193775D02*
X135786215Y-132193775D01*
X135786215Y-132193775D02*
X135900501Y-132231870D01*
X135900501Y-132231870D02*
X135976691Y-132308060D01*
X135976691Y-132308060D02*
X136014786Y-132384251D01*
X136014786Y-132384251D02*
X136052882Y-132536632D01*
X136052882Y-132536632D02*
X136052882Y-132650918D01*
X136052882Y-132650918D02*
X136014786Y-132803299D01*
X136014786Y-132803299D02*
X135976691Y-132879489D01*
X135976691Y-132879489D02*
X135900501Y-132955680D01*
X135900501Y-132955680D02*
X135786215Y-132993775D01*
X135786215Y-132993775D02*
X135595739Y-132993775D01*
X136357643Y-132269965D02*
X136395739Y-132231870D01*
X136395739Y-132231870D02*
X136471929Y-132193775D01*
X136471929Y-132193775D02*
X136662405Y-132193775D01*
X136662405Y-132193775D02*
X136738596Y-132231870D01*
X136738596Y-132231870D02*
X136776691Y-132269965D01*
X136776691Y-132269965D02*
X136814786Y-132346156D01*
X136814786Y-132346156D02*
X136814786Y-132422346D01*
X136814786Y-132422346D02*
X136776691Y-132536632D01*
X136776691Y-132536632D02*
X136319548Y-132993775D01*
X136319548Y-132993775D02*
X136814786Y-132993775D01*
X137424310Y-132574727D02*
X137157644Y-132574727D01*
X137157644Y-132993775D02*
X137157644Y-132193775D01*
X137157644Y-132193775D02*
X137538596Y-132193775D01*
X137843358Y-132689013D02*
X138452882Y-132689013D01*
X139214786Y-132993775D02*
X138833834Y-132993775D01*
X138833834Y-132993775D02*
X138833834Y-132193775D01*
X139405262Y-132193775D02*
X139900500Y-132193775D01*
X139900500Y-132193775D02*
X139633834Y-132498537D01*
X139633834Y-132498537D02*
X139748119Y-132498537D01*
X139748119Y-132498537D02*
X139824310Y-132536632D01*
X139824310Y-132536632D02*
X139862405Y-132574727D01*
X139862405Y-132574727D02*
X139900500Y-132650918D01*
X139900500Y-132650918D02*
X139900500Y-132841394D01*
X139900500Y-132841394D02*
X139862405Y-132917584D01*
X139862405Y-132917584D02*
X139824310Y-132955680D01*
X139824310Y-132955680D02*
X139748119Y-132993775D01*
X139748119Y-132993775D02*
X139519548Y-132993775D01*
X139519548Y-132993775D02*
X139443357Y-132955680D01*
X139443357Y-132955680D02*
X139405262Y-132917584D01*
X159995739Y-93993775D02*
X159995739Y-93193775D01*
X159995739Y-93193775D02*
X160186215Y-93193775D01*
X160186215Y-93193775D02*
X160300501Y-93231870D01*
X160300501Y-93231870D02*
X160376691Y-93308060D01*
X160376691Y-93308060D02*
X160414786Y-93384251D01*
X160414786Y-93384251D02*
X160452882Y-93536632D01*
X160452882Y-93536632D02*
X160452882Y-93650918D01*
X160452882Y-93650918D02*
X160414786Y-93803299D01*
X160414786Y-93803299D02*
X160376691Y-93879489D01*
X160376691Y-93879489D02*
X160300501Y-93955680D01*
X160300501Y-93955680D02*
X160186215Y-93993775D01*
X160186215Y-93993775D02*
X159995739Y-93993775D01*
X160757643Y-93269965D02*
X160795739Y-93231870D01*
X160795739Y-93231870D02*
X160871929Y-93193775D01*
X160871929Y-93193775D02*
X161062405Y-93193775D01*
X161062405Y-93193775D02*
X161138596Y-93231870D01*
X161138596Y-93231870D02*
X161176691Y-93269965D01*
X161176691Y-93269965D02*
X161214786Y-93346156D01*
X161214786Y-93346156D02*
X161214786Y-93422346D01*
X161214786Y-93422346D02*
X161176691Y-93536632D01*
X161176691Y-93536632D02*
X160719548Y-93993775D01*
X160719548Y-93993775D02*
X161214786Y-93993775D01*
X161824310Y-93574727D02*
X161557644Y-93574727D01*
X161557644Y-93993775D02*
X161557644Y-93193775D01*
X161557644Y-93193775D02*
X161938596Y-93193775D01*
X162243358Y-93689013D02*
X162852882Y-93689013D01*
X163614786Y-93993775D02*
X163233834Y-93993775D01*
X163233834Y-93993775D02*
X163233834Y-93193775D01*
X163805262Y-93193775D02*
X164300500Y-93193775D01*
X164300500Y-93193775D02*
X164033834Y-93498537D01*
X164033834Y-93498537D02*
X164148119Y-93498537D01*
X164148119Y-93498537D02*
X164224310Y-93536632D01*
X164224310Y-93536632D02*
X164262405Y-93574727D01*
X164262405Y-93574727D02*
X164300500Y-93650918D01*
X164300500Y-93650918D02*
X164300500Y-93841394D01*
X164300500Y-93841394D02*
X164262405Y-93917584D01*
X164262405Y-93917584D02*
X164224310Y-93955680D01*
X164224310Y-93955680D02*
X164148119Y-93993775D01*
X164148119Y-93993775D02*
X163919548Y-93993775D01*
X163919548Y-93993775D02*
X163843357Y-93955680D01*
X163843357Y-93955680D02*
X163805262Y-93917584D01*
X147795739Y-93993775D02*
X147795739Y-93193775D01*
X147795739Y-93193775D02*
X147986215Y-93193775D01*
X147986215Y-93193775D02*
X148100501Y-93231870D01*
X148100501Y-93231870D02*
X148176691Y-93308060D01*
X148176691Y-93308060D02*
X148214786Y-93384251D01*
X148214786Y-93384251D02*
X148252882Y-93536632D01*
X148252882Y-93536632D02*
X148252882Y-93650918D01*
X148252882Y-93650918D02*
X148214786Y-93803299D01*
X148214786Y-93803299D02*
X148176691Y-93879489D01*
X148176691Y-93879489D02*
X148100501Y-93955680D01*
X148100501Y-93955680D02*
X147986215Y-93993775D01*
X147986215Y-93993775D02*
X147795739Y-93993775D01*
X148557643Y-93269965D02*
X148595739Y-93231870D01*
X148595739Y-93231870D02*
X148671929Y-93193775D01*
X148671929Y-93193775D02*
X148862405Y-93193775D01*
X148862405Y-93193775D02*
X148938596Y-93231870D01*
X148938596Y-93231870D02*
X148976691Y-93269965D01*
X148976691Y-93269965D02*
X149014786Y-93346156D01*
X149014786Y-93346156D02*
X149014786Y-93422346D01*
X149014786Y-93422346D02*
X148976691Y-93536632D01*
X148976691Y-93536632D02*
X148519548Y-93993775D01*
X148519548Y-93993775D02*
X149014786Y-93993775D01*
X149624310Y-93574727D02*
X149357644Y-93574727D01*
X149357644Y-93993775D02*
X149357644Y-93193775D01*
X149357644Y-93193775D02*
X149738596Y-93193775D01*
X150043358Y-93689013D02*
X150652882Y-93689013D01*
X151414786Y-93993775D02*
X151033834Y-93993775D01*
X151033834Y-93993775D02*
X151033834Y-93193775D01*
X151605262Y-93193775D02*
X152100500Y-93193775D01*
X152100500Y-93193775D02*
X151833834Y-93498537D01*
X151833834Y-93498537D02*
X151948119Y-93498537D01*
X151948119Y-93498537D02*
X152024310Y-93536632D01*
X152024310Y-93536632D02*
X152062405Y-93574727D01*
X152062405Y-93574727D02*
X152100500Y-93650918D01*
X152100500Y-93650918D02*
X152100500Y-93841394D01*
X152100500Y-93841394D02*
X152062405Y-93917584D01*
X152062405Y-93917584D02*
X152024310Y-93955680D01*
X152024310Y-93955680D02*
X151948119Y-93993775D01*
X151948119Y-93993775D02*
X151719548Y-93993775D01*
X151719548Y-93993775D02*
X151643357Y-93955680D01*
X151643357Y-93955680D02*
X151605262Y-93917584D01*
X185015593Y-117265997D02*
X184977497Y-117304093D01*
X184977497Y-117304093D02*
X184863212Y-117342188D01*
X184863212Y-117342188D02*
X184787021Y-117342188D01*
X184787021Y-117342188D02*
X184672735Y-117304093D01*
X184672735Y-117304093D02*
X184596545Y-117227902D01*
X184596545Y-117227902D02*
X184558450Y-117151712D01*
X184558450Y-117151712D02*
X184520354Y-116999331D01*
X184520354Y-116999331D02*
X184520354Y-116885045D01*
X184520354Y-116885045D02*
X184558450Y-116732664D01*
X184558450Y-116732664D02*
X184596545Y-116656473D01*
X184596545Y-116656473D02*
X184672735Y-116580283D01*
X184672735Y-116580283D02*
X184787021Y-116542188D01*
X184787021Y-116542188D02*
X184863212Y-116542188D01*
X184863212Y-116542188D02*
X184977497Y-116580283D01*
X184977497Y-116580283D02*
X185015593Y-116618378D01*
X185320354Y-116618378D02*
X185358450Y-116580283D01*
X185358450Y-116580283D02*
X185434640Y-116542188D01*
X185434640Y-116542188D02*
X185625116Y-116542188D01*
X185625116Y-116542188D02*
X185701307Y-116580283D01*
X185701307Y-116580283D02*
X185739402Y-116618378D01*
X185739402Y-116618378D02*
X185777497Y-116694569D01*
X185777497Y-116694569D02*
X185777497Y-116770759D01*
X185777497Y-116770759D02*
X185739402Y-116885045D01*
X185739402Y-116885045D02*
X185282259Y-117342188D01*
X185282259Y-117342188D02*
X185777497Y-117342188D01*
D17*
X124439700Y-114371428D02*
X124439700Y-113228571D01*
X125011128Y-113799999D02*
X123868271Y-113799999D01*
X124489700Y-109346428D02*
X124489700Y-108203571D01*
X173749180Y-103274666D02*
X173034895Y-103274666D01*
X173034895Y-103274666D02*
X172892038Y-103227047D01*
X172892038Y-103227047D02*
X172796800Y-103131809D01*
X172796800Y-103131809D02*
X172749180Y-102988952D01*
X172749180Y-102988952D02*
X172749180Y-102893714D01*
X172749180Y-103798476D02*
X172749180Y-103988952D01*
X172749180Y-103988952D02*
X172796800Y-104084190D01*
X172796800Y-104084190D02*
X172844419Y-104131809D01*
X172844419Y-104131809D02*
X172987276Y-104227047D01*
X172987276Y-104227047D02*
X173177752Y-104274666D01*
X173177752Y-104274666D02*
X173558704Y-104274666D01*
X173558704Y-104274666D02*
X173653942Y-104227047D01*
X173653942Y-104227047D02*
X173701561Y-104179428D01*
X173701561Y-104179428D02*
X173749180Y-104084190D01*
X173749180Y-104084190D02*
X173749180Y-103893714D01*
X173749180Y-103893714D02*
X173701561Y-103798476D01*
X173701561Y-103798476D02*
X173653942Y-103750857D01*
X173653942Y-103750857D02*
X173558704Y-103703238D01*
X173558704Y-103703238D02*
X173320609Y-103703238D01*
X173320609Y-103703238D02*
X173225371Y-103750857D01*
X173225371Y-103750857D02*
X173177752Y-103798476D01*
X173177752Y-103798476D02*
X173130133Y-103893714D01*
X173130133Y-103893714D02*
X173130133Y-104084190D01*
X173130133Y-104084190D02*
X173177752Y-104179428D01*
X173177752Y-104179428D02*
X173225371Y-104227047D01*
X173225371Y-104227047D02*
X173320609Y-104274666D01*
%TO.C,J8*%
D18*
X184096999Y-109073809D02*
X184097003Y-113376999D01*
X184097003Y-113376999D02*
X194002999Y-113376998D01*
X192781927Y-107560397D02*
X185318071Y-107560399D01*
X194002999Y-113376998D02*
X194003001Y-109073805D01*
D19*
X183254601Y-108450000D02*
G75*
G02*
X182492601Y-108450000I-381000J0D01*
G01*
X182492601Y-108450000D02*
G75*
G02*
X183254601Y-108450000I381000J0D01*
G01*
%TO.C,J6*%
D13*
X119880000Y-83114250D02*
X119880000Y-86384250D01*
X119880000Y-83114250D02*
X141520000Y-83114250D01*
X119880000Y-93014250D02*
X119880000Y-91484250D01*
X119880000Y-93014250D02*
X122090000Y-93014250D01*
X122800000Y-94084250D02*
X123200000Y-93284250D01*
X123200000Y-93284250D02*
X123600000Y-94084250D01*
X123600000Y-94084250D02*
X122800000Y-94084250D01*
X141520000Y-86384250D02*
X141520000Y-83114250D01*
X141520000Y-93014250D02*
X139310000Y-93014250D01*
X141520000Y-93014250D02*
X141520000Y-91484250D01*
%TO.C,J3*%
D20*
X169715000Y-94410001D02*
X169715000Y-88989998D01*
X178434999Y-88990001D02*
X169715000Y-88989998D01*
X178435000Y-94410003D02*
X169715000Y-94410001D01*
X180135000Y-90290001D02*
X178434999Y-88990001D01*
X180135000Y-93110001D02*
X178435000Y-94410003D01*
X180135000Y-93110001D02*
X180135000Y-90290001D01*
%TO.C,SW2*%
D13*
X159300000Y-128780000D02*
X165100000Y-128780000D01*
X165100000Y-141580000D01*
X159300000Y-141580000D01*
X159300000Y-128780000D01*
%TO.C,SW7*%
X159300000Y-109280000D02*
X165100000Y-109280000D01*
X165100000Y-122080000D01*
X159300000Y-122080000D01*
X159300000Y-109280000D01*
%TO.C,J2*%
D20*
X144159687Y-80729392D02*
X144159687Y-79349392D01*
X145539687Y-80729392D02*
X144159687Y-80729392D01*
X146809687Y-77969393D02*
X159619687Y-77969391D01*
X146809687Y-80729392D02*
X146809687Y-77969393D01*
X146809687Y-80729392D02*
X159619688Y-80729392D01*
X159619688Y-80729392D02*
X159619687Y-77969391D01*
%TO.C,J7*%
D18*
X169872401Y-113667000D02*
X169872401Y-115651681D01*
X169872401Y-116656319D02*
X169872401Y-122684000D01*
X169872401Y-122684000D02*
X183283601Y-122684000D01*
X183283601Y-113667000D02*
X169872401Y-113667000D01*
X183283601Y-115651681D02*
X183283601Y-113667000D01*
X183283601Y-122684000D02*
X183283601Y-116656319D01*
D19*
X184553601Y-120094000D02*
G75*
G02*
X183791601Y-120094000I-381000J0D01*
G01*
X183791601Y-120094000D02*
G75*
G02*
X184553601Y-120094000I381000J0D01*
G01*
%TO.C,SW8*%
D13*
X147100000Y-128780000D02*
X152900000Y-128780000D01*
X152900000Y-141580000D01*
X147100000Y-141580000D01*
X147100000Y-128780000D01*
%TO.C,C4*%
D20*
X171246748Y-125836000D02*
X172669252Y-125836000D01*
X171246748Y-127656000D02*
X172669252Y-127656000D01*
%TO.C,Q2*%
D13*
X168922000Y-134951000D02*
X175502000Y-134951000D01*
X168922000Y-140521000D02*
X168922000Y-134951000D01*
X169092000Y-140521000D02*
X168922000Y-140521000D01*
X175502000Y-134951000D02*
X175502000Y-140521000D01*
X175502000Y-140521000D02*
X175332000Y-140521000D01*
X174562000Y-130746000D02*
G75*
G02*
X174362000Y-130746000I-100000J0D01*
G01*
X174362000Y-130746000D02*
G75*
G02*
X174562000Y-130746000I100000J0D01*
G01*
%TO.C,C1*%
D20*
X192213253Y-114482202D02*
X190790749Y-114482202D01*
X192213253Y-116302202D02*
X190790749Y-116302202D01*
%TO.C,J17*%
D18*
X175680631Y-132257049D02*
X182103767Y-135965448D01*
X176683931Y-130519282D02*
X175680631Y-132257049D01*
X180201830Y-124426103D02*
X177191931Y-129639401D01*
X182103767Y-135965448D02*
X183107069Y-134227684D01*
X183615069Y-133347801D02*
X186624969Y-128134502D01*
X186624969Y-128134502D02*
X180201830Y-124426103D01*
D19*
X178026550Y-126161800D02*
G75*
G02*
X178686460Y-126542799I329955J-190500D01*
G01*
X178686462Y-126542800D02*
G75*
G02*
X178026549Y-126161799I-329957J190500D01*
G01*
%TO.C,SW6*%
D13*
X147100000Y-109280000D02*
X152900000Y-109280000D01*
X152900000Y-122080000D01*
X147100000Y-122080000D01*
X147100000Y-109280000D01*
%TO.C,J11*%
D20*
X169539999Y-88185001D02*
X169539999Y-82764998D01*
X178259998Y-82765001D02*
X169539999Y-82764998D01*
X178259999Y-88185003D02*
X169539999Y-88185001D01*
X179959999Y-84065001D02*
X178259998Y-82765001D01*
X179959999Y-86885001D02*
X178259999Y-88185003D01*
X179959999Y-86885001D02*
X179959999Y-84065001D01*
%TO.C,R2*%
X174858001Y-128743064D02*
X174857998Y-127288935D01*
X176678002Y-128743065D02*
X176677999Y-127288936D01*
%TO.C,J1*%
D13*
X110682166Y-123383316D02*
X114532162Y-130051713D01*
X110682166Y-123383316D02*
X122823842Y-116373318D01*
X113796041Y-130476712D02*
X114532162Y-130051713D01*
X113796041Y-130476712D02*
X116601041Y-135335115D01*
X122823842Y-116373318D02*
X126673840Y-123041712D01*
X123341238Y-136189482D02*
X126580174Y-134319480D01*
X126673840Y-123041712D02*
X127409960Y-122616711D01*
X127409960Y-122616711D02*
X130214960Y-127475114D01*
X121065979Y-137328415D02*
G75*
G02*
X116601042Y-135335115I-885574J4013657D01*
G01*
X130214960Y-127475114D02*
G75*
G02*
X130250279Y-131522688I-3559364J-2055000D01*
G01*
%TO.C,U1*%
D18*
X185482197Y-123304302D02*
X192441800Y-123304295D01*
X185482200Y-119341905D02*
X185482197Y-123304302D01*
X192441800Y-123304295D02*
X192441803Y-119341898D01*
X192441803Y-119341898D02*
X185482200Y-119341905D01*
X193711794Y-117678201D02*
G75*
G02*
X193457800Y-117678201I-126997J0D01*
G01*
X193457800Y-117678201D02*
G75*
G02*
X193711794Y-117678201I126997J0D01*
G01*
%TO.C,SW9*%
D13*
X134900000Y-109280000D02*
X140700000Y-109280000D01*
X140700000Y-122080000D01*
X134900000Y-122080000D01*
X134900000Y-109280000D01*
%TO.C,SW1*%
X134900000Y-128780000D02*
X140700000Y-128780000D01*
X140700000Y-141580000D01*
X134900000Y-141580000D01*
X134900000Y-128780000D01*
%TO.C,SW5*%
X159300000Y-89780000D02*
X165100000Y-89780000D01*
X165100000Y-102580000D01*
X159300000Y-102580000D01*
X159300000Y-89780000D01*
%TO.C,SW4*%
X147100000Y-89780000D02*
X152900000Y-89780000D01*
X152900000Y-102580000D01*
X147100000Y-102580000D01*
X147100000Y-89780000D01*
%TO.C,C2*%
D20*
X185964750Y-114482202D02*
X187387254Y-114482202D01*
X185964750Y-116302202D02*
X187387254Y-116302202D01*
%TO.C,DZ2*%
X169598000Y-128540000D02*
X169598000Y-130540000D01*
X169598000Y-128540000D02*
X173608000Y-128540000D01*
X169598000Y-130540000D02*
X173608000Y-130540000D01*
%TO.C,J20*%
X125306001Y-107488002D02*
X125306001Y-116208002D01*
X126606001Y-105788002D02*
X125306001Y-107488002D01*
X129426001Y-105788002D02*
X126606001Y-105788002D01*
X129426001Y-105788002D02*
X130726001Y-107488002D01*
X130726001Y-107488002D02*
X130726001Y-116208002D01*
X130726001Y-116208002D02*
X125306001Y-116208002D01*
%TO.C,J9*%
D18*
X169114000Y-98401003D02*
X169114002Y-108815000D01*
X169114002Y-108815000D02*
X175143649Y-108814999D01*
X175143652Y-98401000D02*
X169114000Y-98401003D01*
X176144348Y-108815001D02*
X178131000Y-108815002D01*
X178131000Y-98400999D02*
X176144346Y-98401001D01*
X178131000Y-108815002D02*
X178131000Y-98400999D01*
D19*
X170085000Y-109704000D02*
G75*
G02*
X169323000Y-109704000I-381000J0D01*
G01*
X169323000Y-109704000D02*
G75*
G02*
X170085000Y-109704000I381000J0D01*
G01*
%TD*%
M02*
