%TF.GenerationSoftware,KiCad,Pcbnew,10.0.4*%
%TF.CreationDate,2026-07-03T16:20:58-04:00*%
%TF.ProjectId,PCB_Armement_LC_2026,5043425f-4172-46d6-956d-656e745f4c43,rev?*%
%TF.SameCoordinates,Original*%
%TF.FileFunction,Soldermask,Bot*%
%TF.FilePolarity,Negative*%
%FSLAX46Y46*%
G04 Gerber Fmt 4.6, Leading zero omitted, Abs format (unit mm)*
G04 Created by KiCad (PCBNEW 10.0.4) date 2026-07-03 16:20:58*
%MOMM*%
%LPD*%
G01*
G04 APERTURE LIST*
G04 Aperture macros list*
%AMRoundRect*
0 Rectangle with rounded corners*
0 $1 Rounding radius*
0 $2 $3 $4 $5 $6 $7 $8 $9 X,Y pos of 4 corners*
0 Add a 4 corners polygon primitive as box body*
4,1,4,$2,$3,$4,$5,$6,$7,$8,$9,$2,$3,0*
0 Add four circle primitives for the rounded corners*
1,1,$1+$1,$2,$3*
1,1,$1+$1,$4,$5*
1,1,$1+$1,$6,$7*
1,1,$1+$1,$8,$9*
0 Add four rect primitives between the rounded corners*
20,1,$1+$1,$2,$3,$4,$5,0*
20,1,$1+$1,$4,$5,$6,$7,0*
20,1,$1+$1,$6,$7,$8,$9,0*
20,1,$1+$1,$8,$9,$2,$3,0*%
%AMRotRect*
0 Rectangle, with rotation*
0 The origin of the aperture is its center*
0 $1 length*
0 $2 width*
0 $3 Rotation angle, in degrees counterclockwise*
0 Add horizontal line*
21,1,$1,$2,0,0,$3*%
G04 Aperture macros list end*
%ADD10C,1.531200*%
%ADD11C,0.836200*%
%ADD12C,0.010000*%
%ADD13C,1.320800*%
%ADD14C,1.574800*%
%ADD15C,2.200000*%
%ADD16RoundRect,0.760000X1.140000X1.140000X-1.140000X1.140000X-1.140000X-1.140000X1.140000X-1.140000X0*%
%ADD17C,4.000000*%
%ADD18RoundRect,0.150000X-0.350000X-0.600000X0.350000X-0.600000X0.350000X0.600000X-0.350000X0.600000X0*%
%ADD19R,1.700000X1.700000*%
%ADD20C,1.700000*%
%ADD21C,1.066800*%
%ADD22C,1.778800*%
%ADD23RotRect,0.900000X2.000000X30.000000*%
%ADD24RoundRect,1.025000X-0.375176X-1.400176X1.400176X-0.375176X0.375176X1.400176X-1.400176X0.375176X0*%
%ADD25C,4.100000*%
%ADD26RoundRect,0.760000X-1.140000X1.140000X-1.140000X-1.140000X1.140000X-1.140000X1.140000X1.140000X0*%
%ADD27RoundRect,0.225000X0.007356X0.437260X-0.382356X0.212260X-0.007356X-0.437260X0.382356X-0.212260X0*%
%ADD28RoundRect,0.102000X-3.824871X1.024871X-1.024871X-3.824871X3.824871X-1.024871X1.024871X3.824871X0*%
%ADD29RoundRect,0.102000X-1.019615X0.566025X-0.019615X-1.166025X1.019615X-0.566025X0.019615X1.166025X0*%
%ADD30RoundRect,0.250000X0.725417X0.043542X0.400417X0.606458X-0.725417X-0.043542X-0.400417X-0.606458X0*%
%ADD31RoundRect,0.250000X0.041867X-0.697516X0.583133X-0.385016X-0.041867X0.697516X-0.583133X0.385016X0*%
G04 APERTURE END LIST*
%TO.C,J6*%
D10*
X121815600Y-87714250D02*
G75*
G02*
X120284400Y-87714250I-765600J0D01*
G01*
X120284400Y-87714250D02*
G75*
G02*
X121815600Y-87714250I765600J0D01*
G01*
D11*
X126618100Y-92034250D02*
G75*
G02*
X125781900Y-92034250I-418100J0D01*
G01*
X125781900Y-92034250D02*
G75*
G02*
X126618100Y-92034250I418100J0D01*
G01*
X129618100Y-92034250D02*
G75*
G02*
X128781900Y-92034250I-418100J0D01*
G01*
X128781900Y-92034250D02*
G75*
G02*
X129618100Y-92034250I418100J0D01*
G01*
X132618100Y-92034250D02*
G75*
G02*
X131781900Y-92034250I-418100J0D01*
G01*
X131781900Y-92034250D02*
G75*
G02*
X132618100Y-92034250I418100J0D01*
G01*
X135618100Y-92034250D02*
G75*
G02*
X134781900Y-92034250I-418100J0D01*
G01*
X134781900Y-92034250D02*
G75*
G02*
X135618100Y-92034250I418100J0D01*
G01*
X138618100Y-92034250D02*
G75*
G02*
X137781900Y-92034250I-418100J0D01*
G01*
X137781900Y-92034250D02*
G75*
G02*
X138618100Y-92034250I418100J0D01*
G01*
D10*
X141115600Y-87714250D02*
G75*
G02*
X139584400Y-87714250I-765600J0D01*
G01*
X139584400Y-87714250D02*
G75*
G02*
X141115600Y-87714250I765600J0D01*
G01*
D12*
X124036200Y-92870450D02*
X122363800Y-92870450D01*
X122363800Y-91198050D01*
X124036200Y-91198050D01*
X124036200Y-92870450D01*
G36*
X124036200Y-92870450D02*
G01*
X122363800Y-92870450D01*
X122363800Y-91198050D01*
X124036200Y-91198050D01*
X124036200Y-92870450D01*
G37*
%TD*%
D13*
%TO.C,J8*%
X193549996Y-108189998D03*
X184550001Y-108189999D03*
D14*
X187550000Y-110150000D03*
X190550000Y-110150000D03*
%TD*%
D15*
%TO.C,REF\u002A\u002A*%
X146900000Y-145000000D03*
%TD*%
%TO.C,REF\u002A\u002A*%
X159100000Y-106000000D03*
%TD*%
%TO.C,REF\u002A\u002A*%
X165300000Y-106000000D03*
%TD*%
D16*
%TO.C,J3*%
X177425000Y-91700001D03*
D17*
X172425000Y-91700001D03*
%TD*%
D18*
%TO.C,SW2*%
X162200000Y-140260000D03*
X162200000Y-135180000D03*
X162200000Y-130100000D03*
%TD*%
%TO.C,SW7*%
X162200000Y-120760000D03*
X162200000Y-115680000D03*
X162200000Y-110600000D03*
%TD*%
D15*
%TO.C,REF\u002A\u002A*%
X165300000Y-86500000D03*
%TD*%
%TO.C,REF\u002A\u002A*%
X159100000Y-145000000D03*
%TD*%
%TO.C,REF\u002A\u002A*%
X165300000Y-125500000D03*
%TD*%
%TO.C,REF\u002A\u002A*%
X159100000Y-86500000D03*
%TD*%
D19*
%TO.C,J2*%
X145539687Y-79349392D03*
D20*
X148079688Y-79349393D03*
X150619687Y-79349392D03*
X153159687Y-79349392D03*
X155699686Y-79349393D03*
X158239686Y-79349392D03*
%TD*%
D15*
%TO.C,REF\u002A\u002A*%
X140900000Y-106000000D03*
%TD*%
D21*
%TO.C,J7*%
X170578003Y-116154000D03*
X182577999Y-116154000D03*
D14*
X179578000Y-120094000D03*
X176578001Y-120094000D03*
X173578002Y-120094000D03*
X179578000Y-117094001D03*
X176578001Y-117094001D03*
X173578002Y-117094001D03*
%TD*%
D15*
%TO.C,REF\u002A\u002A*%
X165300000Y-145000000D03*
%TD*%
D18*
%TO.C,SW8*%
X150000000Y-140260000D03*
X150000000Y-135180000D03*
X150000000Y-130100000D03*
%TD*%
D15*
%TO.C,REF\u002A\u002A*%
X159100000Y-125500000D03*
%TD*%
%TO.C,REF\u002A\u002A*%
X153100000Y-145000000D03*
%TD*%
%TO.C,REF\u002A\u002A*%
X140900000Y-125500000D03*
%TD*%
D21*
%TO.C,J17*%
X182745149Y-133432143D03*
X177553849Y-130434941D03*
D22*
X182118000Y-128524000D03*
X180619400Y-131119654D03*
%TD*%
D15*
%TO.C,REF\u002A\u002A*%
X134700000Y-145000000D03*
%TD*%
D18*
%TO.C,SW6*%
X150000000Y-120760000D03*
X150000000Y-115680000D03*
X150000000Y-110600000D03*
%TD*%
D16*
%TO.C,J11*%
X177249999Y-85475001D03*
D17*
X172249999Y-85475001D03*
%TD*%
D15*
%TO.C,REF\u002A\u002A*%
X140900000Y-145000000D03*
%TD*%
D23*
%TO.C,J1*%
X115637329Y-131445917D03*
X127328672Y-124695917D03*
D24*
X127600692Y-131467069D03*
D25*
X121365309Y-135067069D03*
%TD*%
D15*
%TO.C,REF\u002A\u002A*%
X153100000Y-125500000D03*
%TD*%
D18*
%TO.C,SW9*%
X137800000Y-120760000D03*
X137800000Y-115680000D03*
X137800000Y-110600000D03*
%TD*%
%TO.C,SW1*%
X137800000Y-140260000D03*
X137800000Y-135180000D03*
X137800000Y-130100000D03*
%TD*%
D15*
%TO.C,REF\u002A\u002A*%
X146900000Y-106000000D03*
%TD*%
%TO.C,REF\u002A\u002A*%
X134700000Y-125500000D03*
%TD*%
%TO.C,REF\u002A\u002A*%
X153100000Y-106000000D03*
%TD*%
D18*
%TO.C,SW5*%
X162200000Y-101260000D03*
X162200000Y-96180000D03*
X162200000Y-91100000D03*
%TD*%
%TO.C,SW4*%
X150000000Y-101260000D03*
X150000000Y-96180000D03*
X150000000Y-91100000D03*
%TD*%
D15*
%TO.C,REF\u002A\u002A*%
X146900000Y-86500000D03*
%TD*%
D26*
%TO.C,J20*%
X128016001Y-108498002D03*
D17*
X128016001Y-113498002D03*
%TD*%
D21*
%TO.C,J9*%
X175644000Y-99108002D03*
X175644003Y-108108001D03*
D14*
X171704000Y-105108000D03*
X171704000Y-102108000D03*
X174704000Y-105108000D03*
X174703999Y-102108001D03*
%TD*%
D15*
%TO.C,REF\u002A\u002A*%
X153100000Y-86500000D03*
%TD*%
%TO.C,REF\u002A\u002A*%
X134700000Y-106000000D03*
%TD*%
%TO.C,REF\u002A\u002A*%
X146900000Y-125500000D03*
%TD*%
D27*
%TO.C,DZ1*%
X117379943Y-117664211D03*
X114522059Y-119314211D03*
%TD*%
D28*
%TO.C,Q1*%
X121158000Y-127508000D03*
D29*
X115609443Y-122397619D03*
X119506556Y-120147619D03*
%TD*%
D30*
%TO.C,C3*%
X121756939Y-118893391D03*
X120281939Y-116338617D03*
%TD*%
D31*
%TO.C,R1*%
X113287437Y-116800786D03*
X115820563Y-115338286D03*
%TD*%
M02*
