%TF.GenerationSoftware,KiCad,Pcbnew,10.0.4*%
%TF.CreationDate,2026-07-03T16:20:58-04:00*%
%TF.ProjectId,PCB_Armement_LC_2026,5043425f-4172-46d6-956d-656e745f4c43,rev?*%
%TF.SameCoordinates,Original*%
%TF.FileFunction,Copper,L1,Top*%
%TF.FilePolarity,Positive*%
%FSLAX46Y46*%
G04 Gerber Fmt 4.6, Leading zero omitted, Abs format (unit mm)*
G04 Created by KiCad (PCBNEW 10.0.4) date 2026-07-03 16:20:58*
%MOMM*%
%LPD*%
G01*
G04 APERTURE LIST*
G04 Aperture macros list*
%AMRoundRect*
0 Rectangle with rounded corners*
0 $1 Rounding radius*
0 $2 $3 $4 $5 $6 $7 $8 $9 X,Y pos of 4 corners*
0 Add a 4 corners polygon primitive as box body*
4,1,4,$2,$3,$4,$5,$6,$7,$8,$9,$2,$3,0*
0 Add four circle primitives for the rounded corners*
1,1,$1+$1,$2,$3*
1,1,$1+$1,$4,$5*
1,1,$1+$1,$6,$7*
1,1,$1+$1,$8,$9*
0 Add four rect primitives between the rounded corners*
20,1,$1+$1,$2,$3,$4,$5,0*
20,1,$1+$1,$4,$5,$6,$7,0*
20,1,$1+$1,$6,$7,$8,$9,0*
20,1,$1+$1,$8,$9,$2,$3,0*%
%AMRotRect*
0 Rectangle, with rotation*
0 The origin of the aperture is its center*
0 $1 length*
0 $2 width*
0 $3 Rotation angle, in degrees counterclockwise*
0 Add horizontal line*
21,1,$1,$2,0,0,$3*%
G04 Aperture macros list end*
%TA.AperFunction,ComponentPad*%
%ADD10C,1.574800*%
%TD*%
%TA.AperFunction,ComponentPad*%
%ADD11R,1.520000X1.520000*%
%TD*%
%TA.AperFunction,ComponentPad*%
%ADD12C,1.520000*%
%TD*%
%TA.AperFunction,ComponentPad*%
%ADD13C,2.910000*%
%TD*%
%TA.AperFunction,ComponentPad*%
%ADD14RoundRect,0.760000X1.140000X1.140000X-1.140000X1.140000X-1.140000X-1.140000X1.140000X-1.140000X0*%
%TD*%
%TA.AperFunction,ComponentPad*%
%ADD15C,4.000000*%
%TD*%
%TA.AperFunction,ComponentPad*%
%ADD16RoundRect,0.150000X-0.350000X-0.600000X0.350000X-0.600000X0.350000X0.600000X-0.350000X0.600000X0*%
%TD*%
%TA.AperFunction,ComponentPad*%
%ADD17R,1.700000X1.700000*%
%TD*%
%TA.AperFunction,ComponentPad*%
%ADD18C,1.700000*%
%TD*%
%TA.AperFunction,SMDPad,CuDef*%
%ADD19RoundRect,0.250000X-0.325000X-0.650000X0.325000X-0.650000X0.325000X0.650000X-0.325000X0.650000X0*%
%TD*%
%TA.AperFunction,SMDPad,CuDef*%
%ADD20R,5.600000X5.600000*%
%TD*%
%TA.AperFunction,SMDPad,CuDef*%
%ADD21R,1.200000X2.000000*%
%TD*%
%TA.AperFunction,SMDPad,CuDef*%
%ADD22RoundRect,0.250000X0.325000X0.650000X-0.325000X0.650000X-0.325000X-0.650000X0.325000X-0.650000X0*%
%TD*%
%TA.AperFunction,SMDPad,CuDef*%
%ADD23RoundRect,0.250000X0.625000X-0.312500X0.625000X0.312500X-0.625000X0.312500X-0.625000X-0.312500X0*%
%TD*%
%TA.AperFunction,ComponentPad*%
%ADD24RotRect,0.900000X2.000000X30.000000*%
%TD*%
%TA.AperFunction,ComponentPad*%
%ADD25RoundRect,1.025000X-0.375176X-1.400176X1.400176X-0.375176X0.375176X1.400176X-1.400176X0.375176X0*%
%TD*%
%TA.AperFunction,ComponentPad*%
%ADD26C,4.100000*%
%TD*%
%TA.AperFunction,SMDPad,CuDef*%
%ADD27R,0.863600X1.168400*%
%TD*%
%TA.AperFunction,SMDPad,CuDef*%
%ADD28R,3.149600X1.168400*%
%TD*%
%TA.AperFunction,SMDPad,CuDef*%
%ADD29RoundRect,0.225000X-0.225000X-0.375000X0.225000X-0.375000X0.225000X0.375000X-0.225000X0.375000X0*%
%TD*%
%TA.AperFunction,ComponentPad*%
%ADD30RoundRect,0.760000X-1.140000X1.140000X-1.140000X-1.140000X1.140000X-1.140000X1.140000X1.140000X0*%
%TD*%
%TA.AperFunction,ViaPad*%
%ADD31C,0.600000*%
%TD*%
%TA.AperFunction,Conductor*%
%ADD32C,0.500000*%
%TD*%
%TA.AperFunction,Conductor*%
%ADD33C,2.000000*%
%TD*%
%TA.AperFunction,Conductor*%
%ADD34C,1.500000*%
%TD*%
G04 APERTURE END LIST*
D10*
%TO.P,J8,1,Pin_1_1*%
%TO.N,Net-(J8-Pin_1)*%
X187550000Y-110150000D03*
%TO.P,J8,2,Pin_2_2*%
%TO.N,GND*%
X190550000Y-110150000D03*
%TD*%
D11*
%TO.P,J6,1,Pin_1_1*%
%TO.N,Strato S1*%
X123200000Y-92034250D03*
D12*
%TO.P,J6,2,Pin_2_2*%
%TO.N,Strato S2*%
X126200000Y-92034250D03*
%TO.P,J6,3,Pin_3_3*%
%TO.N,Strato Apo 2*%
X129200000Y-92034250D03*
%TO.P,J6,4,Pin_4_4*%
%TO.N,Strato Apo 1*%
X132200000Y-92034250D03*
%TO.P,J6,5,Pin_5_5*%
%TO.N,Strato Main 1*%
X135200000Y-92034250D03*
%TO.P,J6,6,Pin_6_6*%
%TO.N,Strato Main 2*%
X138200000Y-92034250D03*
D13*
%TO.P,J6,S1*%
%TO.N,N/C*%
X121050000Y-87714250D03*
%TO.P,J6,S2*%
X140350000Y-87714250D03*
%TD*%
D14*
%TO.P,J3,1,Pin_1_1*%
%TO.N,GND*%
X177425000Y-91700001D03*
D15*
%TO.P,J3,2,Pin_2_2*%
%TO.N,7v4*%
X172425000Y-91700001D03*
%TD*%
D16*
%TO.P,SW2,1,C_1*%
%TO.N,Net-(Q2-D)*%
X162200000Y-140260000D03*
%TO.P,SW2,2,B_2*%
%TO.N,Net-(J17-Pin_2)*%
X162200000Y-135180000D03*
%TO.P,SW2,3,A_3*%
%TO.N,unconnected-(SW2-A-Pad3)*%
X162200000Y-130100000D03*
%TD*%
%TO.P,SW7,1,C_1*%
%TO.N,Net-(J9-Pin_3)*%
X162200000Y-120760000D03*
%TO.P,SW7,2,B_2*%
%TO.N,BR1 +*%
X162200000Y-115680000D03*
%TO.P,SW7,3,A_3*%
%TO.N,BR1 Main*%
X162200000Y-110600000D03*
%TD*%
D17*
%TO.P,J2,1,Pin_1_1*%
%TO.N,M1*%
X145539687Y-79349392D03*
D18*
%TO.P,J2,2,Pin_2_2*%
%TO.N,BR1 3rd*%
X148079688Y-79349393D03*
%TO.P,J2,3,Pin_3_3*%
%TO.N,Strato Apo 2*%
X150619687Y-79349392D03*
%TO.P,J2,4,Pin_4_4*%
%TO.N,Net-(J2-Pin_4)*%
X153159687Y-79349392D03*
%TO.P,J2,5,Pin_5_5*%
%TO.N,Net-(J2-Pin_5)*%
X155699686Y-79349393D03*
%TO.P,J2,6,Pin_6_6*%
%TO.N,BR1 Apo*%
X158239686Y-79349392D03*
%TD*%
D10*
%TO.P,J7,1,Pin_1_1*%
%TO.N,BR1 +*%
X179578000Y-120094000D03*
%TO.P,J7,2,Pin_2_2*%
%TO.N,BR1 -*%
X176578001Y-120094000D03*
%TO.P,J7,3,Pin_3_3*%
%TO.N,BR1 Apo*%
X173578002Y-120094000D03*
%TO.P,J7,4,Pin_4_4*%
%TO.N,BR1 Main*%
X179578000Y-117094001D03*
%TO.P,J7,5,Pin_5_5*%
%TO.N,BR1 3rd*%
X176578001Y-117094001D03*
%TO.P,J7,6,Pin_6_6*%
%TO.N,BR1 4th*%
X173578002Y-117094001D03*
%TD*%
D16*
%TO.P,SW8,1,C_1*%
%TO.N,Strato S1*%
X150000000Y-140260000D03*
%TO.P,SW8,2,B_2*%
%TO.N,Strato S2*%
X150000000Y-135180000D03*
%TO.P,SW8,3,A_3*%
%TO.N,unconnected-(SW8-A-Pad3)*%
X150000000Y-130100000D03*
%TD*%
D19*
%TO.P,C4,1*%
%TO.N,BR1 +*%
X170483000Y-126746000D03*
%TO.P,C4,2*%
%TO.N,BR1 -*%
X173433000Y-126746000D03*
%TD*%
D20*
%TO.P,Q2,1,D_1*%
%TO.N,Net-(Q2-D)*%
X172212000Y-139446000D03*
D21*
%TO.P,Q2,2,G_2*%
%TO.N,Net-(DZ2-A)*%
X174462000Y-132246000D03*
%TO.P,Q2,3,S_3*%
%TO.N,BR1 +*%
X169962000Y-132246000D03*
%TD*%
D22*
%TO.P,C1,1*%
%TO.N,7v4*%
X192977001Y-115392202D03*
%TO.P,C1,2*%
%TO.N,GND*%
X190027001Y-115392202D03*
%TD*%
D10*
%TO.P,J17,1,Pin_1_1*%
%TO.N,BR1 -*%
X182118000Y-128524000D03*
%TO.P,J17,2,Pin_2_2*%
%TO.N,Net-(J17-Pin_2)*%
X180619400Y-131119654D03*
%TD*%
D16*
%TO.P,SW6,1,C_1*%
%TO.N,Net-(J9-Pin_2)*%
X150000000Y-120760000D03*
%TO.P,SW6,2,B_2*%
%TO.N,Strato Main 1*%
X150000000Y-115680000D03*
%TO.P,SW6,3,A_3*%
%TO.N,Strato Main 2*%
X150000000Y-110600000D03*
%TD*%
D14*
%TO.P,J11,1,Pin_1_1*%
%TO.N,GND*%
X177249999Y-85475001D03*
D15*
%TO.P,J11,2,Pin_2_2*%
%TO.N,7v4*%
X172249999Y-85475001D03*
%TD*%
D23*
%TO.P,R2,1*%
%TO.N,Net-(DZ2-A)*%
X175768000Y-129478501D03*
%TO.P,R2,2*%
%TO.N,BR1 -*%
X175768000Y-126553499D03*
%TD*%
D24*
%TO.P,J1,*%
%TO.N,*%
X115637329Y-131445917D03*
X127328672Y-124695917D03*
D25*
%TO.P,J1,1,Pin_1_1*%
%TO.N,Net-(J1-Pin_1)*%
X127600692Y-131467069D03*
D26*
%TO.P,J1,2,Pin_2_2*%
%TO.N,GND*%
X121365309Y-135067069D03*
%TD*%
D27*
%TO.P,U1,1,IN_1*%
%TO.N,7v4*%
X191262000Y-118110000D03*
%TO.P,U1,2,GND_2*%
%TO.N,GND*%
X188961999Y-118109998D03*
%TO.P,U1,3,OUT_3*%
%TO.N,Net-(J8-Pin_1)*%
X186662000Y-118110000D03*
D28*
%TO.P,U1,4,4_4*%
%TO.N,GND*%
X188962001Y-124536202D03*
%TD*%
D16*
%TO.P,SW9,1,C_1*%
%TO.N,M1*%
X137800000Y-120760000D03*
%TO.P,SW9,2,B_2*%
%TO.N,BR1 +*%
X137800000Y-115680000D03*
%TO.P,SW9,3,A_3*%
%TO.N,BR1 3rd*%
X137800000Y-110600000D03*
%TD*%
%TO.P,SW1,1,C_1*%
%TO.N,Net-(J1-Pin_1)*%
X137800000Y-140260000D03*
%TO.P,SW1,2,B_2*%
%TO.N,Net-(Q1-D)*%
X137800000Y-135180000D03*
%TO.P,SW1,3,A_3*%
%TO.N,unconnected-(SW1-A-Pad3)*%
X137800000Y-130100000D03*
%TD*%
%TO.P,SW5,1,C_1*%
%TO.N,Net-(J2-Pin_5)*%
X162200000Y-101260000D03*
%TO.P,SW5,2,B_2*%
%TO.N,BR1 +*%
X162200000Y-96180000D03*
%TO.P,SW5,3,A_3*%
%TO.N,BR1 Apo*%
X162200000Y-91100000D03*
%TD*%
%TO.P,SW4,1,C_1*%
%TO.N,Net-(J2-Pin_4)*%
X150000000Y-101260000D03*
%TO.P,SW4,2,B_2*%
%TO.N,Strato Apo 1*%
X150000000Y-96180000D03*
%TO.P,SW4,3,A_3*%
%TO.N,Strato Apo 2*%
X150000000Y-91100000D03*
%TD*%
D19*
%TO.P,C2,1*%
%TO.N,Net-(J8-Pin_1)*%
X185201002Y-115392202D03*
%TO.P,C2,2*%
%TO.N,GND*%
X188151002Y-115392202D03*
%TD*%
D29*
%TO.P,DZ2,1,K_1*%
%TO.N,BR1 +*%
X170308000Y-129540000D03*
%TO.P,DZ2,2,A_2*%
%TO.N,Net-(DZ2-A)*%
X173608000Y-129540000D03*
%TD*%
D30*
%TO.P,J20,1,Pin_1_1*%
%TO.N,GND*%
X128016001Y-108498002D03*
D15*
%TO.P,J20,2,Pin_2_2*%
%TO.N,7v4*%
X128016001Y-113498002D03*
%TD*%
D10*
%TO.P,J9,1,Pin_1_1*%
%TO.N,Strato Main 2*%
X171704000Y-105108000D03*
%TO.P,J9,2,Pin_2_2*%
%TO.N,Net-(J9-Pin_2)*%
X171704000Y-102108000D03*
%TO.P,J9,3,Pin_3_3*%
%TO.N,Net-(J9-Pin_3)*%
X174704000Y-105108000D03*
%TO.P,J9,4,Pin_4_4*%
%TO.N,BR1 Main*%
X174703999Y-102108001D03*
%TD*%
D31*
%TO.N,GND*%
X140975000Y-82025000D03*
X165700000Y-81550000D03*
X140250000Y-81050000D03*
X166325000Y-81550000D03*
X166625000Y-82100000D03*
X140925000Y-81050000D03*
X166950000Y-81550000D03*
X141400000Y-81525000D03*
X140600000Y-81500000D03*
X166000000Y-82100000D03*
X139825000Y-81575000D03*
X189422003Y-126238000D03*
X166650000Y-81000000D03*
X166000000Y-81000000D03*
X140250000Y-82050000D03*
X188468000Y-126238000D03*
%TO.N,Net-(J9-Pin_3)*%
X169418000Y-115316000D03*
%TO.N,Net-(J9-Pin_2)*%
X156210000Y-103124000D03*
X153416000Y-120650000D03*
%TD*%
%TO.N,Strato S1*%
D32*
X150000000Y-140260000D02*
X144360000Y-134620000D01*
X131318000Y-106903000D02*
X123200000Y-98785000D01*
X123200000Y-98785000D02*
X123200000Y-92034250D01*
X144360000Y-134620000D02*
X139827000Y-134620000D01*
X132588000Y-120777000D02*
X131318000Y-119507000D01*
X139827000Y-134620000D02*
X132588000Y-127381000D01*
X131318000Y-119507000D02*
X131318000Y-106903000D01*
X132588000Y-127381000D02*
X132588000Y-120777000D01*
%TO.N,Strato S2*%
X137668000Y-123952000D02*
X132588000Y-118872000D01*
X132588000Y-106316000D02*
X126150000Y-99878000D01*
X126150000Y-92084250D02*
X126200000Y-92034250D01*
X126150000Y-99878000D02*
X126150000Y-92084250D01*
X145884000Y-131064000D02*
X141478000Y-131064000D01*
X137668000Y-127254000D02*
X137668000Y-123952000D01*
X141478000Y-131064000D02*
X137668000Y-127254000D01*
X132588000Y-118872000D02*
X132588000Y-106316000D01*
X150000000Y-135180000D02*
X145884000Y-131064000D01*
%TO.N,Strato Apo 2*%
X141425000Y-84100000D02*
X148425000Y-91100000D01*
X129200000Y-92034250D02*
X137134250Y-84100000D01*
X137134250Y-84100000D02*
X141425000Y-84100000D01*
X148425000Y-91100000D02*
X150000000Y-91100000D01*
%TO.N,Strato Apo 1*%
X132200000Y-92034250D02*
X139184250Y-85050000D01*
X150000000Y-94175000D02*
X150000000Y-96180000D01*
X139184250Y-85050000D02*
X140875000Y-85050000D01*
X140875000Y-85050000D02*
X150000000Y-94175000D01*
%TO.N,Strato Main 1*%
X144018000Y-106172000D02*
X135200000Y-97354000D01*
X144018000Y-109698000D02*
X144018000Y-106172000D01*
X135200000Y-97354000D02*
X135200000Y-92034250D01*
X150000000Y-115680000D02*
X144018000Y-109698000D01*
%TO.N,Strato Main 2*%
X138200000Y-98830000D02*
X138200000Y-92034250D01*
X145034000Y-107442000D02*
X145034000Y-105664000D01*
X150000000Y-110600000D02*
X148192000Y-110600000D01*
X145034000Y-105664000D02*
X138200000Y-98830000D01*
X138350000Y-92184250D02*
X138200000Y-92034250D01*
X148192000Y-110600000D02*
X145034000Y-107442000D01*
%TO.N,GND*%
D33*
X140650000Y-81550000D02*
X140600000Y-81500000D01*
D32*
X188961999Y-118109998D02*
X188961999Y-116203199D01*
X188989999Y-125997999D02*
X188962001Y-125997999D01*
X188962001Y-124536202D02*
X188962001Y-118110000D01*
X188961999Y-116203199D02*
X188151002Y-115392202D01*
X189230000Y-126238000D02*
X188989999Y-125997999D01*
X188962001Y-125997999D02*
X188722000Y-126238000D01*
X188962001Y-118110000D02*
X188961999Y-118109998D01*
X189422003Y-126238000D02*
X189230000Y-126238000D01*
X188961999Y-116457206D02*
X190027003Y-115392203D01*
X190027001Y-110672999D02*
X190550000Y-110150000D01*
X190027001Y-115392202D02*
X190027001Y-110672999D01*
X188962001Y-124536202D02*
X188962001Y-125997999D01*
X188722000Y-126238000D02*
X188468000Y-126238000D01*
X189692003Y-115057203D02*
X190027003Y-115392203D01*
D33*
X166300000Y-81550000D02*
X140650000Y-81550000D01*
D32*
X188961999Y-118109998D02*
X188961999Y-116457206D01*
%TO.N,7v4*%
X191262000Y-118110000D02*
X191262000Y-117107203D01*
X191262000Y-117107203D02*
X192977004Y-115392203D01*
%TO.N,Net-(Q2-D)*%
X172212000Y-139446000D02*
X163014000Y-139446000D01*
X163014000Y-139446000D02*
X162200000Y-140260000D01*
%TO.N,Net-(J17-Pin_2)*%
X177119054Y-134620000D02*
X162760000Y-134620000D01*
X162760000Y-134620000D02*
X162200000Y-135180000D01*
X180619400Y-131119654D02*
X177119054Y-134620000D01*
%TO.N,Net-(J9-Pin_3)*%
X174498000Y-110236000D02*
X174498000Y-105314000D01*
X174498000Y-105314000D02*
X174704000Y-105108000D01*
X169418000Y-115316000D02*
X174498000Y-110236000D01*
%TO.N,BR1 +*%
X175466000Y-124206000D02*
X171958000Y-124206000D01*
X163432000Y-115680000D02*
X162200000Y-115680000D01*
X170308000Y-129540000D02*
X170308000Y-126921000D01*
X169962000Y-132246000D02*
X169962000Y-129886000D01*
X171704000Y-124460000D02*
X170483000Y-125681000D01*
X169962000Y-132878000D02*
X169962000Y-132246000D01*
X157226000Y-101154000D02*
X162200000Y-96180000D01*
X169962000Y-129886000D02*
X170308000Y-129540000D01*
X179578000Y-120094000D02*
X175466000Y-124206000D01*
X171958000Y-124206000D02*
X171704000Y-124460000D01*
X170308000Y-126921000D02*
X170483000Y-126746000D01*
X171958000Y-124206000D02*
X163432000Y-115680000D01*
X170483000Y-125681000D02*
X170483000Y-126746000D01*
X157226000Y-110706000D02*
X157226000Y-101154000D01*
X162200000Y-115680000D02*
X157226000Y-110706000D01*
%TO.N,BR1 Main*%
X174703999Y-102108001D02*
X179578000Y-106982002D01*
X179578000Y-106982002D02*
X179578000Y-117094001D01*
%TO.N,M1*%
X137800000Y-120760000D02*
X138066000Y-120760000D01*
%TO.N,BR1 Apo*%
X167894000Y-115824000D02*
X167894000Y-96794000D01*
X172164001Y-120094001D02*
X167894000Y-115824000D01*
X167894000Y-96794000D02*
X162200000Y-91100000D01*
X162306000Y-90994000D02*
X162200000Y-91100000D01*
X173577999Y-120094001D02*
X172164001Y-120094001D01*
%TO.N,BR1 -*%
X175768000Y-126553499D02*
X180401499Y-126553499D01*
X173433000Y-126746000D02*
X173433000Y-126889500D01*
X175575499Y-126746000D02*
X175768000Y-126553499D01*
X182118000Y-128270000D02*
X182118000Y-128524000D01*
X180401499Y-126553499D02*
X182118000Y-128270000D01*
X173433000Y-126746000D02*
X175575499Y-126746000D01*
%TO.N,Net-(J8-Pin_1)*%
X185201004Y-115392202D02*
X185201002Y-112498998D01*
X186662000Y-118110000D02*
X186662001Y-116853199D01*
X185201002Y-112498998D02*
X187550000Y-110150000D01*
X186662001Y-116853199D02*
X185201004Y-115392202D01*
%TO.N,Net-(DZ2-A)*%
X173608000Y-129540000D02*
X173608000Y-131392000D01*
X173608000Y-131392000D02*
X174462000Y-132246000D01*
X173669499Y-129478501D02*
X173608000Y-129540000D01*
X175768000Y-129478501D02*
X173669499Y-129478501D01*
%TO.N,Net-(J9-Pin_2)*%
X155702000Y-119380000D02*
X154432000Y-120650000D01*
X156210000Y-103124000D02*
X155702000Y-103632000D01*
X154432000Y-120650000D02*
X153416000Y-120650000D01*
X155702000Y-103632000D02*
X155702000Y-119380000D01*
%TO.N,Net-(J1-Pin_1)*%
D34*
X127600692Y-131467069D02*
X136393623Y-140260000D01*
X136393623Y-140260000D02*
X137800000Y-140260000D01*
%TD*%
%TA.AperFunction,Conductor*%
%TO.N,7v4*%
G36*
X175502562Y-77000605D02*
G01*
X175949036Y-77019072D01*
X175959209Y-77019915D01*
X176400114Y-77074873D01*
X176410194Y-77076555D01*
X176845043Y-77167733D01*
X176854951Y-77170242D01*
X177280786Y-77297019D01*
X177290454Y-77300338D01*
X177591114Y-77417656D01*
X177704349Y-77461841D01*
X177713734Y-77465958D01*
X178112854Y-77661076D01*
X178121868Y-77665953D01*
X178503545Y-77893383D01*
X178512124Y-77898989D01*
X178873693Y-78157143D01*
X178881770Y-78163430D01*
X179065784Y-78319282D01*
X179220796Y-78450571D01*
X179228336Y-78457512D01*
X179542487Y-78771663D01*
X179549428Y-78779203D01*
X179836565Y-79118224D01*
X179842860Y-79126312D01*
X180101010Y-79487875D01*
X180106616Y-79496454D01*
X180334046Y-79878131D01*
X180338923Y-79887145D01*
X180534041Y-80286265D01*
X180538158Y-80295650D01*
X180699656Y-80709533D01*
X180702984Y-80719226D01*
X180829753Y-81145035D01*
X180832269Y-81154970D01*
X180923441Y-81589791D01*
X180925128Y-81599900D01*
X180980082Y-82040769D01*
X180980928Y-82050983D01*
X180999394Y-82497437D01*
X180999500Y-82502561D01*
X180999500Y-88382308D01*
X180999500Y-88448200D01*
X180999500Y-88605450D01*
X181032374Y-88918226D01*
X181032375Y-88918231D01*
X181097760Y-89225847D01*
X181097761Y-89225849D01*
X181177689Y-89471846D01*
X181194947Y-89524959D01*
X181292971Y-89745123D01*
X181322866Y-89812268D01*
X181322869Y-89812275D01*
X181480112Y-90084628D01*
X181480115Y-90084633D01*
X181664967Y-90339060D01*
X181664974Y-90339069D01*
X181717524Y-90397431D01*
X181875414Y-90572786D01*
X181948765Y-90638831D01*
X182109130Y-90783225D01*
X182109139Y-90783232D01*
X182363566Y-90968084D01*
X182363571Y-90968087D01*
X182635924Y-91125330D01*
X182635928Y-91125331D01*
X182635932Y-91125334D01*
X182923241Y-91253253D01*
X183222348Y-91350438D01*
X183222351Y-91350438D01*
X183222352Y-91350439D01*
X183264737Y-91359448D01*
X183529974Y-91415826D01*
X183842750Y-91448700D01*
X183934108Y-91448700D01*
X187934108Y-91448700D01*
X187998141Y-91448700D01*
X188001886Y-91448757D01*
X188603154Y-91466925D01*
X188610586Y-91467374D01*
X189207821Y-91521646D01*
X189215254Y-91522548D01*
X189808095Y-91612777D01*
X189815455Y-91614126D01*
X190401769Y-91739986D01*
X190409022Y-91741773D01*
X190986705Y-91902814D01*
X190993831Y-91905035D01*
X191560704Y-92100651D01*
X191567688Y-92103300D01*
X192121732Y-92332792D01*
X192128540Y-92335856D01*
X192667716Y-92598382D01*
X192674315Y-92601845D01*
X193195252Y-92895655D01*
X193196653Y-92896445D01*
X193203062Y-92900319D01*
X193706666Y-93225924D01*
X193712790Y-93230151D01*
X194031402Y-93464590D01*
X194195816Y-93585568D01*
X194201708Y-93590185D01*
X194622339Y-93940737D01*
X194662362Y-93974092D01*
X194667969Y-93979059D01*
X195104613Y-94390090D01*
X195109909Y-94395386D01*
X195520940Y-94832030D01*
X195525907Y-94837637D01*
X195909811Y-95298287D01*
X195914431Y-95304183D01*
X196269843Y-95787202D01*
X196274080Y-95793340D01*
X196481137Y-96113589D01*
X196599679Y-96296936D01*
X196603554Y-96303346D01*
X196756814Y-96575082D01*
X196897463Y-96824459D01*
X196898145Y-96825667D01*
X196901623Y-96832295D01*
X196926102Y-96882569D01*
X197164138Y-97371448D01*
X197167212Y-97378278D01*
X197396695Y-97932301D01*
X197399351Y-97939305D01*
X197594960Y-98506156D01*
X197597189Y-98513307D01*
X197758223Y-99090967D01*
X197760015Y-99098240D01*
X197885872Y-99684540D01*
X197887222Y-99691907D01*
X197977450Y-100284743D01*
X197978353Y-100292179D01*
X198032623Y-100889390D01*
X198033075Y-100896867D01*
X198051243Y-101498113D01*
X198051300Y-101501858D01*
X198051300Y-101541153D01*
X198051287Y-101542924D01*
X198032329Y-102870411D01*
X198032228Y-102873951D01*
X197973607Y-104241481D01*
X197973405Y-104245016D01*
X197875755Y-105610314D01*
X197875452Y-105613843D01*
X197738853Y-106975810D01*
X197738449Y-106979328D01*
X197563017Y-108336815D01*
X197562513Y-108340320D01*
X197348385Y-109692251D01*
X197347781Y-109695741D01*
X197095136Y-111041003D01*
X197094433Y-111044473D01*
X196803475Y-112381972D01*
X196802673Y-112385422D01*
X196473638Y-113714070D01*
X196472738Y-113717495D01*
X196105892Y-115036224D01*
X196104894Y-115039622D01*
X195700550Y-116347301D01*
X195699456Y-116350669D01*
X195257923Y-117646300D01*
X195256733Y-117649635D01*
X194778385Y-118932120D01*
X194777100Y-118935420D01*
X194262323Y-120203726D01*
X194260944Y-120206988D01*
X193710168Y-121460056D01*
X193708697Y-121463277D01*
X193122363Y-122700103D01*
X193120801Y-122703281D01*
X192499367Y-123922900D01*
X192497714Y-123926032D01*
X191841719Y-125127382D01*
X191839977Y-125130466D01*
X191149964Y-126312558D01*
X191148136Y-126315591D01*
X190424603Y-127477569D01*
X190422688Y-127480548D01*
X189666296Y-128621349D01*
X189664297Y-128624272D01*
X188875647Y-129742993D01*
X188873566Y-129745858D01*
X188053253Y-130841652D01*
X188051090Y-130844456D01*
X187199861Y-131916328D01*
X187197619Y-131919070D01*
X186316104Y-132966223D01*
X186313785Y-132968899D01*
X185402746Y-133990431D01*
X185400352Y-133993040D01*
X184460499Y-134988156D01*
X184458031Y-134990696D01*
X183490129Y-135958582D01*
X183487589Y-135961050D01*
X182492478Y-136900868D01*
X182489869Y-136903263D01*
X181468286Y-137814317D01*
X181465609Y-137816636D01*
X180418454Y-138698122D01*
X180415713Y-138700363D01*
X179343814Y-139551586D01*
X179341009Y-139553749D01*
X178245220Y-140374030D01*
X178242355Y-140376111D01*
X177123620Y-141164742D01*
X177120697Y-141166741D01*
X175979884Y-141923115D01*
X175976905Y-141925030D01*
X175702041Y-142096174D01*
X175634727Y-142114898D01*
X175567976Y-142094258D01*
X175522980Y-142040805D01*
X175512499Y-141990911D01*
X175512499Y-136598129D01*
X175512498Y-136598123D01*
X175512497Y-136598116D01*
X175506091Y-136538517D01*
X175465803Y-136430500D01*
X175455797Y-136403671D01*
X175455793Y-136403664D01*
X175369547Y-136288455D01*
X175369544Y-136288452D01*
X175254335Y-136202206D01*
X175254328Y-136202202D01*
X175119482Y-136151908D01*
X175119483Y-136151908D01*
X175059883Y-136145501D01*
X175059881Y-136145500D01*
X175059873Y-136145500D01*
X175059864Y-136145500D01*
X169364129Y-136145500D01*
X169364123Y-136145501D01*
X169304516Y-136151908D01*
X169169671Y-136202202D01*
X169169664Y-136202206D01*
X169054455Y-136288452D01*
X169054452Y-136288455D01*
X168968206Y-136403664D01*
X168968202Y-136403671D01*
X168917908Y-136538517D01*
X168911501Y-136598116D01*
X168911501Y-136598123D01*
X168911500Y-136598135D01*
X168911500Y-138571500D01*
X168891815Y-138638539D01*
X168839011Y-138684294D01*
X168787500Y-138695500D01*
X168277050Y-138695500D01*
X168210011Y-138675815D01*
X168164256Y-138623011D01*
X168153051Y-138570945D01*
X168166819Y-135493945D01*
X168186804Y-135426994D01*
X168239812Y-135381476D01*
X168290818Y-135370500D01*
X177192974Y-135370500D01*
X177290516Y-135351096D01*
X177337967Y-135341658D01*
X177474549Y-135285084D01*
X177523783Y-135252186D01*
X177597470Y-135202952D01*
X179445490Y-133354931D01*
X181961249Y-133354931D01*
X181961249Y-133509354D01*
X181991372Y-133660790D01*
X181991375Y-133660802D01*
X182050462Y-133803452D01*
X182050469Y-133803465D01*
X182136253Y-133931849D01*
X182136256Y-133931853D01*
X182245438Y-134041035D01*
X182245442Y-134041038D01*
X182373826Y-134126822D01*
X182373839Y-134126829D01*
X182497704Y-134178135D01*
X182516494Y-134185918D01*
X182667937Y-134216042D01*
X182667940Y-134216043D01*
X182667942Y-134216043D01*
X182822358Y-134216043D01*
X182822359Y-134216042D01*
X182973804Y-134185918D01*
X183116465Y-134126826D01*
X183244856Y-134041038D01*
X183354044Y-133931850D01*
X183439832Y-133803459D01*
X183498924Y-133660798D01*
X183529049Y-133509350D01*
X183529049Y-133354936D01*
X183529049Y-133354933D01*
X183529048Y-133354931D01*
X183516903Y-133293873D01*
X183498924Y-133203488D01*
X183498922Y-133203483D01*
X183439835Y-133060833D01*
X183439828Y-133060820D01*
X183354044Y-132932436D01*
X183354041Y-132932432D01*
X183244859Y-132823250D01*
X183244855Y-132823247D01*
X183116471Y-132737463D01*
X183116458Y-132737456D01*
X182973808Y-132678369D01*
X182973796Y-132678366D01*
X182822359Y-132648243D01*
X182822356Y-132648243D01*
X182667942Y-132648243D01*
X182667939Y-132648243D01*
X182516501Y-132678366D01*
X182516489Y-132678369D01*
X182373839Y-132737456D01*
X182373826Y-132737463D01*
X182245442Y-132823247D01*
X182245438Y-132823250D01*
X182136256Y-132932432D01*
X182136253Y-132932436D01*
X182050469Y-133060820D01*
X182050462Y-133060833D01*
X181991375Y-133203483D01*
X181991372Y-133203495D01*
X181961249Y-133354931D01*
X179445490Y-133354931D01*
X180365308Y-132435112D01*
X180426629Y-132401629D01*
X180472380Y-132400322D01*
X180518040Y-132407554D01*
X180518043Y-132407554D01*
X180720759Y-132407554D01*
X180720760Y-132407554D01*
X180920984Y-132375841D01*
X181113782Y-132313197D01*
X181294406Y-132221164D01*
X181386485Y-132154264D01*
X181458404Y-132102014D01*
X181458406Y-132102011D01*
X181458410Y-132102009D01*
X181601755Y-131958664D01*
X181601757Y-131958660D01*
X181601760Y-131958658D01*
X181665872Y-131870414D01*
X181720910Y-131794660D01*
X181812943Y-131614036D01*
X181875587Y-131421238D01*
X181907300Y-131221014D01*
X181907300Y-131018294D01*
X181875587Y-130818070D01*
X181812943Y-130625272D01*
X181720910Y-130444648D01*
X181704867Y-130422566D01*
X181601760Y-130280649D01*
X181458404Y-130137293D01*
X181294409Y-130018146D01*
X181294408Y-130018145D01*
X181294406Y-130018144D01*
X181113782Y-129926111D01*
X180920984Y-129863467D01*
X180920982Y-129863466D01*
X180920980Y-129863466D01*
X180781182Y-129841324D01*
X180720760Y-129831754D01*
X180518040Y-129831754D01*
X180471624Y-129839105D01*
X180317819Y-129863466D01*
X180125015Y-129926112D01*
X179944390Y-130018146D01*
X179780395Y-130137293D01*
X179637039Y-130280649D01*
X179517892Y-130444644D01*
X179425858Y-130625269D01*
X179363212Y-130818073D01*
X179331500Y-131018294D01*
X179331500Y-131221018D01*
X179338730Y-131266667D01*
X179329775Y-131335961D01*
X179303938Y-131373746D01*
X176844505Y-133833181D01*
X176783182Y-133866666D01*
X176756824Y-133869500D01*
X175436834Y-133869500D01*
X175369795Y-133849815D01*
X175324040Y-133797011D01*
X175314096Y-133727853D01*
X175343121Y-133664297D01*
X175362523Y-133646234D01*
X175392649Y-133623680D01*
X175419546Y-133603546D01*
X175505796Y-133488331D01*
X175556091Y-133353483D01*
X175562500Y-133293873D01*
X175562499Y-131198128D01*
X175556091Y-131138517D01*
X175552775Y-131129627D01*
X175505797Y-131003671D01*
X175505793Y-131003664D01*
X175419547Y-130888455D01*
X175419544Y-130888452D01*
X175304335Y-130802206D01*
X175304330Y-130802203D01*
X175249310Y-130781682D01*
X175193377Y-130739810D01*
X175168960Y-130674346D01*
X175183812Y-130606073D01*
X175233217Y-130556668D01*
X175292640Y-130541500D01*
X176443008Y-130541500D01*
X176545797Y-130531000D01*
X176626369Y-130504300D01*
X176696194Y-130501899D01*
X176756236Y-130537630D01*
X176786988Y-130597814D01*
X176800072Y-130663591D01*
X176800075Y-130663600D01*
X176859162Y-130806250D01*
X176859169Y-130806263D01*
X176944953Y-130934647D01*
X176944956Y-130934651D01*
X177054138Y-131043833D01*
X177054142Y-131043836D01*
X177182526Y-131129620D01*
X177182539Y-131129627D01*
X177325189Y-131188714D01*
X177325194Y-131188716D01*
X177472821Y-131218081D01*
X177476637Y-131218840D01*
X177476640Y-131218841D01*
X177476642Y-131218841D01*
X177631058Y-131218841D01*
X177631059Y-131218840D01*
X177782504Y-131188716D01*
X177925165Y-131129624D01*
X178053556Y-131043836D01*
X178162744Y-130934648D01*
X178248532Y-130806257D01*
X178307624Y-130663596D01*
X178337749Y-130512148D01*
X178337749Y-130357734D01*
X178337749Y-130357731D01*
X178337748Y-130357729D01*
X178334687Y-130342342D01*
X178307624Y-130206286D01*
X178279049Y-130137299D01*
X178248535Y-130063631D01*
X178248528Y-130063618D01*
X178162744Y-129935234D01*
X178162741Y-129935230D01*
X178053559Y-129826048D01*
X178053555Y-129826045D01*
X177925171Y-129740261D01*
X177925158Y-129740254D01*
X177782508Y-129681167D01*
X177782496Y-129681164D01*
X177631059Y-129651041D01*
X177631056Y-129651041D01*
X177476642Y-129651041D01*
X177476639Y-129651041D01*
X177325201Y-129681164D01*
X177325194Y-129681166D01*
X177314948Y-129685410D01*
X177245479Y-129692876D01*
X177183000Y-129661599D01*
X177147350Y-129601509D01*
X177143499Y-129570847D01*
X177143499Y-129115999D01*
X177143498Y-129115982D01*
X177132999Y-129013204D01*
X177132998Y-129013201D01*
X177109402Y-128941994D01*
X177077814Y-128846667D01*
X176985712Y-128697345D01*
X176861656Y-128573289D01*
X176712334Y-128481187D01*
X176545797Y-128426002D01*
X176545795Y-128426001D01*
X176443010Y-128415501D01*
X175092998Y-128415501D01*
X175092981Y-128415502D01*
X174990203Y-128426001D01*
X174990200Y-128426002D01*
X174823668Y-128481186D01*
X174823663Y-128481188D01*
X174674345Y-128573288D01*
X174558503Y-128689130D01*
X174497180Y-128722614D01*
X174427488Y-128717630D01*
X174383141Y-128689129D01*
X174286044Y-128592032D01*
X174286040Y-128592029D01*
X174141705Y-128503001D01*
X174141699Y-128502998D01*
X174141697Y-128502997D01*
X174141694Y-128502996D01*
X173980709Y-128449651D01*
X173881346Y-128439500D01*
X173334662Y-128439500D01*
X173334644Y-128439501D01*
X173235292Y-128449650D01*
X173235289Y-128449651D01*
X173074305Y-128502996D01*
X173074294Y-128503001D01*
X172929959Y-128592029D01*
X172929955Y-128592032D01*
X172810032Y-128711955D01*
X172810029Y-128711959D01*
X172721001Y-128856294D01*
X172720996Y-128856305D01*
X172667651Y-129017290D01*
X172657500Y-129116647D01*
X172657500Y-129963337D01*
X172657501Y-129963355D01*
X172667650Y-130062707D01*
X172667651Y-130062710D01*
X172720996Y-130223694D01*
X172721001Y-130223705D01*
X172810029Y-130368040D01*
X172810032Y-130368044D01*
X172821181Y-130379193D01*
X172854666Y-130440516D01*
X172857500Y-130466874D01*
X172857500Y-131465918D01*
X172857500Y-131465920D01*
X172857499Y-131465920D01*
X172886340Y-131610907D01*
X172886343Y-131610917D01*
X172942913Y-131747489D01*
X172942914Y-131747491D01*
X172942916Y-131747495D01*
X172956338Y-131767583D01*
X172956339Y-131767586D01*
X173025046Y-131870414D01*
X173025052Y-131870421D01*
X173325181Y-132170549D01*
X173358666Y-132231872D01*
X173361500Y-132258230D01*
X173361500Y-133293870D01*
X173361501Y-133293876D01*
X173367908Y-133353483D01*
X173418202Y-133488328D01*
X173418206Y-133488335D01*
X173504452Y-133603544D01*
X173504455Y-133603547D01*
X173561477Y-133646234D01*
X173603348Y-133702167D01*
X173608332Y-133771859D01*
X173574846Y-133833182D01*
X173513523Y-133866666D01*
X173487166Y-133869500D01*
X170936834Y-133869500D01*
X170869795Y-133849815D01*
X170824040Y-133797011D01*
X170814096Y-133727853D01*
X170843121Y-133664297D01*
X170862523Y-133646234D01*
X170892649Y-133623680D01*
X170919546Y-133603546D01*
X171005796Y-133488331D01*
X171056091Y-133353483D01*
X171062500Y-133293873D01*
X171062499Y-131198128D01*
X171056091Y-131138517D01*
X171052775Y-131129627D01*
X171005797Y-131003671D01*
X171005793Y-131003664D01*
X170919547Y-130888455D01*
X170919544Y-130888452D01*
X170797343Y-130796972D01*
X170755472Y-130741039D01*
X170750488Y-130671347D01*
X170783974Y-130610024D01*
X170832650Y-130580000D01*
X170841697Y-130577003D01*
X170986044Y-130487968D01*
X171105968Y-130368044D01*
X171195003Y-130223697D01*
X171248349Y-130062708D01*
X171258500Y-129963345D01*
X171258499Y-129116656D01*
X171248349Y-129017292D01*
X171195003Y-128856303D01*
X171194999Y-128856297D01*
X171194998Y-128856294D01*
X171105970Y-128711959D01*
X171105967Y-128711955D01*
X171094819Y-128700807D01*
X171061334Y-128639484D01*
X171058500Y-128613126D01*
X171058500Y-128191908D01*
X171078185Y-128124869D01*
X171122271Y-128086363D01*
X171121187Y-128084605D01*
X171127332Y-128080814D01*
X171127334Y-128080814D01*
X171276656Y-127988712D01*
X171400712Y-127864656D01*
X171492814Y-127715334D01*
X171547999Y-127548797D01*
X171558500Y-127446009D01*
X171558499Y-126045992D01*
X171558498Y-126045983D01*
X172357500Y-126045983D01*
X172357500Y-127446001D01*
X172357501Y-127446018D01*
X172368000Y-127548796D01*
X172368001Y-127548799D01*
X172390435Y-127616498D01*
X172423186Y-127715334D01*
X172515288Y-127864656D01*
X172639344Y-127988712D01*
X172788666Y-128080814D01*
X172955203Y-128135999D01*
X173057991Y-128146500D01*
X173808008Y-128146499D01*
X173808016Y-128146498D01*
X173808019Y-128146498D01*
X173864302Y-128140748D01*
X173910797Y-128135999D01*
X174077334Y-128080814D01*
X174226656Y-127988712D01*
X174350712Y-127864656D01*
X174442814Y-127715334D01*
X174487164Y-127581494D01*
X174501033Y-127561463D01*
X174511156Y-127539297D01*
X174520568Y-127533248D01*
X174526936Y-127524051D01*
X174549435Y-127514696D01*
X174569934Y-127501523D01*
X174587034Y-127499064D01*
X174591451Y-127497228D01*
X174604869Y-127496500D01*
X174700444Y-127496500D01*
X174765540Y-127514961D01*
X174823659Y-127550809D01*
X174823660Y-127550809D01*
X174823666Y-127550813D01*
X174990203Y-127605998D01*
X175092991Y-127616499D01*
X176443008Y-127616498D01*
X176545797Y-127605998D01*
X176712334Y-127550813D01*
X176861656Y-127458711D01*
X176980049Y-127340318D01*
X177041372Y-127306833D01*
X177067730Y-127303999D01*
X180039269Y-127303999D01*
X180106308Y-127323684D01*
X180126950Y-127340318D01*
X180844189Y-128057557D01*
X180877674Y-128118880D01*
X180874439Y-128183556D01*
X180861813Y-128222414D01*
X180834933Y-128392125D01*
X180830100Y-128422640D01*
X180830100Y-128625360D01*
X180861813Y-128825584D01*
X180924457Y-129018382D01*
X180974533Y-129116662D01*
X181016492Y-129199009D01*
X181135639Y-129363004D01*
X181278995Y-129506360D01*
X181409959Y-129601509D01*
X181442994Y-129625510D01*
X181623618Y-129717543D01*
X181816416Y-129780187D01*
X182016640Y-129811900D01*
X182016641Y-129811900D01*
X182219359Y-129811900D01*
X182219360Y-129811900D01*
X182419584Y-129780187D01*
X182612382Y-129717543D01*
X182793006Y-129625510D01*
X182923762Y-129530511D01*
X182957004Y-129506360D01*
X182957006Y-129506357D01*
X182957010Y-129506355D01*
X183100355Y-129363010D01*
X183100357Y-129363006D01*
X183100360Y-129363004D01*
X183187348Y-129243273D01*
X183219510Y-129199006D01*
X183311543Y-129018382D01*
X183374187Y-128825584D01*
X183405900Y-128625360D01*
X183405900Y-128422640D01*
X183374187Y-128222416D01*
X183311543Y-128029618D01*
X183219510Y-127848994D01*
X183173546Y-127785729D01*
X183100360Y-127684995D01*
X182957004Y-127541639D01*
X182793009Y-127422492D01*
X182793008Y-127422491D01*
X182793006Y-127422490D01*
X182612382Y-127330457D01*
X182419584Y-127267813D01*
X182419582Y-127267812D01*
X182419580Y-127267812D01*
X182279782Y-127245670D01*
X182219360Y-127236100D01*
X182219359Y-127236100D01*
X182196830Y-127236100D01*
X182129791Y-127216415D01*
X182109149Y-127199781D01*
X180879920Y-125970551D01*
X180879913Y-125970545D01*
X180781673Y-125904904D01*
X180781672Y-125904904D01*
X180756994Y-125888415D01*
X180756987Y-125888411D01*
X180620416Y-125831842D01*
X180620406Y-125831839D01*
X180475419Y-125802999D01*
X180475417Y-125802999D01*
X177067730Y-125802999D01*
X177000691Y-125783314D01*
X176980049Y-125766680D01*
X176861657Y-125648288D01*
X176861656Y-125648287D01*
X176725327Y-125564199D01*
X176712336Y-125556186D01*
X176712331Y-125556184D01*
X176710862Y-125555697D01*
X176545797Y-125501000D01*
X176545795Y-125500999D01*
X176443010Y-125490499D01*
X175092998Y-125490499D01*
X175092981Y-125490500D01*
X174990203Y-125500999D01*
X174990200Y-125501000D01*
X174823668Y-125556184D01*
X174823663Y-125556186D01*
X174674345Y-125648286D01*
X174593057Y-125729574D01*
X174531733Y-125763058D01*
X174462042Y-125758074D01*
X174406108Y-125716202D01*
X174399837Y-125706989D01*
X174350712Y-125627344D01*
X174226656Y-125503288D01*
X174077334Y-125411186D01*
X173910797Y-125356001D01*
X173910795Y-125356000D01*
X173808010Y-125345500D01*
X173057998Y-125345500D01*
X173057980Y-125345501D01*
X172955203Y-125356000D01*
X172955200Y-125356001D01*
X172788668Y-125411185D01*
X172788663Y-125411187D01*
X172639342Y-125503289D01*
X172515289Y-125627342D01*
X172423187Y-125776663D01*
X172423185Y-125776668D01*
X172410107Y-125816135D01*
X172368001Y-125943203D01*
X172368001Y-125943204D01*
X172368000Y-125943204D01*
X172357500Y-126045983D01*
X171558498Y-126045983D01*
X171556777Y-126029139D01*
X171547999Y-125943203D01*
X171529844Y-125888415D01*
X171505891Y-125816132D01*
X171503490Y-125746306D01*
X171535915Y-125689451D01*
X172232549Y-124992819D01*
X172293872Y-124959334D01*
X172320230Y-124956500D01*
X175539920Y-124956500D01*
X175637462Y-124937096D01*
X175684913Y-124927658D01*
X175821495Y-124871084D01*
X175870729Y-124838186D01*
X175944416Y-124788952D01*
X179323907Y-121409458D01*
X179385228Y-121375975D01*
X179430982Y-121374668D01*
X179476640Y-121381900D01*
X179476642Y-121381900D01*
X179679359Y-121381900D01*
X179679360Y-121381900D01*
X179879584Y-121350187D01*
X180072382Y-121287543D01*
X180253006Y-121195510D01*
X180345085Y-121128610D01*
X180417004Y-121076360D01*
X180417006Y-121076357D01*
X180417010Y-121076355D01*
X180560355Y-120933010D01*
X180560357Y-120933006D01*
X180560360Y-120933004D01*
X180645614Y-120815660D01*
X180679510Y-120769006D01*
X180771543Y-120588382D01*
X180834187Y-120395584D01*
X180865900Y-120195360D01*
X180865900Y-119992640D01*
X180834187Y-119792416D01*
X180771543Y-119599618D01*
X180679510Y-119418994D01*
X180666125Y-119400571D01*
X180560360Y-119254995D01*
X180417004Y-119111639D01*
X180253009Y-118992492D01*
X180253008Y-118992491D01*
X180253006Y-118992490D01*
X180072382Y-118900457D01*
X179879584Y-118837813D01*
X179879582Y-118837812D01*
X179879580Y-118837812D01*
X179739782Y-118815670D01*
X179679360Y-118806100D01*
X179476640Y-118806100D01*
X179430224Y-118813451D01*
X179276419Y-118837812D01*
X179083615Y-118900458D01*
X178902990Y-118992492D01*
X178738995Y-119111639D01*
X178595639Y-119254995D01*
X178476492Y-119418990D01*
X178384458Y-119599615D01*
X178321812Y-119792419D01*
X178290100Y-119992640D01*
X178290100Y-120195359D01*
X178297331Y-120241013D01*
X178288377Y-120310306D01*
X178262539Y-120348092D01*
X178016095Y-120594536D01*
X177954772Y-120628021D01*
X177885080Y-120623037D01*
X177829147Y-120581165D01*
X177804730Y-120515701D01*
X177810482Y-120468542D01*
X177834188Y-120395584D01*
X177865901Y-120195360D01*
X177865901Y-119992640D01*
X177834188Y-119792416D01*
X177771544Y-119599618D01*
X177679511Y-119418994D01*
X177666126Y-119400571D01*
X177560361Y-119254995D01*
X177417005Y-119111639D01*
X177253010Y-118992492D01*
X177253009Y-118992491D01*
X177253007Y-118992490D01*
X177072383Y-118900457D01*
X176879585Y-118837813D01*
X176879583Y-118837812D01*
X176879581Y-118837812D01*
X176739783Y-118815670D01*
X176679361Y-118806100D01*
X176476641Y-118806100D01*
X176430225Y-118813451D01*
X176276420Y-118837812D01*
X176083616Y-118900458D01*
X175902991Y-118992492D01*
X175738996Y-119111639D01*
X175595640Y-119254995D01*
X175476493Y-119418990D01*
X175384459Y-119599615D01*
X175321813Y-119792419D01*
X175291245Y-119985416D01*
X175290101Y-119992640D01*
X175290101Y-120195360D01*
X175321814Y-120395584D01*
X175384458Y-120588382D01*
X175456026Y-120728842D01*
X175476493Y-120769009D01*
X175595640Y-120933004D01*
X175738996Y-121076360D01*
X175854517Y-121160289D01*
X175902995Y-121195510D01*
X176083619Y-121287543D01*
X176276417Y-121350187D01*
X176476641Y-121381900D01*
X176476642Y-121381900D01*
X176679360Y-121381900D01*
X176679361Y-121381900D01*
X176879585Y-121350187D01*
X176952541Y-121326481D01*
X177022378Y-121324487D01*
X177082211Y-121360566D01*
X177113040Y-121423267D01*
X177105076Y-121492681D01*
X177078537Y-121532094D01*
X175191451Y-123419181D01*
X175130128Y-123452666D01*
X175103770Y-123455500D01*
X172320230Y-123455500D01*
X172253191Y-123435815D01*
X172232549Y-123419181D01*
X168275262Y-119461894D01*
X168241777Y-119400571D01*
X168238945Y-119373667D01*
X168247161Y-117537329D01*
X168267145Y-117470383D01*
X168320153Y-117424865D01*
X168389355Y-117415231D01*
X168452780Y-117444540D01*
X168458840Y-117450208D01*
X170060020Y-119051387D01*
X171581049Y-120572416D01*
X171581050Y-120572417D01*
X171636654Y-120628021D01*
X171685586Y-120676953D01*
X171808499Y-120759081D01*
X171808512Y-120759088D01*
X171945083Y-120815657D01*
X171945088Y-120815659D01*
X171945092Y-120815659D01*
X171945093Y-120815660D01*
X172090080Y-120844501D01*
X172090083Y-120844501D01*
X172468160Y-120844501D01*
X172535199Y-120864186D01*
X172568479Y-120895616D01*
X172595647Y-120933010D01*
X172738997Y-121076360D01*
X172854518Y-121160289D01*
X172902996Y-121195510D01*
X173083620Y-121287543D01*
X173276418Y-121350187D01*
X173476642Y-121381900D01*
X173476643Y-121381900D01*
X173679361Y-121381900D01*
X173679362Y-121381900D01*
X173879586Y-121350187D01*
X174072384Y-121287543D01*
X174253008Y-121195510D01*
X174345087Y-121128610D01*
X174417006Y-121076360D01*
X174417008Y-121076357D01*
X174417012Y-121076355D01*
X174560357Y-120933010D01*
X174560359Y-120933006D01*
X174560362Y-120933004D01*
X174645616Y-120815660D01*
X174679512Y-120769006D01*
X174771545Y-120588382D01*
X174834189Y-120395584D01*
X174865902Y-120195360D01*
X174865902Y-119992640D01*
X174834189Y-119792416D01*
X174771545Y-119599618D01*
X174679512Y-119418994D01*
X174666127Y-119400571D01*
X174560362Y-119254995D01*
X174417006Y-119111639D01*
X174253011Y-118992492D01*
X174253010Y-118992491D01*
X174253008Y-118992490D01*
X174072384Y-118900457D01*
X173879586Y-118837813D01*
X173879584Y-118837812D01*
X173879582Y-118837812D01*
X173739784Y-118815670D01*
X173679362Y-118806100D01*
X173476642Y-118806100D01*
X173430226Y-118813451D01*
X173276421Y-118837812D01*
X173083617Y-118900458D01*
X172902992Y-118992492D01*
X172738997Y-119111639D01*
X172595649Y-119254987D01*
X172595642Y-119254995D01*
X172592904Y-119258764D01*
X172537569Y-119301423D01*
X172467955Y-119307393D01*
X172406164Y-119274780D01*
X172404914Y-119273547D01*
X170251163Y-117119796D01*
X170217678Y-117058473D01*
X170222386Y-116992641D01*
X172290102Y-116992641D01*
X172290102Y-117195360D01*
X172304057Y-117283471D01*
X172321815Y-117395585D01*
X172384459Y-117588383D01*
X172414910Y-117648147D01*
X172476494Y-117769010D01*
X172595641Y-117933005D01*
X172738997Y-118076361D01*
X172892458Y-118187855D01*
X172902996Y-118195511D01*
X173083620Y-118287544D01*
X173276418Y-118350188D01*
X173476642Y-118381901D01*
X173476643Y-118381901D01*
X173679361Y-118381901D01*
X173679362Y-118381901D01*
X173879586Y-118350188D01*
X174072384Y-118287544D01*
X174253008Y-118195511D01*
X174345087Y-118128611D01*
X174417006Y-118076361D01*
X174417008Y-118076358D01*
X174417012Y-118076356D01*
X174560357Y-117933011D01*
X174560359Y-117933007D01*
X174560362Y-117933005D01*
X174613402Y-117860000D01*
X174679512Y-117769007D01*
X174771545Y-117588383D01*
X174834189Y-117395585D01*
X174865902Y-117195361D01*
X174865902Y-116992641D01*
X175290101Y-116992641D01*
X175290101Y-117195360D01*
X175304056Y-117283471D01*
X175321814Y-117395585D01*
X175384458Y-117588383D01*
X175414909Y-117648147D01*
X175476493Y-117769010D01*
X175595640Y-117933005D01*
X175738996Y-118076361D01*
X175892457Y-118187855D01*
X175902995Y-118195511D01*
X176083619Y-118287544D01*
X176276417Y-118350188D01*
X176476641Y-118381901D01*
X176476642Y-118381901D01*
X176679360Y-118381901D01*
X176679361Y-118381901D01*
X176879585Y-118350188D01*
X177072383Y-118287544D01*
X177253007Y-118195511D01*
X177345086Y-118128611D01*
X177417005Y-118076361D01*
X177417007Y-118076358D01*
X177417011Y-118076356D01*
X177560356Y-117933011D01*
X177560358Y-117933007D01*
X177560361Y-117933005D01*
X177613401Y-117860000D01*
X177679511Y-117769007D01*
X177771544Y-117588383D01*
X177834188Y-117395585D01*
X177865901Y-117195361D01*
X177865901Y-116992641D01*
X177834188Y-116792417D01*
X177771544Y-116599619D01*
X177679511Y-116418995D01*
X177653046Y-116382569D01*
X177560361Y-116254996D01*
X177417005Y-116111640D01*
X177253010Y-115992493D01*
X177253009Y-115992492D01*
X177253007Y-115992491D01*
X177072383Y-115900458D01*
X176879585Y-115837814D01*
X176879583Y-115837813D01*
X176879581Y-115837813D01*
X176739783Y-115815671D01*
X176679361Y-115806101D01*
X176476641Y-115806101D01*
X176430225Y-115813452D01*
X176276420Y-115837813D01*
X176083616Y-115900459D01*
X175902991Y-115992493D01*
X175738996Y-116111640D01*
X175595640Y-116254996D01*
X175476493Y-116418991D01*
X175384459Y-116599616D01*
X175321813Y-116792420D01*
X175290101Y-116992641D01*
X174865902Y-116992641D01*
X174834189Y-116792417D01*
X174771545Y-116599619D01*
X174679512Y-116418995D01*
X174653047Y-116382569D01*
X174560362Y-116254996D01*
X174417006Y-116111640D01*
X174253011Y-115992493D01*
X174253010Y-115992492D01*
X174253008Y-115992491D01*
X174072384Y-115900458D01*
X173879586Y-115837814D01*
X173879584Y-115837813D01*
X173879582Y-115837813D01*
X173739784Y-115815671D01*
X173679362Y-115806101D01*
X173476642Y-115806101D01*
X173430226Y-115813452D01*
X173276421Y-115837813D01*
X173083617Y-115900459D01*
X172902992Y-115992493D01*
X172738997Y-116111640D01*
X172595641Y-116254996D01*
X172476494Y-116418991D01*
X172384460Y-116599616D01*
X172321814Y-116792420D01*
X172290102Y-116992641D01*
X170222386Y-116992641D01*
X170222662Y-116988781D01*
X170264534Y-116932848D01*
X170329998Y-116908431D01*
X170363035Y-116910498D01*
X170500791Y-116937899D01*
X170500794Y-116937900D01*
X170500796Y-116937900D01*
X170655212Y-116937900D01*
X170655213Y-116937899D01*
X170806658Y-116907775D01*
X170941937Y-116851740D01*
X170949312Y-116848686D01*
X170949312Y-116848685D01*
X170949319Y-116848683D01*
X171077710Y-116762895D01*
X171186898Y-116653707D01*
X171272686Y-116525316D01*
X171331778Y-116382655D01*
X171361903Y-116231207D01*
X171361903Y-116076793D01*
X171361903Y-116076790D01*
X171361902Y-116076788D01*
X171350314Y-116018530D01*
X171331778Y-115925345D01*
X171321470Y-115900459D01*
X171272689Y-115782690D01*
X171272682Y-115782677D01*
X171186898Y-115654293D01*
X171186895Y-115654289D01*
X171077713Y-115545107D01*
X171077709Y-115545104D01*
X170949325Y-115459320D01*
X170949312Y-115459313D01*
X170806662Y-115400226D01*
X170806652Y-115400223D01*
X170690946Y-115377207D01*
X170629035Y-115344822D01*
X170594461Y-115284105D01*
X170598202Y-115214336D01*
X170627455Y-115167911D01*
X175080952Y-110714416D01*
X175127745Y-110644384D01*
X175151030Y-110609536D01*
X175151034Y-110609529D01*
X175163084Y-110591495D01*
X175219658Y-110454913D01*
X175229767Y-110404092D01*
X175248500Y-110309920D01*
X175248500Y-108978244D01*
X175268185Y-108911205D01*
X175320989Y-108865450D01*
X175390147Y-108855506D01*
X175409292Y-108860760D01*
X175409521Y-108860008D01*
X175415337Y-108861771D01*
X175415348Y-108861776D01*
X175566791Y-108891900D01*
X175566794Y-108891901D01*
X175566796Y-108891901D01*
X175721212Y-108891901D01*
X175721213Y-108891900D01*
X175872658Y-108861776D01*
X176015319Y-108802684D01*
X176143710Y-108716896D01*
X176252898Y-108607708D01*
X176338686Y-108479317D01*
X176397778Y-108336656D01*
X176427903Y-108185208D01*
X176427903Y-108030794D01*
X176427903Y-108030791D01*
X176427902Y-108030789D01*
X176397778Y-107879346D01*
X176397776Y-107879341D01*
X176338689Y-107736691D01*
X176338682Y-107736678D01*
X176252898Y-107608294D01*
X176252895Y-107608290D01*
X176143713Y-107499108D01*
X176143709Y-107499105D01*
X176015325Y-107413321D01*
X176015312Y-107413314D01*
X175872662Y-107354227D01*
X175872650Y-107354224D01*
X175721213Y-107324101D01*
X175721210Y-107324101D01*
X175566796Y-107324101D01*
X175566793Y-107324101D01*
X175415355Y-107354224D01*
X175409521Y-107355994D01*
X175408774Y-107353534D01*
X175350408Y-107359773D01*
X175287948Y-107328460D01*
X175252333Y-107268349D01*
X175248500Y-107237757D01*
X175248500Y-106351993D01*
X175268185Y-106284954D01*
X175316206Y-106241508D01*
X175379006Y-106209510D01*
X175442433Y-106163428D01*
X175543004Y-106090360D01*
X175543006Y-106090357D01*
X175543010Y-106090355D01*
X175686355Y-105947010D01*
X175686357Y-105947006D01*
X175686360Y-105947004D01*
X175765857Y-105837584D01*
X175805510Y-105783006D01*
X175897543Y-105602382D01*
X175960187Y-105409584D01*
X175991900Y-105209360D01*
X175991900Y-105006640D01*
X175960187Y-104806416D01*
X175936481Y-104733459D01*
X175934487Y-104663623D01*
X175970566Y-104603790D01*
X176033267Y-104572961D01*
X176102681Y-104580925D01*
X176142094Y-104607464D01*
X178791181Y-107256550D01*
X178824666Y-107317873D01*
X178827500Y-107344231D01*
X178827500Y-115984158D01*
X178807815Y-116051197D01*
X178776385Y-116084476D01*
X178738996Y-116111640D01*
X178738991Y-116111644D01*
X178595639Y-116254996D01*
X178476492Y-116418991D01*
X178384458Y-116599616D01*
X178321812Y-116792420D01*
X178290100Y-116992641D01*
X178290100Y-117195360D01*
X178304055Y-117283471D01*
X178321813Y-117395585D01*
X178384457Y-117588383D01*
X178414908Y-117648147D01*
X178476492Y-117769010D01*
X178595639Y-117933005D01*
X178738995Y-118076361D01*
X178892456Y-118187855D01*
X178902994Y-118195511D01*
X179083618Y-118287544D01*
X179276416Y-118350188D01*
X179476640Y-118381901D01*
X179476641Y-118381901D01*
X179679359Y-118381901D01*
X179679360Y-118381901D01*
X179879584Y-118350188D01*
X180072382Y-118287544D01*
X180253006Y-118195511D01*
X180345085Y-118128611D01*
X180417004Y-118076361D01*
X180417006Y-118076358D01*
X180417010Y-118076356D01*
X180560355Y-117933011D01*
X180560357Y-117933007D01*
X180560360Y-117933005D01*
X180613400Y-117860000D01*
X180679510Y-117769007D01*
X180771543Y-117588383D01*
X180834187Y-117395585D01*
X180865900Y-117195361D01*
X180865900Y-116992641D01*
X180834187Y-116792417D01*
X180771543Y-116599619D01*
X180679510Y-116418995D01*
X180653045Y-116382569D01*
X180560360Y-116254996D01*
X180466674Y-116161310D01*
X180417010Y-116111646D01*
X180375080Y-116081182D01*
X180370855Y-116077486D01*
X180370411Y-116076788D01*
X181794099Y-116076788D01*
X181794099Y-116231211D01*
X181824222Y-116382647D01*
X181824225Y-116382659D01*
X181883312Y-116525309D01*
X181883319Y-116525322D01*
X181969103Y-116653706D01*
X181969106Y-116653710D01*
X182078288Y-116762892D01*
X182078292Y-116762895D01*
X182206676Y-116848679D01*
X182206689Y-116848686D01*
X182349339Y-116907773D01*
X182349344Y-116907775D01*
X182449001Y-116927598D01*
X182500787Y-116937899D01*
X182500790Y-116937900D01*
X182500792Y-116937900D01*
X182655208Y-116937900D01*
X182655209Y-116937899D01*
X182806654Y-116907775D01*
X182916990Y-116862072D01*
X182949308Y-116848686D01*
X182949308Y-116848685D01*
X182949315Y-116848683D01*
X183077706Y-116762895D01*
X183186894Y-116653707D01*
X183272682Y-116525316D01*
X183331774Y-116382655D01*
X183361899Y-116231207D01*
X183361899Y-116076793D01*
X183361899Y-116076790D01*
X183361898Y-116076788D01*
X183350310Y-116018530D01*
X183331774Y-115925345D01*
X183321466Y-115900459D01*
X183272685Y-115782690D01*
X183272678Y-115782677D01*
X183186894Y-115654293D01*
X183186891Y-115654289D01*
X183077709Y-115545107D01*
X183077705Y-115545104D01*
X182949321Y-115459320D01*
X182949308Y-115459313D01*
X182806658Y-115400226D01*
X182806646Y-115400223D01*
X182655209Y-115370100D01*
X182655206Y-115370100D01*
X182500792Y-115370100D01*
X182500789Y-115370100D01*
X182349351Y-115400223D01*
X182349339Y-115400226D01*
X182206689Y-115459313D01*
X182206676Y-115459320D01*
X182078292Y-115545104D01*
X182078288Y-115545107D01*
X181969106Y-115654289D01*
X181969103Y-115654293D01*
X181883319Y-115782677D01*
X181883312Y-115782690D01*
X181824225Y-115925340D01*
X181824222Y-115925352D01*
X181794099Y-116076788D01*
X180370411Y-116076788D01*
X180354993Y-116052545D01*
X180336949Y-116029146D01*
X180335624Y-116022091D01*
X180333359Y-116018530D01*
X180333398Y-116010239D01*
X180328500Y-115984158D01*
X180328500Y-114692185D01*
X184125502Y-114692185D01*
X184125502Y-116092203D01*
X184125503Y-116092220D01*
X184136002Y-116194998D01*
X184136003Y-116195001D01*
X184185938Y-116345694D01*
X184191188Y-116361536D01*
X184283290Y-116510858D01*
X184407346Y-116634914D01*
X184556668Y-116727016D01*
X184723205Y-116782201D01*
X184825993Y-116792702D01*
X185488773Y-116792701D01*
X185555812Y-116812385D01*
X185576454Y-116829020D01*
X185815100Y-117067666D01*
X185848585Y-117128989D01*
X185843601Y-117198681D01*
X185826686Y-117229657D01*
X185786406Y-117283464D01*
X185786402Y-117283471D01*
X185736108Y-117418317D01*
X185732680Y-117450208D01*
X185729701Y-117477925D01*
X185729700Y-117477935D01*
X185729700Y-118742070D01*
X185729701Y-118742076D01*
X185736108Y-118801683D01*
X185786402Y-118936528D01*
X185786406Y-118936535D01*
X185872652Y-119051744D01*
X185872655Y-119051747D01*
X185987864Y-119137993D01*
X185987871Y-119137997D01*
X186122717Y-119188291D01*
X186122716Y-119188291D01*
X186129644Y-119189035D01*
X186182327Y-119194700D01*
X187141672Y-119194699D01*
X187201283Y-119188291D01*
X187336131Y-119137996D01*
X187451346Y-119051746D01*
X187537596Y-118936531D01*
X187587891Y-118801683D01*
X187594300Y-118742073D01*
X187594299Y-117477928D01*
X187587891Y-117418317D01*
X187587890Y-117418315D01*
X187537597Y-117283471D01*
X187537593Y-117283464D01*
X187451347Y-117168255D01*
X187448819Y-117165727D01*
X187447105Y-117162589D01*
X187446032Y-117161155D01*
X187446238Y-117161000D01*
X187434115Y-117138799D01*
X187417523Y-117112981D01*
X187416631Y-117106780D01*
X187415334Y-117104404D01*
X187412500Y-117078046D01*
X187412500Y-116988781D01*
X187412500Y-116867528D01*
X187432185Y-116800492D01*
X187484989Y-116754737D01*
X187554147Y-116744793D01*
X187575490Y-116749821D01*
X187673205Y-116782201D01*
X187775993Y-116792702D01*
X188087499Y-116792701D01*
X188096185Y-116795251D01*
X188105146Y-116793963D01*
X188129182Y-116804940D01*
X188154538Y-116812385D01*
X188160466Y-116819227D01*
X188168702Y-116822988D01*
X188182988Y-116845219D01*
X188200293Y-116865189D01*
X188202580Y-116875704D01*
X188206476Y-116881766D01*
X188211499Y-116916701D01*
X188211499Y-117078044D01*
X188191814Y-117145083D01*
X188175180Y-117165725D01*
X188172651Y-117168253D01*
X188086405Y-117283462D01*
X188086401Y-117283469D01*
X188036107Y-117418315D01*
X188030510Y-117470383D01*
X188029700Y-117477923D01*
X188029699Y-117477933D01*
X188029699Y-118742068D01*
X188029700Y-118742074D01*
X188036107Y-118801681D01*
X188086401Y-118936526D01*
X188086402Y-118936527D01*
X188086403Y-118936529D01*
X188128297Y-118992492D01*
X188172655Y-119051747D01*
X188175182Y-119054274D01*
X188176894Y-119057409D01*
X188177968Y-119058844D01*
X188177761Y-119058998D01*
X188208667Y-119115597D01*
X188211501Y-119141955D01*
X188211501Y-123327502D01*
X188191816Y-123394541D01*
X188139012Y-123440296D01*
X188087501Y-123451502D01*
X187339330Y-123451502D01*
X187339324Y-123451503D01*
X187279717Y-123457910D01*
X187144872Y-123508204D01*
X187144865Y-123508208D01*
X187029656Y-123594454D01*
X187029653Y-123594457D01*
X186943407Y-123709666D01*
X186943403Y-123709673D01*
X186893109Y-123844519D01*
X186889501Y-123878082D01*
X186886702Y-123904125D01*
X186886701Y-123904137D01*
X186886701Y-125168272D01*
X186886702Y-125168278D01*
X186893109Y-125227885D01*
X186943403Y-125362730D01*
X186943407Y-125362737D01*
X187029653Y-125477946D01*
X187029656Y-125477949D01*
X187144865Y-125564195D01*
X187144872Y-125564199D01*
X187189819Y-125580963D01*
X187279718Y-125614493D01*
X187339328Y-125620902D01*
X187685591Y-125620901D01*
X187752629Y-125640585D01*
X187798384Y-125693389D01*
X187808328Y-125762548D01*
X187788693Y-125813791D01*
X187758608Y-125858816D01*
X187758602Y-125858827D01*
X187698264Y-126004498D01*
X187698261Y-126004510D01*
X187667500Y-126159153D01*
X187667500Y-126316846D01*
X187698261Y-126471489D01*
X187698264Y-126471501D01*
X187758602Y-126617172D01*
X187758609Y-126617185D01*
X187846210Y-126748288D01*
X187846213Y-126748292D01*
X187957707Y-126859786D01*
X187957711Y-126859789D01*
X188088814Y-126947390D01*
X188088827Y-126947397D01*
X188210846Y-126997938D01*
X188234503Y-127007737D01*
X188389153Y-127038499D01*
X188389156Y-127038500D01*
X188389158Y-127038500D01*
X188546844Y-127038500D01*
X188546845Y-127038499D01*
X188623152Y-127023320D01*
X188701488Y-127007739D01*
X188701489Y-127007738D01*
X188701497Y-127007737D01*
X188725157Y-126997936D01*
X188752215Y-126990188D01*
X188762341Y-126988500D01*
X188795917Y-126988500D01*
X188795918Y-126988500D01*
X188940913Y-126959658D01*
X188944653Y-126958108D01*
X188955610Y-126956282D01*
X188982634Y-126959551D01*
X189004937Y-126959349D01*
X189005112Y-126958470D01*
X189009333Y-126959309D01*
X189009852Y-126959305D01*
X189010990Y-126959639D01*
X189011085Y-126959658D01*
X189011088Y-126959659D01*
X189117140Y-126980753D01*
X189140391Y-126987807D01*
X189188506Y-127007737D01*
X189188509Y-127007737D01*
X189188514Y-127007739D01*
X189343156Y-127038499D01*
X189343159Y-127038500D01*
X189343161Y-127038500D01*
X189500847Y-127038500D01*
X189500848Y-127038499D01*
X189655500Y-127007737D01*
X189801182Y-126947394D01*
X189932292Y-126859789D01*
X190043792Y-126748289D01*
X190131397Y-126617179D01*
X190191740Y-126471497D01*
X190222503Y-126316842D01*
X190222503Y-126159158D01*
X190222503Y-126159155D01*
X190222502Y-126159153D01*
X190206489Y-126078650D01*
X190191740Y-126004503D01*
X190177674Y-125970545D01*
X190131400Y-125858827D01*
X190131393Y-125858814D01*
X190101310Y-125813792D01*
X190080432Y-125747115D01*
X190098916Y-125679735D01*
X190150895Y-125633044D01*
X190204412Y-125620901D01*
X190584672Y-125620901D01*
X190584673Y-125620901D01*
X190644284Y-125614493D01*
X190779132Y-125564198D01*
X190894347Y-125477948D01*
X190980597Y-125362733D01*
X191030892Y-125227885D01*
X191037301Y-125168275D01*
X191037300Y-123904130D01*
X191030892Y-123844519D01*
X190980597Y-123709671D01*
X190980596Y-123709670D01*
X190980594Y-123709666D01*
X190894348Y-123594457D01*
X190894345Y-123594454D01*
X190779136Y-123508208D01*
X190779129Y-123508204D01*
X190644283Y-123457910D01*
X190644284Y-123457910D01*
X190584684Y-123451503D01*
X190584682Y-123451502D01*
X190584674Y-123451502D01*
X190584666Y-123451502D01*
X189836501Y-123451502D01*
X189769462Y-123431817D01*
X189723707Y-123379013D01*
X189712501Y-123327502D01*
X189712501Y-119141951D01*
X189732186Y-119074912D01*
X189748820Y-119054270D01*
X189751342Y-119051747D01*
X189751343Y-119051745D01*
X189751345Y-119051744D01*
X189837595Y-118936529D01*
X189887890Y-118801681D01*
X189894299Y-118742071D01*
X189894299Y-118742044D01*
X190330200Y-118742044D01*
X190336601Y-118801572D01*
X190336603Y-118801579D01*
X190386845Y-118936286D01*
X190386849Y-118936293D01*
X190473009Y-119051387D01*
X190473012Y-119051390D01*
X190588106Y-119137550D01*
X190588113Y-119137554D01*
X190722820Y-119187796D01*
X190722827Y-119187798D01*
X190782355Y-119194199D01*
X190782372Y-119194200D01*
X191012000Y-119194200D01*
X191512000Y-119194200D01*
X191741628Y-119194200D01*
X191741644Y-119194199D01*
X191801172Y-119187798D01*
X191801179Y-119187796D01*
X191935886Y-119137554D01*
X191935893Y-119137550D01*
X192050987Y-119051390D01*
X192050990Y-119051387D01*
X192137150Y-118936293D01*
X192137154Y-118936286D01*
X192187396Y-118801579D01*
X192187398Y-118801572D01*
X192193799Y-118742044D01*
X192193800Y-118742027D01*
X192193800Y-118360000D01*
X191512000Y-118360000D01*
X191512000Y-119194200D01*
X191012000Y-119194200D01*
X191012000Y-118360000D01*
X190330200Y-118360000D01*
X190330200Y-118742044D01*
X189894299Y-118742044D01*
X189894298Y-118076361D01*
X189894298Y-117477955D01*
X190330200Y-117477955D01*
X190330200Y-117860000D01*
X191012000Y-117860000D01*
X191512000Y-117860000D01*
X192193800Y-117860000D01*
X192193800Y-117477972D01*
X192193799Y-117477955D01*
X192187398Y-117418427D01*
X192187396Y-117418420D01*
X192137154Y-117283713D01*
X192137150Y-117283706D01*
X192050990Y-117168612D01*
X192050987Y-117168609D01*
X191935893Y-117082449D01*
X191935886Y-117082445D01*
X191801179Y-117032203D01*
X191801172Y-117032201D01*
X191741644Y-117025800D01*
X191512000Y-117025800D01*
X191512000Y-117860000D01*
X191012000Y-117860000D01*
X191012000Y-117025800D01*
X190782355Y-117025800D01*
X190722827Y-117032201D01*
X190722820Y-117032203D01*
X190588113Y-117082445D01*
X190588106Y-117082449D01*
X190473012Y-117168609D01*
X190473009Y-117168612D01*
X190386849Y-117283706D01*
X190386845Y-117283713D01*
X190336603Y-117418420D01*
X190336601Y-117418427D01*
X190330200Y-117477955D01*
X189894298Y-117477955D01*
X189894298Y-117477927D01*
X189894298Y-117477925D01*
X189887890Y-117418315D01*
X189879412Y-117395585D01*
X189837596Y-117283469D01*
X189837592Y-117283462D01*
X189751346Y-117168253D01*
X189748818Y-117165725D01*
X189747104Y-117162587D01*
X189746031Y-117161153D01*
X189746237Y-117160998D01*
X189734114Y-117138797D01*
X189717522Y-117112979D01*
X189716630Y-117106778D01*
X189715333Y-117104402D01*
X189712499Y-117078044D01*
X189712499Y-116916701D01*
X189732184Y-116849662D01*
X189784988Y-116803907D01*
X189836499Y-116792701D01*
X190402003Y-116792701D01*
X190402009Y-116792701D01*
X190504798Y-116782201D01*
X190671335Y-116727016D01*
X190820657Y-116634914D01*
X190944713Y-116510858D01*
X191036815Y-116361536D01*
X191092000Y-116194999D01*
X191102501Y-116092211D01*
X191102501Y-116092188D01*
X191902002Y-116092188D01*
X191912495Y-116194899D01*
X191967642Y-116361321D01*
X191967644Y-116361326D01*
X192059685Y-116510547D01*
X192183655Y-116634517D01*
X192332876Y-116726558D01*
X192332881Y-116726560D01*
X192499303Y-116781707D01*
X192499310Y-116781708D01*
X192602020Y-116792201D01*
X192727000Y-116792201D01*
X193227001Y-116792201D01*
X193351973Y-116792201D01*
X193351987Y-116792200D01*
X193454698Y-116781707D01*
X193621120Y-116726560D01*
X193621125Y-116726558D01*
X193770346Y-116634517D01*
X193894316Y-116510547D01*
X193986357Y-116361326D01*
X193986359Y-116361321D01*
X194041506Y-116194899D01*
X194041507Y-116194892D01*
X194052000Y-116092188D01*
X194052001Y-116092175D01*
X194052001Y-115642202D01*
X193227001Y-115642202D01*
X193227001Y-116792201D01*
X192727000Y-116792201D01*
X192727001Y-116792200D01*
X192727001Y-115642202D01*
X191902002Y-115642202D01*
X191902002Y-116092188D01*
X191102501Y-116092188D01*
X191102500Y-115388853D01*
X191102500Y-114692215D01*
X191902001Y-114692215D01*
X191902001Y-115142202D01*
X192727001Y-115142202D01*
X193227001Y-115142202D01*
X194052000Y-115142202D01*
X194052000Y-114692230D01*
X194051999Y-114692215D01*
X194041506Y-114589504D01*
X193986359Y-114423082D01*
X193986357Y-114423077D01*
X193894316Y-114273856D01*
X193770346Y-114149886D01*
X193621125Y-114057845D01*
X193621120Y-114057843D01*
X193454698Y-114002696D01*
X193454691Y-114002695D01*
X193351987Y-113992202D01*
X193227001Y-113992202D01*
X193227001Y-115142202D01*
X192727001Y-115142202D01*
X192727001Y-113992202D01*
X192602028Y-113992202D01*
X192602013Y-113992203D01*
X192499303Y-114002696D01*
X192332881Y-114057843D01*
X192332876Y-114057845D01*
X192183655Y-114149886D01*
X192059685Y-114273856D01*
X191967644Y-114423077D01*
X191967642Y-114423082D01*
X191912495Y-114589504D01*
X191912494Y-114589511D01*
X191902001Y-114692215D01*
X191102500Y-114692215D01*
X191102500Y-114692200D01*
X191102499Y-114692183D01*
X191092000Y-114589405D01*
X191091999Y-114589402D01*
X191071561Y-114527724D01*
X191036815Y-114422868D01*
X190944713Y-114273546D01*
X190820657Y-114149490D01*
X190815550Y-114144383D01*
X190817436Y-114142496D01*
X190784213Y-114095577D01*
X190777501Y-114055334D01*
X190777501Y-111520349D01*
X190797186Y-111453310D01*
X190849990Y-111407555D01*
X190863179Y-111402419D01*
X191044382Y-111343543D01*
X191225006Y-111251510D01*
X191319370Y-111182951D01*
X191389004Y-111132360D01*
X191389006Y-111132357D01*
X191389010Y-111132355D01*
X191532355Y-110989010D01*
X191532357Y-110989006D01*
X191532360Y-110989004D01*
X191598113Y-110898501D01*
X191651510Y-110825006D01*
X191743543Y-110644382D01*
X191806187Y-110451584D01*
X191837900Y-110251360D01*
X191837900Y-110048640D01*
X191806187Y-109848416D01*
X191743543Y-109655618D01*
X191651510Y-109474994D01*
X191643854Y-109464456D01*
X191532360Y-109310995D01*
X191389004Y-109167639D01*
X191225009Y-109048492D01*
X191225008Y-109048491D01*
X191225006Y-109048490D01*
X191044382Y-108956457D01*
X190851584Y-108893813D01*
X190851582Y-108893812D01*
X190851580Y-108893812D01*
X190711782Y-108871670D01*
X190651360Y-108862100D01*
X190448640Y-108862100D01*
X190402224Y-108869451D01*
X190248419Y-108893812D01*
X190055615Y-108956458D01*
X189874990Y-109048492D01*
X189710995Y-109167639D01*
X189567639Y-109310995D01*
X189448492Y-109474990D01*
X189356458Y-109655615D01*
X189293812Y-109848419D01*
X189282964Y-109916913D01*
X189262100Y-110048640D01*
X189262100Y-110251360D01*
X189263878Y-110262584D01*
X189293813Y-110451587D01*
X189294042Y-110452540D01*
X189294052Y-110453100D01*
X189294575Y-110456396D01*
X189294118Y-110456468D01*
X189295082Y-110505665D01*
X189276501Y-110599076D01*
X189276501Y-114055334D01*
X189267808Y-114084938D01*
X189261162Y-114115073D01*
X189257788Y-114119059D01*
X189256816Y-114122373D01*
X189239931Y-114143266D01*
X189234204Y-114148959D01*
X189233345Y-114149490D01*
X189176683Y-114206152D01*
X189176431Y-114206403D01*
X189145853Y-114222986D01*
X189115358Y-114239637D01*
X189115174Y-114239623D01*
X189115012Y-114239712D01*
X189080261Y-114237126D01*
X189045667Y-114234652D01*
X189045492Y-114234539D01*
X189045335Y-114234528D01*
X189044525Y-114233918D01*
X189001320Y-114206152D01*
X188944659Y-114149491D01*
X188944658Y-114149490D01*
X188795336Y-114057388D01*
X188628799Y-114002203D01*
X188628797Y-114002202D01*
X188526012Y-113991702D01*
X187776000Y-113991702D01*
X187775982Y-113991703D01*
X187673205Y-114002202D01*
X187673202Y-114002203D01*
X187506670Y-114057387D01*
X187506665Y-114057389D01*
X187357344Y-114149491D01*
X187233291Y-114273544D01*
X187141189Y-114422865D01*
X187141187Y-114422870D01*
X187122834Y-114478256D01*
X187086003Y-114589405D01*
X187086003Y-114589406D01*
X187086002Y-114589406D01*
X187075502Y-114692185D01*
X187075502Y-115905970D01*
X187055817Y-115973009D01*
X187003013Y-116018764D01*
X186933855Y-116028708D01*
X186870299Y-115999683D01*
X186863821Y-115993651D01*
X186312820Y-115442650D01*
X186279335Y-115381327D01*
X186276501Y-115354969D01*
X186276501Y-114692200D01*
X186276500Y-114692183D01*
X186266001Y-114589405D01*
X186266000Y-114589402D01*
X186245562Y-114527724D01*
X186210816Y-114422868D01*
X186118714Y-114273546D01*
X185994658Y-114149490D01*
X185989551Y-114144383D01*
X185991437Y-114142496D01*
X185958214Y-114095577D01*
X185951502Y-114055339D01*
X185951502Y-112861225D01*
X185971187Y-112794187D01*
X185987816Y-112773550D01*
X187295908Y-111465458D01*
X187357229Y-111431975D01*
X187402980Y-111430668D01*
X187448640Y-111437900D01*
X187448643Y-111437900D01*
X187651359Y-111437900D01*
X187651360Y-111437900D01*
X187851584Y-111406187D01*
X188044382Y-111343543D01*
X188225006Y-111251510D01*
X188319370Y-111182951D01*
X188389004Y-111132360D01*
X188389006Y-111132357D01*
X188389010Y-111132355D01*
X188532355Y-110989010D01*
X188532357Y-110989006D01*
X188532360Y-110989004D01*
X188598113Y-110898501D01*
X188651510Y-110825006D01*
X188743543Y-110644382D01*
X188806187Y-110451584D01*
X188837900Y-110251360D01*
X188837900Y-110048640D01*
X188806187Y-109848416D01*
X188743543Y-109655618D01*
X188651510Y-109474994D01*
X188643854Y-109464456D01*
X188532360Y-109310995D01*
X188389004Y-109167639D01*
X188225009Y-109048492D01*
X188225008Y-109048491D01*
X188225006Y-109048490D01*
X188044382Y-108956457D01*
X187851584Y-108893813D01*
X187851582Y-108893812D01*
X187851580Y-108893812D01*
X187711782Y-108871670D01*
X187651360Y-108862100D01*
X187448640Y-108862100D01*
X187402224Y-108869451D01*
X187248419Y-108893812D01*
X187055615Y-108956458D01*
X186874990Y-109048492D01*
X186710995Y-109167639D01*
X186567639Y-109310995D01*
X186448492Y-109474990D01*
X186356458Y-109655615D01*
X186293812Y-109848419D01*
X186262100Y-110048640D01*
X186262100Y-110251364D01*
X186269330Y-110297013D01*
X186260375Y-110366307D01*
X186234538Y-110404092D01*
X184618052Y-112020578D01*
X184618046Y-112020586D01*
X184568814Y-112094266D01*
X184568815Y-112094267D01*
X184535923Y-112143494D01*
X184535916Y-112143506D01*
X184479344Y-112280084D01*
X184479342Y-112280090D01*
X184450502Y-112425078D01*
X184450502Y-114055332D01*
X184430817Y-114122371D01*
X184411622Y-114143552D01*
X184412453Y-114144383D01*
X184283289Y-114273547D01*
X184191189Y-114422865D01*
X184191187Y-114422870D01*
X184172834Y-114478256D01*
X184136003Y-114589405D01*
X184136003Y-114589406D01*
X184136002Y-114589406D01*
X184125502Y-114692185D01*
X180328500Y-114692185D01*
X180328500Y-108279717D01*
X183639100Y-108279717D01*
X183674105Y-108455693D01*
X183674108Y-108455703D01*
X183742768Y-108621465D01*
X183742775Y-108621478D01*
X183842458Y-108770663D01*
X183842461Y-108770667D01*
X183969332Y-108897538D01*
X183969336Y-108897541D01*
X184118521Y-108997224D01*
X184118534Y-108997231D01*
X184242286Y-109048490D01*
X184284301Y-109065893D01*
X184284305Y-109065893D01*
X184284306Y-109065894D01*
X184460282Y-109100899D01*
X184460285Y-109100899D01*
X184639719Y-109100899D01*
X184758111Y-109077348D01*
X184815701Y-109065893D01*
X184981474Y-108997228D01*
X185130666Y-108897541D01*
X185257543Y-108770664D01*
X185357230Y-108621472D01*
X185425895Y-108455699D01*
X185460901Y-108279716D01*
X192639095Y-108279716D01*
X192674100Y-108455692D01*
X192674103Y-108455702D01*
X192742763Y-108621464D01*
X192742770Y-108621477D01*
X192842453Y-108770662D01*
X192842456Y-108770666D01*
X192969327Y-108897537D01*
X192969331Y-108897540D01*
X193118516Y-108997223D01*
X193118529Y-108997230D01*
X193242288Y-109048492D01*
X193284296Y-109065892D01*
X193284300Y-109065892D01*
X193284301Y-109065893D01*
X193460277Y-109100898D01*
X193460280Y-109100898D01*
X193639714Y-109100898D01*
X193758106Y-109077347D01*
X193815696Y-109065892D01*
X193943905Y-109012786D01*
X193981462Y-108997230D01*
X193981462Y-108997229D01*
X193981469Y-108997227D01*
X194130661Y-108897540D01*
X194257538Y-108770663D01*
X194357225Y-108621471D01*
X194425890Y-108455698D01*
X194449569Y-108336660D01*
X194460896Y-108279716D01*
X194460896Y-108100279D01*
X194425891Y-107924303D01*
X194425890Y-107924299D01*
X194425890Y-107924298D01*
X194407273Y-107879353D01*
X194357228Y-107758531D01*
X194357221Y-107758518D01*
X194257538Y-107609333D01*
X194257535Y-107609329D01*
X194130664Y-107482458D01*
X194130660Y-107482455D01*
X193981475Y-107382772D01*
X193981462Y-107382765D01*
X193815700Y-107314105D01*
X193815690Y-107314102D01*
X193639714Y-107279098D01*
X193639712Y-107279098D01*
X193460280Y-107279098D01*
X193460278Y-107279098D01*
X193284301Y-107314102D01*
X193284291Y-107314105D01*
X193118529Y-107382765D01*
X193118516Y-107382772D01*
X192969331Y-107482455D01*
X192969327Y-107482458D01*
X192842456Y-107609329D01*
X192842453Y-107609333D01*
X192742770Y-107758518D01*
X192742763Y-107758531D01*
X192674103Y-107924293D01*
X192674100Y-107924303D01*
X192639096Y-108100279D01*
X192639096Y-108100280D01*
X192639096Y-108100282D01*
X192639096Y-108279714D01*
X192639096Y-108279716D01*
X192639095Y-108279716D01*
X185460901Y-108279716D01*
X185460901Y-108279715D01*
X185460901Y-108100283D01*
X185425895Y-107924299D01*
X185407273Y-107879341D01*
X185357233Y-107758532D01*
X185357226Y-107758519D01*
X185257543Y-107609334D01*
X185257540Y-107609330D01*
X185130669Y-107482459D01*
X185130665Y-107482456D01*
X184981480Y-107382773D01*
X184981467Y-107382766D01*
X184815705Y-107314106D01*
X184815695Y-107314103D01*
X184639719Y-107279099D01*
X184639717Y-107279099D01*
X184460285Y-107279099D01*
X184460283Y-107279099D01*
X184284306Y-107314103D01*
X184284296Y-107314106D01*
X184118534Y-107382766D01*
X184118521Y-107382773D01*
X183969336Y-107482456D01*
X183969332Y-107482459D01*
X183842461Y-107609330D01*
X183842458Y-107609334D01*
X183742775Y-107758519D01*
X183742768Y-107758532D01*
X183674108Y-107924294D01*
X183674105Y-107924304D01*
X183639101Y-108100280D01*
X183639101Y-108100281D01*
X183639101Y-108100283D01*
X183639101Y-108279715D01*
X183639101Y-108279717D01*
X183639100Y-108279717D01*
X180328500Y-108279717D01*
X180328500Y-106908081D01*
X180299659Y-106763094D01*
X180299658Y-106763093D01*
X180299658Y-106763089D01*
X180287369Y-106733420D01*
X180243087Y-106626513D01*
X180243080Y-106626500D01*
X180160952Y-106503587D01*
X180140232Y-106482867D01*
X180056416Y-106399051D01*
X178039637Y-104382272D01*
X176019459Y-102362093D01*
X175985974Y-102300770D01*
X175984667Y-102255019D01*
X175991899Y-102209361D01*
X175991899Y-102006641D01*
X175960186Y-101806417D01*
X175897542Y-101613619D01*
X175805509Y-101432995D01*
X175714972Y-101308381D01*
X184099500Y-101308381D01*
X184099500Y-101337424D01*
X184099500Y-101691619D01*
X184099984Y-101696532D01*
X184137063Y-102073011D01*
X184211824Y-102448866D01*
X184211827Y-102448877D01*
X184323078Y-102815625D01*
X184469738Y-103169692D01*
X184469740Y-103169697D01*
X184650388Y-103507664D01*
X184650399Y-103507682D01*
X184863305Y-103826318D01*
X184863315Y-103826332D01*
X185106439Y-104122580D01*
X185377419Y-104393560D01*
X185377424Y-104393564D01*
X185377425Y-104393565D01*
X185673673Y-104636689D01*
X185992324Y-104849605D01*
X185992333Y-104849610D01*
X185992335Y-104849611D01*
X186330302Y-105030259D01*
X186330304Y-105030259D01*
X186330310Y-105030263D01*
X186684376Y-105176922D01*
X187051113Y-105288170D01*
X187051119Y-105288171D01*
X187051122Y-105288172D01*
X187051133Y-105288175D01*
X187426988Y-105362936D01*
X187808381Y-105400500D01*
X187808384Y-105400500D01*
X188191616Y-105400500D01*
X188191619Y-105400500D01*
X188573012Y-105362936D01*
X188646180Y-105348381D01*
X188948866Y-105288175D01*
X188948877Y-105288172D01*
X188948877Y-105288171D01*
X188948887Y-105288170D01*
X189315624Y-105176922D01*
X189669690Y-105030263D01*
X190007676Y-104849605D01*
X190326327Y-104636689D01*
X190622575Y-104393565D01*
X190893565Y-104122575D01*
X191136689Y-103826327D01*
X191349605Y-103507676D01*
X191530263Y-103169690D01*
X191676922Y-102815624D01*
X191788170Y-102448887D01*
X191788172Y-102448877D01*
X191788175Y-102448866D01*
X191862936Y-102073011D01*
X191873814Y-101962569D01*
X191900500Y-101691619D01*
X191900500Y-101308381D01*
X191862936Y-100926988D01*
X191841675Y-100820100D01*
X191788175Y-100551133D01*
X191788172Y-100551122D01*
X191788171Y-100551119D01*
X191788170Y-100551113D01*
X191676922Y-100184376D01*
X191530263Y-99830310D01*
X191507380Y-99787500D01*
X191349611Y-99492335D01*
X191349610Y-99492333D01*
X191349605Y-99492324D01*
X191136689Y-99173673D01*
X190893565Y-98877425D01*
X190893564Y-98877424D01*
X190893560Y-98877419D01*
X190622580Y-98606439D01*
X190326332Y-98363315D01*
X190326331Y-98363314D01*
X190326327Y-98363311D01*
X190007676Y-98150395D01*
X190007671Y-98150392D01*
X190007664Y-98150388D01*
X189669697Y-97969740D01*
X189669692Y-97969738D01*
X189579311Y-97932301D01*
X189451187Y-97879230D01*
X189315625Y-97823078D01*
X188948877Y-97711827D01*
X188948866Y-97711824D01*
X188573011Y-97637063D01*
X188285763Y-97608772D01*
X188191619Y-97599500D01*
X187808381Y-97599500D01*
X187721394Y-97608067D01*
X187426988Y-97637063D01*
X187051133Y-97711824D01*
X187051122Y-97711827D01*
X186684374Y-97823078D01*
X186330307Y-97969738D01*
X186330302Y-97969740D01*
X185992335Y-98150388D01*
X185992317Y-98150399D01*
X185673681Y-98363305D01*
X185673667Y-98363315D01*
X185377419Y-98606439D01*
X185106439Y-98877419D01*
X184863315Y-99173667D01*
X184863305Y-99173681D01*
X184650399Y-99492317D01*
X184650388Y-99492335D01*
X184469740Y-99830302D01*
X184469738Y-99830307D01*
X184323078Y-100184374D01*
X184211827Y-100551122D01*
X184211824Y-100551133D01*
X184137063Y-100926988D01*
X184112301Y-101178411D01*
X184099500Y-101308381D01*
X175714972Y-101308381D01*
X175686354Y-101268991D01*
X175543009Y-101125646D01*
X175543008Y-101125645D01*
X175543003Y-101125640D01*
X175379008Y-101006493D01*
X175379007Y-101006492D01*
X175379005Y-101006491D01*
X175198381Y-100914458D01*
X175005583Y-100851814D01*
X175005581Y-100851813D01*
X175005579Y-100851813D01*
X174865781Y-100829671D01*
X174805359Y-100820101D01*
X174602639Y-100820101D01*
X174556223Y-100827452D01*
X174402418Y-100851813D01*
X174209614Y-100914459D01*
X174028989Y-101006493D01*
X173864994Y-101125640D01*
X173721638Y-101268996D01*
X173602491Y-101432991D01*
X173510457Y-101613616D01*
X173447811Y-101806420D01*
X173416099Y-102006641D01*
X173416099Y-102209360D01*
X173439049Y-102354263D01*
X173447812Y-102409585D01*
X173510456Y-102602383D01*
X173602488Y-102783006D01*
X173602491Y-102783010D01*
X173721638Y-102947005D01*
X173864994Y-103090361D01*
X174018455Y-103201855D01*
X174028993Y-103209511D01*
X174209617Y-103301544D01*
X174402415Y-103364188D01*
X174602639Y-103395901D01*
X174602640Y-103395901D01*
X174805354Y-103395901D01*
X174805359Y-103395901D01*
X174851014Y-103388669D01*
X174920303Y-103397622D01*
X174958091Y-103423461D01*
X175204536Y-103669906D01*
X175238020Y-103731227D01*
X175233036Y-103800918D01*
X175191165Y-103856852D01*
X175125700Y-103881269D01*
X175078537Y-103875516D01*
X175005585Y-103851813D01*
X175005580Y-103851812D01*
X174865782Y-103829670D01*
X174805360Y-103820100D01*
X174602640Y-103820100D01*
X174556224Y-103827451D01*
X174402419Y-103851812D01*
X174209615Y-103914458D01*
X174028990Y-104006492D01*
X173864995Y-104125639D01*
X173721639Y-104268995D01*
X173602492Y-104432990D01*
X173510458Y-104613615D01*
X173447812Y-104806419D01*
X173416100Y-105006640D01*
X173416100Y-105209359D01*
X173440424Y-105362936D01*
X173447813Y-105409584D01*
X173477353Y-105500500D01*
X173510458Y-105602384D01*
X173602492Y-105783009D01*
X173723818Y-105950002D01*
X173747298Y-106015808D01*
X173747500Y-106022887D01*
X173747500Y-109873769D01*
X173727815Y-109940808D01*
X173711181Y-109961450D01*
X169102703Y-114569927D01*
X169062480Y-114596805D01*
X169038819Y-114606606D01*
X169038818Y-114606607D01*
X168907715Y-114694207D01*
X168907707Y-114694213D01*
X168856181Y-114745740D01*
X168794858Y-114779225D01*
X168725166Y-114774241D01*
X168669233Y-114732369D01*
X168644816Y-114666905D01*
X168644500Y-114658059D01*
X168644500Y-105006640D01*
X170416100Y-105006640D01*
X170416100Y-105209359D01*
X170440424Y-105362936D01*
X170447813Y-105409584D01*
X170477353Y-105500500D01*
X170510458Y-105602384D01*
X170602492Y-105783009D01*
X170721639Y-105947004D01*
X170864995Y-106090360D01*
X171018456Y-106201854D01*
X171028994Y-106209510D01*
X171209618Y-106301543D01*
X171402416Y-106364187D01*
X171602640Y-106395900D01*
X171602641Y-106395900D01*
X171805359Y-106395900D01*
X171805360Y-106395900D01*
X172005584Y-106364187D01*
X172198382Y-106301543D01*
X172379006Y-106209510D01*
X172518739Y-106107989D01*
X172543004Y-106090360D01*
X172543006Y-106090357D01*
X172543010Y-106090355D01*
X172686355Y-105947010D01*
X172686357Y-105947006D01*
X172686360Y-105947004D01*
X172765857Y-105837584D01*
X172805510Y-105783006D01*
X172897543Y-105602382D01*
X172960187Y-105409584D01*
X172991900Y-105209360D01*
X172991900Y-105006640D01*
X172960187Y-104806416D01*
X172897543Y-104613618D01*
X172805510Y-104432994D01*
X172777862Y-104394939D01*
X172686360Y-104268995D01*
X172543004Y-104125639D01*
X172379009Y-104006492D01*
X172379008Y-104006491D01*
X172379006Y-104006490D01*
X172198382Y-103914457D01*
X172005584Y-103851813D01*
X172005582Y-103851812D01*
X172005580Y-103851812D01*
X171865782Y-103829670D01*
X171805360Y-103820100D01*
X171602640Y-103820100D01*
X171556224Y-103827451D01*
X171402419Y-103851812D01*
X171209615Y-103914458D01*
X171028990Y-104006492D01*
X170864995Y-104125639D01*
X170721639Y-104268995D01*
X170602492Y-104432990D01*
X170510458Y-104613615D01*
X170447812Y-104806419D01*
X170416100Y-105006640D01*
X168644500Y-105006640D01*
X168644500Y-102006640D01*
X170416100Y-102006640D01*
X170416100Y-102209359D01*
X170447812Y-102409580D01*
X170447812Y-102409582D01*
X170447813Y-102409584D01*
X170477909Y-102502211D01*
X170510458Y-102602384D01*
X170602492Y-102783009D01*
X170721639Y-102947004D01*
X170864995Y-103090360D01*
X170985427Y-103177857D01*
X171028994Y-103209510D01*
X171209618Y-103301543D01*
X171402416Y-103364187D01*
X171602640Y-103395900D01*
X171602641Y-103395900D01*
X171805359Y-103395900D01*
X171805360Y-103395900D01*
X172005584Y-103364187D01*
X172198382Y-103301543D01*
X172379006Y-103209510D01*
X172471085Y-103142610D01*
X172543004Y-103090360D01*
X172543006Y-103090357D01*
X172543010Y-103090355D01*
X172686355Y-102947010D01*
X172686359Y-102947005D01*
X172686360Y-102947004D01*
X172743154Y-102868832D01*
X172805510Y-102783006D01*
X172897543Y-102602382D01*
X172960187Y-102409584D01*
X172991900Y-102209360D01*
X172991900Y-102006640D01*
X172960187Y-101806416D01*
X172897543Y-101613618D01*
X172805510Y-101432994D01*
X172797854Y-101422456D01*
X172686360Y-101268995D01*
X172543004Y-101125639D01*
X172379009Y-101006492D01*
X172379008Y-101006491D01*
X172379006Y-101006490D01*
X172198382Y-100914457D01*
X172005584Y-100851813D01*
X172005582Y-100851812D01*
X172005580Y-100851812D01*
X171865782Y-100829670D01*
X171805360Y-100820100D01*
X171602640Y-100820100D01*
X171556224Y-100827451D01*
X171402419Y-100851812D01*
X171402416Y-100851813D01*
X171291377Y-100887892D01*
X171209615Y-100914458D01*
X171028990Y-101006492D01*
X170864995Y-101125639D01*
X170721639Y-101268995D01*
X170602492Y-101432990D01*
X170510458Y-101613615D01*
X170447812Y-101806419D01*
X170416100Y-102006640D01*
X168644500Y-102006640D01*
X168644500Y-99030790D01*
X174860100Y-99030790D01*
X174860100Y-99185213D01*
X174890223Y-99336649D01*
X174890226Y-99336661D01*
X174949313Y-99479311D01*
X174949320Y-99479324D01*
X175035104Y-99607708D01*
X175035107Y-99607712D01*
X175144289Y-99716894D01*
X175144293Y-99716897D01*
X175272677Y-99802681D01*
X175272690Y-99802688D01*
X175415340Y-99861775D01*
X175415345Y-99861777D01*
X175566788Y-99891901D01*
X175566791Y-99891902D01*
X175566793Y-99891902D01*
X175721209Y-99891902D01*
X175721210Y-99891901D01*
X175872655Y-99861777D01*
X176015316Y-99802685D01*
X176143707Y-99716897D01*
X176252895Y-99607709D01*
X176338683Y-99479318D01*
X176397775Y-99336657D01*
X176427900Y-99185209D01*
X176427900Y-99030795D01*
X176427900Y-99030792D01*
X176427899Y-99030790D01*
X176397776Y-98879354D01*
X176397775Y-98879347D01*
X176389313Y-98858918D01*
X176338686Y-98736692D01*
X176338679Y-98736679D01*
X176252895Y-98608295D01*
X176252892Y-98608291D01*
X176143710Y-98499109D01*
X176143706Y-98499106D01*
X176015322Y-98413322D01*
X176015309Y-98413315D01*
X175872659Y-98354228D01*
X175872647Y-98354225D01*
X175721210Y-98324102D01*
X175721207Y-98324102D01*
X175566793Y-98324102D01*
X175566790Y-98324102D01*
X175415352Y-98354225D01*
X175415340Y-98354228D01*
X175272690Y-98413315D01*
X175272677Y-98413322D01*
X175144293Y-98499106D01*
X175144289Y-98499109D01*
X175035107Y-98608291D01*
X175035104Y-98608295D01*
X174949320Y-98736679D01*
X174949313Y-98736692D01*
X174890226Y-98879342D01*
X174890223Y-98879354D01*
X174860100Y-99030790D01*
X168644500Y-99030790D01*
X168644500Y-96720079D01*
X168615659Y-96575092D01*
X168615658Y-96575091D01*
X168615658Y-96575087D01*
X168559084Y-96438505D01*
X168526186Y-96389270D01*
X168526185Y-96389268D01*
X168476956Y-96315589D01*
X168476952Y-96315584D01*
X168379263Y-96217895D01*
X168345778Y-96156572D01*
X168342945Y-96129659D01*
X168344478Y-95787189D01*
X168351720Y-94168561D01*
X168354323Y-93586810D01*
X168359949Y-92329412D01*
X168363393Y-91559599D01*
X169925000Y-91559599D01*
X169925000Y-91840402D01*
X169956437Y-92119413D01*
X169956439Y-92119425D01*
X170018921Y-92393179D01*
X170018922Y-92393181D01*
X170111662Y-92658218D01*
X170233492Y-92911201D01*
X170382884Y-93148957D01*
X170489187Y-93282258D01*
X171309728Y-92461717D01*
X171395278Y-92579467D01*
X171545534Y-92729723D01*
X171663281Y-92815271D01*
X170842741Y-93635811D01*
X170842741Y-93635812D01*
X170976043Y-93742116D01*
X171213799Y-93891508D01*
X171466782Y-94013338D01*
X171731819Y-94106078D01*
X171731821Y-94106079D01*
X172005575Y-94168561D01*
X172005587Y-94168563D01*
X172284598Y-94200000D01*
X172284600Y-94200001D01*
X172565400Y-94200001D01*
X172565401Y-94200000D01*
X172844412Y-94168563D01*
X172844424Y-94168561D01*
X173118178Y-94106079D01*
X173118180Y-94106078D01*
X173383217Y-94013338D01*
X173636200Y-93891508D01*
X173873956Y-93742117D01*
X174007257Y-93635811D01*
X173186717Y-92815272D01*
X173304466Y-92729723D01*
X173454722Y-92579467D01*
X173540270Y-92461718D01*
X174360810Y-93282258D01*
X174467116Y-93148957D01*
X174616507Y-92911201D01*
X174738337Y-92658218D01*
X174783458Y-92529271D01*
X174824180Y-92472495D01*
X174889133Y-92446747D01*
X174957694Y-92460203D01*
X175008097Y-92508590D01*
X175024500Y-92570225D01*
X175024500Y-92904740D01*
X175030427Y-92980048D01*
X175034987Y-93037984D01*
X175053466Y-93111323D01*
X175090426Y-93258003D01*
X175184258Y-93464580D01*
X175184263Y-93464590D01*
X175313473Y-93651091D01*
X175473909Y-93811527D01*
X175660410Y-93940737D01*
X175660420Y-93940742D01*
X175866997Y-94034574D01*
X175866998Y-94034574D01*
X175867000Y-94034575D01*
X176087017Y-94090014D01*
X176220264Y-94100501D01*
X176220270Y-94100501D01*
X178629730Y-94100501D01*
X178629736Y-94100501D01*
X178762983Y-94090014D01*
X178983000Y-94034575D01*
X179189582Y-93940741D01*
X179189584Y-93940739D01*
X179189589Y-93940737D01*
X179376090Y-93811527D01*
X179536526Y-93651091D01*
X179547112Y-93635812D01*
X179582531Y-93584688D01*
X179665736Y-93464590D01*
X179665741Y-93464580D01*
X179689488Y-93412301D01*
X179759574Y-93258001D01*
X179815013Y-93037984D01*
X179825500Y-92904737D01*
X179825500Y-90495265D01*
X179815013Y-90362018D01*
X179759574Y-90142001D01*
X179739646Y-90098129D01*
X179665741Y-89935421D01*
X179665736Y-89935411D01*
X179536526Y-89748910D01*
X179376090Y-89588474D01*
X179189589Y-89459264D01*
X179189579Y-89459259D01*
X178983002Y-89365427D01*
X178836322Y-89328467D01*
X178762983Y-89309988D01*
X178729671Y-89307366D01*
X178629739Y-89299501D01*
X178629736Y-89299501D01*
X176220264Y-89299501D01*
X176220260Y-89299501D01*
X176087017Y-89309988D01*
X175866997Y-89365427D01*
X175660420Y-89459259D01*
X175660410Y-89459264D01*
X175473909Y-89588474D01*
X175313473Y-89748910D01*
X175184263Y-89935411D01*
X175184258Y-89935421D01*
X175090426Y-90141998D01*
X175034987Y-90362018D01*
X175024500Y-90495261D01*
X175024500Y-90829776D01*
X175004815Y-90896815D01*
X174952011Y-90942570D01*
X174882853Y-90952514D01*
X174819297Y-90923489D01*
X174783458Y-90870731D01*
X174738336Y-90741781D01*
X174616507Y-90488800D01*
X174467115Y-90251044D01*
X174360810Y-90117742D01*
X173540270Y-90938282D01*
X173454722Y-90820535D01*
X173304466Y-90670279D01*
X173186716Y-90584729D01*
X174007257Y-89764188D01*
X173873956Y-89657885D01*
X173636200Y-89508493D01*
X173383217Y-89386663D01*
X173118180Y-89293923D01*
X173118178Y-89293922D01*
X172844424Y-89231440D01*
X172844412Y-89231438D01*
X172565401Y-89200001D01*
X172284598Y-89200001D01*
X172005587Y-89231438D01*
X172005575Y-89231440D01*
X171731821Y-89293922D01*
X171731819Y-89293923D01*
X171466782Y-89386663D01*
X171213799Y-89508493D01*
X170976043Y-89657885D01*
X170842741Y-89764188D01*
X171663282Y-90584729D01*
X171545534Y-90670279D01*
X171395278Y-90820535D01*
X171309728Y-90938283D01*
X170489187Y-90117742D01*
X170382884Y-90251044D01*
X170233492Y-90488800D01*
X170111662Y-90741783D01*
X170018922Y-91006820D01*
X170018921Y-91006822D01*
X169956439Y-91280576D01*
X169956437Y-91280588D01*
X169925000Y-91559599D01*
X168363393Y-91559599D01*
X168365824Y-91016311D01*
X168365823Y-91016311D01*
X163325065Y-91039279D01*
X163257937Y-91019900D01*
X163211942Y-90967305D01*
X163200500Y-90915280D01*
X163200500Y-90434313D01*
X163200499Y-90434298D01*
X163200213Y-90430667D01*
X163197598Y-90397431D01*
X163187309Y-90362018D01*
X163151745Y-90239606D01*
X163151744Y-90239603D01*
X163151744Y-90239602D01*
X163068081Y-90098135D01*
X163068079Y-90098133D01*
X163068076Y-90098129D01*
X162951870Y-89981923D01*
X162951862Y-89981917D01*
X162846095Y-89919367D01*
X162846093Y-89919365D01*
X162810400Y-89898257D01*
X162810393Y-89898254D01*
X162652573Y-89852402D01*
X162652567Y-89852401D01*
X162615701Y-89849500D01*
X162615694Y-89849500D01*
X161784306Y-89849500D01*
X161784298Y-89849500D01*
X161747432Y-89852401D01*
X161747426Y-89852402D01*
X161589606Y-89898254D01*
X161589603Y-89898255D01*
X161448137Y-89981917D01*
X161448129Y-89981923D01*
X161331923Y-90098129D01*
X161331917Y-90098137D01*
X161248255Y-90239603D01*
X161248254Y-90239606D01*
X161202402Y-90397426D01*
X161202401Y-90397432D01*
X161199500Y-90434298D01*
X161199500Y-90925529D01*
X161179815Y-90992568D01*
X161127011Y-91038323D01*
X161076065Y-91049528D01*
X151125065Y-91094872D01*
X151057937Y-91075493D01*
X151011942Y-91022898D01*
X151000500Y-90970873D01*
X151000500Y-90434313D01*
X151000499Y-90434298D01*
X151000213Y-90430667D01*
X150997598Y-90397431D01*
X150987309Y-90362018D01*
X150951745Y-90239606D01*
X150951744Y-90239603D01*
X150951744Y-90239602D01*
X150868081Y-90098135D01*
X150868079Y-90098133D01*
X150868076Y-90098129D01*
X150751870Y-89981923D01*
X150751862Y-89981917D01*
X150646095Y-89919367D01*
X150610398Y-89898256D01*
X150610397Y-89898255D01*
X150610396Y-89898255D01*
X150610393Y-89898254D01*
X150452573Y-89852402D01*
X150452567Y-89852401D01*
X150415701Y-89849500D01*
X150415694Y-89849500D01*
X149584306Y-89849500D01*
X149584298Y-89849500D01*
X149547432Y-89852401D01*
X149547426Y-89852402D01*
X149389606Y-89898254D01*
X149389603Y-89898255D01*
X149248137Y-89981917D01*
X149248129Y-89981923D01*
X149131923Y-90098129D01*
X149131917Y-90098137D01*
X149048255Y-90239603D01*
X149042303Y-90260093D01*
X149027988Y-90282508D01*
X149016939Y-90306703D01*
X149009473Y-90311500D01*
X149004697Y-90318980D01*
X148980534Y-90330098D01*
X148958161Y-90344477D01*
X148945254Y-90346332D01*
X148941225Y-90348187D01*
X148923226Y-90349500D01*
X148787230Y-90349500D01*
X148720191Y-90329815D01*
X148699549Y-90313181D01*
X146385867Y-87999498D01*
X146352382Y-87938175D01*
X146357366Y-87868483D01*
X146399238Y-87812550D01*
X146464702Y-87788133D01*
X146511860Y-87793885D01*
X146583757Y-87817246D01*
X146793713Y-87850500D01*
X146793714Y-87850500D01*
X147006286Y-87850500D01*
X147006287Y-87850500D01*
X147216243Y-87817246D01*
X147418412Y-87751557D01*
X147607816Y-87655051D01*
X147639291Y-87632183D01*
X147779786Y-87530109D01*
X147779788Y-87530106D01*
X147779792Y-87530104D01*
X147930104Y-87379792D01*
X147930106Y-87379788D01*
X147930109Y-87379786D01*
X148055048Y-87207820D01*
X148055047Y-87207820D01*
X148055051Y-87207816D01*
X148151557Y-87018412D01*
X148217246Y-86816243D01*
X148250500Y-86606287D01*
X148250500Y-86393713D01*
X151749500Y-86393713D01*
X151749500Y-86606286D01*
X151782237Y-86812984D01*
X151782754Y-86816243D01*
X151848246Y-87017807D01*
X151848444Y-87018414D01*
X151944951Y-87207820D01*
X152069890Y-87379786D01*
X152220213Y-87530109D01*
X152392179Y-87655048D01*
X152392181Y-87655049D01*
X152392184Y-87655051D01*
X152581588Y-87751557D01*
X152783757Y-87817246D01*
X152993713Y-87850500D01*
X152993714Y-87850500D01*
X153206286Y-87850500D01*
X153206287Y-87850500D01*
X153416243Y-87817246D01*
X153618412Y-87751557D01*
X153807816Y-87655051D01*
X153839291Y-87632183D01*
X153979786Y-87530109D01*
X153979788Y-87530106D01*
X153979792Y-87530104D01*
X154130104Y-87379792D01*
X154130106Y-87379788D01*
X154130109Y-87379786D01*
X154255048Y-87207820D01*
X154255047Y-87207820D01*
X154255051Y-87207816D01*
X154351557Y-87018412D01*
X154417246Y-86816243D01*
X154450500Y-86606287D01*
X154450500Y-86393713D01*
X157749500Y-86393713D01*
X157749500Y-86606286D01*
X157782237Y-86812984D01*
X157782754Y-86816243D01*
X157848246Y-87017807D01*
X157848444Y-87018414D01*
X157944951Y-87207820D01*
X158069890Y-87379786D01*
X158220213Y-87530109D01*
X158392179Y-87655048D01*
X158392181Y-87655049D01*
X158392184Y-87655051D01*
X158581588Y-87751557D01*
X158783757Y-87817246D01*
X158993713Y-87850500D01*
X158993714Y-87850500D01*
X159206286Y-87850500D01*
X159206287Y-87850500D01*
X159416243Y-87817246D01*
X159618412Y-87751557D01*
X159807816Y-87655051D01*
X159839291Y-87632183D01*
X159979786Y-87530109D01*
X159979788Y-87530106D01*
X159979792Y-87530104D01*
X160130104Y-87379792D01*
X160130106Y-87379788D01*
X160130109Y-87379786D01*
X160255048Y-87207820D01*
X160255047Y-87207820D01*
X160255051Y-87207816D01*
X160351557Y-87018412D01*
X160417246Y-86816243D01*
X160450500Y-86606287D01*
X160450500Y-86393713D01*
X163949500Y-86393713D01*
X163949500Y-86606286D01*
X163982237Y-86812984D01*
X163982754Y-86816243D01*
X164048246Y-87017807D01*
X164048444Y-87018414D01*
X164144951Y-87207820D01*
X164269890Y-87379786D01*
X164420213Y-87530109D01*
X164592179Y-87655048D01*
X164592181Y-87655049D01*
X164592184Y-87655051D01*
X164781588Y-87751557D01*
X164983757Y-87817246D01*
X165193713Y-87850500D01*
X165193714Y-87850500D01*
X165406286Y-87850500D01*
X165406287Y-87850500D01*
X165616243Y-87817246D01*
X165818412Y-87751557D01*
X166007816Y-87655051D01*
X166039291Y-87632183D01*
X166179786Y-87530109D01*
X166179788Y-87530106D01*
X166179792Y-87530104D01*
X166330104Y-87379792D01*
X166364874Y-87331935D01*
X166395720Y-87289480D01*
X166455048Y-87207820D01*
X166455047Y-87207820D01*
X166455051Y-87207816D01*
X166551557Y-87018412D01*
X166617246Y-86816243D01*
X166650500Y-86606287D01*
X166650500Y-86393713D01*
X166617246Y-86183757D01*
X166551557Y-85981588D01*
X166455051Y-85792184D01*
X166455049Y-85792181D01*
X166455048Y-85792179D01*
X166330109Y-85620213D01*
X166179790Y-85469894D01*
X166179785Y-85469890D01*
X166126867Y-85431443D01*
X166007820Y-85344951D01*
X165987503Y-85334599D01*
X169749999Y-85334599D01*
X169749999Y-85615402D01*
X169781436Y-85894413D01*
X169781438Y-85894425D01*
X169843920Y-86168179D01*
X169843921Y-86168181D01*
X169936661Y-86433218D01*
X170058491Y-86686201D01*
X170207883Y-86923957D01*
X170314186Y-87057258D01*
X171134727Y-86236717D01*
X171220277Y-86354467D01*
X171370533Y-86504723D01*
X171488280Y-86590271D01*
X170667740Y-87410811D01*
X170667740Y-87410812D01*
X170801042Y-87517116D01*
X171038798Y-87666508D01*
X171291781Y-87788338D01*
X171556818Y-87881078D01*
X171556820Y-87881079D01*
X171830574Y-87943561D01*
X171830586Y-87943563D01*
X172109597Y-87975000D01*
X172109599Y-87975001D01*
X172390399Y-87975001D01*
X172390400Y-87975000D01*
X172669411Y-87943563D01*
X172669423Y-87943561D01*
X172943177Y-87881079D01*
X172943179Y-87881078D01*
X173208216Y-87788338D01*
X173461199Y-87666508D01*
X173698955Y-87517117D01*
X173832256Y-87410811D01*
X173011716Y-86590272D01*
X173129465Y-86504723D01*
X173279721Y-86354467D01*
X173365269Y-86236718D01*
X174185809Y-87057258D01*
X174292115Y-86923957D01*
X174441506Y-86686201D01*
X174563336Y-86433218D01*
X174608457Y-86304271D01*
X174649179Y-86247495D01*
X174714132Y-86221747D01*
X174782693Y-86235203D01*
X174833096Y-86283590D01*
X174849499Y-86345225D01*
X174849499Y-86679740D01*
X174859986Y-86812983D01*
X174915425Y-87033003D01*
X175009257Y-87239580D01*
X175009262Y-87239590D01*
X175138472Y-87426091D01*
X175298908Y-87586527D01*
X175485409Y-87715737D01*
X175485419Y-87715742D01*
X175691996Y-87809574D01*
X175691997Y-87809574D01*
X175691999Y-87809575D01*
X175912016Y-87865014D01*
X176045263Y-87875501D01*
X176045269Y-87875501D01*
X178454729Y-87875501D01*
X178454735Y-87875501D01*
X178587982Y-87865014D01*
X178807999Y-87809575D01*
X179014581Y-87715741D01*
X179014583Y-87715739D01*
X179014588Y-87715737D01*
X179201089Y-87586527D01*
X179361525Y-87426091D01*
X179372111Y-87410812D01*
X179426757Y-87331935D01*
X179490735Y-87239590D01*
X179490740Y-87239580D01*
X179561261Y-87084325D01*
X179584573Y-87033001D01*
X179640012Y-86812984D01*
X179650499Y-86679737D01*
X179650499Y-84270265D01*
X179640012Y-84137018D01*
X179584573Y-83917001D01*
X179490739Y-83710419D01*
X179490735Y-83710411D01*
X179361525Y-83523910D01*
X179201089Y-83363474D01*
X179014588Y-83234264D01*
X179014578Y-83234259D01*
X178808001Y-83140427D01*
X178661321Y-83103467D01*
X178587982Y-83084988D01*
X178554670Y-83082366D01*
X178454738Y-83074501D01*
X178454735Y-83074501D01*
X176045263Y-83074501D01*
X176045259Y-83074501D01*
X175912016Y-83084988D01*
X175691996Y-83140427D01*
X175485419Y-83234259D01*
X175485409Y-83234264D01*
X175298908Y-83363474D01*
X175138472Y-83523910D01*
X175009262Y-83710411D01*
X175009257Y-83710421D01*
X174915425Y-83916998D01*
X174859986Y-84137018D01*
X174849499Y-84270261D01*
X174849499Y-84604776D01*
X174829814Y-84671815D01*
X174777010Y-84717570D01*
X174707852Y-84727514D01*
X174644296Y-84698489D01*
X174608457Y-84645731D01*
X174563335Y-84516781D01*
X174441506Y-84263800D01*
X174292114Y-84026044D01*
X174185809Y-83892742D01*
X173365269Y-84713282D01*
X173279721Y-84595535D01*
X173129465Y-84445279D01*
X173011715Y-84359729D01*
X173832256Y-83539188D01*
X173698955Y-83432885D01*
X173461199Y-83283493D01*
X173208216Y-83161663D01*
X172943179Y-83068923D01*
X172943177Y-83068922D01*
X172669423Y-83006440D01*
X172669411Y-83006438D01*
X172390400Y-82975001D01*
X172109597Y-82975001D01*
X171830586Y-83006438D01*
X171830574Y-83006440D01*
X171556820Y-83068922D01*
X171556818Y-83068923D01*
X171291781Y-83161663D01*
X171038798Y-83283493D01*
X170801042Y-83432885D01*
X170667740Y-83539188D01*
X171488281Y-84359729D01*
X171370533Y-84445279D01*
X171220277Y-84595535D01*
X171134727Y-84713283D01*
X170314186Y-83892742D01*
X170207883Y-84026044D01*
X170058491Y-84263800D01*
X169936661Y-84516783D01*
X169843921Y-84781820D01*
X169843920Y-84781822D01*
X169781438Y-85055576D01*
X169781436Y-85055588D01*
X169749999Y-85334599D01*
X165987503Y-85334599D01*
X165818414Y-85248444D01*
X165818413Y-85248443D01*
X165818412Y-85248443D01*
X165616243Y-85182754D01*
X165616241Y-85182753D01*
X165616240Y-85182753D01*
X165454957Y-85157208D01*
X165406287Y-85149500D01*
X165193713Y-85149500D01*
X165145042Y-85157208D01*
X164983760Y-85182753D01*
X164781585Y-85248444D01*
X164592179Y-85344951D01*
X164420213Y-85469890D01*
X164269890Y-85620213D01*
X164144951Y-85792179D01*
X164048444Y-85981585D01*
X163982753Y-86183760D01*
X163949500Y-86393713D01*
X160450500Y-86393713D01*
X160417246Y-86183757D01*
X160351557Y-85981588D01*
X160255051Y-85792184D01*
X160255049Y-85792181D01*
X160255048Y-85792179D01*
X160130109Y-85620213D01*
X159979786Y-85469890D01*
X159807820Y-85344951D01*
X159618414Y-85248444D01*
X159618413Y-85248443D01*
X159618412Y-85248443D01*
X159416243Y-85182754D01*
X159416241Y-85182753D01*
X159416240Y-85182753D01*
X159254957Y-85157208D01*
X159206287Y-85149500D01*
X158993713Y-85149500D01*
X158945042Y-85157208D01*
X158783760Y-85182753D01*
X158581585Y-85248444D01*
X158392179Y-85344951D01*
X158220213Y-85469890D01*
X158069890Y-85620213D01*
X157944951Y-85792179D01*
X157848444Y-85981585D01*
X157782753Y-86183760D01*
X157749500Y-86393713D01*
X154450500Y-86393713D01*
X154417246Y-86183757D01*
X154351557Y-85981588D01*
X154255051Y-85792184D01*
X154255049Y-85792181D01*
X154255048Y-85792179D01*
X154130109Y-85620213D01*
X153979786Y-85469890D01*
X153807820Y-85344951D01*
X153618414Y-85248444D01*
X153618413Y-85248443D01*
X153618412Y-85248443D01*
X153416243Y-85182754D01*
X153416241Y-85182753D01*
X153416240Y-85182753D01*
X153254957Y-85157208D01*
X153206287Y-85149500D01*
X152993713Y-85149500D01*
X152945042Y-85157208D01*
X152783760Y-85182753D01*
X152581585Y-85248444D01*
X152392179Y-85344951D01*
X152220213Y-85469890D01*
X152069890Y-85620213D01*
X151944951Y-85792179D01*
X151848444Y-85981585D01*
X151782753Y-86183760D01*
X151749500Y-86393713D01*
X148250500Y-86393713D01*
X148217246Y-86183757D01*
X148151557Y-85981588D01*
X148055051Y-85792184D01*
X148055049Y-85792181D01*
X148055048Y-85792179D01*
X147930109Y-85620213D01*
X147779786Y-85469890D01*
X147607820Y-85344951D01*
X147418414Y-85248444D01*
X147418413Y-85248443D01*
X147418412Y-85248443D01*
X147216243Y-85182754D01*
X147216241Y-85182753D01*
X147216240Y-85182753D01*
X147054957Y-85157208D01*
X147006287Y-85149500D01*
X146793713Y-85149500D01*
X146745042Y-85157208D01*
X146583760Y-85182753D01*
X146381585Y-85248444D01*
X146192179Y-85344951D01*
X146020213Y-85469890D01*
X145869890Y-85620213D01*
X145744951Y-85792179D01*
X145648444Y-85981585D01*
X145582753Y-86183760D01*
X145549500Y-86393713D01*
X145549500Y-86606286D01*
X145582237Y-86812984D01*
X145582754Y-86816243D01*
X145592913Y-86847510D01*
X145606113Y-86888133D01*
X145608108Y-86957974D01*
X145572028Y-87017807D01*
X145509327Y-87048635D01*
X145439913Y-87040670D01*
X145400501Y-87014132D01*
X141903421Y-83517052D01*
X141903414Y-83517046D01*
X141829729Y-83467812D01*
X141829729Y-83467813D01*
X141780491Y-83434913D01*
X141643917Y-83378343D01*
X141643907Y-83378340D01*
X141498920Y-83349500D01*
X141498918Y-83349500D01*
X137060332Y-83349500D01*
X137060330Y-83349500D01*
X136915342Y-83378340D01*
X136915336Y-83378342D01*
X136778758Y-83434914D01*
X136778746Y-83434921D01*
X136729519Y-83467813D01*
X136655838Y-83517044D01*
X136655830Y-83517050D01*
X129430144Y-90742736D01*
X129368821Y-90776221D01*
X129323067Y-90777529D01*
X129299205Y-90773750D01*
X129299204Y-90773750D01*
X129100796Y-90773750D01*
X129100791Y-90773750D01*
X128904837Y-90804786D01*
X128904835Y-90804786D01*
X128904832Y-90804787D01*
X128825832Y-90830456D01*
X128716131Y-90866100D01*
X128539352Y-90956174D01*
X128539349Y-90956176D01*
X128464366Y-91010655D01*
X128378839Y-91072794D01*
X128378837Y-91072796D01*
X128378836Y-91072796D01*
X128238546Y-91213086D01*
X128238546Y-91213087D01*
X128238544Y-91213089D01*
X128215567Y-91244714D01*
X128121926Y-91373599D01*
X128121924Y-91373602D01*
X128031850Y-91550381D01*
X128011393Y-91613341D01*
X127970537Y-91739082D01*
X127970537Y-91739084D01*
X127970536Y-91739087D01*
X127939500Y-91935040D01*
X127939500Y-92133459D01*
X127952903Y-92218081D01*
X127970537Y-92329418D01*
X127995926Y-92407555D01*
X128031850Y-92518118D01*
X128074134Y-92601104D01*
X128121923Y-92694896D01*
X128238544Y-92855411D01*
X128378839Y-92995706D01*
X128539354Y-93112327D01*
X128652800Y-93170130D01*
X128716131Y-93202399D01*
X128716133Y-93202399D01*
X128716136Y-93202401D01*
X128904832Y-93263713D01*
X129002814Y-93279231D01*
X129100791Y-93294750D01*
X129100796Y-93294750D01*
X129299209Y-93294750D01*
X129388278Y-93280642D01*
X129495168Y-93263713D01*
X129683864Y-93202401D01*
X129860646Y-93112327D01*
X130021161Y-92995706D01*
X130161456Y-92855411D01*
X130278077Y-92694896D01*
X130368151Y-92518114D01*
X130429463Y-92329418D01*
X130447097Y-92218081D01*
X130460500Y-92133459D01*
X130460500Y-91935041D01*
X130456721Y-91911183D01*
X130465675Y-91841889D01*
X130491510Y-91804106D01*
X130804583Y-91491033D01*
X130865904Y-91457550D01*
X130935596Y-91462534D01*
X130991529Y-91504406D01*
X131015946Y-91569870D01*
X131010193Y-91617034D01*
X130970536Y-91739084D01*
X130970536Y-91739085D01*
X130939500Y-91935040D01*
X130939500Y-92133459D01*
X130952903Y-92218081D01*
X130970537Y-92329418D01*
X130995926Y-92407555D01*
X131031850Y-92518118D01*
X131074134Y-92601104D01*
X131121923Y-92694896D01*
X131238544Y-92855411D01*
X131378839Y-92995706D01*
X131539354Y-93112327D01*
X131652800Y-93170130D01*
X131716131Y-93202399D01*
X131716133Y-93202399D01*
X131716136Y-93202401D01*
X131904832Y-93263713D01*
X131904838Y-93263714D01*
X131904836Y-93263714D01*
X132065064Y-93289091D01*
X132128199Y-93319020D01*
X132165131Y-93378331D01*
X132169649Y-93413676D01*
X131983305Y-104352705D01*
X131962481Y-104419399D01*
X131908906Y-104464248D01*
X131839588Y-104473012D01*
X131776536Y-104442909D01*
X131771642Y-104438274D01*
X126936819Y-99603451D01*
X126903334Y-99542128D01*
X126900500Y-99515770D01*
X126900500Y-93146552D01*
X126920185Y-93079513D01*
X126951616Y-93046233D01*
X126964896Y-93036585D01*
X127021161Y-92995706D01*
X127161456Y-92855411D01*
X127278077Y-92694896D01*
X127368151Y-92518114D01*
X127429463Y-92329418D01*
X127447097Y-92218081D01*
X127460500Y-92133459D01*
X127460500Y-91935040D01*
X127439518Y-91802569D01*
X127429463Y-91739082D01*
X127368151Y-91550386D01*
X127368149Y-91550383D01*
X127368149Y-91550381D01*
X127325856Y-91467376D01*
X127278077Y-91373604D01*
X127161456Y-91213089D01*
X127021161Y-91072794D01*
X126860646Y-90956173D01*
X126800503Y-90925529D01*
X126683868Y-90866100D01*
X126638596Y-90851390D01*
X126495168Y-90804787D01*
X126495162Y-90804786D01*
X126299209Y-90773750D01*
X126299204Y-90773750D01*
X126100796Y-90773750D01*
X126100791Y-90773750D01*
X125904837Y-90804786D01*
X125904835Y-90804786D01*
X125904832Y-90804787D01*
X125825832Y-90830456D01*
X125716131Y-90866100D01*
X125539352Y-90956174D01*
X125539349Y-90956176D01*
X125464366Y-91010655D01*
X125378839Y-91072794D01*
X125378837Y-91072796D01*
X125378836Y-91072796D01*
X125238546Y-91213086D01*
X125238546Y-91213087D01*
X125238544Y-91213089D01*
X125215567Y-91244714D01*
X125121926Y-91373599D01*
X125121924Y-91373602D01*
X125031850Y-91550381D01*
X125011393Y-91613341D01*
X124970537Y-91739082D01*
X124970537Y-91739084D01*
X124970536Y-91739087D01*
X124939500Y-91935040D01*
X124939500Y-92133459D01*
X124952903Y-92218081D01*
X124970537Y-92329418D01*
X124995926Y-92407555D01*
X125031850Y-92518118D01*
X125074134Y-92601104D01*
X125121923Y-92694896D01*
X125238544Y-92855411D01*
X125238546Y-92855413D01*
X125363181Y-92980048D01*
X125396666Y-93041371D01*
X125399500Y-93067729D01*
X125399500Y-99623770D01*
X125379815Y-99690809D01*
X125327011Y-99736564D01*
X125257853Y-99746508D01*
X125194297Y-99717483D01*
X125187819Y-99711451D01*
X123986819Y-98510451D01*
X123953334Y-98449128D01*
X123950500Y-98422770D01*
X123950500Y-93412301D01*
X123970185Y-93345262D01*
X124022989Y-93299507D01*
X124061251Y-93289011D01*
X124063891Y-93288727D01*
X124067483Y-93288341D01*
X124202331Y-93238046D01*
X124317546Y-93151796D01*
X124403796Y-93036581D01*
X124454091Y-92901733D01*
X124460500Y-92842123D01*
X124460499Y-91226378D01*
X124454091Y-91166767D01*
X124449813Y-91155298D01*
X124403797Y-91031921D01*
X124403793Y-91031914D01*
X124317547Y-90916705D01*
X124317544Y-90916702D01*
X124202335Y-90830456D01*
X124202328Y-90830452D01*
X124067482Y-90780158D01*
X124067483Y-90780158D01*
X124007883Y-90773751D01*
X124007881Y-90773750D01*
X124007873Y-90773750D01*
X124007864Y-90773750D01*
X122392129Y-90773750D01*
X122392123Y-90773751D01*
X122332516Y-90780158D01*
X122197671Y-90830452D01*
X122197664Y-90830456D01*
X122082455Y-90916702D01*
X122082452Y-90916705D01*
X121996206Y-91031914D01*
X121996202Y-91031921D01*
X121945908Y-91166767D01*
X121939807Y-91223518D01*
X121939501Y-91226373D01*
X121939500Y-91226385D01*
X121939500Y-92842120D01*
X121939501Y-92842126D01*
X121945908Y-92901733D01*
X121996202Y-93036578D01*
X121996206Y-93036585D01*
X122082452Y-93151794D01*
X122082455Y-93151797D01*
X122197664Y-93238043D01*
X122197671Y-93238047D01*
X122332517Y-93288341D01*
X122332515Y-93288341D01*
X122338756Y-93289012D01*
X122403307Y-93315750D01*
X122443155Y-93373143D01*
X122449500Y-93412301D01*
X122449500Y-98858918D01*
X122449500Y-98858920D01*
X122449499Y-98858920D01*
X122478340Y-99003907D01*
X122478343Y-99003917D01*
X122534913Y-99140490D01*
X122534916Y-99140495D01*
X122545502Y-99156337D01*
X122545503Y-99156342D01*
X122545505Y-99156342D01*
X122617051Y-99263420D01*
X122617052Y-99263421D01*
X129239453Y-105885821D01*
X129272938Y-105947144D01*
X129267954Y-106016836D01*
X129226082Y-106072769D01*
X129160618Y-106097186D01*
X129151772Y-106097502D01*
X126811261Y-106097502D01*
X126678018Y-106107989D01*
X126457998Y-106163428D01*
X126251421Y-106257260D01*
X126251411Y-106257265D01*
X126064910Y-106386475D01*
X125904474Y-106546911D01*
X125775264Y-106733412D01*
X125775259Y-106733422D01*
X125681427Y-106939999D01*
X125625988Y-107160019D01*
X125618391Y-107256550D01*
X125615501Y-107293266D01*
X125615501Y-109702738D01*
X125625988Y-109835985D01*
X125635509Y-109873769D01*
X125681427Y-110056004D01*
X125775259Y-110262581D01*
X125775264Y-110262591D01*
X125904474Y-110449092D01*
X126064910Y-110609528D01*
X126251411Y-110738738D01*
X126251421Y-110738743D01*
X126457998Y-110832575D01*
X126457999Y-110832575D01*
X126458001Y-110832576D01*
X126678018Y-110888015D01*
X126811265Y-110898502D01*
X126811271Y-110898502D01*
X127145777Y-110898502D01*
X127212816Y-110918187D01*
X127258571Y-110970991D01*
X127268515Y-111040149D01*
X127239490Y-111103705D01*
X127186731Y-111139544D01*
X127057783Y-111184664D01*
X126804800Y-111306494D01*
X126567044Y-111455886D01*
X126433742Y-111562189D01*
X127254283Y-112382730D01*
X127136535Y-112468280D01*
X126986279Y-112618536D01*
X126900729Y-112736284D01*
X126080188Y-111915743D01*
X125973885Y-112049045D01*
X125824493Y-112286801D01*
X125702663Y-112539784D01*
X125609923Y-112804821D01*
X125609922Y-112804823D01*
X125547440Y-113078577D01*
X125547438Y-113078589D01*
X125516001Y-113357600D01*
X125516001Y-113638403D01*
X125547438Y-113917414D01*
X125547440Y-113917426D01*
X125609922Y-114191180D01*
X125609923Y-114191182D01*
X125702663Y-114456219D01*
X125824493Y-114709202D01*
X125973885Y-114946958D01*
X126080188Y-115080259D01*
X126900729Y-114259718D01*
X126986279Y-114377468D01*
X127136535Y-114527724D01*
X127254282Y-114613272D01*
X126433742Y-115433812D01*
X126433742Y-115433813D01*
X126567044Y-115540117D01*
X126804800Y-115689509D01*
X127057783Y-115811339D01*
X127322820Y-115904079D01*
X127322822Y-115904080D01*
X127596576Y-115966562D01*
X127596588Y-115966564D01*
X127875599Y-115998001D01*
X127875601Y-115998002D01*
X128156401Y-115998002D01*
X128156402Y-115998001D01*
X128435413Y-115966564D01*
X128435425Y-115966562D01*
X128709179Y-115904080D01*
X128709181Y-115904079D01*
X128974218Y-115811339D01*
X129227201Y-115689509D01*
X129464957Y-115540118D01*
X129598258Y-115433812D01*
X128777718Y-114613273D01*
X128895467Y-114527724D01*
X129045723Y-114377468D01*
X129131271Y-114259719D01*
X129951811Y-115080259D01*
X130058117Y-114946958D01*
X130207508Y-114709202D01*
X130330849Y-114453083D01*
X130331855Y-114453567D01*
X130372774Y-114402785D01*
X130439067Y-114380716D01*
X130506767Y-114397992D01*
X130554381Y-114449126D01*
X130567500Y-114504637D01*
X130567500Y-119580918D01*
X130567500Y-119580920D01*
X130567499Y-119580920D01*
X130596340Y-119725907D01*
X130596343Y-119725917D01*
X130652912Y-119862488D01*
X130652916Y-119862495D01*
X130677640Y-119899497D01*
X130677641Y-119899500D01*
X130677642Y-119899500D01*
X130735051Y-119985420D01*
X130735052Y-119985421D01*
X131663362Y-120913729D01*
X131696847Y-120975052D01*
X131699663Y-121003522D01*
X131490348Y-133291019D01*
X131469524Y-133357713D01*
X131415949Y-133402562D01*
X131346631Y-133411326D01*
X131283579Y-133381223D01*
X131278685Y-133376588D01*
X130445628Y-132543531D01*
X130412143Y-132482208D01*
X130416504Y-132414226D01*
X130479182Y-132238358D01*
X130523579Y-131996090D01*
X130528539Y-131749839D01*
X130493933Y-131505979D01*
X130481449Y-131465918D01*
X130438806Y-131329071D01*
X130420657Y-131270829D01*
X130357137Y-131140372D01*
X130356066Y-131138517D01*
X129261846Y-129243273D01*
X129259366Y-129239602D01*
X129180623Y-129123028D01*
X129083077Y-129017289D01*
X129013617Y-128941994D01*
X128819733Y-128790096D01*
X128819731Y-128790095D01*
X128819730Y-128790094D01*
X128603990Y-128671264D01*
X128371981Y-128588579D01*
X128250847Y-128566380D01*
X128129715Y-128544182D01*
X128047629Y-128542528D01*
X127883462Y-128539222D01*
X127883461Y-128539222D01*
X127883458Y-128539222D01*
X127639606Y-128573827D01*
X127639592Y-128573830D01*
X127404462Y-128647100D01*
X127404450Y-128647104D01*
X127273979Y-128710632D01*
X125376896Y-129805914D01*
X125256650Y-129887139D01*
X125075617Y-130054143D01*
X124923719Y-130248027D01*
X124804890Y-130463765D01*
X124804887Y-130463770D01*
X124777186Y-130541499D01*
X124729958Y-130674019D01*
X124722202Y-130695781D01*
X124677805Y-130938042D01*
X124677805Y-130938047D01*
X124672845Y-131184302D01*
X124707450Y-131428154D01*
X124707453Y-131428168D01*
X124780723Y-131663298D01*
X124780727Y-131663309D01*
X124844247Y-131793766D01*
X124844251Y-131793773D01*
X124844255Y-131793781D01*
X125939537Y-133690864D01*
X125939542Y-133690871D01*
X126020761Y-133811110D01*
X126101149Y-133898250D01*
X126187766Y-133992143D01*
X126381650Y-134144041D01*
X126381654Y-134144044D01*
X126597394Y-134262874D01*
X126829403Y-134345559D01*
X127071671Y-134389956D01*
X127317922Y-134394916D01*
X127561782Y-134360310D01*
X127796932Y-134287034D01*
X127927389Y-134223514D01*
X128264220Y-134029043D01*
X128332118Y-134012571D01*
X128398145Y-134035423D01*
X128413899Y-134048750D01*
X131388932Y-137023783D01*
X131422417Y-137085106D01*
X131425233Y-137113576D01*
X131281214Y-145567935D01*
X131260390Y-145634629D01*
X131206815Y-145679478D01*
X131137497Y-145688242D01*
X131107334Y-145679340D01*
X130039225Y-145209840D01*
X130036004Y-145208369D01*
X128799188Y-144622015D01*
X128796010Y-144620453D01*
X127576400Y-143998998D01*
X127573268Y-143997345D01*
X126371930Y-143341331D01*
X126368846Y-143339589D01*
X125186749Y-142649547D01*
X125183717Y-142647719D01*
X124021782Y-141924186D01*
X124018803Y-141922271D01*
X122877999Y-141165851D01*
X122875075Y-141163852D01*
X121756344Y-140375166D01*
X121753479Y-140373084D01*
X120657744Y-139552788D01*
X120654940Y-139550626D01*
X120034967Y-139058256D01*
X119583046Y-138699349D01*
X119580317Y-138697118D01*
X119510733Y-138638539D01*
X118591037Y-137864295D01*
X118533179Y-137815587D01*
X118530503Y-137813268D01*
X117645296Y-137023783D01*
X117508962Y-136902191D01*
X117506357Y-136899800D01*
X116596453Y-136040398D01*
X116511257Y-135959930D01*
X116508720Y-135957464D01*
X116433829Y-135882569D01*
X115540800Y-134989496D01*
X115538433Y-134987059D01*
X115478720Y-134923831D01*
X118814809Y-134923831D01*
X118814809Y-135210306D01*
X118846881Y-135494960D01*
X118910626Y-135774250D01*
X118910630Y-135774262D01*
X119005238Y-136044634D01*
X119005244Y-136044648D01*
X119129532Y-136302735D01*
X119129534Y-136302738D01*
X119281943Y-136545296D01*
X119460552Y-136769264D01*
X119663114Y-136971826D01*
X119887082Y-137150435D01*
X120129640Y-137302844D01*
X120387737Y-137427137D01*
X120387743Y-137427139D01*
X120658115Y-137521747D01*
X120658127Y-137521751D01*
X120937411Y-137585495D01*
X120937414Y-137585495D01*
X120937417Y-137585496D01*
X120937416Y-137585496D01*
X121079743Y-137601532D01*
X121222072Y-137617568D01*
X121222073Y-137617569D01*
X121222076Y-137617569D01*
X121508545Y-137617569D01*
X121508545Y-137617568D01*
X121714124Y-137594405D01*
X121793200Y-137585496D01*
X121793201Y-137585495D01*
X121793207Y-137585495D01*
X122072491Y-137521751D01*
X122342881Y-137427137D01*
X122600978Y-137302844D01*
X122843536Y-137150435D01*
X123067504Y-136971826D01*
X123270066Y-136769264D01*
X123448675Y-136545296D01*
X123601084Y-136302738D01*
X123725377Y-136044641D01*
X123819991Y-135774251D01*
X123883735Y-135494967D01*
X123915809Y-135210302D01*
X123915809Y-134923836D01*
X123883735Y-134639171D01*
X123819991Y-134359887D01*
X123814977Y-134345559D01*
X123725379Y-134089503D01*
X123725377Y-134089497D01*
X123601084Y-133831400D01*
X123448675Y-133588842D01*
X123270066Y-133364874D01*
X123067504Y-133162312D01*
X122843536Y-132983703D01*
X122600978Y-132831294D01*
X122600975Y-132831292D01*
X122342888Y-132707004D01*
X122342874Y-132706998D01*
X122072502Y-132612390D01*
X122072490Y-132612386D01*
X121793200Y-132548641D01*
X121793201Y-132548641D01*
X121508546Y-132516569D01*
X121508542Y-132516569D01*
X121222076Y-132516569D01*
X121222071Y-132516569D01*
X120937417Y-132548641D01*
X120658127Y-132612386D01*
X120658115Y-132612390D01*
X120387743Y-132706998D01*
X120387729Y-132707004D01*
X120129642Y-132831292D01*
X119887083Y-132983702D01*
X119663114Y-133162311D01*
X119460551Y-133364874D01*
X119281942Y-133588843D01*
X119129532Y-133831402D01*
X119005244Y-134089489D01*
X119005238Y-134089503D01*
X118910630Y-134359875D01*
X118910626Y-134359887D01*
X118846881Y-134639177D01*
X118814809Y-134923831D01*
X115478720Y-134923831D01*
X114633680Y-134029044D01*
X114598597Y-133991896D01*
X114596202Y-133989287D01*
X114080790Y-133411326D01*
X113685170Y-132967694D01*
X113682861Y-132965030D01*
X113608820Y-132877071D01*
X113056702Y-132221164D01*
X112801381Y-131917847D01*
X112799139Y-131915105D01*
X112287520Y-131270829D01*
X111947925Y-130843181D01*
X111945765Y-130840379D01*
X111928209Y-130816925D01*
X114242112Y-130816925D01*
X114242113Y-130816926D01*
X114265980Y-130958852D01*
X114290238Y-131013689D01*
X115338108Y-132828649D01*
X115338110Y-132828653D01*
X115357468Y-132855164D01*
X115373464Y-132877071D01*
X115484444Y-132968705D01*
X115519466Y-132983702D01*
X115616740Y-133025357D01*
X115616744Y-133025357D01*
X115616747Y-133025359D01*
X115759651Y-133042447D01*
X115901580Y-133018579D01*
X115956408Y-132994325D01*
X116818748Y-132496451D01*
X116867169Y-132461096D01*
X116958803Y-132350116D01*
X116998150Y-132258230D01*
X117015455Y-132217819D01*
X117015455Y-132217816D01*
X117015457Y-132217813D01*
X117032545Y-132074909D01*
X117008677Y-131932980D01*
X116984423Y-131878152D01*
X116984421Y-131878148D01*
X116984419Y-131878144D01*
X115936549Y-130063184D01*
X115936547Y-130063180D01*
X115903664Y-130018146D01*
X115901194Y-130014763D01*
X115790214Y-129923129D01*
X115790212Y-129923128D01*
X115657917Y-129866476D01*
X115657912Y-129866475D01*
X115515006Y-129849386D01*
X115515005Y-129849387D01*
X115373079Y-129873254D01*
X115318242Y-129897512D01*
X114455910Y-130395382D01*
X114455906Y-130395384D01*
X114407490Y-130430737D01*
X114407486Y-130430741D01*
X114315855Y-130541717D01*
X114315854Y-130541719D01*
X114259202Y-130674014D01*
X114259201Y-130674019D01*
X114242112Y-130816925D01*
X111928209Y-130816925D01*
X111125507Y-129744583D01*
X111123440Y-129741738D01*
X111106383Y-129717541D01*
X110492498Y-128846667D01*
X110334783Y-128622929D01*
X110332785Y-128620005D01*
X109995511Y-128111288D01*
X109576440Y-127479194D01*
X109574558Y-127476267D01*
X108851043Y-126314229D01*
X108849273Y-126311296D01*
X108159213Y-125129036D01*
X108157503Y-125126006D01*
X107608455Y-124120433D01*
X107579239Y-124066925D01*
X125933455Y-124066925D01*
X125933456Y-124066926D01*
X125957323Y-124208852D01*
X125981581Y-124263689D01*
X127029451Y-126078649D01*
X127029453Y-126078653D01*
X127054947Y-126113568D01*
X127064807Y-126127071D01*
X127175787Y-126218705D01*
X127215522Y-126235720D01*
X127308083Y-126275357D01*
X127308087Y-126275357D01*
X127308090Y-126275359D01*
X127450994Y-126292447D01*
X127592923Y-126268579D01*
X127647751Y-126244325D01*
X128510091Y-125746451D01*
X128558512Y-125711096D01*
X128650146Y-125600116D01*
X128692589Y-125501000D01*
X128706798Y-125467819D01*
X128706798Y-125467816D01*
X128706800Y-125467813D01*
X128723888Y-125324909D01*
X128700020Y-125182980D01*
X128675766Y-125128152D01*
X128675764Y-125128148D01*
X128675762Y-125128144D01*
X127627892Y-123313184D01*
X127627890Y-123313180D01*
X127608173Y-123286178D01*
X127592537Y-123264763D01*
X127481557Y-123173129D01*
X127481555Y-123173128D01*
X127349260Y-123116476D01*
X127349255Y-123116475D01*
X127206349Y-123099386D01*
X127206348Y-123099387D01*
X127064422Y-123123254D01*
X127009585Y-123147512D01*
X126147253Y-123645382D01*
X126147249Y-123645384D01*
X126098833Y-123680737D01*
X126098829Y-123680741D01*
X126007198Y-123791717D01*
X126007197Y-123791719D01*
X125950545Y-123924014D01*
X125950544Y-123924019D01*
X125933455Y-124066925D01*
X107579239Y-124066925D01*
X107501533Y-123924608D01*
X107499881Y-123921476D01*
X107491043Y-123904130D01*
X106878511Y-122701884D01*
X106876952Y-122698714D01*
X106550723Y-122010500D01*
X106290635Y-121461818D01*
X106289169Y-121458606D01*
X105738408Y-120205460D01*
X105737066Y-120202285D01*
X105222309Y-118933909D01*
X105221055Y-118930686D01*
X104742722Y-117648110D01*
X104741558Y-117644849D01*
X104300040Y-116349122D01*
X104298975Y-116345844D01*
X103894650Y-115038072D01*
X103893672Y-115034742D01*
X103582894Y-113917426D01*
X103526859Y-113715968D01*
X103525959Y-113712543D01*
X103444591Y-113383930D01*
X103246786Y-112585079D01*
X103196961Y-112383857D01*
X103196166Y-112380434D01*
X102905239Y-111042868D01*
X102904557Y-111039500D01*
X102651941Y-109694149D01*
X102651352Y-109690743D01*
X102437253Y-108338704D01*
X102436764Y-108335303D01*
X102268133Y-107030104D01*
X102261365Y-106977721D01*
X102260962Y-106974203D01*
X102254333Y-106908084D01*
X102124404Y-105612199D01*
X102124113Y-105608811D01*
X102026504Y-104243426D01*
X102026303Y-104239904D01*
X102024158Y-104189817D01*
X101967724Y-102872320D01*
X101967626Y-102868884D01*
X101948139Y-101501207D01*
X101948182Y-101495729D01*
X101954020Y-101303471D01*
X107999500Y-101303471D01*
X107999500Y-101696528D01*
X108038026Y-102087702D01*
X108114704Y-102473194D01*
X108114707Y-102473205D01*
X108228810Y-102849354D01*
X108269261Y-102947010D01*
X108354826Y-103153584D01*
X108379230Y-103212499D01*
X108379232Y-103212504D01*
X108564511Y-103559137D01*
X108564522Y-103559155D01*
X108782887Y-103885960D01*
X108782897Y-103885974D01*
X109032254Y-104189817D01*
X109310182Y-104467745D01*
X109310187Y-104467749D01*
X109310188Y-104467750D01*
X109614031Y-104717107D01*
X109940851Y-104935482D01*
X109940860Y-104935487D01*
X109940862Y-104935488D01*
X110287495Y-105120767D01*
X110287497Y-105120767D01*
X110287503Y-105120771D01*
X110650647Y-105271190D01*
X111026785Y-105385290D01*
X111026791Y-105385291D01*
X111026794Y-105385292D01*
X111026805Y-105385295D01*
X111412297Y-105461973D01*
X111803468Y-105500500D01*
X111803471Y-105500500D01*
X112196529Y-105500500D01*
X112196532Y-105500500D01*
X112587703Y-105461973D01*
X112662748Y-105447045D01*
X112973194Y-105385295D01*
X112973205Y-105385292D01*
X112973205Y-105385291D01*
X112973215Y-105385290D01*
X113349353Y-105271190D01*
X113712497Y-105120771D01*
X114059149Y-104935482D01*
X114385969Y-104717107D01*
X114689812Y-104467750D01*
X114967750Y-104189812D01*
X115217107Y-103885969D01*
X115435482Y-103559149D01*
X115620771Y-103212497D01*
X115771190Y-102849353D01*
X115885290Y-102473215D01*
X115885292Y-102473205D01*
X115885295Y-102473194D01*
X115947045Y-102162748D01*
X115961973Y-102087703D01*
X116000500Y-101696532D01*
X116000500Y-101303468D01*
X115961973Y-100912297D01*
X115943634Y-100820100D01*
X115885295Y-100526805D01*
X115885292Y-100526794D01*
X115885291Y-100526791D01*
X115885290Y-100526785D01*
X115771190Y-100150647D01*
X115620771Y-99787503D01*
X115608355Y-99764275D01*
X115435488Y-99440862D01*
X115435487Y-99440860D01*
X115435482Y-99440851D01*
X115217107Y-99114031D01*
X114967750Y-98810188D01*
X114967749Y-98810187D01*
X114967745Y-98810182D01*
X114689817Y-98532254D01*
X114385974Y-98282897D01*
X114385973Y-98282896D01*
X114385969Y-98282893D01*
X114059149Y-98064518D01*
X114059144Y-98064515D01*
X114059137Y-98064511D01*
X113712504Y-97879232D01*
X113712499Y-97879230D01*
X113349354Y-97728810D01*
X112973205Y-97614707D01*
X112973194Y-97614704D01*
X112587702Y-97538026D01*
X112293089Y-97509010D01*
X112196532Y-97499500D01*
X111803468Y-97499500D01*
X111714251Y-97508287D01*
X111412297Y-97538026D01*
X111026805Y-97614704D01*
X111026794Y-97614707D01*
X110650645Y-97728810D01*
X110287500Y-97879230D01*
X110287495Y-97879232D01*
X109940862Y-98064511D01*
X109940844Y-98064522D01*
X109614039Y-98282887D01*
X109614025Y-98282897D01*
X109310182Y-98532254D01*
X109032254Y-98810182D01*
X108782897Y-99114025D01*
X108782887Y-99114039D01*
X108564522Y-99440844D01*
X108564511Y-99440862D01*
X108379232Y-99787495D01*
X108379230Y-99787500D01*
X108228810Y-100150645D01*
X108114707Y-100526794D01*
X108114704Y-100526805D01*
X108038026Y-100912297D01*
X107999500Y-101303471D01*
X101954020Y-101303471D01*
X101966414Y-100895360D01*
X101966867Y-100887892D01*
X101973037Y-100820100D01*
X102021221Y-100290686D01*
X102022120Y-100283297D01*
X102112432Y-99690454D01*
X102113776Y-99683125D01*
X102239716Y-99096813D01*
X102241508Y-99089552D01*
X102402607Y-98511940D01*
X102404823Y-98504834D01*
X102600504Y-97937990D01*
X102603155Y-97931001D01*
X102832708Y-97376989D01*
X102835766Y-97370198D01*
X103098340Y-96831070D01*
X103101799Y-96824480D01*
X103396461Y-96302157D01*
X103400321Y-96295775D01*
X103490342Y-96156572D01*
X103725955Y-95792231D01*
X103730195Y-95786088D01*
X104085636Y-95303123D01*
X104090249Y-95297237D01*
X104189525Y-95178135D01*
X104474210Y-94836596D01*
X104479130Y-94831043D01*
X104890213Y-94394412D01*
X104895493Y-94389133D01*
X105332162Y-93978139D01*
X105337750Y-93973189D01*
X105798442Y-93589303D01*
X105804335Y-93584688D01*
X105967574Y-93464590D01*
X106287340Y-93229331D01*
X106293472Y-93225098D01*
X106797096Y-92899520D01*
X106803480Y-92895662D01*
X107325827Y-92601092D01*
X107332414Y-92597635D01*
X107871601Y-92335134D01*
X107878371Y-92332087D01*
X108432455Y-92102602D01*
X108439382Y-92099975D01*
X109006308Y-91904361D01*
X109013349Y-91902167D01*
X109591078Y-91741129D01*
X109598283Y-91739354D01*
X110184623Y-91613501D01*
X110191948Y-91612158D01*
X110784833Y-91521933D01*
X110792203Y-91521038D01*
X111389438Y-91466772D01*
X111396861Y-91466323D01*
X111998113Y-91448156D01*
X112001858Y-91448100D01*
X115084245Y-91448100D01*
X115084255Y-91448097D01*
X115184924Y-91448097D01*
X115553193Y-91413957D01*
X115916738Y-91345968D01*
X116272455Y-91244711D01*
X116617306Y-91111051D01*
X116948347Y-90946129D01*
X117262751Y-90751353D01*
X117557833Y-90528386D01*
X117831074Y-90279133D01*
X118080139Y-90005722D01*
X118302903Y-89710487D01*
X118497464Y-89395950D01*
X118662159Y-89064796D01*
X118795583Y-88719853D01*
X118896595Y-88364066D01*
X118920731Y-88234513D01*
X118952361Y-88172215D01*
X119012652Y-88136905D01*
X119082461Y-88139796D01*
X119139626Y-88179971D01*
X119162408Y-88225132D01*
X119194305Y-88344174D01*
X119292396Y-88580989D01*
X119292403Y-88581004D01*
X119420571Y-88802999D01*
X119576623Y-89006367D01*
X119576631Y-89006376D01*
X119757874Y-89187619D01*
X119757882Y-89187626D01*
X119757883Y-89187627D01*
X119805199Y-89223934D01*
X119961250Y-89343678D01*
X120183245Y-89471846D01*
X120183260Y-89471853D01*
X120313232Y-89525689D01*
X120367636Y-89569530D01*
X120389701Y-89635824D01*
X120372422Y-89703523D01*
X120321285Y-89751134D01*
X120265780Y-89764250D01*
X119130000Y-89764250D01*
X119130000Y-91364250D01*
X121580000Y-91364250D01*
X121580000Y-89747838D01*
X121566256Y-89722668D01*
X121571240Y-89652976D01*
X121613112Y-89597043D01*
X121655327Y-89576535D01*
X121679924Y-89569945D01*
X121916751Y-89471848D01*
X122138749Y-89343678D01*
X122342117Y-89187627D01*
X122342121Y-89187622D01*
X122342126Y-89187619D01*
X122523369Y-89006376D01*
X122523372Y-89006371D01*
X122523377Y-89006367D01*
X122679428Y-88802999D01*
X122807598Y-88581001D01*
X122905695Y-88344174D01*
X122972041Y-88096568D01*
X123005500Y-87842420D01*
X123005500Y-87586080D01*
X122972041Y-87331932D01*
X122905695Y-87084326D01*
X122807598Y-86847499D01*
X122794609Y-86825001D01*
X122679428Y-86625500D01*
X122523376Y-86422132D01*
X122523369Y-86422124D01*
X122342126Y-86240881D01*
X122342117Y-86240873D01*
X122138749Y-86084821D01*
X121916754Y-85956653D01*
X121916739Y-85956646D01*
X121679924Y-85858555D01*
X121432314Y-85792208D01*
X121178180Y-85758751D01*
X121178175Y-85758750D01*
X121178170Y-85758750D01*
X120921830Y-85758750D01*
X120921824Y-85758750D01*
X120921819Y-85758751D01*
X120667685Y-85792208D01*
X120420075Y-85858555D01*
X120183260Y-85956646D01*
X120183245Y-85956653D01*
X119961250Y-86084821D01*
X119757882Y-86240873D01*
X119576623Y-86422132D01*
X119420571Y-86625500D01*
X119292403Y-86847495D01*
X119292396Y-86847510D01*
X119239061Y-86976275D01*
X119195220Y-87030679D01*
X119128926Y-87052744D01*
X119061227Y-87035465D01*
X119013616Y-86984328D01*
X119000500Y-86928823D01*
X119000500Y-82502561D01*
X119000606Y-82497437D01*
X119015969Y-82125992D01*
X119019072Y-82050961D01*
X119019915Y-82040792D01*
X119074874Y-81599881D01*
X119076554Y-81589809D01*
X119096192Y-81496153D01*
X139024500Y-81496153D01*
X139024500Y-81653846D01*
X139055261Y-81808489D01*
X139055264Y-81808501D01*
X139115602Y-81954172D01*
X139115609Y-81954185D01*
X139203210Y-82085288D01*
X139203213Y-82085292D01*
X139211663Y-82093742D01*
X139234467Y-82125128D01*
X139301542Y-82256769D01*
X139316657Y-82286434D01*
X139455483Y-82477510D01*
X139672490Y-82694518D01*
X139827741Y-82807314D01*
X139827742Y-82807315D01*
X139863562Y-82833340D01*
X139863564Y-82833341D01*
X139863567Y-82833343D01*
X139958760Y-82881846D01*
X140074003Y-82940566D01*
X140074005Y-82940566D01*
X140074008Y-82940568D01*
X140179982Y-82975001D01*
X140298631Y-83013553D01*
X140531903Y-83050500D01*
X140531908Y-83050500D01*
X166418097Y-83050500D01*
X166651368Y-83013553D01*
X166673259Y-83006440D01*
X166875992Y-82940568D01*
X167086433Y-82833343D01*
X167277510Y-82694517D01*
X167444517Y-82527510D01*
X167583343Y-82336433D01*
X167690568Y-82125992D01*
X167763553Y-81901368D01*
X167778262Y-81808501D01*
X167800500Y-81668097D01*
X167800500Y-81431902D01*
X167763553Y-81198631D01*
X167690566Y-80974003D01*
X167583342Y-80763566D01*
X167547559Y-80714315D01*
X167444517Y-80572490D01*
X167277510Y-80405483D01*
X167086433Y-80266657D01*
X166875996Y-80159433D01*
X166651368Y-80086446D01*
X166418097Y-80049500D01*
X166418092Y-80049500D01*
X159601014Y-80049500D01*
X159533975Y-80029815D01*
X159488220Y-79977011D01*
X159478276Y-79907853D01*
X159489525Y-79872374D01*
X159489376Y-79872313D01*
X159490098Y-79870569D01*
X159490532Y-79869201D01*
X159491240Y-79867810D01*
X159491242Y-79867805D01*
X159491243Y-79867804D01*
X159556932Y-79665635D01*
X159590186Y-79455679D01*
X159590186Y-79243105D01*
X159556932Y-79033149D01*
X159491243Y-78830980D01*
X159394737Y-78641576D01*
X159394735Y-78641573D01*
X159394734Y-78641571D01*
X159269795Y-78469605D01*
X159119472Y-78319282D01*
X158947506Y-78194343D01*
X158758100Y-78097836D01*
X158758099Y-78097835D01*
X158758098Y-78097835D01*
X158555929Y-78032146D01*
X158555927Y-78032145D01*
X158555926Y-78032145D01*
X158394643Y-78006600D01*
X158345973Y-77998892D01*
X158133399Y-77998892D01*
X158084728Y-78006600D01*
X157923446Y-78032145D01*
X157721271Y-78097836D01*
X157531865Y-78194343D01*
X157359899Y-78319282D01*
X157209576Y-78469605D01*
X157084636Y-78641573D01*
X157080166Y-78650345D01*
X157032188Y-78701137D01*
X156964365Y-78717928D01*
X156898232Y-78695385D01*
X156859199Y-78650335D01*
X156854737Y-78641577D01*
X156854735Y-78641574D01*
X156854734Y-78641572D01*
X156729795Y-78469606D01*
X156579472Y-78319283D01*
X156407506Y-78194344D01*
X156218100Y-78097837D01*
X156218099Y-78097836D01*
X156218098Y-78097836D01*
X156015929Y-78032147D01*
X156015927Y-78032146D01*
X156015926Y-78032146D01*
X155846425Y-78005300D01*
X155805973Y-77998893D01*
X155593399Y-77998893D01*
X155552947Y-78005300D01*
X155383446Y-78032146D01*
X155181271Y-78097837D01*
X154991865Y-78194344D01*
X154819899Y-78319283D01*
X154669576Y-78469606D01*
X154544636Y-78641574D01*
X154540167Y-78650344D01*
X154492189Y-78701136D01*
X154424366Y-78717927D01*
X154358233Y-78695384D01*
X154319200Y-78650334D01*
X154314738Y-78641576D01*
X154314736Y-78641573D01*
X154314735Y-78641571D01*
X154189796Y-78469605D01*
X154039473Y-78319282D01*
X153867507Y-78194343D01*
X153678101Y-78097836D01*
X153678100Y-78097835D01*
X153678099Y-78097835D01*
X153475930Y-78032146D01*
X153475928Y-78032145D01*
X153475927Y-78032145D01*
X153314644Y-78006600D01*
X153265974Y-77998892D01*
X153053400Y-77998892D01*
X153004729Y-78006600D01*
X152843447Y-78032145D01*
X152641272Y-78097836D01*
X152451866Y-78194343D01*
X152279900Y-78319282D01*
X152129577Y-78469605D01*
X152004636Y-78641574D01*
X152000171Y-78650338D01*
X151952196Y-78701134D01*
X151884375Y-78717928D01*
X151818240Y-78695390D01*
X151779203Y-78650338D01*
X151774737Y-78641574D01*
X151649796Y-78469605D01*
X151499473Y-78319282D01*
X151327507Y-78194343D01*
X151138101Y-78097836D01*
X151138100Y-78097835D01*
X151138099Y-78097835D01*
X150935930Y-78032146D01*
X150935928Y-78032145D01*
X150935927Y-78032145D01*
X150774644Y-78006600D01*
X150725974Y-77998892D01*
X150513400Y-77998892D01*
X150464729Y-78006600D01*
X150303447Y-78032145D01*
X150101272Y-78097836D01*
X149911866Y-78194343D01*
X149739900Y-78319282D01*
X149589577Y-78469605D01*
X149464635Y-78641575D01*
X149460169Y-78650341D01*
X149412193Y-78701134D01*
X149344371Y-78717927D01*
X149278237Y-78695387D01*
X149239203Y-78650337D01*
X149234738Y-78641575D01*
X149109797Y-78469606D01*
X148959474Y-78319283D01*
X148787508Y-78194344D01*
X148598102Y-78097837D01*
X148598101Y-78097836D01*
X148598100Y-78097836D01*
X148395931Y-78032147D01*
X148395929Y-78032146D01*
X148395928Y-78032146D01*
X148226427Y-78005300D01*
X148185975Y-77998893D01*
X147973401Y-77998893D01*
X147932949Y-78005300D01*
X147763448Y-78032146D01*
X147561273Y-78097837D01*
X147371867Y-78194344D01*
X147199903Y-78319282D01*
X147086360Y-78432825D01*
X147025037Y-78466309D01*
X146955345Y-78461325D01*
X146899412Y-78419453D01*
X146882497Y-78388475D01*
X146833485Y-78257065D01*
X146833480Y-78257056D01*
X146747234Y-78141847D01*
X146747231Y-78141844D01*
X146632022Y-78055598D01*
X146632015Y-78055594D01*
X146497169Y-78005300D01*
X146497170Y-78005300D01*
X146437570Y-77998893D01*
X146437568Y-77998892D01*
X146437560Y-77998892D01*
X146437551Y-77998892D01*
X144641816Y-77998892D01*
X144641810Y-77998893D01*
X144582203Y-78005300D01*
X144447358Y-78055594D01*
X144447351Y-78055598D01*
X144332142Y-78141844D01*
X144332139Y-78141847D01*
X144245893Y-78257056D01*
X144245889Y-78257063D01*
X144195595Y-78391909D01*
X144189289Y-78450571D01*
X144189187Y-78451519D01*
X144189187Y-79243105D01*
X144189188Y-79925500D01*
X144169503Y-79992539D01*
X144116700Y-80038294D01*
X144065188Y-80049500D01*
X141011181Y-80049500D01*
X140972861Y-80043430D01*
X140951375Y-80036448D01*
X140951369Y-80036447D01*
X140718097Y-79999500D01*
X140718092Y-79999500D01*
X140481908Y-79999500D01*
X140481903Y-79999500D01*
X140248631Y-80036446D01*
X140024003Y-80109433D01*
X139813565Y-80216657D01*
X139622488Y-80355484D01*
X139455484Y-80522488D01*
X139316657Y-80713565D01*
X139209433Y-80924005D01*
X139136445Y-81148636D01*
X139135621Y-81152071D01*
X139118154Y-81192007D01*
X139115605Y-81195821D01*
X139055264Y-81341498D01*
X139055261Y-81341510D01*
X139024500Y-81496153D01*
X119096192Y-81496153D01*
X119167733Y-81154956D01*
X119170241Y-81145054D01*
X119297021Y-80719205D01*
X119300336Y-80709553D01*
X119461842Y-80295646D01*
X119465958Y-80286265D01*
X119475544Y-80266657D01*
X119661080Y-79887137D01*
X119665953Y-79878131D01*
X119893389Y-79496444D01*
X119898982Y-79487884D01*
X120157152Y-79126294D01*
X120163420Y-79118240D01*
X120450581Y-78779191D01*
X120457500Y-78771675D01*
X120771675Y-78457500D01*
X120779191Y-78450581D01*
X121118240Y-78163420D01*
X121126294Y-78157152D01*
X121487884Y-77898982D01*
X121496444Y-77893389D01*
X121878139Y-77665948D01*
X121887137Y-77661080D01*
X122286268Y-77465956D01*
X122295650Y-77461841D01*
X122709553Y-77300336D01*
X122719205Y-77297021D01*
X123145054Y-77170241D01*
X123154950Y-77167734D01*
X123589809Y-77076554D01*
X123599881Y-77074874D01*
X124040792Y-77019915D01*
X124050961Y-77019072D01*
X124497437Y-77000605D01*
X124502561Y-77000500D01*
X124565892Y-77000500D01*
X175434108Y-77000500D01*
X175497439Y-77000500D01*
X175502562Y-77000605D01*
G37*
%TD.AperFunction*%
%TA.AperFunction,Conductor*%
G36*
X130510326Y-110046805D02*
G01*
X130556189Y-110099515D01*
X130567500Y-110151257D01*
X130567500Y-112491366D01*
X130547815Y-112558405D01*
X130495011Y-112604160D01*
X130425853Y-112614104D01*
X130362297Y-112585079D01*
X130331624Y-112542547D01*
X130330849Y-112542921D01*
X130207508Y-112286801D01*
X130058116Y-112049045D01*
X129951811Y-111915743D01*
X129131271Y-112736283D01*
X129045723Y-112618536D01*
X128895467Y-112468280D01*
X128777717Y-112382730D01*
X129598258Y-111562189D01*
X129464957Y-111455886D01*
X129227201Y-111306494D01*
X128974218Y-111184664D01*
X128845271Y-111139544D01*
X128788495Y-111098822D01*
X128762747Y-111033869D01*
X128776203Y-110965308D01*
X128824590Y-110914905D01*
X128886225Y-110898502D01*
X129220731Y-110898502D01*
X129220737Y-110898502D01*
X129353984Y-110888015D01*
X129574001Y-110832576D01*
X129780583Y-110738742D01*
X129780585Y-110738740D01*
X129780590Y-110738738D01*
X129917565Y-110643839D01*
X129967090Y-110609529D01*
X130127528Y-110449091D01*
X130189655Y-110359417D01*
X130256737Y-110262591D01*
X130256742Y-110262582D01*
X130330601Y-110099976D01*
X130376248Y-110047079D01*
X130443247Y-110027257D01*
X130510326Y-110046805D01*
G37*
%TD.AperFunction*%
%TD*%
M02*
