M48
; DRILL file KiCad 10.0.4 date 2026-07-03T16:21:10
; FORMAT={-:-/ absolute / metric / decimal}
; #@! TF.CreationDate,2026-07-03T16:21:10-04:00
; #@! TF.GenerationSoftware,Kicad,Pcbnew,10.0.4
; #@! TF.FileFunction,Plated,1,2,PTH
FMAT,2
METRIC
; #@! TA.AperFunction,Plated,PTH,ViaDrill
T1C0.300
; #@! TA.AperFunction,Plated,PTH,ComponentDrill
T2C0.600
; #@! TA.AperFunction,Plated,PTH,ComponentDrill
T3C1.000
; #@! TA.AperFunction,Plated,PTH,ComponentDrill
T4C1.020
; #@! TA.AperFunction,Plated,PTH,ComponentDrill
T5C1.067
; #@! TA.AperFunction,Plated,PTH,ComponentDrill
T6C2.410
; #@! TA.AperFunction,Plated,PTH,ComponentDrill
T7C2.700
%
G90
G05
T1
X139.825Y-81.575
X140.25Y-81.05
X140.25Y-82.05
X140.6Y-81.5
X140.925Y-81.05
X140.975Y-82.025
X141.4Y-81.525
X153.416Y-120.65
X156.21Y-103.124
X165.7Y-81.55
X166.0Y-81.0
X166.0Y-82.1
X166.325Y-81.55
X166.625Y-82.1
X166.65Y-81.0
X166.95Y-81.55
X169.418Y-115.316
X188.468Y-126.238
X189.422Y-126.238
T3
X145.54Y-79.349
X148.08Y-79.349
X150.62Y-79.349
X153.16Y-79.349
X155.7Y-79.349
X158.24Y-79.349
T4
X123.2Y-92.034
X126.2Y-92.034
X129.2Y-92.034
X132.2Y-92.034
X135.2Y-92.034
X138.2Y-92.034
T5
X171.704Y-102.108
X171.704Y-105.108
X173.578Y-117.094
X173.578Y-120.094
X174.704Y-102.108
X174.704Y-105.108
X176.578Y-117.094
X176.578Y-120.094
X179.578Y-117.094
X179.578Y-120.094
X180.619Y-131.12
X182.118Y-128.524
X187.55Y-110.15
X190.55Y-110.15
T6
X121.05Y-87.714
X140.35Y-87.714
T7
X121.365Y-135.067
X127.601Y-131.467
X128.016Y-108.498
X128.016Y-113.498
X172.25Y-85.475
X172.425Y-91.7
X177.25Y-85.475
X177.425Y-91.7
T2
G00X115.362Y-130.97
M15
G01X115.912Y-131.922
M16
G05
G00X127.054Y-124.22
M15
G01X127.604Y-125.172
M16
G05
G00X137.8Y-110.3
M15
G01X137.8Y-110.9
M16
G05
G00X137.8Y-115.38
M15
G01X137.8Y-115.98
M16
G05
G00X137.8Y-120.46
M15
G01X137.8Y-121.06
M16
G05
G00X137.8Y-129.8
M15
G01X137.8Y-130.4
M16
G05
G00X137.8Y-134.88
M15
G01X137.8Y-135.48
M16
G05
G00X137.8Y-139.96
M15
G01X137.8Y-140.56
M16
G05
G00X150.0Y-90.8
M15
G01X150.0Y-91.4
M16
G05
G00X150.0Y-95.88
M15
G01X150.0Y-96.48
M16
G05
G00X150.0Y-100.96
M15
G01X150.0Y-101.56
M16
G05
G00X150.0Y-110.3
M15
G01X150.0Y-110.9
M16
G05
G00X150.0Y-115.38
M15
G01X150.0Y-115.98
M16
G05
G00X150.0Y-120.46
M15
G01X150.0Y-121.06
M16
G05
G00X150.0Y-129.8
M15
G01X150.0Y-130.4
M16
G05
G00X150.0Y-134.88
M15
G01X150.0Y-135.48
M16
G05
G00X150.0Y-139.96
M15
G01X150.0Y-140.56
M16
G05
G00X162.2Y-90.8
M15
G01X162.2Y-91.4
M16
G05
G00X162.2Y-95.88
M15
G01X162.2Y-96.48
M16
G05
G00X162.2Y-100.96
M15
G01X162.2Y-101.56
M16
G05
G00X162.2Y-110.3
M15
G01X162.2Y-110.9
M16
G05
G00X162.2Y-115.38
M15
G01X162.2Y-115.98
M16
G05
G00X162.2Y-120.46
M15
G01X162.2Y-121.06
M16
G05
G00X162.2Y-129.8
M15
G01X162.2Y-130.4
M16
G05
G00X162.2Y-134.88
M15
G01X162.2Y-135.48
M16
G05
G00X162.2Y-139.96
M15
G01X162.2Y-140.56
M16
G05
M30
