M48
; DRILL file KiCad 10.0.4 date 2026-07-03T16:21:10
; FORMAT={-:-/ absolute / metric / decimal}
; #@! TF.CreationDate,2026-07-03T16:21:10-04:00
; #@! TF.GenerationSoftware,Kicad,Pcbnew,10.0.4
; #@! TF.FileFunction,NonPlated,1,2,NPTH
FMAT,2
METRIC
; #@! TA.AperFunction,NonPlated,NPTH,ComponentDrill
T1C1.067
; #@! TA.AperFunction,NonPlated,NPTH,ComponentDrill
T2C1.321
; #@! TA.AperFunction,NonPlated,NPTH,ComponentDrill
T3C2.200
%
G90
G05
T1
X170.578Y-116.154
X175.644Y-99.108
X175.644Y-108.108
X177.554Y-130.435
X182.578Y-116.154
X182.745Y-133.432
T2
X184.55Y-108.19
X193.55Y-108.19
T3
X134.7Y-106.0
X134.7Y-125.5
X134.7Y-145.0
X140.9Y-106.0
X140.9Y-125.5
X140.9Y-145.0
X146.9Y-86.5
X146.9Y-106.0
X146.9Y-125.5
X146.9Y-145.0
X153.1Y-86.5
X153.1Y-106.0
X153.1Y-125.5
X153.1Y-145.0
X159.1Y-86.5
X159.1Y-106.0
X159.1Y-125.5
X159.1Y-145.0
X165.3Y-86.5
X165.3Y-106.0
X165.3Y-125.5
X165.3Y-145.0
M30
