%TF.GenerationSoftware,KiCad,Pcbnew,10.0.4*%
%TF.CreationDate,2026-07-03T16:20:58-04:00*%
%TF.ProjectId,PCB_Armement_LC_2026,5043425f-4172-46d6-956d-656e745f4c43,rev?*%
%TF.SameCoordinates,Original*%
%TF.FileFunction,Copper,L2,Bot*%
%TF.FilePolarity,Positive*%
%FSLAX46Y46*%
G04 Gerber Fmt 4.6, Leading zero omitted, Abs format (unit mm)*
G04 Created by KiCad (PCBNEW 10.0.4) date 2026-07-03 16:20:58*
%MOMM*%
%LPD*%
G01*
G04 APERTURE LIST*
G04 Aperture macros list*
%AMRoundRect*
0 Rectangle with rounded corners*
0 $1 Rounding radius*
0 $2 $3 $4 $5 $6 $7 $8 $9 X,Y pos of 4 corners*
0 Add a 4 corners polygon primitive as box body*
4,1,4,$2,$3,$4,$5,$6,$7,$8,$9,$2,$3,0*
0 Add four circle primitives for the rounded corners*
1,1,$1+$1,$2,$3*
1,1,$1+$1,$4,$5*
1,1,$1+$1,$6,$7*
1,1,$1+$1,$8,$9*
0 Add four rect primitives between the rounded corners*
20,1,$1+$1,$2,$3,$4,$5,0*
20,1,$1+$1,$4,$5,$6,$7,0*
20,1,$1+$1,$6,$7,$8,$9,0*
20,1,$1+$1,$8,$9,$2,$3,0*%
%AMRotRect*
0 Rectangle, with rotation*
0 The origin of the aperture is its center*
0 $1 length*
0 $2 width*
0 $3 Rotation angle, in degrees counterclockwise*
0 Add horizontal line*
21,1,$1,$2,0,0,$3*%
G04 Aperture macros list end*
%TA.AperFunction,ComponentPad*%
%ADD10C,1.574800*%
%TD*%
%TA.AperFunction,ComponentPad*%
%ADD11R,1.520000X1.520000*%
%TD*%
%TA.AperFunction,ComponentPad*%
%ADD12C,1.520000*%
%TD*%
%TA.AperFunction,ComponentPad*%
%ADD13C,2.910000*%
%TD*%
%TA.AperFunction,ComponentPad*%
%ADD14RoundRect,0.760000X1.140000X1.140000X-1.140000X1.140000X-1.140000X-1.140000X1.140000X-1.140000X0*%
%TD*%
%TA.AperFunction,ComponentPad*%
%ADD15C,4.000000*%
%TD*%
%TA.AperFunction,ComponentPad*%
%ADD16RoundRect,0.150000X-0.350000X-0.600000X0.350000X-0.600000X0.350000X0.600000X-0.350000X0.600000X0*%
%TD*%
%TA.AperFunction,ComponentPad*%
%ADD17R,1.700000X1.700000*%
%TD*%
%TA.AperFunction,ComponentPad*%
%ADD18C,1.700000*%
%TD*%
%TA.AperFunction,ComponentPad*%
%ADD19RotRect,0.900000X2.000000X30.000000*%
%TD*%
%TA.AperFunction,ComponentPad*%
%ADD20RoundRect,1.025000X-0.375176X-1.400176X1.400176X-0.375176X0.375176X1.400176X-1.400176X0.375176X0*%
%TD*%
%TA.AperFunction,ComponentPad*%
%ADD21C,4.100000*%
%TD*%
%TA.AperFunction,ComponentPad*%
%ADD22RoundRect,0.760000X-1.140000X1.140000X-1.140000X-1.140000X1.140000X-1.140000X1.140000X1.140000X0*%
%TD*%
%TA.AperFunction,SMDPad,CuDef*%
%ADD23RoundRect,0.225000X0.007356X0.437260X-0.382356X0.212260X-0.007356X-0.437260X0.382356X-0.212260X0*%
%TD*%
%TA.AperFunction,SMDPad,CuDef*%
%ADD24RotRect,5.600000X5.600000X300.000000*%
%TD*%
%TA.AperFunction,SMDPad,CuDef*%
%ADD25RotRect,2.000000X1.200000X300.000000*%
%TD*%
%TA.AperFunction,SMDPad,CuDef*%
%ADD26RoundRect,0.250000X0.725417X0.043542X0.400417X0.606458X-0.725417X-0.043542X-0.400417X-0.606458X0*%
%TD*%
%TA.AperFunction,SMDPad,CuDef*%
%ADD27RoundRect,0.250000X0.041867X-0.697516X0.583133X-0.385016X-0.041867X0.697516X-0.583133X0.385016X0*%
%TD*%
%TA.AperFunction,ViaPad*%
%ADD28C,0.600000*%
%TD*%
%TA.AperFunction,Conductor*%
%ADD29C,0.500000*%
%TD*%
%TA.AperFunction,Conductor*%
%ADD30C,1.000000*%
%TD*%
%TA.AperFunction,Conductor*%
%ADD31C,2.000000*%
%TD*%
%TA.AperFunction,Conductor*%
%ADD32C,1.500000*%
%TD*%
G04 APERTURE END LIST*
D10*
%TO.P,J8,1,Pin_1_1*%
%TO.N,Net-(J8-Pin_1)*%
X187550000Y-110150000D03*
%TO.P,J8,2,Pin_2_2*%
%TO.N,GND*%
X190550000Y-110150000D03*
%TD*%
D11*
%TO.P,J6,1,Pin_1_1*%
%TO.N,Strato S1*%
X123200000Y-92034250D03*
D12*
%TO.P,J6,2,Pin_2_2*%
%TO.N,Strato S2*%
X126200000Y-92034250D03*
%TO.P,J6,3,Pin_3_3*%
%TO.N,Strato Apo 2*%
X129200000Y-92034250D03*
%TO.P,J6,4,Pin_4_4*%
%TO.N,Strato Apo 1*%
X132200000Y-92034250D03*
%TO.P,J6,5,Pin_5_5*%
%TO.N,Strato Main 1*%
X135200000Y-92034250D03*
%TO.P,J6,6,Pin_6_6*%
%TO.N,Strato Main 2*%
X138200000Y-92034250D03*
D13*
%TO.P,J6,S1*%
%TO.N,N/C*%
X121050000Y-87714250D03*
%TO.P,J6,S2*%
X140350000Y-87714250D03*
%TD*%
D14*
%TO.P,J3,1,Pin_1_1*%
%TO.N,GND*%
X177425000Y-91700001D03*
D15*
%TO.P,J3,2,Pin_2_2*%
%TO.N,7v4*%
X172425000Y-91700001D03*
%TD*%
D16*
%TO.P,SW2,1,C_1*%
%TO.N,Net-(Q2-D)*%
X162200000Y-140260000D03*
%TO.P,SW2,2,B_2*%
%TO.N,Net-(J17-Pin_2)*%
X162200000Y-135180000D03*
%TO.P,SW2,3,A_3*%
%TO.N,unconnected-(SW2-A-Pad3)*%
X162200000Y-130100000D03*
%TD*%
%TO.P,SW7,1,C_1*%
%TO.N,Net-(J9-Pin_3)*%
X162200000Y-120760000D03*
%TO.P,SW7,2,B_2*%
%TO.N,BR1 +*%
X162200000Y-115680000D03*
%TO.P,SW7,3,A_3*%
%TO.N,BR1 Main*%
X162200000Y-110600000D03*
%TD*%
D17*
%TO.P,J2,1,Pin_1_1*%
%TO.N,M1*%
X145539687Y-79349392D03*
D18*
%TO.P,J2,2,Pin_2_2*%
%TO.N,BR1 3rd*%
X148079688Y-79349393D03*
%TO.P,J2,3,Pin_3_3*%
%TO.N,Strato Apo 2*%
X150619687Y-79349392D03*
%TO.P,J2,4,Pin_4_4*%
%TO.N,Net-(J2-Pin_4)*%
X153159687Y-79349392D03*
%TO.P,J2,5,Pin_5_5*%
%TO.N,Net-(J2-Pin_5)*%
X155699686Y-79349393D03*
%TO.P,J2,6,Pin_6_6*%
%TO.N,BR1 Apo*%
X158239686Y-79349392D03*
%TD*%
D10*
%TO.P,J7,1,Pin_1_1*%
%TO.N,BR1 +*%
X179578000Y-120094000D03*
%TO.P,J7,2,Pin_2_2*%
%TO.N,BR1 -*%
X176578001Y-120094000D03*
%TO.P,J7,3,Pin_3_3*%
%TO.N,BR1 Apo*%
X173578002Y-120094000D03*
%TO.P,J7,4,Pin_4_4*%
%TO.N,BR1 Main*%
X179578000Y-117094001D03*
%TO.P,J7,5,Pin_5_5*%
%TO.N,BR1 3rd*%
X176578001Y-117094001D03*
%TO.P,J7,6,Pin_6_6*%
%TO.N,BR1 4th*%
X173578002Y-117094001D03*
%TD*%
D16*
%TO.P,SW8,1,C_1*%
%TO.N,Strato S1*%
X150000000Y-140260000D03*
%TO.P,SW8,2,B_2*%
%TO.N,Strato S2*%
X150000000Y-135180000D03*
%TO.P,SW8,3,A_3*%
%TO.N,unconnected-(SW8-A-Pad3)*%
X150000000Y-130100000D03*
%TD*%
D10*
%TO.P,J17,1,Pin_1_1*%
%TO.N,BR1 -*%
X182118000Y-128524000D03*
%TO.P,J17,2,Pin_2_2*%
%TO.N,Net-(J17-Pin_2)*%
X180619400Y-131119654D03*
%TD*%
D16*
%TO.P,SW6,1,C_1*%
%TO.N,Net-(J9-Pin_2)*%
X150000000Y-120760000D03*
%TO.P,SW6,2,B_2*%
%TO.N,Strato Main 1*%
X150000000Y-115680000D03*
%TO.P,SW6,3,A_3*%
%TO.N,Strato Main 2*%
X150000000Y-110600000D03*
%TD*%
D14*
%TO.P,J11,1,Pin_1_1*%
%TO.N,GND*%
X177249999Y-85475001D03*
D15*
%TO.P,J11,2,Pin_2_2*%
%TO.N,7v4*%
X172249999Y-85475001D03*
%TD*%
D19*
%TO.P,J1,*%
%TO.N,*%
X115637329Y-131445917D03*
X127328672Y-124695917D03*
D20*
%TO.P,J1,1,Pin_1_1*%
%TO.N,Net-(J1-Pin_1)*%
X127600692Y-131467069D03*
D21*
%TO.P,J1,2,Pin_2_2*%
%TO.N,GND*%
X121365309Y-135067069D03*
%TD*%
D16*
%TO.P,SW9,1,C_1*%
%TO.N,M1*%
X137800000Y-120760000D03*
%TO.P,SW9,2,B_2*%
%TO.N,BR1 +*%
X137800000Y-115680000D03*
%TO.P,SW9,3,A_3*%
%TO.N,BR1 3rd*%
X137800000Y-110600000D03*
%TD*%
%TO.P,SW1,1,C_1*%
%TO.N,Net-(J1-Pin_1)*%
X137800000Y-140260000D03*
%TO.P,SW1,2,B_2*%
%TO.N,Net-(Q1-D)*%
X137800000Y-135180000D03*
%TO.P,SW1,3,A_3*%
%TO.N,unconnected-(SW1-A-Pad3)*%
X137800000Y-130100000D03*
%TD*%
%TO.P,SW5,1,C_1*%
%TO.N,Net-(J2-Pin_5)*%
X162200000Y-101260000D03*
%TO.P,SW5,2,B_2*%
%TO.N,BR1 +*%
X162200000Y-96180000D03*
%TO.P,SW5,3,A_3*%
%TO.N,BR1 Apo*%
X162200000Y-91100000D03*
%TD*%
%TO.P,SW4,1,C_1*%
%TO.N,Net-(J2-Pin_4)*%
X150000000Y-101260000D03*
%TO.P,SW4,2,B_2*%
%TO.N,Strato Apo 1*%
X150000000Y-96180000D03*
%TO.P,SW4,3,A_3*%
%TO.N,Strato Apo 2*%
X150000000Y-91100000D03*
%TD*%
D22*
%TO.P,J20,1,Pin_1_1*%
%TO.N,GND*%
X128016001Y-108498002D03*
D15*
%TO.P,J20,2,Pin_2_2*%
%TO.N,7v4*%
X128016001Y-113498002D03*
%TD*%
D10*
%TO.P,J9,1,Pin_1_1*%
%TO.N,Strato Main 2*%
X171704000Y-105108000D03*
%TO.P,J9,2,Pin_2_2*%
%TO.N,Net-(J9-Pin_2)*%
X171704000Y-102108000D03*
%TO.P,J9,3,Pin_3_3*%
%TO.N,Net-(J9-Pin_3)*%
X174704000Y-105108000D03*
%TO.P,J9,4,Pin_4_4*%
%TO.N,BR1 Main*%
X174703999Y-102108001D03*
%TD*%
D23*
%TO.P,DZ1,1,K_1*%
%TO.N,7v4*%
X117379943Y-117664211D03*
%TO.P,DZ1,2,A_2*%
%TO.N,Net-(DZ1-A)*%
X114522059Y-119314211D03*
%TD*%
D24*
%TO.P,Q1,1,D_1*%
%TO.N,Net-(Q1-D)*%
X121158000Y-127508000D03*
D25*
%TO.P,Q1,2,G_2*%
%TO.N,Net-(DZ1-A)*%
X115609443Y-122397619D03*
%TO.P,Q1,3,S_3*%
%TO.N,7v4*%
X119506556Y-120147619D03*
%TD*%
D26*
%TO.P,C3,1*%
%TO.N,7v4*%
X121756939Y-118893391D03*
%TO.P,C3,2*%
%TO.N,GND*%
X120281939Y-116338617D03*
%TD*%
D27*
%TO.P,R1,1*%
%TO.N,Net-(DZ1-A)*%
X113287437Y-116800786D03*
%TO.P,R1,2*%
%TO.N,GND*%
X115820563Y-115338286D03*
%TD*%
D28*
%TO.N,GND*%
X140975000Y-82025000D03*
X165700000Y-81550000D03*
X140250000Y-81050000D03*
X166325000Y-81550000D03*
X166625000Y-82100000D03*
X140925000Y-81050000D03*
X166950000Y-81550000D03*
X141400000Y-81525000D03*
X140600000Y-81500000D03*
X166000000Y-82100000D03*
X139825000Y-81575000D03*
X189422003Y-126238000D03*
X166650000Y-81000000D03*
X166000000Y-81000000D03*
X140250000Y-82050000D03*
X188468000Y-126238000D03*
%TO.N,Net-(J9-Pin_3)*%
X169418000Y-115316000D03*
%TO.N,Net-(J9-Pin_2)*%
X156210000Y-103124000D03*
X153416000Y-120650000D03*
%TD*%
%TO.N,BR1 3rd*%
D29*
X148079688Y-80070312D02*
X148079688Y-79349393D01*
X144457108Y-103609856D02*
X144457108Y-83692892D01*
X144457108Y-83692892D02*
X148079688Y-80070312D01*
X143938737Y-108157983D02*
X143938737Y-104128227D01*
X143938737Y-104128227D02*
X144457108Y-103609856D01*
X141496720Y-110600000D02*
X143938737Y-108157983D01*
X137800000Y-110600000D02*
X141496720Y-110600000D01*
%TO.N,M1*%
X143232755Y-81656324D02*
X145539687Y-79349392D01*
X143232755Y-99475491D02*
X143232755Y-81656324D01*
X137679754Y-105028492D02*
X143232755Y-99475491D01*
X137679754Y-107429198D02*
X137679754Y-105028492D01*
X136144000Y-119104000D02*
X136144000Y-108964952D01*
X136144000Y-108964952D02*
X137679754Y-107429198D01*
X137800000Y-120760000D02*
X136144000Y-119104000D01*
%TO.N,Net-(J2-Pin_4)*%
X150619687Y-81889392D02*
X153159687Y-79349392D01*
X150619687Y-88398094D02*
X150619687Y-81889392D01*
X151325000Y-89103407D02*
X150619687Y-88398094D01*
X150000000Y-101260000D02*
X151325000Y-99935000D01*
X151325000Y-99935000D02*
X151325000Y-89103407D01*
%TO.N,Strato Apo 2*%
X149395333Y-90495333D02*
X150000000Y-91100000D01*
X149395333Y-80573746D02*
X149395333Y-90495333D01*
X150619687Y-79349392D02*
X149395333Y-80573746D01*
%TO.N,Net-(J2-Pin_5)*%
X156425000Y-95485000D02*
X162200000Y-101260000D01*
X156425000Y-80074707D02*
X156425000Y-95485000D01*
X155699686Y-79349393D02*
X156425000Y-80074707D01*
%TO.N,BR1 Apo*%
X158659607Y-79349392D02*
X158239686Y-79349392D01*
X162200000Y-91100000D02*
X162200000Y-82889785D01*
X162200000Y-82889785D02*
X158659607Y-79349392D01*
%TO.N,Strato Main 2*%
X171704000Y-105108000D02*
X168225319Y-108586681D01*
X152013319Y-108586681D02*
X150000000Y-110600000D01*
X168225319Y-108586681D02*
X152013319Y-108586681D01*
%TO.N,GND*%
X120281939Y-116338617D02*
X120051145Y-116471867D01*
%TO.N,7v4*%
D30*
X119506556Y-119790824D02*
X117379943Y-117664211D01*
X120502712Y-120147619D02*
X121756939Y-118893392D01*
D31*
X122620611Y-118893392D02*
X128016001Y-113498002D01*
X121756939Y-118893392D02*
X122620611Y-118893392D01*
D30*
X119506556Y-120147619D02*
X120502712Y-120147619D01*
X119506556Y-120147619D02*
X119506556Y-119790824D01*
%TO.N,Net-(J9-Pin_3)*%
D29*
X162310000Y-120650000D02*
X162200000Y-120760000D01*
X169418000Y-115316000D02*
X164084000Y-120650000D01*
X164084000Y-120650000D02*
X162310000Y-120650000D01*
%TO.N,BR1 +*%
X159770000Y-118110000D02*
X140230000Y-118110000D01*
X140230000Y-118110000D02*
X137800000Y-115680000D01*
X162200000Y-115680000D02*
X159770000Y-118110000D01*
%TO.N,BR1 Main*%
X173084000Y-110600000D02*
X162200000Y-110600000D01*
X179578000Y-117094000D02*
X173084000Y-110600000D01*
%TO.N,BR1 3rd*%
X176578001Y-117094001D02*
X172514000Y-113030000D01*
%TO.N,M1*%
X145975000Y-79450000D02*
X146075000Y-79350000D01*
%TO.N,BR1 3rd*%
X140230000Y-113030000D02*
X137800000Y-110600000D01*
X137800000Y-110600000D02*
X137910000Y-110490000D01*
X172514000Y-113030000D02*
X140230000Y-113030000D01*
%TO.N,BR1 -*%
X176578000Y-122984000D02*
X182118000Y-128524000D01*
X176578000Y-120094000D02*
X176578000Y-122984000D01*
%TO.N,Net-(J9-Pin_2)*%
X150000000Y-120760000D02*
X153306000Y-120760000D01*
X153306000Y-120760000D02*
X153416000Y-120650000D01*
X156210000Y-103124000D02*
X170688000Y-103124000D01*
X170688000Y-103124000D02*
X171704000Y-102108000D01*
%TO.N,Net-(Q1-D)*%
D32*
X130128000Y-127508000D02*
X137800000Y-135180000D01*
X121158000Y-127508000D02*
X130128000Y-127508000D01*
%TO.N,Net-(DZ1-A)*%
D30*
X114522059Y-119314211D02*
X114522059Y-118035408D01*
X114522059Y-119314211D02*
X114522059Y-121310235D01*
X114522059Y-118035408D02*
X113287437Y-116800786D01*
X114522059Y-121310235D02*
X115609443Y-122397619D01*
%TD*%
%TA.AperFunction,Conductor*%
%TO.N,GND*%
G36*
X175502562Y-77000605D02*
G01*
X175949036Y-77019072D01*
X175959209Y-77019915D01*
X176400114Y-77074873D01*
X176410194Y-77076555D01*
X176845043Y-77167733D01*
X176854951Y-77170242D01*
X177280786Y-77297019D01*
X177290454Y-77300338D01*
X177591114Y-77417656D01*
X177704349Y-77461841D01*
X177713734Y-77465958D01*
X178112854Y-77661076D01*
X178121868Y-77665953D01*
X178503545Y-77893383D01*
X178512124Y-77898989D01*
X178873693Y-78157143D01*
X178881770Y-78163430D01*
X179065784Y-78319282D01*
X179220796Y-78450571D01*
X179228336Y-78457512D01*
X179542487Y-78771663D01*
X179549428Y-78779203D01*
X179836565Y-79118224D01*
X179842860Y-79126312D01*
X180101010Y-79487875D01*
X180106616Y-79496454D01*
X180334046Y-79878131D01*
X180338923Y-79887145D01*
X180534041Y-80286265D01*
X180538158Y-80295650D01*
X180699656Y-80709533D01*
X180702984Y-80719226D01*
X180829753Y-81145035D01*
X180832269Y-81154970D01*
X180923441Y-81589791D01*
X180925128Y-81599900D01*
X180980082Y-82040769D01*
X180980928Y-82050983D01*
X180999394Y-82497437D01*
X180999500Y-82502561D01*
X180999500Y-88382308D01*
X180999500Y-88448200D01*
X180999500Y-88605450D01*
X181032374Y-88918226D01*
X181032375Y-88918231D01*
X181097760Y-89225847D01*
X181097761Y-89225849D01*
X181177689Y-89471846D01*
X181194947Y-89524959D01*
X181315131Y-89794894D01*
X181322866Y-89812268D01*
X181322869Y-89812275D01*
X181480112Y-90084628D01*
X181480115Y-90084633D01*
X181664967Y-90339060D01*
X181664974Y-90339069D01*
X181717524Y-90397431D01*
X181875414Y-90572786D01*
X181983691Y-90670279D01*
X182109130Y-90783225D01*
X182109139Y-90783232D01*
X182363566Y-90968084D01*
X182363571Y-90968087D01*
X182635924Y-91125330D01*
X182635928Y-91125331D01*
X182635932Y-91125334D01*
X182923241Y-91253253D01*
X183222348Y-91350438D01*
X183222351Y-91350438D01*
X183222352Y-91350439D01*
X183264737Y-91359448D01*
X183529974Y-91415826D01*
X183842750Y-91448700D01*
X183934108Y-91448700D01*
X187934108Y-91448700D01*
X187998141Y-91448700D01*
X188001886Y-91448757D01*
X188603154Y-91466925D01*
X188610586Y-91467374D01*
X189207821Y-91521646D01*
X189215254Y-91522548D01*
X189808095Y-91612777D01*
X189815455Y-91614126D01*
X190401769Y-91739986D01*
X190409022Y-91741773D01*
X190986705Y-91902814D01*
X190993831Y-91905035D01*
X191560704Y-92100651D01*
X191567688Y-92103300D01*
X192121732Y-92332792D01*
X192128540Y-92335856D01*
X192667716Y-92598382D01*
X192674315Y-92601845D01*
X193195252Y-92895655D01*
X193196653Y-92896445D01*
X193203062Y-92900319D01*
X193706666Y-93225924D01*
X193712790Y-93230151D01*
X194171148Y-93567417D01*
X194195816Y-93585568D01*
X194201708Y-93590185D01*
X194661269Y-93973181D01*
X194662362Y-93974092D01*
X194667969Y-93979059D01*
X195104613Y-94390090D01*
X195109909Y-94395386D01*
X195520940Y-94832030D01*
X195525907Y-94837637D01*
X195909811Y-95298287D01*
X195914431Y-95304183D01*
X196269843Y-95787202D01*
X196274080Y-95793340D01*
X196481137Y-96113589D01*
X196599679Y-96296936D01*
X196603554Y-96303346D01*
X196897463Y-96824459D01*
X196898145Y-96825667D01*
X196901623Y-96832295D01*
X196926102Y-96882569D01*
X197164138Y-97371448D01*
X197167212Y-97378278D01*
X197396695Y-97932301D01*
X197399351Y-97939305D01*
X197594960Y-98506156D01*
X197597189Y-98513307D01*
X197758223Y-99090967D01*
X197760015Y-99098240D01*
X197885872Y-99684540D01*
X197887222Y-99691907D01*
X197977450Y-100284743D01*
X197978353Y-100292179D01*
X198032623Y-100889390D01*
X198033075Y-100896867D01*
X198051243Y-101498113D01*
X198051300Y-101501858D01*
X198051300Y-101541153D01*
X198051287Y-101542924D01*
X198032329Y-102870411D01*
X198032228Y-102873951D01*
X197973607Y-104241481D01*
X197973405Y-104245016D01*
X197875755Y-105610314D01*
X197875452Y-105613843D01*
X197738853Y-106975810D01*
X197738449Y-106979328D01*
X197563017Y-108336815D01*
X197562513Y-108340320D01*
X197348385Y-109692251D01*
X197347781Y-109695741D01*
X197095136Y-111041003D01*
X197094433Y-111044473D01*
X196803475Y-112381972D01*
X196802673Y-112385422D01*
X196473638Y-113714070D01*
X196472738Y-113717495D01*
X196105892Y-115036224D01*
X196104894Y-115039622D01*
X195700550Y-116347301D01*
X195699456Y-116350669D01*
X195257923Y-117646300D01*
X195256733Y-117649635D01*
X194778385Y-118932120D01*
X194777100Y-118935420D01*
X194262323Y-120203726D01*
X194260944Y-120206988D01*
X193710168Y-121460056D01*
X193708697Y-121463277D01*
X193122363Y-122700103D01*
X193120801Y-122703281D01*
X192499367Y-123922900D01*
X192497714Y-123926032D01*
X191841719Y-125127382D01*
X191839977Y-125130466D01*
X191149964Y-126312558D01*
X191148136Y-126315591D01*
X190424603Y-127477569D01*
X190422688Y-127480548D01*
X189666296Y-128621349D01*
X189664297Y-128624272D01*
X188875647Y-129742993D01*
X188873566Y-129745858D01*
X188053253Y-130841652D01*
X188051090Y-130844456D01*
X187199861Y-131916328D01*
X187197619Y-131919070D01*
X186316104Y-132966223D01*
X186313785Y-132968899D01*
X185402746Y-133990431D01*
X185400352Y-133993040D01*
X184460499Y-134988156D01*
X184458031Y-134990696D01*
X183490129Y-135958582D01*
X183487589Y-135961050D01*
X182492478Y-136900868D01*
X182489869Y-136903263D01*
X181468286Y-137814317D01*
X181465609Y-137816636D01*
X180418454Y-138698122D01*
X180415713Y-138700363D01*
X179343814Y-139551586D01*
X179341009Y-139553749D01*
X178245220Y-140374030D01*
X178242355Y-140376111D01*
X177123620Y-141164742D01*
X177120697Y-141166741D01*
X175979884Y-141923115D01*
X175976905Y-141925030D01*
X174814940Y-142648528D01*
X174811907Y-142650357D01*
X173629766Y-143340372D01*
X173626683Y-143342113D01*
X172425307Y-143998097D01*
X172422174Y-143999749D01*
X171202599Y-144621135D01*
X171199422Y-144622698D01*
X169962546Y-145209031D01*
X169959324Y-145210502D01*
X168706261Y-145761251D01*
X168702999Y-145762630D01*
X168359362Y-145902098D01*
X168289841Y-145909069D01*
X168227587Y-145877348D01*
X168192366Y-145817006D01*
X168188732Y-145786824D01*
X168193292Y-144341733D01*
X168227950Y-133354931D01*
X181961249Y-133354931D01*
X181961249Y-133509354D01*
X181991372Y-133660790D01*
X181991375Y-133660802D01*
X182050462Y-133803452D01*
X182050469Y-133803465D01*
X182136253Y-133931849D01*
X182136256Y-133931853D01*
X182245438Y-134041035D01*
X182245442Y-134041038D01*
X182373826Y-134126822D01*
X182373839Y-134126829D01*
X182474672Y-134168595D01*
X182516494Y-134185918D01*
X182667937Y-134216042D01*
X182667940Y-134216043D01*
X182667942Y-134216043D01*
X182822358Y-134216043D01*
X182822359Y-134216042D01*
X182973804Y-134185918D01*
X183116465Y-134126826D01*
X183244856Y-134041038D01*
X183354044Y-133931850D01*
X183439832Y-133803459D01*
X183498924Y-133660798D01*
X183529049Y-133509350D01*
X183529049Y-133354936D01*
X183529049Y-133354933D01*
X183529048Y-133354931D01*
X183498925Y-133203495D01*
X183498924Y-133203488D01*
X183498922Y-133203483D01*
X183439835Y-133060833D01*
X183439828Y-133060820D01*
X183354044Y-132932436D01*
X183354041Y-132932432D01*
X183244859Y-132823250D01*
X183244855Y-132823247D01*
X183116471Y-132737463D01*
X183116458Y-132737456D01*
X182973808Y-132678369D01*
X182973796Y-132678366D01*
X182822359Y-132648243D01*
X182822356Y-132648243D01*
X182667942Y-132648243D01*
X182667939Y-132648243D01*
X182516501Y-132678366D01*
X182516489Y-132678369D01*
X182373839Y-132737456D01*
X182373826Y-132737463D01*
X182245442Y-132823247D01*
X182245438Y-132823250D01*
X182136256Y-132932432D01*
X182136253Y-132932436D01*
X182050469Y-133060820D01*
X182050462Y-133060833D01*
X181991375Y-133203483D01*
X181991372Y-133203495D01*
X181961249Y-133354931D01*
X168227950Y-133354931D01*
X168237405Y-130357729D01*
X176769949Y-130357729D01*
X176769949Y-130512152D01*
X176800072Y-130663588D01*
X176800075Y-130663600D01*
X176859162Y-130806250D01*
X176859169Y-130806263D01*
X176944953Y-130934647D01*
X176944956Y-130934651D01*
X177054138Y-131043833D01*
X177054142Y-131043836D01*
X177182526Y-131129620D01*
X177182539Y-131129627D01*
X177325189Y-131188714D01*
X177325194Y-131188716D01*
X177472821Y-131218081D01*
X177476637Y-131218840D01*
X177476640Y-131218841D01*
X177476642Y-131218841D01*
X177631058Y-131218841D01*
X177631059Y-131218840D01*
X177782504Y-131188716D01*
X177925165Y-131129624D01*
X178053556Y-131043836D01*
X178079098Y-131018294D01*
X179331500Y-131018294D01*
X179331500Y-131221014D01*
X179363213Y-131421238D01*
X179425857Y-131614036D01*
X179517442Y-131793781D01*
X179517892Y-131794663D01*
X179637039Y-131958658D01*
X179780395Y-132102014D01*
X179933856Y-132213508D01*
X179944394Y-132221164D01*
X180125018Y-132313197D01*
X180317816Y-132375841D01*
X180518040Y-132407554D01*
X180518041Y-132407554D01*
X180720759Y-132407554D01*
X180720760Y-132407554D01*
X180920984Y-132375841D01*
X181113782Y-132313197D01*
X181294406Y-132221164D01*
X181386485Y-132154264D01*
X181458404Y-132102014D01*
X181458406Y-132102011D01*
X181458410Y-132102009D01*
X181601755Y-131958664D01*
X181601757Y-131958660D01*
X181601760Y-131958658D01*
X181689150Y-131838374D01*
X181720910Y-131794660D01*
X181812943Y-131614036D01*
X181875587Y-131421238D01*
X181907300Y-131221014D01*
X181907300Y-131018294D01*
X181875587Y-130818070D01*
X181812943Y-130625272D01*
X181720910Y-130444648D01*
X181685117Y-130395383D01*
X181601760Y-130280649D01*
X181458404Y-130137293D01*
X181294409Y-130018146D01*
X181294408Y-130018145D01*
X181294406Y-130018144D01*
X181113782Y-129926111D01*
X180920984Y-129863467D01*
X180920982Y-129863466D01*
X180920980Y-129863466D01*
X180781182Y-129841324D01*
X180720760Y-129831754D01*
X180518040Y-129831754D01*
X180471624Y-129839105D01*
X180317819Y-129863466D01*
X180125015Y-129926112D01*
X179944390Y-130018146D01*
X179780395Y-130137293D01*
X179637039Y-130280649D01*
X179517892Y-130444644D01*
X179425858Y-130625269D01*
X179363212Y-130818073D01*
X179340670Y-130960398D01*
X179331500Y-131018294D01*
X178079098Y-131018294D01*
X178162744Y-130934648D01*
X178248532Y-130806257D01*
X178307624Y-130663596D01*
X178337749Y-130512148D01*
X178337749Y-130357734D01*
X178337749Y-130357731D01*
X178337748Y-130357729D01*
X178322415Y-130280644D01*
X178307624Y-130206286D01*
X178279049Y-130137299D01*
X178248535Y-130063631D01*
X178248528Y-130063618D01*
X178162744Y-129935234D01*
X178162741Y-129935230D01*
X178053559Y-129826048D01*
X178053555Y-129826045D01*
X177925171Y-129740261D01*
X177925158Y-129740254D01*
X177782508Y-129681167D01*
X177782496Y-129681164D01*
X177631059Y-129651041D01*
X177631056Y-129651041D01*
X177476642Y-129651041D01*
X177476639Y-129651041D01*
X177325201Y-129681164D01*
X177325189Y-129681167D01*
X177182539Y-129740254D01*
X177182526Y-129740261D01*
X177054142Y-129826045D01*
X177054138Y-129826048D01*
X176944956Y-129935230D01*
X176944953Y-129935234D01*
X176859169Y-130063618D01*
X176859162Y-130063631D01*
X176800075Y-130206281D01*
X176800072Y-130206293D01*
X176769949Y-130357729D01*
X168237405Y-130357729D01*
X168270102Y-119992640D01*
X172290102Y-119992640D01*
X172290102Y-120195360D01*
X172321815Y-120395584D01*
X172384459Y-120588382D01*
X172463331Y-120743177D01*
X172476494Y-120769009D01*
X172595641Y-120933004D01*
X172738997Y-121076360D01*
X172852537Y-121158850D01*
X172902996Y-121195510D01*
X173083620Y-121287543D01*
X173276418Y-121350187D01*
X173476642Y-121381900D01*
X173476643Y-121381900D01*
X173679361Y-121381900D01*
X173679362Y-121381900D01*
X173879586Y-121350187D01*
X174072384Y-121287543D01*
X174253008Y-121195510D01*
X174352611Y-121123145D01*
X174417006Y-121076360D01*
X174417008Y-121076357D01*
X174417012Y-121076355D01*
X174560357Y-120933010D01*
X174560359Y-120933006D01*
X174560362Y-120933004D01*
X174641833Y-120820867D01*
X174679512Y-120769006D01*
X174771545Y-120588382D01*
X174834189Y-120395584D01*
X174865902Y-120195360D01*
X174865902Y-119992640D01*
X175290101Y-119992640D01*
X175290101Y-120195360D01*
X175321814Y-120395584D01*
X175384458Y-120588382D01*
X175463330Y-120743177D01*
X175476493Y-120769009D01*
X175595640Y-120933004D01*
X175595646Y-120933010D01*
X175738991Y-121076355D01*
X175738992Y-121076356D01*
X175738991Y-121076356D01*
X175754741Y-121087798D01*
X175776384Y-121103522D01*
X175819050Y-121158850D01*
X175827500Y-121203841D01*
X175827500Y-123057918D01*
X175827500Y-123057920D01*
X175827499Y-123057920D01*
X175856340Y-123202907D01*
X175856343Y-123202917D01*
X175912913Y-123339490D01*
X175935407Y-123373155D01*
X175995043Y-123462410D01*
X175995047Y-123462415D01*
X180802539Y-128269906D01*
X180836024Y-128331229D01*
X180837331Y-128376984D01*
X180830100Y-128422639D01*
X180830100Y-128625359D01*
X180854305Y-128778185D01*
X180861813Y-128825584D01*
X180924457Y-129018382D01*
X180965093Y-129098135D01*
X181016492Y-129199009D01*
X181135639Y-129363004D01*
X181278995Y-129506360D01*
X181432456Y-129617854D01*
X181442994Y-129625510D01*
X181623618Y-129717543D01*
X181816416Y-129780187D01*
X182016640Y-129811900D01*
X182016641Y-129811900D01*
X182219359Y-129811900D01*
X182219360Y-129811900D01*
X182419584Y-129780187D01*
X182612382Y-129717543D01*
X182793006Y-129625510D01*
X182907292Y-129542477D01*
X182957004Y-129506360D01*
X182957006Y-129506357D01*
X182957010Y-129506355D01*
X183100355Y-129363010D01*
X183100357Y-129363006D01*
X183100360Y-129363004D01*
X183187348Y-129243273D01*
X183219510Y-129199006D01*
X183311543Y-129018382D01*
X183374187Y-128825584D01*
X183405900Y-128625360D01*
X183405900Y-128422640D01*
X183374187Y-128222416D01*
X183311543Y-128029618D01*
X183219510Y-127848994D01*
X183211854Y-127838456D01*
X183100360Y-127684995D01*
X182957004Y-127541639D01*
X182793009Y-127422492D01*
X182793008Y-127422491D01*
X182793006Y-127422490D01*
X182612382Y-127330457D01*
X182419584Y-127267813D01*
X182419582Y-127267812D01*
X182419580Y-127267812D01*
X182265014Y-127243331D01*
X182219360Y-127236100D01*
X182016640Y-127236100D01*
X181970984Y-127243331D01*
X181901691Y-127234376D01*
X181863906Y-127208539D01*
X177364819Y-122709451D01*
X177331334Y-122648128D01*
X177328500Y-122621770D01*
X177328500Y-121203842D01*
X177348185Y-121136803D01*
X177379614Y-121103525D01*
X177417011Y-121076355D01*
X177560356Y-120933010D01*
X177560358Y-120933006D01*
X177560361Y-120933004D01*
X177641832Y-120820867D01*
X177679511Y-120769006D01*
X177771544Y-120588382D01*
X177834188Y-120395584D01*
X177865901Y-120195360D01*
X177865901Y-119992640D01*
X178290100Y-119992640D01*
X178290100Y-120195360D01*
X178321813Y-120395584D01*
X178384457Y-120588382D01*
X178463329Y-120743177D01*
X178476492Y-120769009D01*
X178595639Y-120933004D01*
X178738995Y-121076360D01*
X178852535Y-121158850D01*
X178902994Y-121195510D01*
X179083618Y-121287543D01*
X179276416Y-121350187D01*
X179476640Y-121381900D01*
X179476641Y-121381900D01*
X179679359Y-121381900D01*
X179679360Y-121381900D01*
X179879584Y-121350187D01*
X180072382Y-121287543D01*
X180253006Y-121195510D01*
X180352609Y-121123145D01*
X180417004Y-121076360D01*
X180417006Y-121076357D01*
X180417010Y-121076355D01*
X180560355Y-120933010D01*
X180560357Y-120933006D01*
X180560360Y-120933004D01*
X180641831Y-120820867D01*
X180679510Y-120769006D01*
X180771543Y-120588382D01*
X180834187Y-120395584D01*
X180865900Y-120195360D01*
X180865900Y-119992640D01*
X180834187Y-119792416D01*
X180771543Y-119599618D01*
X180679510Y-119418994D01*
X180671854Y-119408456D01*
X180560360Y-119254995D01*
X180417004Y-119111639D01*
X180253009Y-118992492D01*
X180253008Y-118992491D01*
X180253006Y-118992490D01*
X180072382Y-118900457D01*
X179879584Y-118837813D01*
X179879582Y-118837812D01*
X179879580Y-118837812D01*
X179739782Y-118815670D01*
X179679360Y-118806100D01*
X179476640Y-118806100D01*
X179430224Y-118813451D01*
X179276419Y-118837812D01*
X179083615Y-118900458D01*
X178902990Y-118992492D01*
X178738995Y-119111639D01*
X178595639Y-119254995D01*
X178476492Y-119418990D01*
X178384458Y-119599615D01*
X178321812Y-119792419D01*
X178290100Y-119992640D01*
X177865901Y-119992640D01*
X177834188Y-119792416D01*
X177771544Y-119599618D01*
X177679511Y-119418994D01*
X177671855Y-119408456D01*
X177560361Y-119254995D01*
X177417005Y-119111639D01*
X177253010Y-118992492D01*
X177253009Y-118992491D01*
X177253007Y-118992490D01*
X177072383Y-118900457D01*
X176879585Y-118837813D01*
X176879583Y-118837812D01*
X176879581Y-118837812D01*
X176739783Y-118815670D01*
X176679361Y-118806100D01*
X176476641Y-118806100D01*
X176430225Y-118813451D01*
X176276420Y-118837812D01*
X176083616Y-118900458D01*
X175902991Y-118992492D01*
X175738996Y-119111639D01*
X175595640Y-119254995D01*
X175476493Y-119418990D01*
X175384459Y-119599615D01*
X175321813Y-119792419D01*
X175290101Y-119992640D01*
X174865902Y-119992640D01*
X174834189Y-119792416D01*
X174771545Y-119599618D01*
X174679512Y-119418994D01*
X174671856Y-119408456D01*
X174560362Y-119254995D01*
X174417006Y-119111639D01*
X174253011Y-118992492D01*
X174253010Y-118992491D01*
X174253008Y-118992490D01*
X174072384Y-118900457D01*
X173879586Y-118837813D01*
X173879584Y-118837812D01*
X173879582Y-118837812D01*
X173739784Y-118815670D01*
X173679362Y-118806100D01*
X173476642Y-118806100D01*
X173430226Y-118813451D01*
X173276421Y-118837812D01*
X173083617Y-118900458D01*
X172902992Y-118992492D01*
X172738997Y-119111639D01*
X172595641Y-119254995D01*
X172476494Y-119418990D01*
X172384460Y-119599615D01*
X172321814Y-119792419D01*
X172290102Y-119992640D01*
X168270102Y-119992640D01*
X168277749Y-117568582D01*
X168297644Y-117501611D01*
X168314055Y-117481311D01*
X169591914Y-116203451D01*
X169653235Y-116169968D01*
X169722927Y-116174952D01*
X169778860Y-116216824D01*
X169801210Y-116266942D01*
X169824226Y-116382649D01*
X169824229Y-116382659D01*
X169883316Y-116525309D01*
X169883323Y-116525322D01*
X169969107Y-116653706D01*
X169969110Y-116653710D01*
X170078292Y-116762892D01*
X170078296Y-116762895D01*
X170206680Y-116848679D01*
X170206693Y-116848686D01*
X170345775Y-116906295D01*
X170349348Y-116907775D01*
X170449005Y-116927598D01*
X170500791Y-116937899D01*
X170500794Y-116937900D01*
X170500796Y-116937900D01*
X170655212Y-116937900D01*
X170655213Y-116937899D01*
X170806658Y-116907775D01*
X170924030Y-116859158D01*
X170949312Y-116848686D01*
X170949312Y-116848685D01*
X170949319Y-116848683D01*
X171077710Y-116762895D01*
X171186898Y-116653707D01*
X171272686Y-116525316D01*
X171331778Y-116382655D01*
X171361903Y-116231207D01*
X171361903Y-116076793D01*
X171361903Y-116076790D01*
X171361902Y-116076788D01*
X171358078Y-116057562D01*
X171331778Y-115925345D01*
X171331776Y-115925340D01*
X171272689Y-115782690D01*
X171272682Y-115782677D01*
X171186898Y-115654293D01*
X171186895Y-115654289D01*
X171077713Y-115545107D01*
X171077709Y-115545104D01*
X170949325Y-115459320D01*
X170949312Y-115459313D01*
X170806662Y-115400226D01*
X170806650Y-115400223D01*
X170655213Y-115370100D01*
X170655210Y-115370100D01*
X170500796Y-115370100D01*
X170500791Y-115370100D01*
X170366691Y-115396774D01*
X170297099Y-115390547D01*
X170241922Y-115347683D01*
X170218678Y-115281794D01*
X170218500Y-115275157D01*
X170218500Y-115237155D01*
X170218499Y-115237153D01*
X170212871Y-115208859D01*
X170187737Y-115082503D01*
X170167940Y-115034708D01*
X170127397Y-114936827D01*
X170127390Y-114936814D01*
X170039789Y-114805711D01*
X170039786Y-114805707D01*
X169928292Y-114694213D01*
X169928288Y-114694210D01*
X169797185Y-114606609D01*
X169797172Y-114606602D01*
X169651501Y-114546264D01*
X169651489Y-114546261D01*
X169496845Y-114515500D01*
X169496842Y-114515500D01*
X169339158Y-114515500D01*
X169339155Y-114515500D01*
X169184510Y-114546261D01*
X169184498Y-114546264D01*
X169038827Y-114606602D01*
X169038814Y-114606609D01*
X168907711Y-114694210D01*
X168907707Y-114694213D01*
X168796213Y-114805707D01*
X168796207Y-114805715D01*
X168708607Y-114936818D01*
X168708605Y-114936822D01*
X168698805Y-114960480D01*
X168694174Y-114967409D01*
X168693078Y-114972450D01*
X168671927Y-115000704D01*
X168497256Y-115175374D01*
X168435933Y-115208859D01*
X168366241Y-115203875D01*
X168310308Y-115162003D01*
X168285891Y-115096539D01*
X168285577Y-115087332D01*
X168289309Y-113904106D01*
X168309205Y-113837132D01*
X168362153Y-113791544D01*
X168413308Y-113780500D01*
X172151770Y-113780500D01*
X172218809Y-113800185D01*
X172239451Y-113816819D01*
X173736511Y-115313879D01*
X174078539Y-115655906D01*
X174112024Y-115717229D01*
X174107040Y-115786921D01*
X174065168Y-115842854D01*
X173999704Y-115867271D01*
X173952541Y-115861518D01*
X173879587Y-115837814D01*
X173879582Y-115837813D01*
X173725016Y-115813332D01*
X173679362Y-115806101D01*
X173476642Y-115806101D01*
X173430988Y-115813332D01*
X173276421Y-115837813D01*
X173083617Y-115900459D01*
X172902992Y-115992493D01*
X172738997Y-116111640D01*
X172595641Y-116254996D01*
X172476494Y-116418991D01*
X172384460Y-116599616D01*
X172321814Y-116792420D01*
X172290102Y-116992641D01*
X172290102Y-117195360D01*
X172321657Y-117394592D01*
X172321815Y-117395585D01*
X172384459Y-117588383D01*
X172471436Y-117759085D01*
X172476494Y-117769010D01*
X172595641Y-117933005D01*
X172738997Y-118076361D01*
X172892458Y-118187855D01*
X172902996Y-118195511D01*
X173083620Y-118287544D01*
X173276418Y-118350188D01*
X173476642Y-118381901D01*
X173476643Y-118381901D01*
X173679361Y-118381901D01*
X173679362Y-118381901D01*
X173879586Y-118350188D01*
X174072384Y-118287544D01*
X174253008Y-118195511D01*
X174360715Y-118117258D01*
X174417006Y-118076361D01*
X174417008Y-118076358D01*
X174417012Y-118076356D01*
X174560357Y-117933011D01*
X174560359Y-117933007D01*
X174560362Y-117933005D01*
X174619857Y-117851116D01*
X174679512Y-117769007D01*
X174771545Y-117588383D01*
X174834189Y-117395585D01*
X174865902Y-117195361D01*
X174865902Y-116992641D01*
X174834189Y-116792417D01*
X174810483Y-116719460D01*
X174808489Y-116649621D01*
X174844569Y-116589788D01*
X174907270Y-116558960D01*
X174976684Y-116566925D01*
X175016096Y-116593463D01*
X175262540Y-116839907D01*
X175296025Y-116901230D01*
X175297332Y-116946985D01*
X175290101Y-116992640D01*
X175290101Y-117195360D01*
X175321656Y-117394592D01*
X175321814Y-117395585D01*
X175384458Y-117588383D01*
X175471435Y-117759085D01*
X175476493Y-117769010D01*
X175595640Y-117933005D01*
X175738996Y-118076361D01*
X175892457Y-118187855D01*
X175902995Y-118195511D01*
X176083619Y-118287544D01*
X176276417Y-118350188D01*
X176476641Y-118381901D01*
X176476642Y-118381901D01*
X176679360Y-118381901D01*
X176679361Y-118381901D01*
X176879585Y-118350188D01*
X177072383Y-118287544D01*
X177253007Y-118195511D01*
X177360714Y-118117258D01*
X177417005Y-118076361D01*
X177417007Y-118076358D01*
X177417011Y-118076356D01*
X177560356Y-117933011D01*
X177560358Y-117933007D01*
X177560361Y-117933005D01*
X177619856Y-117851116D01*
X177679511Y-117769007D01*
X177771544Y-117588383D01*
X177834188Y-117395585D01*
X177865901Y-117195361D01*
X177865901Y-116992641D01*
X177834188Y-116792417D01*
X177810482Y-116719460D01*
X177808488Y-116649621D01*
X177844568Y-116589788D01*
X177907269Y-116558960D01*
X177976683Y-116566925D01*
X178016095Y-116593463D01*
X178262539Y-116839907D01*
X178296024Y-116901230D01*
X178297331Y-116946985D01*
X178290100Y-116992640D01*
X178290100Y-117195360D01*
X178321655Y-117394592D01*
X178321813Y-117395585D01*
X178384457Y-117588383D01*
X178471434Y-117759085D01*
X178476492Y-117769010D01*
X178595639Y-117933005D01*
X178738995Y-118076361D01*
X178892456Y-118187855D01*
X178902994Y-118195511D01*
X179083618Y-118287544D01*
X179276416Y-118350188D01*
X179476640Y-118381901D01*
X179476641Y-118381901D01*
X179679359Y-118381901D01*
X179679360Y-118381901D01*
X179879584Y-118350188D01*
X180072382Y-118287544D01*
X180253006Y-118195511D01*
X180360713Y-118117258D01*
X180417004Y-118076361D01*
X180417006Y-118076358D01*
X180417010Y-118076356D01*
X180560355Y-117933011D01*
X180560357Y-117933007D01*
X180560360Y-117933005D01*
X180619855Y-117851116D01*
X180679510Y-117769007D01*
X180771543Y-117588383D01*
X180834187Y-117395585D01*
X180865900Y-117195361D01*
X180865900Y-116992641D01*
X180834187Y-116792417D01*
X180771543Y-116599619D01*
X180679510Y-116418995D01*
X180653108Y-116382655D01*
X180560360Y-116254996D01*
X180417004Y-116111640D01*
X180369033Y-116076788D01*
X181794099Y-116076788D01*
X181794099Y-116231211D01*
X181824222Y-116382647D01*
X181824225Y-116382659D01*
X181883312Y-116525309D01*
X181883319Y-116525322D01*
X181969103Y-116653706D01*
X181969106Y-116653710D01*
X182078288Y-116762892D01*
X182078292Y-116762895D01*
X182206676Y-116848679D01*
X182206689Y-116848686D01*
X182345771Y-116906295D01*
X182349344Y-116907775D01*
X182449001Y-116927598D01*
X182500787Y-116937899D01*
X182500790Y-116937900D01*
X182500792Y-116937900D01*
X182655208Y-116937900D01*
X182655209Y-116937899D01*
X182806654Y-116907775D01*
X182924026Y-116859158D01*
X182949308Y-116848686D01*
X182949308Y-116848685D01*
X182949315Y-116848683D01*
X183077706Y-116762895D01*
X183186894Y-116653707D01*
X183272682Y-116525316D01*
X183331774Y-116382655D01*
X183361899Y-116231207D01*
X183361899Y-116076793D01*
X183361899Y-116076790D01*
X183361898Y-116076788D01*
X183358074Y-116057562D01*
X183331774Y-115925345D01*
X183331772Y-115925340D01*
X183272685Y-115782690D01*
X183272678Y-115782677D01*
X183186894Y-115654293D01*
X183186891Y-115654289D01*
X183077709Y-115545107D01*
X183077705Y-115545104D01*
X182949321Y-115459320D01*
X182949308Y-115459313D01*
X182806658Y-115400226D01*
X182806646Y-115400223D01*
X182655209Y-115370100D01*
X182655206Y-115370100D01*
X182500792Y-115370100D01*
X182500789Y-115370100D01*
X182349351Y-115400223D01*
X182349339Y-115400226D01*
X182206689Y-115459313D01*
X182206676Y-115459320D01*
X182078292Y-115545104D01*
X182078288Y-115545107D01*
X181969106Y-115654289D01*
X181969103Y-115654293D01*
X181883319Y-115782677D01*
X181883312Y-115782690D01*
X181824225Y-115925340D01*
X181824222Y-115925352D01*
X181794099Y-116076788D01*
X180369033Y-116076788D01*
X180253009Y-115992493D01*
X180253008Y-115992492D01*
X180253006Y-115992491D01*
X180072382Y-115900458D01*
X179879584Y-115837814D01*
X179879582Y-115837813D01*
X179879580Y-115837813D01*
X179725014Y-115813332D01*
X179679360Y-115806101D01*
X179476640Y-115806101D01*
X179476634Y-115806101D01*
X179430985Y-115813331D01*
X179361692Y-115804376D01*
X179323907Y-115778539D01*
X173676818Y-110131449D01*
X173594009Y-110048640D01*
X186262100Y-110048640D01*
X186262100Y-110251359D01*
X186293793Y-110451463D01*
X186293813Y-110451584D01*
X186356457Y-110644382D01*
X186448360Y-110824751D01*
X186448492Y-110825009D01*
X186567639Y-110989004D01*
X186710995Y-111132360D01*
X186864456Y-111243854D01*
X186874994Y-111251510D01*
X187055618Y-111343543D01*
X187248416Y-111406187D01*
X187448640Y-111437900D01*
X187448641Y-111437900D01*
X187651359Y-111437900D01*
X187651360Y-111437900D01*
X187851584Y-111406187D01*
X188044382Y-111343543D01*
X188225006Y-111251510D01*
X188379805Y-111139043D01*
X188389004Y-111132360D01*
X188389006Y-111132357D01*
X188389010Y-111132355D01*
X188532355Y-110989010D01*
X188532357Y-110989006D01*
X188532360Y-110989004D01*
X188606092Y-110887519D01*
X188651510Y-110825006D01*
X188743543Y-110644382D01*
X188806187Y-110451584D01*
X188837900Y-110251360D01*
X188837900Y-110048679D01*
X189262600Y-110048679D01*
X189262600Y-110251320D01*
X189294299Y-110451463D01*
X189356921Y-110644192D01*
X189448916Y-110824744D01*
X189479545Y-110866899D01*
X189479546Y-110866900D01*
X190039765Y-110306680D01*
X190052950Y-110355885D01*
X190123174Y-110477515D01*
X190222485Y-110576826D01*
X190344115Y-110647050D01*
X190393319Y-110660234D01*
X189833099Y-111220453D01*
X189833099Y-111220454D01*
X189875254Y-111251082D01*
X190055807Y-111343078D01*
X190248536Y-111405700D01*
X190248535Y-111405700D01*
X190448680Y-111437400D01*
X190651320Y-111437400D01*
X190851463Y-111405700D01*
X191044192Y-111343078D01*
X191224747Y-111251081D01*
X191224751Y-111251079D01*
X191266899Y-111220454D01*
X191266900Y-111220454D01*
X190706680Y-110660234D01*
X190755885Y-110647050D01*
X190877515Y-110576826D01*
X190976826Y-110477515D01*
X191047050Y-110355885D01*
X191060234Y-110306680D01*
X191620453Y-110866900D01*
X191620454Y-110866899D01*
X191651079Y-110824751D01*
X191651081Y-110824747D01*
X191743078Y-110644192D01*
X191805700Y-110451463D01*
X191837400Y-110251320D01*
X191837400Y-110048679D01*
X191805700Y-109848536D01*
X191743078Y-109655807D01*
X191651082Y-109475254D01*
X191620453Y-109433099D01*
X191060233Y-109993318D01*
X191047050Y-109944115D01*
X190976826Y-109822485D01*
X190877515Y-109723174D01*
X190755885Y-109652950D01*
X190706680Y-109639765D01*
X191266900Y-109079546D01*
X191266899Y-109079545D01*
X191224744Y-109048916D01*
X191044192Y-108956921D01*
X190851463Y-108894299D01*
X190851464Y-108894299D01*
X190651320Y-108862600D01*
X190448680Y-108862600D01*
X190248536Y-108894299D01*
X190055807Y-108956921D01*
X189875250Y-109048919D01*
X189833099Y-109079544D01*
X189833098Y-109079545D01*
X190393319Y-109639765D01*
X190344115Y-109652950D01*
X190222485Y-109723174D01*
X190123174Y-109822485D01*
X190052950Y-109944115D01*
X190039766Y-109993319D01*
X189479545Y-109433098D01*
X189479544Y-109433099D01*
X189448919Y-109475250D01*
X189356921Y-109655807D01*
X189294299Y-109848536D01*
X189262600Y-110048679D01*
X188837900Y-110048679D01*
X188837900Y-110048640D01*
X188806187Y-109848416D01*
X188743543Y-109655618D01*
X188651510Y-109474994D01*
X188621071Y-109433098D01*
X188532360Y-109310995D01*
X188389004Y-109167639D01*
X188225009Y-109048492D01*
X188225008Y-109048491D01*
X188225006Y-109048490D01*
X188044382Y-108956457D01*
X187851584Y-108893813D01*
X187851582Y-108893812D01*
X187851580Y-108893812D01*
X187711782Y-108871670D01*
X187651360Y-108862100D01*
X187448640Y-108862100D01*
X187402224Y-108869451D01*
X187248419Y-108893812D01*
X187055615Y-108956458D01*
X186874990Y-109048492D01*
X186710995Y-109167639D01*
X186567639Y-109310995D01*
X186448492Y-109474990D01*
X186356458Y-109655615D01*
X186356457Y-109655617D01*
X186356457Y-109655618D01*
X186341152Y-109702721D01*
X186293812Y-109848419D01*
X186262100Y-110048640D01*
X173594009Y-110048640D01*
X173562421Y-110017052D01*
X173562414Y-110017046D01*
X173488729Y-109967812D01*
X173488729Y-109967813D01*
X173439491Y-109934913D01*
X173302917Y-109878343D01*
X173302907Y-109878340D01*
X173157920Y-109849500D01*
X173157918Y-109849500D01*
X168426491Y-109849500D01*
X168359452Y-109829815D01*
X168313697Y-109777011D01*
X168302492Y-109725111D01*
X168303399Y-109437721D01*
X168323293Y-109370748D01*
X168376241Y-109325160D01*
X168403196Y-109316501D01*
X168444232Y-109308339D01*
X168580814Y-109251765D01*
X168630048Y-109218867D01*
X168703735Y-109169633D01*
X169842578Y-108030789D01*
X174860103Y-108030789D01*
X174860103Y-108185212D01*
X174890226Y-108336648D01*
X174890229Y-108336660D01*
X174949316Y-108479310D01*
X174949323Y-108479323D01*
X175035107Y-108607707D01*
X175035110Y-108607711D01*
X175144292Y-108716893D01*
X175144296Y-108716896D01*
X175272680Y-108802680D01*
X175272693Y-108802687D01*
X175415343Y-108861774D01*
X175415348Y-108861776D01*
X175562437Y-108891034D01*
X175566791Y-108891900D01*
X175566794Y-108891901D01*
X175566796Y-108891901D01*
X175721212Y-108891901D01*
X175721213Y-108891900D01*
X175872658Y-108861776D01*
X176015319Y-108802684D01*
X176143710Y-108716896D01*
X176252898Y-108607708D01*
X176338686Y-108479317D01*
X176397778Y-108336656D01*
X176409104Y-108279717D01*
X183639100Y-108279717D01*
X183674105Y-108455693D01*
X183674108Y-108455703D01*
X183742768Y-108621465D01*
X183742775Y-108621478D01*
X183842458Y-108770663D01*
X183842461Y-108770667D01*
X183969332Y-108897538D01*
X183969336Y-108897541D01*
X184118521Y-108997224D01*
X184118534Y-108997231D01*
X184284294Y-109065890D01*
X184284301Y-109065893D01*
X184284305Y-109065893D01*
X184284306Y-109065894D01*
X184460282Y-109100899D01*
X184460285Y-109100899D01*
X184639719Y-109100899D01*
X184758111Y-109077348D01*
X184815701Y-109065893D01*
X184981474Y-108997228D01*
X185130666Y-108897541D01*
X185257543Y-108770664D01*
X185357230Y-108621472D01*
X185425895Y-108455699D01*
X185460901Y-108279716D01*
X192639095Y-108279716D01*
X192674100Y-108455692D01*
X192674103Y-108455702D01*
X192742763Y-108621464D01*
X192742770Y-108621477D01*
X192842453Y-108770662D01*
X192842456Y-108770666D01*
X192969327Y-108897537D01*
X192969331Y-108897540D01*
X193118516Y-108997223D01*
X193118529Y-108997230D01*
X193242288Y-109048492D01*
X193284296Y-109065892D01*
X193284300Y-109065892D01*
X193284301Y-109065893D01*
X193460277Y-109100898D01*
X193460280Y-109100898D01*
X193639714Y-109100898D01*
X193758106Y-109077347D01*
X193815696Y-109065892D01*
X193943905Y-109012786D01*
X193981462Y-108997230D01*
X193981462Y-108997229D01*
X193981469Y-108997227D01*
X194130661Y-108897540D01*
X194257538Y-108770663D01*
X194357225Y-108621471D01*
X194425890Y-108455698D01*
X194449569Y-108336660D01*
X194460896Y-108279716D01*
X194460896Y-108100279D01*
X194425891Y-107924303D01*
X194425890Y-107924299D01*
X194425890Y-107924298D01*
X194407273Y-107879353D01*
X194357228Y-107758531D01*
X194357221Y-107758518D01*
X194257538Y-107609333D01*
X194257535Y-107609329D01*
X194130664Y-107482458D01*
X194130660Y-107482455D01*
X193981475Y-107382772D01*
X193981462Y-107382765D01*
X193815700Y-107314105D01*
X193815690Y-107314102D01*
X193639714Y-107279098D01*
X193639712Y-107279098D01*
X193460280Y-107279098D01*
X193460278Y-107279098D01*
X193284301Y-107314102D01*
X193284291Y-107314105D01*
X193118529Y-107382765D01*
X193118516Y-107382772D01*
X192969331Y-107482455D01*
X192969327Y-107482458D01*
X192842456Y-107609329D01*
X192842453Y-107609333D01*
X192742770Y-107758518D01*
X192742763Y-107758531D01*
X192674103Y-107924293D01*
X192674100Y-107924303D01*
X192639096Y-108100279D01*
X192639096Y-108100280D01*
X192639096Y-108100282D01*
X192639096Y-108279714D01*
X192639096Y-108279716D01*
X192639095Y-108279716D01*
X185460901Y-108279716D01*
X185460901Y-108279715D01*
X185460901Y-108100283D01*
X185425895Y-107924299D01*
X185389396Y-107836181D01*
X185357233Y-107758532D01*
X185357226Y-107758519D01*
X185257543Y-107609334D01*
X185257540Y-107609330D01*
X185130669Y-107482459D01*
X185130665Y-107482456D01*
X184981480Y-107382773D01*
X184981467Y-107382766D01*
X184815705Y-107314106D01*
X184815695Y-107314103D01*
X184639719Y-107279099D01*
X184639717Y-107279099D01*
X184460285Y-107279099D01*
X184460283Y-107279099D01*
X184284306Y-107314103D01*
X184284296Y-107314106D01*
X184118534Y-107382766D01*
X184118521Y-107382773D01*
X183969336Y-107482456D01*
X183969332Y-107482459D01*
X183842461Y-107609330D01*
X183842458Y-107609334D01*
X183742775Y-107758519D01*
X183742768Y-107758532D01*
X183674108Y-107924294D01*
X183674105Y-107924304D01*
X183639101Y-108100280D01*
X183639101Y-108100281D01*
X183639101Y-108100283D01*
X183639101Y-108279715D01*
X183639101Y-108279717D01*
X183639100Y-108279717D01*
X176409104Y-108279717D01*
X176427903Y-108185208D01*
X176427903Y-108030794D01*
X176427903Y-108030791D01*
X176427902Y-108030789D01*
X176409250Y-107937021D01*
X176397778Y-107879346D01*
X176379899Y-107836181D01*
X176338689Y-107736691D01*
X176338682Y-107736678D01*
X176252898Y-107608294D01*
X176252895Y-107608290D01*
X176143713Y-107499108D01*
X176143709Y-107499105D01*
X176015325Y-107413321D01*
X176015312Y-107413314D01*
X175872662Y-107354227D01*
X175872650Y-107354224D01*
X175721213Y-107324101D01*
X175721210Y-107324101D01*
X175566796Y-107324101D01*
X175566793Y-107324101D01*
X175415355Y-107354224D01*
X175415343Y-107354227D01*
X175272693Y-107413314D01*
X175272680Y-107413321D01*
X175144296Y-107499105D01*
X175144292Y-107499108D01*
X175035110Y-107608290D01*
X175035107Y-107608294D01*
X174949323Y-107736678D01*
X174949316Y-107736691D01*
X174890229Y-107879341D01*
X174890226Y-107879353D01*
X174860103Y-108030789D01*
X169842578Y-108030789D01*
X171449908Y-106423458D01*
X171511229Y-106389975D01*
X171556980Y-106388668D01*
X171602640Y-106395900D01*
X171602643Y-106395900D01*
X171805359Y-106395900D01*
X171805360Y-106395900D01*
X172005584Y-106364187D01*
X172198382Y-106301543D01*
X172379006Y-106209510D01*
X172471085Y-106142610D01*
X172543004Y-106090360D01*
X172543006Y-106090357D01*
X172543010Y-106090355D01*
X172686355Y-105947010D01*
X172686357Y-105947006D01*
X172686360Y-105947004D01*
X172738610Y-105875085D01*
X172805510Y-105783006D01*
X172897543Y-105602382D01*
X172960187Y-105409584D01*
X172991900Y-105209360D01*
X172991900Y-105006640D01*
X173416100Y-105006640D01*
X173416100Y-105209359D01*
X173440424Y-105362936D01*
X173447813Y-105409584D01*
X173477353Y-105500500D01*
X173510458Y-105602384D01*
X173602492Y-105783009D01*
X173721639Y-105947004D01*
X173864995Y-106090360D01*
X174018456Y-106201854D01*
X174028994Y-106209510D01*
X174209618Y-106301543D01*
X174402416Y-106364187D01*
X174602640Y-106395900D01*
X174602641Y-106395900D01*
X174805359Y-106395900D01*
X174805360Y-106395900D01*
X175005584Y-106364187D01*
X175198382Y-106301543D01*
X175379006Y-106209510D01*
X175471085Y-106142610D01*
X175543004Y-106090360D01*
X175543006Y-106090357D01*
X175543010Y-106090355D01*
X175686355Y-105947010D01*
X175686357Y-105947006D01*
X175686360Y-105947004D01*
X175738610Y-105875085D01*
X175805510Y-105783006D01*
X175897543Y-105602382D01*
X175960187Y-105409584D01*
X175991900Y-105209360D01*
X175991900Y-105006640D01*
X175960187Y-104806416D01*
X175897543Y-104613618D01*
X175805510Y-104432994D01*
X175777862Y-104394939D01*
X175686360Y-104268995D01*
X175543004Y-104125639D01*
X175379009Y-104006492D01*
X175379008Y-104006491D01*
X175379006Y-104006490D01*
X175198382Y-103914457D01*
X175005584Y-103851813D01*
X175005582Y-103851812D01*
X175005580Y-103851812D01*
X174860093Y-103828769D01*
X174805360Y-103820100D01*
X174602640Y-103820100D01*
X174556224Y-103827451D01*
X174402419Y-103851812D01*
X174352373Y-103868073D01*
X174225447Y-103909314D01*
X174209615Y-103914458D01*
X174028990Y-104006492D01*
X173864995Y-104125639D01*
X173721639Y-104268995D01*
X173602492Y-104432990D01*
X173510458Y-104613615D01*
X173447812Y-104806419D01*
X173416100Y-105006640D01*
X172991900Y-105006640D01*
X172960187Y-104806416D01*
X172897543Y-104613618D01*
X172805510Y-104432994D01*
X172777862Y-104394939D01*
X172686360Y-104268995D01*
X172543004Y-104125639D01*
X172379009Y-104006492D01*
X172379008Y-104006491D01*
X172379006Y-104006490D01*
X172198382Y-103914457D01*
X172005584Y-103851813D01*
X172005582Y-103851812D01*
X172005580Y-103851812D01*
X171860093Y-103828769D01*
X171805360Y-103820100D01*
X171602640Y-103820100D01*
X171556224Y-103827451D01*
X171402419Y-103851812D01*
X171402414Y-103851813D01*
X171329461Y-103875517D01*
X171259620Y-103877512D01*
X171199788Y-103841431D01*
X171168960Y-103778730D01*
X171176925Y-103709316D01*
X171203460Y-103669907D01*
X171449909Y-103423457D01*
X171511228Y-103389975D01*
X171556980Y-103388668D01*
X171602640Y-103395900D01*
X171602643Y-103395900D01*
X171805359Y-103395900D01*
X171805360Y-103395900D01*
X172005584Y-103364187D01*
X172198382Y-103301543D01*
X172379006Y-103209510D01*
X172471085Y-103142610D01*
X172543004Y-103090360D01*
X172543006Y-103090357D01*
X172543010Y-103090355D01*
X172686355Y-102947010D01*
X172686359Y-102947005D01*
X172686360Y-102947004D01*
X172743154Y-102868832D01*
X172805510Y-102783006D01*
X172897543Y-102602382D01*
X172960187Y-102409584D01*
X172991900Y-102209360D01*
X172991900Y-102006641D01*
X173416099Y-102006641D01*
X173416099Y-102209360D01*
X173442096Y-102373500D01*
X173447812Y-102409585D01*
X173510456Y-102602383D01*
X173602488Y-102783006D01*
X173602491Y-102783010D01*
X173721638Y-102947005D01*
X173864994Y-103090361D01*
X174018455Y-103201855D01*
X174028993Y-103209511D01*
X174209617Y-103301544D01*
X174402415Y-103364188D01*
X174602639Y-103395901D01*
X174602640Y-103395901D01*
X174805358Y-103395901D01*
X174805359Y-103395901D01*
X175005583Y-103364188D01*
X175198381Y-103301544D01*
X175379005Y-103209511D01*
X175471084Y-103142611D01*
X175543003Y-103090361D01*
X175543005Y-103090358D01*
X175543009Y-103090356D01*
X175686354Y-102947011D01*
X175686356Y-102947007D01*
X175686359Y-102947005D01*
X175740716Y-102872187D01*
X175805509Y-102783007D01*
X175897542Y-102602383D01*
X175960186Y-102409585D01*
X175991899Y-102209361D01*
X175991899Y-102006641D01*
X175960186Y-101806417D01*
X175897542Y-101613619D01*
X175805509Y-101432995D01*
X175714972Y-101308381D01*
X184099500Y-101308381D01*
X184099500Y-101337424D01*
X184099500Y-101691619D01*
X184099984Y-101696532D01*
X184137063Y-102073011D01*
X184211824Y-102448866D01*
X184211827Y-102448877D01*
X184323078Y-102815625D01*
X184469738Y-103169692D01*
X184469740Y-103169697D01*
X184650388Y-103507664D01*
X184650399Y-103507682D01*
X184863305Y-103826318D01*
X184863315Y-103826332D01*
X185106439Y-104122580D01*
X185377419Y-104393560D01*
X185377424Y-104393564D01*
X185377425Y-104393565D01*
X185673673Y-104636689D01*
X185992324Y-104849605D01*
X185992333Y-104849610D01*
X185992335Y-104849611D01*
X186330302Y-105030259D01*
X186330304Y-105030259D01*
X186330310Y-105030263D01*
X186684376Y-105176922D01*
X187051113Y-105288170D01*
X187051119Y-105288171D01*
X187051122Y-105288172D01*
X187051133Y-105288175D01*
X187422745Y-105362092D01*
X187426988Y-105362936D01*
X187808381Y-105400500D01*
X187808384Y-105400500D01*
X188191616Y-105400500D01*
X188191619Y-105400500D01*
X188573012Y-105362936D01*
X188691542Y-105339359D01*
X188948866Y-105288175D01*
X188948877Y-105288172D01*
X188948877Y-105288171D01*
X188948887Y-105288170D01*
X189315624Y-105176922D01*
X189669690Y-105030263D01*
X190007676Y-104849605D01*
X190326327Y-104636689D01*
X190622575Y-104393565D01*
X190893565Y-104122575D01*
X191136689Y-103826327D01*
X191349605Y-103507676D01*
X191530263Y-103169690D01*
X191676922Y-102815624D01*
X191788170Y-102448887D01*
X191788172Y-102448877D01*
X191788175Y-102448866D01*
X191862936Y-102073011D01*
X191873814Y-101962569D01*
X191900500Y-101691619D01*
X191900500Y-101308381D01*
X191862936Y-100926988D01*
X191841675Y-100820100D01*
X191788175Y-100551133D01*
X191788172Y-100551122D01*
X191788171Y-100551119D01*
X191788170Y-100551113D01*
X191676922Y-100184376D01*
X191530263Y-99830310D01*
X191507380Y-99787500D01*
X191349611Y-99492335D01*
X191349610Y-99492333D01*
X191349605Y-99492324D01*
X191136689Y-99173673D01*
X190893565Y-98877425D01*
X190893564Y-98877424D01*
X190893560Y-98877419D01*
X190622580Y-98606439D01*
X190326332Y-98363315D01*
X190326331Y-98363314D01*
X190326327Y-98363311D01*
X190007676Y-98150395D01*
X190007671Y-98150392D01*
X190007664Y-98150388D01*
X189669697Y-97969740D01*
X189669692Y-97969738D01*
X189579311Y-97932301D01*
X189451187Y-97879230D01*
X189315625Y-97823078D01*
X188948877Y-97711827D01*
X188948866Y-97711824D01*
X188573011Y-97637063D01*
X188285763Y-97608772D01*
X188191619Y-97599500D01*
X187808381Y-97599500D01*
X187721394Y-97608067D01*
X187426988Y-97637063D01*
X187051133Y-97711824D01*
X187051122Y-97711827D01*
X186684374Y-97823078D01*
X186330307Y-97969738D01*
X186330302Y-97969740D01*
X185992335Y-98150388D01*
X185992317Y-98150399D01*
X185673681Y-98363305D01*
X185673667Y-98363315D01*
X185377419Y-98606439D01*
X185106439Y-98877419D01*
X184863315Y-99173667D01*
X184863305Y-99173681D01*
X184650399Y-99492317D01*
X184650388Y-99492335D01*
X184469740Y-99830302D01*
X184469738Y-99830307D01*
X184323078Y-100184374D01*
X184211827Y-100551122D01*
X184211824Y-100551133D01*
X184137063Y-100926988D01*
X184112301Y-101178411D01*
X184099500Y-101308381D01*
X175714972Y-101308381D01*
X175686354Y-101268991D01*
X175543009Y-101125646D01*
X175543008Y-101125645D01*
X175543003Y-101125640D01*
X175379008Y-101006493D01*
X175379007Y-101006492D01*
X175379005Y-101006491D01*
X175198381Y-100914458D01*
X175005583Y-100851814D01*
X175005581Y-100851813D01*
X175005579Y-100851813D01*
X174865781Y-100829671D01*
X174805359Y-100820101D01*
X174602639Y-100820101D01*
X174556223Y-100827452D01*
X174402418Y-100851813D01*
X174209614Y-100914459D01*
X174028989Y-101006493D01*
X173864994Y-101125640D01*
X173721638Y-101268996D01*
X173602491Y-101432991D01*
X173510457Y-101613616D01*
X173447811Y-101806420D01*
X173416099Y-102006641D01*
X172991900Y-102006641D01*
X172991900Y-102006640D01*
X172960187Y-101806416D01*
X172897543Y-101613618D01*
X172805510Y-101432994D01*
X172797854Y-101422456D01*
X172686360Y-101268995D01*
X172543004Y-101125639D01*
X172379009Y-101006492D01*
X172379008Y-101006491D01*
X172379006Y-101006490D01*
X172198382Y-100914457D01*
X172005584Y-100851813D01*
X172005582Y-100851812D01*
X172005580Y-100851812D01*
X171865782Y-100829670D01*
X171805360Y-100820100D01*
X171602640Y-100820100D01*
X171556224Y-100827451D01*
X171402419Y-100851812D01*
X171402416Y-100851813D01*
X171291377Y-100887892D01*
X171209615Y-100914458D01*
X171028990Y-101006492D01*
X170864995Y-101125639D01*
X170721639Y-101268995D01*
X170602492Y-101432990D01*
X170510458Y-101613615D01*
X170447812Y-101806419D01*
X170416100Y-102006640D01*
X170416100Y-102209361D01*
X170419385Y-102230100D01*
X170410431Y-102299393D01*
X170365436Y-102352846D01*
X170298685Y-102373487D01*
X170296912Y-102373500D01*
X168450075Y-102373500D01*
X168383036Y-102353815D01*
X168337281Y-102301011D01*
X168326076Y-102249109D01*
X168326202Y-102209361D01*
X168336229Y-99030790D01*
X174860100Y-99030790D01*
X174860100Y-99185213D01*
X174890223Y-99336649D01*
X174890226Y-99336661D01*
X174949313Y-99479311D01*
X174949320Y-99479324D01*
X175035104Y-99607708D01*
X175035107Y-99607712D01*
X175144289Y-99716894D01*
X175144293Y-99716897D01*
X175272677Y-99802681D01*
X175272690Y-99802688D01*
X175415340Y-99861775D01*
X175415345Y-99861777D01*
X175566788Y-99891901D01*
X175566791Y-99891902D01*
X175566793Y-99891902D01*
X175721209Y-99891902D01*
X175721210Y-99891901D01*
X175872655Y-99861777D01*
X176015316Y-99802685D01*
X176143707Y-99716897D01*
X176252895Y-99607709D01*
X176338683Y-99479318D01*
X176397775Y-99336657D01*
X176427900Y-99185209D01*
X176427900Y-99030795D01*
X176427900Y-99030792D01*
X176427899Y-99030790D01*
X176397776Y-98879354D01*
X176397775Y-98879347D01*
X176395878Y-98874767D01*
X176338686Y-98736692D01*
X176338679Y-98736679D01*
X176252895Y-98608295D01*
X176252892Y-98608291D01*
X176143710Y-98499109D01*
X176143706Y-98499106D01*
X176015322Y-98413322D01*
X176015309Y-98413315D01*
X175872659Y-98354228D01*
X175872647Y-98354225D01*
X175721210Y-98324102D01*
X175721207Y-98324102D01*
X175566793Y-98324102D01*
X175566790Y-98324102D01*
X175415352Y-98354225D01*
X175415340Y-98354228D01*
X175272690Y-98413315D01*
X175272677Y-98413322D01*
X175144293Y-98499106D01*
X175144289Y-98499109D01*
X175035107Y-98608291D01*
X175035104Y-98608295D01*
X174949320Y-98736679D01*
X174949313Y-98736692D01*
X174890226Y-98879342D01*
X174890223Y-98879354D01*
X174860100Y-99030790D01*
X168336229Y-99030790D01*
X168359797Y-91559569D01*
X169924500Y-91559569D01*
X169924500Y-91840432D01*
X169955942Y-92119495D01*
X169955945Y-92119513D01*
X170018439Y-92393318D01*
X170018443Y-92393330D01*
X170111200Y-92658412D01*
X170233053Y-92911443D01*
X170233055Y-92911446D01*
X170382477Y-93149249D01*
X170557584Y-93368826D01*
X170756175Y-93567417D01*
X170975752Y-93742524D01*
X171213555Y-93891946D01*
X171466592Y-94013802D01*
X171665680Y-94083466D01*
X171731670Y-94106557D01*
X171731682Y-94106561D01*
X172005491Y-94169056D01*
X172005497Y-94169056D01*
X172005505Y-94169058D01*
X172191547Y-94190019D01*
X172284569Y-94200500D01*
X172284572Y-94200501D01*
X172284575Y-94200501D01*
X172565428Y-94200501D01*
X172565429Y-94200500D01*
X172708055Y-94184430D01*
X172844494Y-94169058D01*
X172844499Y-94169057D01*
X172844509Y-94169056D01*
X173118318Y-94106561D01*
X173383408Y-94013802D01*
X173636445Y-93891946D01*
X173874248Y-93742524D01*
X174093825Y-93567417D01*
X174292416Y-93368826D01*
X174467523Y-93149249D01*
X174616945Y-92911446D01*
X174738801Y-92658409D01*
X174783959Y-92529355D01*
X174824680Y-92472579D01*
X174889633Y-92446832D01*
X174958195Y-92460288D01*
X175008597Y-92508676D01*
X175025000Y-92570310D01*
X175025000Y-92904720D01*
X175035482Y-93037907D01*
X175035483Y-93037913D01*
X175090898Y-93257830D01*
X175090899Y-93257833D01*
X175184695Y-93464331D01*
X175184698Y-93464337D01*
X175313851Y-93650759D01*
X175313861Y-93650771D01*
X175474229Y-93811139D01*
X175474241Y-93811149D01*
X175660663Y-93940302D01*
X175660669Y-93940305D01*
X175867167Y-94034101D01*
X175867170Y-94034102D01*
X176087087Y-94089517D01*
X176087093Y-94089518D01*
X176220280Y-94100000D01*
X176220294Y-94100001D01*
X177175000Y-94100001D01*
X177175000Y-93027232D01*
X177318753Y-93050001D01*
X177531247Y-93050001D01*
X177675000Y-93027232D01*
X177675000Y-94100001D01*
X178629706Y-94100001D01*
X178629719Y-94100000D01*
X178762906Y-94089518D01*
X178762912Y-94089517D01*
X178982829Y-94034102D01*
X178982832Y-94034101D01*
X179189330Y-93940305D01*
X179189336Y-93940302D01*
X179375758Y-93811149D01*
X179375770Y-93811139D01*
X179536138Y-93650771D01*
X179536148Y-93650759D01*
X179665301Y-93464337D01*
X179665304Y-93464331D01*
X179759100Y-93257833D01*
X179759101Y-93257830D01*
X179814516Y-93037913D01*
X179814517Y-93037907D01*
X179824999Y-92904720D01*
X179825000Y-92904707D01*
X179825000Y-91950001D01*
X178752231Y-91950001D01*
X178775000Y-91806248D01*
X178775000Y-91593754D01*
X178752231Y-91450001D01*
X179825000Y-91450001D01*
X179825000Y-90495294D01*
X179824999Y-90495281D01*
X179814517Y-90362094D01*
X179814516Y-90362088D01*
X179759101Y-90142171D01*
X179759100Y-90142168D01*
X179665304Y-89935670D01*
X179665301Y-89935664D01*
X179536148Y-89749242D01*
X179536138Y-89749230D01*
X179375770Y-89588862D01*
X179375758Y-89588852D01*
X179189336Y-89459699D01*
X179189330Y-89459696D01*
X178982832Y-89365900D01*
X178982829Y-89365899D01*
X178762912Y-89310484D01*
X178762906Y-89310483D01*
X178629719Y-89300001D01*
X177675000Y-89300001D01*
X177675000Y-90372769D01*
X177531247Y-90350001D01*
X177318753Y-90350001D01*
X177175000Y-90372769D01*
X177175000Y-89300001D01*
X176220280Y-89300001D01*
X176087093Y-89310483D01*
X176087087Y-89310484D01*
X175867170Y-89365899D01*
X175867167Y-89365900D01*
X175660669Y-89459696D01*
X175660663Y-89459699D01*
X175474241Y-89588852D01*
X175474229Y-89588862D01*
X175313861Y-89749230D01*
X175313851Y-89749242D01*
X175184698Y-89935664D01*
X175184695Y-89935670D01*
X175090899Y-90142168D01*
X175090898Y-90142171D01*
X175035483Y-90362088D01*
X175035482Y-90362094D01*
X175025000Y-90495281D01*
X175025000Y-90829691D01*
X175005315Y-90896730D01*
X174952511Y-90942485D01*
X174883353Y-90952429D01*
X174819797Y-90923404D01*
X174783959Y-90870646D01*
X174765803Y-90818762D01*
X174738801Y-90741593D01*
X174616945Y-90488556D01*
X174467523Y-90250753D01*
X174292416Y-90031176D01*
X174093825Y-89832585D01*
X173874248Y-89657478D01*
X173636445Y-89508056D01*
X173636442Y-89508054D01*
X173383411Y-89386201D01*
X173118329Y-89293444D01*
X173118317Y-89293440D01*
X172844512Y-89230946D01*
X172844494Y-89230943D01*
X172565431Y-89199501D01*
X172565425Y-89199501D01*
X172284575Y-89199501D01*
X172284568Y-89199501D01*
X172005505Y-89230943D01*
X172005487Y-89230946D01*
X171731682Y-89293440D01*
X171731670Y-89293444D01*
X171466588Y-89386201D01*
X171213557Y-89508054D01*
X170975753Y-89657477D01*
X170756175Y-89832584D01*
X170557583Y-90031176D01*
X170382476Y-90250754D01*
X170233053Y-90488558D01*
X170111200Y-90741589D01*
X170018443Y-91006671D01*
X170018439Y-91006683D01*
X169955945Y-91280488D01*
X169955942Y-91280506D01*
X169924500Y-91559569D01*
X168359797Y-91559569D01*
X168361487Y-91023846D01*
X163325022Y-91045051D01*
X163257900Y-91025649D01*
X163211924Y-90973038D01*
X163200500Y-90921052D01*
X163200500Y-90434313D01*
X163200499Y-90434298D01*
X163200213Y-90430667D01*
X163197598Y-90397431D01*
X163180639Y-90339060D01*
X163151745Y-90239606D01*
X163151744Y-90239603D01*
X163151744Y-90239602D01*
X163068081Y-90098135D01*
X163068079Y-90098133D01*
X163068076Y-90098129D01*
X162986819Y-90016872D01*
X162953334Y-89955549D01*
X162950500Y-89929191D01*
X162950500Y-86393713D01*
X163949500Y-86393713D01*
X163949500Y-86606286D01*
X163982226Y-86812913D01*
X163982754Y-86816243D01*
X164037368Y-86984328D01*
X164048444Y-87018414D01*
X164144951Y-87207820D01*
X164269890Y-87379786D01*
X164420213Y-87530109D01*
X164592179Y-87655048D01*
X164592181Y-87655049D01*
X164592184Y-87655051D01*
X164781588Y-87751557D01*
X164983757Y-87817246D01*
X165193713Y-87850500D01*
X165193714Y-87850500D01*
X165406286Y-87850500D01*
X165406287Y-87850500D01*
X165616243Y-87817246D01*
X165818412Y-87751557D01*
X166007816Y-87655051D01*
X166039291Y-87632183D01*
X166179786Y-87530109D01*
X166179788Y-87530106D01*
X166179792Y-87530104D01*
X166330104Y-87379792D01*
X166330106Y-87379788D01*
X166330109Y-87379786D01*
X166455048Y-87207820D01*
X166455047Y-87207820D01*
X166455051Y-87207816D01*
X166551557Y-87018412D01*
X166617246Y-86816243D01*
X166650500Y-86606287D01*
X166650500Y-86393713D01*
X166617246Y-86183757D01*
X166551557Y-85981588D01*
X166455051Y-85792184D01*
X166455049Y-85792181D01*
X166455048Y-85792179D01*
X166330109Y-85620213D01*
X166179792Y-85469896D01*
X166126828Y-85431416D01*
X166126826Y-85431413D01*
X166007819Y-85344951D01*
X166007818Y-85344950D01*
X166007816Y-85344949D01*
X165987444Y-85334569D01*
X169749499Y-85334569D01*
X169749499Y-85615432D01*
X169780941Y-85894495D01*
X169780944Y-85894513D01*
X169843438Y-86168318D01*
X169843442Y-86168330D01*
X169936199Y-86433412D01*
X170058052Y-86686443D01*
X170058054Y-86686446D01*
X170207476Y-86924249D01*
X170382583Y-87143826D01*
X170581174Y-87342417D01*
X170800751Y-87517524D01*
X171038554Y-87666946D01*
X171291591Y-87788802D01*
X171444851Y-87842430D01*
X171556669Y-87881557D01*
X171556681Y-87881561D01*
X171830490Y-87944056D01*
X171830496Y-87944056D01*
X171830504Y-87944058D01*
X172016546Y-87965019D01*
X172109568Y-87975500D01*
X172109571Y-87975501D01*
X172109574Y-87975501D01*
X172390427Y-87975501D01*
X172390428Y-87975500D01*
X172533054Y-87959430D01*
X172669493Y-87944058D01*
X172669498Y-87944057D01*
X172669508Y-87944056D01*
X172943317Y-87881561D01*
X173208407Y-87788802D01*
X173461444Y-87666946D01*
X173699247Y-87517524D01*
X173918824Y-87342417D01*
X174117415Y-87143826D01*
X174292522Y-86924249D01*
X174441944Y-86686446D01*
X174563800Y-86433409D01*
X174608958Y-86304355D01*
X174649679Y-86247579D01*
X174714632Y-86221832D01*
X174783194Y-86235288D01*
X174833596Y-86283676D01*
X174849999Y-86345310D01*
X174849999Y-86679720D01*
X174860481Y-86812907D01*
X174860482Y-86812913D01*
X174915897Y-87032830D01*
X174915898Y-87032833D01*
X175009694Y-87239331D01*
X175009697Y-87239337D01*
X175138850Y-87425759D01*
X175138860Y-87425771D01*
X175299228Y-87586139D01*
X175299240Y-87586149D01*
X175485662Y-87715302D01*
X175485668Y-87715305D01*
X175692166Y-87809101D01*
X175692169Y-87809102D01*
X175912086Y-87864517D01*
X175912092Y-87864518D01*
X176045279Y-87875000D01*
X176045293Y-87875001D01*
X176999999Y-87875001D01*
X176999999Y-86802232D01*
X177143752Y-86825001D01*
X177356246Y-86825001D01*
X177499999Y-86802232D01*
X177499999Y-87875001D01*
X178454705Y-87875001D01*
X178454718Y-87875000D01*
X178587905Y-87864518D01*
X178587911Y-87864517D01*
X178807828Y-87809102D01*
X178807831Y-87809101D01*
X179014329Y-87715305D01*
X179014335Y-87715302D01*
X179200757Y-87586149D01*
X179200769Y-87586139D01*
X179361137Y-87425771D01*
X179361147Y-87425759D01*
X179490300Y-87239337D01*
X179490303Y-87239331D01*
X179584099Y-87032833D01*
X179584100Y-87032830D01*
X179639515Y-86812913D01*
X179639516Y-86812907D01*
X179649998Y-86679720D01*
X179649999Y-86679707D01*
X179649999Y-85725001D01*
X178577230Y-85725001D01*
X178599999Y-85581248D01*
X178599999Y-85368754D01*
X178577230Y-85225001D01*
X179649999Y-85225001D01*
X179649999Y-84270294D01*
X179649998Y-84270281D01*
X179639516Y-84137094D01*
X179639515Y-84137088D01*
X179584100Y-83917171D01*
X179584099Y-83917168D01*
X179490303Y-83710670D01*
X179490300Y-83710664D01*
X179361147Y-83524242D01*
X179361137Y-83524230D01*
X179200769Y-83363862D01*
X179200757Y-83363852D01*
X179014335Y-83234699D01*
X179014329Y-83234696D01*
X178807831Y-83140900D01*
X178807828Y-83140899D01*
X178587911Y-83085484D01*
X178587905Y-83085483D01*
X178454718Y-83075001D01*
X177499999Y-83075001D01*
X177499999Y-84147769D01*
X177356246Y-84125001D01*
X177143752Y-84125001D01*
X176999999Y-84147769D01*
X176999999Y-83075001D01*
X176045279Y-83075001D01*
X175912092Y-83085483D01*
X175912086Y-83085484D01*
X175692169Y-83140899D01*
X175692166Y-83140900D01*
X175485668Y-83234696D01*
X175485662Y-83234699D01*
X175299240Y-83363852D01*
X175299228Y-83363862D01*
X175138860Y-83524230D01*
X175138850Y-83524242D01*
X175009697Y-83710664D01*
X175009694Y-83710670D01*
X174915898Y-83917168D01*
X174915897Y-83917171D01*
X174860482Y-84137088D01*
X174860481Y-84137094D01*
X174849999Y-84270281D01*
X174849999Y-84604691D01*
X174830314Y-84671730D01*
X174777510Y-84717485D01*
X174708352Y-84727429D01*
X174644796Y-84698404D01*
X174608958Y-84645646D01*
X174590802Y-84593762D01*
X174563800Y-84516593D01*
X174441944Y-84263556D01*
X174292522Y-84025753D01*
X174117415Y-83806176D01*
X173918824Y-83607585D01*
X173699247Y-83432478D01*
X173461444Y-83283056D01*
X173461441Y-83283054D01*
X173208410Y-83161201D01*
X172943328Y-83068444D01*
X172943316Y-83068440D01*
X172669511Y-83005946D01*
X172669493Y-83005943D01*
X172390430Y-82974501D01*
X172390424Y-82974501D01*
X172109574Y-82974501D01*
X172109567Y-82974501D01*
X171830504Y-83005943D01*
X171830486Y-83005946D01*
X171556681Y-83068440D01*
X171556669Y-83068444D01*
X171291587Y-83161201D01*
X171038556Y-83283054D01*
X170800752Y-83432477D01*
X170581174Y-83607584D01*
X170382582Y-83806176D01*
X170207475Y-84025754D01*
X170058052Y-84263558D01*
X169936199Y-84516589D01*
X169843442Y-84781671D01*
X169843438Y-84781683D01*
X169780944Y-85055488D01*
X169780941Y-85055506D01*
X169749499Y-85334569D01*
X165987444Y-85334569D01*
X165818412Y-85248443D01*
X165616243Y-85182754D01*
X165616241Y-85182753D01*
X165616240Y-85182753D01*
X165454957Y-85157208D01*
X165406287Y-85149500D01*
X165193713Y-85149500D01*
X165145042Y-85157208D01*
X164983760Y-85182753D01*
X164781585Y-85248444D01*
X164592179Y-85344951D01*
X164420213Y-85469890D01*
X164269890Y-85620213D01*
X164144951Y-85792179D01*
X164048444Y-85981585D01*
X163982753Y-86183760D01*
X163949500Y-86393713D01*
X162950500Y-86393713D01*
X162950500Y-82815864D01*
X162921659Y-82670877D01*
X162921658Y-82670876D01*
X162921658Y-82670872D01*
X162865084Y-82534290D01*
X162798145Y-82434108D01*
X162793080Y-82426528D01*
X162782954Y-82411371D01*
X159614063Y-79242480D01*
X159580578Y-79181157D01*
X159579271Y-79174196D01*
X159556932Y-79033148D01*
X159509686Y-78887741D01*
X159491243Y-78830980D01*
X159491241Y-78830977D01*
X159491241Y-78830975D01*
X159425083Y-78701134D01*
X159394737Y-78641576D01*
X159394735Y-78641573D01*
X159394734Y-78641571D01*
X159269795Y-78469605D01*
X159119472Y-78319282D01*
X158947506Y-78194343D01*
X158758100Y-78097836D01*
X158758099Y-78097835D01*
X158758098Y-78097835D01*
X158555929Y-78032146D01*
X158555927Y-78032145D01*
X158555926Y-78032145D01*
X158394643Y-78006600D01*
X158345973Y-77998892D01*
X158133399Y-77998892D01*
X158084728Y-78006600D01*
X157923446Y-78032145D01*
X157721271Y-78097836D01*
X157531865Y-78194343D01*
X157359899Y-78319282D01*
X157209576Y-78469605D01*
X157084636Y-78641573D01*
X157080166Y-78650345D01*
X157032188Y-78701137D01*
X156964365Y-78717928D01*
X156898232Y-78695385D01*
X156859199Y-78650335D01*
X156854737Y-78641577D01*
X156854735Y-78641574D01*
X156854734Y-78641572D01*
X156729795Y-78469606D01*
X156579472Y-78319283D01*
X156407506Y-78194344D01*
X156218100Y-78097837D01*
X156218099Y-78097836D01*
X156218098Y-78097836D01*
X156015929Y-78032147D01*
X156015927Y-78032146D01*
X156015926Y-78032146D01*
X155846425Y-78005300D01*
X155805973Y-77998893D01*
X155593399Y-77998893D01*
X155552947Y-78005300D01*
X155383446Y-78032146D01*
X155181271Y-78097837D01*
X154991865Y-78194344D01*
X154819899Y-78319283D01*
X154669576Y-78469606D01*
X154544636Y-78641574D01*
X154540167Y-78650344D01*
X154492189Y-78701136D01*
X154424366Y-78717927D01*
X154358233Y-78695384D01*
X154319200Y-78650334D01*
X154314738Y-78641576D01*
X154314736Y-78641573D01*
X154314735Y-78641571D01*
X154189796Y-78469605D01*
X154039473Y-78319282D01*
X153867507Y-78194343D01*
X153678101Y-78097836D01*
X153678100Y-78097835D01*
X153678099Y-78097835D01*
X153475930Y-78032146D01*
X153475928Y-78032145D01*
X153475927Y-78032145D01*
X153314644Y-78006600D01*
X153265974Y-77998892D01*
X153053400Y-77998892D01*
X153004729Y-78006600D01*
X152843447Y-78032145D01*
X152641272Y-78097836D01*
X152451866Y-78194343D01*
X152279900Y-78319282D01*
X152129577Y-78469605D01*
X152004636Y-78641574D01*
X152000171Y-78650338D01*
X151952196Y-78701134D01*
X151884375Y-78717928D01*
X151818240Y-78695390D01*
X151779203Y-78650338D01*
X151774737Y-78641574D01*
X151649796Y-78469605D01*
X151499473Y-78319282D01*
X151327507Y-78194343D01*
X151138101Y-78097836D01*
X151138100Y-78097835D01*
X151138099Y-78097835D01*
X150935930Y-78032146D01*
X150935928Y-78032145D01*
X150935927Y-78032145D01*
X150774644Y-78006600D01*
X150725974Y-77998892D01*
X150513400Y-77998892D01*
X150464729Y-78006600D01*
X150303447Y-78032145D01*
X150101272Y-78097836D01*
X149911866Y-78194343D01*
X149739900Y-78319282D01*
X149589577Y-78469605D01*
X149464635Y-78641575D01*
X149460169Y-78650341D01*
X149412193Y-78701134D01*
X149344371Y-78717927D01*
X149278237Y-78695387D01*
X149239203Y-78650337D01*
X149234738Y-78641575D01*
X149109797Y-78469606D01*
X148959474Y-78319283D01*
X148787508Y-78194344D01*
X148598102Y-78097837D01*
X148598101Y-78097836D01*
X148598100Y-78097836D01*
X148395931Y-78032147D01*
X148395929Y-78032146D01*
X148395928Y-78032146D01*
X148226427Y-78005300D01*
X148185975Y-77998893D01*
X147973401Y-77998893D01*
X147932949Y-78005300D01*
X147763448Y-78032146D01*
X147561273Y-78097837D01*
X147371867Y-78194344D01*
X147199903Y-78319282D01*
X147086360Y-78432825D01*
X147025037Y-78466309D01*
X146955345Y-78461325D01*
X146899412Y-78419453D01*
X146882497Y-78388475D01*
X146833485Y-78257065D01*
X146833480Y-78257056D01*
X146747234Y-78141847D01*
X146747231Y-78141844D01*
X146632022Y-78055598D01*
X146632015Y-78055594D01*
X146497169Y-78005300D01*
X146497170Y-78005300D01*
X146437570Y-77998893D01*
X146437568Y-77998892D01*
X146437560Y-77998892D01*
X146437551Y-77998892D01*
X144641816Y-77998892D01*
X144641810Y-77998893D01*
X144582203Y-78005300D01*
X144447358Y-78055594D01*
X144447351Y-78055598D01*
X144332142Y-78141844D01*
X144332139Y-78141847D01*
X144245893Y-78257056D01*
X144245889Y-78257063D01*
X144195595Y-78391909D01*
X144189188Y-78451508D01*
X144189187Y-78451527D01*
X144189187Y-79587161D01*
X144169502Y-79654200D01*
X144152868Y-79674842D01*
X142649807Y-81177902D01*
X142649804Y-81177905D01*
X142609096Y-81238829D01*
X142609097Y-81238830D01*
X142567669Y-81300832D01*
X142511098Y-81437406D01*
X142511095Y-81437416D01*
X142482255Y-81582403D01*
X142482255Y-87174588D01*
X142462570Y-87241627D01*
X142409766Y-87287382D01*
X142340608Y-87297326D01*
X142277052Y-87268301D01*
X142239278Y-87209523D01*
X142238480Y-87206682D01*
X142205695Y-87084326D01*
X142107598Y-86847499D01*
X142094609Y-86825001D01*
X141979428Y-86625500D01*
X141823376Y-86422132D01*
X141823369Y-86422124D01*
X141642126Y-86240881D01*
X141642117Y-86240873D01*
X141438749Y-86084821D01*
X141216754Y-85956653D01*
X141216739Y-85956646D01*
X140979924Y-85858555D01*
X140732314Y-85792208D01*
X140478180Y-85758751D01*
X140478175Y-85758750D01*
X140478170Y-85758750D01*
X140221830Y-85758750D01*
X140221824Y-85758750D01*
X140221819Y-85758751D01*
X139967685Y-85792208D01*
X139720075Y-85858555D01*
X139483260Y-85956646D01*
X139483245Y-85956653D01*
X139261250Y-86084821D01*
X139057882Y-86240873D01*
X138876623Y-86422132D01*
X138720571Y-86625500D01*
X138592403Y-86847495D01*
X138592396Y-86847510D01*
X138494305Y-87084325D01*
X138427958Y-87331935D01*
X138394501Y-87586069D01*
X138394500Y-87586086D01*
X138394500Y-87842413D01*
X138394501Y-87842430D01*
X138407880Y-87944058D01*
X138427959Y-88096568D01*
X138437353Y-88131628D01*
X138494305Y-88344174D01*
X138592396Y-88580989D01*
X138592403Y-88581004D01*
X138720571Y-88802999D01*
X138876623Y-89006367D01*
X138876631Y-89006376D01*
X139057874Y-89187619D01*
X139057882Y-89187626D01*
X139057883Y-89187627D01*
X139097374Y-89217930D01*
X139261250Y-89343678D01*
X139483245Y-89471846D01*
X139483260Y-89471853D01*
X139570658Y-89508054D01*
X139720076Y-89569945D01*
X139967682Y-89636291D01*
X140221830Y-89669750D01*
X140221837Y-89669750D01*
X140478163Y-89669750D01*
X140478170Y-89669750D01*
X140732318Y-89636291D01*
X140979924Y-89569945D01*
X141216751Y-89471848D01*
X141438749Y-89343678D01*
X141642117Y-89187627D01*
X141642121Y-89187622D01*
X141642126Y-89187619D01*
X141823369Y-89006376D01*
X141823372Y-89006371D01*
X141823377Y-89006367D01*
X141979428Y-88802999D01*
X142107598Y-88581001D01*
X142205695Y-88344174D01*
X142238480Y-88221817D01*
X142274845Y-88162157D01*
X142337692Y-88131628D01*
X142407068Y-88139923D01*
X142460945Y-88184408D01*
X142482220Y-88250960D01*
X142482255Y-88253911D01*
X142482255Y-91009330D01*
X142462570Y-91076369D01*
X142409766Y-91122124D01*
X142358777Y-91133329D01*
X139147105Y-91146853D01*
X139079983Y-91127451D01*
X139058902Y-91110535D01*
X139021163Y-91072796D01*
X139021161Y-91072794D01*
X138860646Y-90956173D01*
X138796333Y-90923404D01*
X138683868Y-90866100D01*
X138636853Y-90850824D01*
X138495168Y-90804787D01*
X138495162Y-90804786D01*
X138299209Y-90773750D01*
X138299204Y-90773750D01*
X138100796Y-90773750D01*
X138100791Y-90773750D01*
X137904837Y-90804786D01*
X137904835Y-90804786D01*
X137904832Y-90804787D01*
X137825832Y-90830456D01*
X137716131Y-90866100D01*
X137539352Y-90956174D01*
X137539343Y-90956180D01*
X137378842Y-91072790D01*
X137378835Y-91072796D01*
X137333089Y-91118541D01*
X137271766Y-91152025D01*
X137245932Y-91154857D01*
X136159683Y-91159431D01*
X136092561Y-91140029D01*
X136071480Y-91123113D01*
X136021163Y-91072796D01*
X136021161Y-91072794D01*
X135860646Y-90956173D01*
X135796333Y-90923404D01*
X135683868Y-90866100D01*
X135636853Y-90850824D01*
X135495168Y-90804787D01*
X135495162Y-90804786D01*
X135299209Y-90773750D01*
X135299204Y-90773750D01*
X135100796Y-90773750D01*
X135100791Y-90773750D01*
X134904837Y-90804786D01*
X134904835Y-90804786D01*
X134904832Y-90804787D01*
X134825832Y-90830456D01*
X134716131Y-90866100D01*
X134539352Y-90956174D01*
X134539343Y-90956180D01*
X134378842Y-91072790D01*
X134320405Y-91131226D01*
X134259081Y-91164710D01*
X134233247Y-91167542D01*
X133172262Y-91172010D01*
X133105140Y-91152608D01*
X133084059Y-91135692D01*
X133021163Y-91072796D01*
X133021161Y-91072794D01*
X132860646Y-90956173D01*
X132796333Y-90923404D01*
X132683868Y-90866100D01*
X132636853Y-90850824D01*
X132495168Y-90804787D01*
X132495162Y-90804786D01*
X132299209Y-90773750D01*
X132299204Y-90773750D01*
X132100796Y-90773750D01*
X132100791Y-90773750D01*
X131904837Y-90804786D01*
X131904835Y-90804786D01*
X131904832Y-90804787D01*
X131825832Y-90830456D01*
X131716131Y-90866100D01*
X131539352Y-90956174D01*
X131539349Y-90956176D01*
X131469849Y-91006671D01*
X131378839Y-91072794D01*
X131378837Y-91072796D01*
X131378836Y-91072796D01*
X131238546Y-91213086D01*
X131238546Y-91213087D01*
X131238544Y-91213089D01*
X131215567Y-91244714D01*
X131121926Y-91373599D01*
X131121924Y-91373602D01*
X131031850Y-91550381D01*
X131011393Y-91613341D01*
X130970537Y-91739082D01*
X130970536Y-91739085D01*
X130970536Y-91739087D01*
X130939500Y-91935040D01*
X130939500Y-92133459D01*
X130952903Y-92218081D01*
X130970537Y-92329418D01*
X130991304Y-92393330D01*
X131031850Y-92518118D01*
X131074134Y-92601104D01*
X131121923Y-92694896D01*
X131238544Y-92855411D01*
X131378839Y-92995706D01*
X131539354Y-93112327D01*
X131652800Y-93170130D01*
X131716131Y-93202399D01*
X131716133Y-93202399D01*
X131716136Y-93202401D01*
X131904832Y-93263713D01*
X131904838Y-93263714D01*
X131904836Y-93263714D01*
X132069194Y-93289745D01*
X132132329Y-93319674D01*
X132169261Y-93378985D01*
X132173779Y-93414349D01*
X131598055Y-126912368D01*
X131577221Y-126979059D01*
X131523639Y-127023900D01*
X131454319Y-127032653D01*
X131391272Y-127002541D01*
X131386392Y-126997918D01*
X130942648Y-126554174D01*
X130942646Y-126554172D01*
X130783405Y-126438476D01*
X130608030Y-126349117D01*
X130420826Y-126288290D01*
X130226422Y-126257500D01*
X130226417Y-126257500D01*
X128087705Y-126257500D01*
X128020666Y-126237815D01*
X127974911Y-126185011D01*
X127964967Y-126115853D01*
X127993992Y-126052297D01*
X128025705Y-126026113D01*
X128389208Y-125816243D01*
X128510091Y-125746451D01*
X128558512Y-125711096D01*
X128650146Y-125600116D01*
X128684176Y-125520644D01*
X128706798Y-125467819D01*
X128706798Y-125467816D01*
X128706800Y-125467813D01*
X128723888Y-125324909D01*
X128700020Y-125182980D01*
X128675766Y-125128152D01*
X128675764Y-125128148D01*
X128675762Y-125128144D01*
X127627892Y-123313184D01*
X127627890Y-123313180D01*
X127608173Y-123286178D01*
X127592537Y-123264763D01*
X127481557Y-123173129D01*
X127481555Y-123173128D01*
X127349260Y-123116476D01*
X127349255Y-123116475D01*
X127206349Y-123099386D01*
X127206348Y-123099387D01*
X127064422Y-123123254D01*
X127009585Y-123147512D01*
X126147253Y-123645382D01*
X126147249Y-123645384D01*
X126098833Y-123680737D01*
X126098829Y-123680741D01*
X126007198Y-123791717D01*
X126007197Y-123791719D01*
X125950545Y-123924014D01*
X125950544Y-123924019D01*
X125933455Y-124066925D01*
X125933456Y-124066926D01*
X125957323Y-124208852D01*
X125981581Y-124263689D01*
X127025323Y-126071500D01*
X127041796Y-126139400D01*
X127018943Y-126205427D01*
X126964022Y-126248618D01*
X126917936Y-126257500D01*
X124318703Y-126257500D01*
X124251664Y-126237815D01*
X124211316Y-126195500D01*
X124171808Y-126127071D01*
X122592380Y-123391421D01*
X122592378Y-123391417D01*
X122557025Y-123343000D01*
X122557019Y-123342994D01*
X122446044Y-123251366D01*
X122446042Y-123251364D01*
X122313747Y-123194713D01*
X122313744Y-123194712D01*
X122170838Y-123177624D01*
X122170836Y-123177625D01*
X122028912Y-123201490D01*
X122028903Y-123201493D01*
X121974080Y-123225746D01*
X121974073Y-123225750D01*
X117041421Y-126073619D01*
X117041417Y-126073621D01*
X116993000Y-126108974D01*
X116992994Y-126108980D01*
X116901366Y-126219955D01*
X116901364Y-126219957D01*
X116844713Y-126352252D01*
X116844712Y-126352255D01*
X116827624Y-126495161D01*
X116827625Y-126495163D01*
X116851490Y-126637087D01*
X116851493Y-126637096D01*
X116875746Y-126691919D01*
X116875750Y-126691926D01*
X119723619Y-131624578D01*
X119723621Y-131624582D01*
X119758974Y-131672999D01*
X119758980Y-131673005D01*
X119869955Y-131764633D01*
X119869957Y-131764635D01*
X120002252Y-131821286D01*
X120002255Y-131821287D01*
X120002258Y-131821288D01*
X120122703Y-131835689D01*
X120145161Y-131838375D01*
X120145161Y-131838374D01*
X120145162Y-131838375D01*
X120247007Y-131821248D01*
X120287087Y-131814509D01*
X120287088Y-131814508D01*
X120287091Y-131814508D01*
X120341920Y-131790253D01*
X125274579Y-128942380D01*
X125323000Y-128907025D01*
X125408436Y-128803551D01*
X125466298Y-128764388D01*
X125504055Y-128758500D01*
X126728297Y-128758500D01*
X126795336Y-128778185D01*
X126841091Y-128830989D01*
X126851035Y-128900147D01*
X126822010Y-128963703D01*
X126790297Y-128989887D01*
X125376896Y-129805914D01*
X125256650Y-129887139D01*
X125075617Y-130054143D01*
X124923719Y-130248027D01*
X124804890Y-130463765D01*
X124804887Y-130463770D01*
X124777108Y-130541717D01*
X124729958Y-130674019D01*
X124722202Y-130695781D01*
X124677805Y-130938042D01*
X124677805Y-130938047D01*
X124672845Y-131184302D01*
X124707450Y-131428154D01*
X124707453Y-131428168D01*
X124780723Y-131663298D01*
X124780727Y-131663310D01*
X124785448Y-131673005D01*
X124844247Y-131793766D01*
X124844251Y-131793773D01*
X124844255Y-131793781D01*
X125939537Y-133690864D01*
X125939542Y-133690871D01*
X126020761Y-133811110D01*
X126101149Y-133898250D01*
X126187766Y-133992143D01*
X126381650Y-134144041D01*
X126381654Y-134144044D01*
X126597394Y-134262874D01*
X126829403Y-134345559D01*
X127071671Y-134389956D01*
X127317922Y-134394916D01*
X127561782Y-134360310D01*
X127796932Y-134287034D01*
X127927389Y-134223514D01*
X129824494Y-133128219D01*
X129944733Y-133047000D01*
X130125767Y-132879993D01*
X130277667Y-132686107D01*
X130396497Y-132470367D01*
X130479182Y-132238358D01*
X130523579Y-131996090D01*
X130528539Y-131749839D01*
X130493933Y-131505979D01*
X130420657Y-131270829D01*
X130357137Y-131140372D01*
X130357128Y-131140356D01*
X129261846Y-129243273D01*
X129259366Y-129239602D01*
X129180623Y-129123028D01*
X129036295Y-128966578D01*
X129005308Y-128903957D01*
X129013095Y-128834523D01*
X129057184Y-128780321D01*
X129123579Y-128758560D01*
X129127437Y-128758500D01*
X129558664Y-128758500D01*
X129625703Y-128778185D01*
X129646345Y-128794819D01*
X131496066Y-130644540D01*
X131529551Y-130705863D01*
X131532367Y-130734352D01*
X131277453Y-145566301D01*
X131256619Y-145632992D01*
X131203037Y-145677833D01*
X131133717Y-145686586D01*
X131103573Y-145677687D01*
X130039225Y-145209840D01*
X130036004Y-145208369D01*
X128799188Y-144622015D01*
X128796010Y-144620453D01*
X127576400Y-143998998D01*
X127573268Y-143997345D01*
X126371930Y-143341331D01*
X126368846Y-143339589D01*
X125186749Y-142649547D01*
X125183717Y-142647719D01*
X124021782Y-141924186D01*
X124018803Y-141922271D01*
X122877999Y-141165851D01*
X122875075Y-141163852D01*
X121756344Y-140375166D01*
X121753479Y-140373084D01*
X120657744Y-139552788D01*
X120654940Y-139550626D01*
X120034967Y-139058256D01*
X119583046Y-138699349D01*
X119580317Y-138697118D01*
X118533179Y-137815587D01*
X118530503Y-137813268D01*
X118405410Y-137701702D01*
X117525291Y-136916755D01*
X117508962Y-136902191D01*
X117506357Y-136899800D01*
X116596453Y-136040398D01*
X116511257Y-135959930D01*
X116508720Y-135957464D01*
X116433829Y-135882569D01*
X115540799Y-134989495D01*
X115538467Y-134987095D01*
X115478747Y-134923859D01*
X118815309Y-134923859D01*
X118815309Y-135210278D01*
X118847375Y-135494870D01*
X118847377Y-135494886D01*
X118911108Y-135774111D01*
X118911112Y-135774123D01*
X119005705Y-136044452D01*
X119129971Y-136302493D01*
X119282351Y-136545004D01*
X119460924Y-136768929D01*
X119663448Y-136971453D01*
X119887373Y-137150026D01*
X120129884Y-137302406D01*
X120387921Y-137426670D01*
X120387935Y-137426676D01*
X120466835Y-137454285D01*
X120780367Y-136284166D01*
X120847089Y-136318163D01*
X121049183Y-136383827D01*
X121259062Y-136417069D01*
X121262397Y-136417069D01*
X120949100Y-137586308D01*
X121222099Y-137617068D01*
X121222100Y-137617069D01*
X121508517Y-137617069D01*
X121508518Y-137617068D01*
X121793110Y-137585002D01*
X121793126Y-137585000D01*
X122072351Y-137521269D01*
X122072363Y-137521265D01*
X122342692Y-137426672D01*
X122600733Y-137302406D01*
X122843244Y-137150026D01*
X123067169Y-136971453D01*
X123269693Y-136768929D01*
X123448266Y-136545004D01*
X123600646Y-136302493D01*
X123724912Y-136044452D01*
X123752525Y-135965540D01*
X122582407Y-135652008D01*
X122616403Y-135585289D01*
X122682067Y-135383195D01*
X122715309Y-135173316D01*
X122715309Y-135169979D01*
X123884548Y-135483276D01*
X123915308Y-135210278D01*
X123915309Y-135210278D01*
X123915309Y-134923861D01*
X123915308Y-134923859D01*
X123883242Y-134639267D01*
X123883240Y-134639251D01*
X123819509Y-134360026D01*
X123819505Y-134360014D01*
X123724912Y-134089685D01*
X123600646Y-133831644D01*
X123448266Y-133589133D01*
X123269693Y-133365208D01*
X123067169Y-133162684D01*
X122843244Y-132984111D01*
X122600733Y-132831731D01*
X122342696Y-132707467D01*
X122342687Y-132707463D01*
X122263781Y-132679852D01*
X121950248Y-133849970D01*
X121883529Y-133815975D01*
X121681435Y-133750311D01*
X121471556Y-133717069D01*
X121468219Y-133717069D01*
X121781516Y-132547828D01*
X121508518Y-132517069D01*
X121222099Y-132517069D01*
X120937507Y-132549135D01*
X120937491Y-132549137D01*
X120658266Y-132612868D01*
X120658254Y-132612872D01*
X120387925Y-132707465D01*
X120129884Y-132831731D01*
X119887373Y-132984111D01*
X119663448Y-133162684D01*
X119460924Y-133365208D01*
X119282351Y-133589133D01*
X119129969Y-133831647D01*
X119005707Y-134089682D01*
X119005699Y-134089702D01*
X118978092Y-134168595D01*
X120148211Y-134482127D01*
X120114215Y-134548849D01*
X120048551Y-134750943D01*
X120015309Y-134960822D01*
X120015309Y-134964157D01*
X118846068Y-134650860D01*
X118815309Y-134923859D01*
X115478747Y-134923859D01*
X114817338Y-134223514D01*
X114598597Y-133991896D01*
X114596202Y-133989287D01*
X113895445Y-133203488D01*
X113685170Y-132967694D01*
X113682861Y-132965030D01*
X113608820Y-132877071D01*
X113056702Y-132221164D01*
X112801381Y-131917847D01*
X112799139Y-131915105D01*
X112287520Y-131270829D01*
X111947925Y-130843181D01*
X111945765Y-130840379D01*
X111928209Y-130816925D01*
X114242112Y-130816925D01*
X114242113Y-130816926D01*
X114265980Y-130958852D01*
X114290238Y-131013689D01*
X115338108Y-132828649D01*
X115338110Y-132828653D01*
X115357468Y-132855164D01*
X115373464Y-132877071D01*
X115484444Y-132968705D01*
X115520421Y-132984111D01*
X115616740Y-133025357D01*
X115616744Y-133025357D01*
X115616747Y-133025359D01*
X115759651Y-133042447D01*
X115901580Y-133018579D01*
X115956408Y-132994325D01*
X116818748Y-132496451D01*
X116867169Y-132461096D01*
X116958803Y-132350116D01*
X116992833Y-132270644D01*
X117015455Y-132217819D01*
X117015455Y-132217816D01*
X117015457Y-132217813D01*
X117032545Y-132074909D01*
X117008677Y-131932980D01*
X116984423Y-131878152D01*
X116984421Y-131878148D01*
X116984419Y-131878144D01*
X115936549Y-130063184D01*
X115936547Y-130063180D01*
X115903664Y-130018146D01*
X115901194Y-130014763D01*
X115790214Y-129923129D01*
X115790212Y-129923128D01*
X115657917Y-129866476D01*
X115657912Y-129866475D01*
X115515006Y-129849386D01*
X115515005Y-129849387D01*
X115373079Y-129873254D01*
X115318242Y-129897512D01*
X114455910Y-130395382D01*
X114455906Y-130395384D01*
X114407490Y-130430737D01*
X114407486Y-130430741D01*
X114315855Y-130541717D01*
X114315854Y-130541719D01*
X114259202Y-130674014D01*
X114259201Y-130674019D01*
X114242112Y-130816925D01*
X111928209Y-130816925D01*
X111125507Y-129744583D01*
X111123440Y-129741738D01*
X111106383Y-129717541D01*
X110444224Y-128778185D01*
X110334783Y-128622929D01*
X110332785Y-128620005D01*
X109821613Y-127848994D01*
X109576440Y-127479194D01*
X109574558Y-127476267D01*
X108851043Y-126314229D01*
X108849273Y-126311296D01*
X108159213Y-125129036D01*
X108157503Y-125126006D01*
X108078650Y-124981588D01*
X107501521Y-123924586D01*
X107499881Y-123921476D01*
X107490861Y-123903773D01*
X106878511Y-122701884D01*
X106876952Y-122698714D01*
X106550723Y-122010500D01*
X106290635Y-121461818D01*
X106289169Y-121458606D01*
X106262507Y-121397941D01*
X105738408Y-120205460D01*
X105737066Y-120202285D01*
X105222309Y-118933909D01*
X105221055Y-118930686D01*
X104742722Y-117648110D01*
X104741558Y-117644849D01*
X104345191Y-116481628D01*
X111951570Y-116481628D01*
X111987047Y-116653442D01*
X112029347Y-116747712D01*
X112029352Y-116747721D01*
X112704350Y-117916848D01*
X112704361Y-117916866D01*
X112764842Y-118000625D01*
X112764849Y-118000632D01*
X112895901Y-118117258D01*
X112895905Y-118117260D01*
X113050328Y-118200526D01*
X113219792Y-118245934D01*
X113271356Y-118247433D01*
X113298889Y-118256395D01*
X113327177Y-118262549D01*
X113334394Y-118267951D01*
X113337793Y-118269058D01*
X113355431Y-118283700D01*
X113485240Y-118413509D01*
X113518725Y-118474832D01*
X113521559Y-118501190D01*
X113521559Y-118688416D01*
X113506704Y-118747266D01*
X113460873Y-118832264D01*
X113416976Y-118996085D01*
X113412043Y-119165615D01*
X113446339Y-119331708D01*
X113446339Y-119331709D01*
X113487220Y-119422814D01*
X113487232Y-119422839D01*
X113504946Y-119453519D01*
X113521559Y-119515519D01*
X113521559Y-121408779D01*
X113536056Y-121481658D01*
X113540783Y-121505423D01*
X113560008Y-121602071D01*
X113581424Y-121653773D01*
X113584310Y-121660742D01*
X113584311Y-121660743D01*
X113635428Y-121784152D01*
X113744919Y-121948016D01*
X113744922Y-121948020D01*
X113888596Y-122091694D01*
X113888618Y-122091714D01*
X114524095Y-122727191D01*
X114543801Y-122752872D01*
X115180318Y-123855351D01*
X115180320Y-123855355D01*
X115215673Y-123903772D01*
X115215679Y-123903778D01*
X115326652Y-123995405D01*
X115326653Y-123995405D01*
X115326655Y-123995407D01*
X115458957Y-124052061D01*
X115601861Y-124069149D01*
X115743790Y-124045281D01*
X115798619Y-124021027D01*
X116920766Y-123373153D01*
X116969187Y-123337798D01*
X117060821Y-123226818D01*
X117117475Y-123094515D01*
X117134562Y-122951611D01*
X117110695Y-122809682D01*
X117086440Y-122754854D01*
X116038567Y-120939886D01*
X116038565Y-120939882D01*
X116003212Y-120891465D01*
X116003206Y-120891459D01*
X115892233Y-120799832D01*
X115892231Y-120799831D01*
X115759929Y-120743177D01*
X115759926Y-120743176D01*
X115759927Y-120743176D01*
X115631836Y-120727860D01*
X115567608Y-120700355D01*
X115528446Y-120642492D01*
X115522559Y-120604737D01*
X115522559Y-119940004D01*
X115537413Y-119881155D01*
X115583246Y-119796153D01*
X115627142Y-119632334D01*
X115632075Y-119462808D01*
X115597779Y-119296715D01*
X115579058Y-119254995D01*
X115556892Y-119205596D01*
X115556883Y-119205577D01*
X115539172Y-119174901D01*
X115522559Y-119112901D01*
X115522559Y-117936864D01*
X115522558Y-117936862D01*
X115505502Y-117851116D01*
X115487196Y-117759085D01*
X115484110Y-117743572D01*
X115437723Y-117631584D01*
X115408691Y-117561494D01*
X115408689Y-117561491D01*
X115408687Y-117561487D01*
X115378036Y-117515615D01*
X116269927Y-117515615D01*
X116304223Y-117681708D01*
X116304223Y-117681709D01*
X116345109Y-117772825D01*
X116345118Y-117772843D01*
X116390309Y-117851116D01*
X116404539Y-117888923D01*
X116417890Y-117956043D01*
X116417891Y-117956045D01*
X116493310Y-118138121D01*
X116493315Y-118138131D01*
X116602802Y-118301990D01*
X116602803Y-118301991D01*
X116602804Y-118301992D01*
X116704407Y-118403595D01*
X116724110Y-118429273D01*
X116768456Y-118506084D01*
X116768457Y-118506085D01*
X116794408Y-118542023D01*
X116826931Y-118587064D01*
X116953624Y-118699811D01*
X117039630Y-118746185D01*
X117068460Y-118767648D01*
X117970995Y-119670183D01*
X118002693Y-119728234D01*
X118003072Y-119728121D01*
X118003609Y-119729911D01*
X118004480Y-119731506D01*
X118005183Y-119735155D01*
X118005301Y-119735548D01*
X118005303Y-119735554D01*
X118005304Y-119735556D01*
X118015293Y-119758135D01*
X118029561Y-119790388D01*
X119077431Y-121605351D01*
X119077433Y-121605355D01*
X119112786Y-121653772D01*
X119112792Y-121653778D01*
X119223765Y-121745405D01*
X119223766Y-121745405D01*
X119223768Y-121745407D01*
X119356070Y-121802061D01*
X119498974Y-121819149D01*
X119640903Y-121795281D01*
X119695732Y-121771027D01*
X120817879Y-121123153D01*
X120817884Y-121123149D01*
X120817891Y-121123145D01*
X120872566Y-121083224D01*
X120873072Y-121083918D01*
X120902184Y-121065085D01*
X120976626Y-121034251D01*
X121140494Y-120924758D01*
X121279851Y-120785401D01*
X121279852Y-120785398D01*
X121286918Y-120778333D01*
X121286920Y-120778329D01*
X121635040Y-120430211D01*
X121696363Y-120396726D01*
X121722721Y-120393892D01*
X122738708Y-120393892D01*
X122971979Y-120356945D01*
X123196603Y-120283960D01*
X123407045Y-120176735D01*
X123598121Y-120037909D01*
X127619410Y-116016619D01*
X127680731Y-115983136D01*
X127720973Y-115981082D01*
X127875571Y-115998501D01*
X127875572Y-115998502D01*
X127875576Y-115998502D01*
X128156429Y-115998502D01*
X128156430Y-115998501D01*
X128311034Y-115981082D01*
X128435495Y-115967059D01*
X128435500Y-115967058D01*
X128435510Y-115967057D01*
X128709319Y-115904562D01*
X128974409Y-115811803D01*
X129227446Y-115689947D01*
X129465249Y-115540525D01*
X129684826Y-115365418D01*
X129883417Y-115166827D01*
X130058524Y-114947250D01*
X130207946Y-114709447D01*
X130329802Y-114456410D01*
X130422561Y-114191320D01*
X130485056Y-113917511D01*
X130486567Y-113904106D01*
X130516500Y-113638433D01*
X130516501Y-113638431D01*
X130516501Y-113638427D01*
X130516501Y-113357577D01*
X130485056Y-113078493D01*
X130422561Y-112804684D01*
X130329802Y-112539594D01*
X130207946Y-112286557D01*
X130058524Y-112048754D01*
X129883417Y-111829177D01*
X129684826Y-111630586D01*
X129465249Y-111455479D01*
X129227446Y-111306057D01*
X129227443Y-111306055D01*
X128974412Y-111184202D01*
X128845356Y-111139043D01*
X128788580Y-111098321D01*
X128762833Y-111033369D01*
X128776289Y-110964807D01*
X128824677Y-110914404D01*
X128886311Y-110898002D01*
X129220707Y-110898002D01*
X129220720Y-110898001D01*
X129353907Y-110887519D01*
X129353913Y-110887518D01*
X129573830Y-110832103D01*
X129573833Y-110832102D01*
X129780331Y-110738306D01*
X129780337Y-110738303D01*
X129966759Y-110609150D01*
X129966771Y-110609140D01*
X130127139Y-110448772D01*
X130127149Y-110448760D01*
X130256302Y-110262338D01*
X130256305Y-110262332D01*
X130350101Y-110055834D01*
X130350102Y-110055831D01*
X130405517Y-109835914D01*
X130405518Y-109835908D01*
X130416000Y-109702721D01*
X130416001Y-109702708D01*
X130416001Y-108748002D01*
X129343232Y-108748002D01*
X129366001Y-108604249D01*
X129366001Y-108391755D01*
X129343232Y-108248002D01*
X130416001Y-108248002D01*
X130416001Y-107293295D01*
X130416000Y-107293282D01*
X130405518Y-107160095D01*
X130405517Y-107160089D01*
X130350102Y-106940172D01*
X130350101Y-106940169D01*
X130256305Y-106733671D01*
X130256302Y-106733665D01*
X130127149Y-106547243D01*
X130127139Y-106547231D01*
X129966771Y-106386863D01*
X129966759Y-106386853D01*
X129780337Y-106257700D01*
X129780331Y-106257697D01*
X129573833Y-106163901D01*
X129573830Y-106163900D01*
X129353913Y-106108485D01*
X129353907Y-106108484D01*
X129220720Y-106098002D01*
X128266001Y-106098002D01*
X128266001Y-107170770D01*
X128122248Y-107148002D01*
X127909754Y-107148002D01*
X127766001Y-107170770D01*
X127766001Y-106098002D01*
X126811281Y-106098002D01*
X126678094Y-106108484D01*
X126678088Y-106108485D01*
X126458171Y-106163900D01*
X126458168Y-106163901D01*
X126251670Y-106257697D01*
X126251664Y-106257700D01*
X126065242Y-106386853D01*
X126065230Y-106386863D01*
X125904862Y-106547231D01*
X125904852Y-106547243D01*
X125775699Y-106733665D01*
X125775696Y-106733671D01*
X125681900Y-106940169D01*
X125681899Y-106940172D01*
X125626484Y-107160089D01*
X125626483Y-107160095D01*
X125616001Y-107293282D01*
X125616001Y-108248002D01*
X126688770Y-108248002D01*
X126666001Y-108391755D01*
X126666001Y-108604249D01*
X126688770Y-108748002D01*
X125616001Y-108748002D01*
X125616001Y-109702721D01*
X125626483Y-109835908D01*
X125626484Y-109835914D01*
X125681899Y-110055831D01*
X125681900Y-110055834D01*
X125775696Y-110262332D01*
X125775699Y-110262338D01*
X125904852Y-110448760D01*
X125904862Y-110448772D01*
X126065230Y-110609140D01*
X126065242Y-110609150D01*
X126251664Y-110738303D01*
X126251670Y-110738306D01*
X126458168Y-110832102D01*
X126458171Y-110832103D01*
X126678088Y-110887518D01*
X126678094Y-110887519D01*
X126811281Y-110898001D01*
X126811295Y-110898002D01*
X127145691Y-110898002D01*
X127212730Y-110917687D01*
X127258485Y-110970491D01*
X127268429Y-111039649D01*
X127239404Y-111103205D01*
X127186646Y-111139043D01*
X127057589Y-111184202D01*
X126804558Y-111306055D01*
X126566754Y-111455478D01*
X126347176Y-111630585D01*
X126148584Y-111829177D01*
X125973477Y-112048755D01*
X125824054Y-112286559D01*
X125702201Y-112539590D01*
X125609444Y-112804672D01*
X125609440Y-112804684D01*
X125546946Y-113078489D01*
X125546943Y-113078507D01*
X125515501Y-113357570D01*
X125515501Y-113638431D01*
X125532920Y-113793027D01*
X125520866Y-113861849D01*
X125497381Y-113894592D01*
X122035403Y-117356573D01*
X121974080Y-117390058D01*
X121947722Y-117392892D01*
X121638842Y-117392892D01*
X121405570Y-117429838D01*
X121180942Y-117502825D01*
X120970505Y-117610049D01*
X120871876Y-117681708D01*
X120779429Y-117748875D01*
X120779427Y-117748877D01*
X120779426Y-117748877D01*
X120612424Y-117915879D01*
X120612424Y-117915880D01*
X120612422Y-117915882D01*
X120552801Y-117997942D01*
X120473596Y-118106958D01*
X120366372Y-118317395D01*
X120293385Y-118542023D01*
X120256439Y-118775294D01*
X120256439Y-118782682D01*
X120236754Y-118849721D01*
X120183950Y-118895476D01*
X120114792Y-118905420D01*
X120051236Y-118876395D01*
X120025052Y-118844682D01*
X119935680Y-118689886D01*
X119935678Y-118689882D01*
X119900325Y-118641465D01*
X119900319Y-118641459D01*
X119789346Y-118549832D01*
X119789344Y-118549831D01*
X119657042Y-118493177D01*
X119657039Y-118493176D01*
X119657038Y-118493176D01*
X119648473Y-118490881D01*
X119649165Y-118488297D01*
X119597689Y-118466246D01*
X119588971Y-118458319D01*
X118385773Y-117255121D01*
X119194503Y-117255121D01*
X119194503Y-117255122D01*
X119256991Y-117363354D01*
X119317437Y-117447063D01*
X119317440Y-117447067D01*
X119448411Y-117563621D01*
X119602737Y-117646833D01*
X119772083Y-117692209D01*
X119947336Y-117697308D01*
X120119035Y-117661854D01*
X120213229Y-117619588D01*
X120213244Y-117619580D01*
X120602931Y-117394593D01*
X120602931Y-117394592D01*
X120190432Y-116680122D01*
X120190431Y-116680122D01*
X119194503Y-117255121D01*
X118385773Y-117255121D01*
X118055480Y-116924828D01*
X118035774Y-116899147D01*
X117991427Y-116822335D01*
X117932955Y-116741358D01*
X117932951Y-116741355D01*
X117932950Y-116741353D01*
X117806264Y-116628613D01*
X117806262Y-116628611D01*
X117680362Y-116560726D01*
X117680361Y-116560725D01*
X117656983Y-116548120D01*
X117656984Y-116548120D01*
X117493165Y-116504225D01*
X117408399Y-116501758D01*
X117323637Y-116499292D01*
X117323636Y-116499292D01*
X117323634Y-116499292D01*
X117157542Y-116533587D01*
X117066433Y-116574470D01*
X117066413Y-116574480D01*
X116592973Y-116847820D01*
X116592972Y-116847821D01*
X116511995Y-116906294D01*
X116511993Y-116906295D01*
X116399244Y-117032990D01*
X116318757Y-117182264D01*
X116274860Y-117346085D01*
X116269927Y-117515615D01*
X115378036Y-117515615D01*
X115299198Y-117397626D01*
X115299195Y-117397622D01*
X115156745Y-117255172D01*
X115156714Y-117255143D01*
X114270332Y-116368761D01*
X114250626Y-116343080D01*
X114186037Y-116231209D01*
X114102224Y-116086040D01*
X115025411Y-116086040D01*
X115025411Y-116086041D01*
X115237894Y-116454072D01*
X115237905Y-116454090D01*
X115298341Y-116537785D01*
X115298347Y-116537793D01*
X115429319Y-116654348D01*
X115583639Y-116737558D01*
X115752991Y-116782935D01*
X115928243Y-116788034D01*
X116099944Y-116752580D01*
X116099946Y-116752580D01*
X116194133Y-116710316D01*
X116194147Y-116710309D01*
X116291555Y-116654069D01*
X116172565Y-116447972D01*
X118804289Y-116447972D01*
X118839743Y-116619671D01*
X118882017Y-116713881D01*
X118882021Y-116713889D01*
X118944502Y-116822109D01*
X118944503Y-116822109D01*
X119623446Y-116430122D01*
X120623444Y-116430122D01*
X120623444Y-116430123D01*
X121035943Y-117144592D01*
X121035944Y-117144592D01*
X121425632Y-116919606D01*
X121509345Y-116859158D01*
X121509347Y-116859157D01*
X121625901Y-116728186D01*
X121709113Y-116573860D01*
X121754489Y-116404514D01*
X121759588Y-116229261D01*
X121724134Y-116057562D01*
X121681865Y-115963363D01*
X121681858Y-115963349D01*
X121619374Y-115855123D01*
X121619373Y-115855123D01*
X120623444Y-116430122D01*
X119623446Y-116430122D01*
X119779101Y-116340255D01*
X119940432Y-116247110D01*
X119940432Y-116247109D01*
X119527933Y-115532640D01*
X119527932Y-115532640D01*
X119138252Y-115757623D01*
X119138247Y-115757625D01*
X119054532Y-115818075D01*
X119054530Y-115818076D01*
X118937976Y-115949047D01*
X118854764Y-116103373D01*
X118809388Y-116272719D01*
X118804289Y-116447972D01*
X116172565Y-116447972D01*
X115729056Y-115679791D01*
X115729055Y-115679791D01*
X115025411Y-116086040D01*
X114102224Y-116086040D01*
X113870517Y-115684712D01*
X113850859Y-115657488D01*
X113810031Y-115600946D01*
X113810024Y-115600939D01*
X113678972Y-115484313D01*
X113524546Y-115401046D01*
X113355079Y-115355637D01*
X113179711Y-115350536D01*
X113007897Y-115386013D01*
X113007894Y-115386014D01*
X112913637Y-115428310D01*
X112913618Y-115428319D01*
X112285757Y-115790816D01*
X112285752Y-115790818D01*
X112201976Y-115851312D01*
X112085346Y-115982370D01*
X112002080Y-116136793D01*
X111956671Y-116306260D01*
X111951570Y-116481628D01*
X104345191Y-116481628D01*
X104300040Y-116349122D01*
X104298975Y-116345844D01*
X103894655Y-115038091D01*
X103893672Y-115034742D01*
X103889316Y-115019083D01*
X114485197Y-115019083D01*
X114520651Y-115190785D01*
X114562916Y-115284974D01*
X114562925Y-115284993D01*
X114775410Y-115653028D01*
X114775411Y-115653028D01*
X115162070Y-115429791D01*
X116162068Y-115429791D01*
X116162068Y-115429792D01*
X116724567Y-116404069D01*
X116821989Y-116347823D01*
X116905685Y-116287387D01*
X116905687Y-116287385D01*
X117022241Y-116156414D01*
X117105450Y-116002094D01*
X117150830Y-115832739D01*
X117155928Y-115657488D01*
X117120474Y-115485786D01*
X117078209Y-115391597D01*
X117078204Y-115391588D01*
X117061214Y-115362160D01*
X117061213Y-115362158D01*
X117015303Y-115282639D01*
X119960945Y-115282639D01*
X119960945Y-115282640D01*
X120373444Y-115997110D01*
X120373445Y-115997110D01*
X121369373Y-115422111D01*
X121369373Y-115422110D01*
X121306886Y-115313879D01*
X121246440Y-115230170D01*
X121246437Y-115230166D01*
X121115466Y-115113612D01*
X120961140Y-115030400D01*
X120791794Y-114985024D01*
X120616541Y-114979925D01*
X120444842Y-115015379D01*
X120350638Y-115057650D01*
X120350628Y-115057655D01*
X119960945Y-115282639D01*
X117015303Y-115282639D01*
X116865714Y-115023542D01*
X116865713Y-115023542D01*
X116162068Y-115429791D01*
X115162070Y-115429791D01*
X115317725Y-115339924D01*
X115479056Y-115246779D01*
X115479056Y-115246778D01*
X114916557Y-114272501D01*
X114916556Y-114272501D01*
X114819159Y-114328734D01*
X114819154Y-114328736D01*
X114735436Y-114389188D01*
X114618884Y-114520157D01*
X114535675Y-114674477D01*
X114490295Y-114843832D01*
X114485197Y-115019083D01*
X103889316Y-115019083D01*
X103612120Y-114022500D01*
X115349569Y-114022500D01*
X115349569Y-114022501D01*
X115912068Y-114996779D01*
X115912069Y-114996779D01*
X116615713Y-114590530D01*
X116615713Y-114590529D01*
X116403231Y-114222498D01*
X116403220Y-114222481D01*
X116342784Y-114138786D01*
X116342778Y-114138778D01*
X116211806Y-114022223D01*
X116057486Y-113939013D01*
X115888134Y-113893636D01*
X115712882Y-113888537D01*
X115541181Y-113923991D01*
X115541179Y-113923991D01*
X115446987Y-113966258D01*
X115446968Y-113966267D01*
X115349569Y-114022500D01*
X103612120Y-114022500D01*
X103526859Y-113715968D01*
X103525959Y-113712543D01*
X103212609Y-112447051D01*
X103196961Y-112383857D01*
X103196166Y-112380434D01*
X103192791Y-112364916D01*
X102905239Y-111042868D01*
X102904557Y-111039500D01*
X102651941Y-109694149D01*
X102651352Y-109690743D01*
X102437253Y-108338704D01*
X102436764Y-108335303D01*
X102261365Y-106977721D01*
X102260962Y-106974203D01*
X102236845Y-106733665D01*
X102124404Y-105612199D01*
X102124113Y-105608811D01*
X102026504Y-104243426D01*
X102026303Y-104239904D01*
X102024158Y-104189817D01*
X101967724Y-102872320D01*
X101967626Y-102868884D01*
X101948139Y-101501207D01*
X101948182Y-101495729D01*
X101954020Y-101303471D01*
X107999500Y-101303471D01*
X107999500Y-101696528D01*
X108038026Y-102087702D01*
X108114704Y-102473194D01*
X108114707Y-102473205D01*
X108228810Y-102849354D01*
X108379230Y-103212499D01*
X108379232Y-103212504D01*
X108564511Y-103559137D01*
X108564522Y-103559155D01*
X108782887Y-103885960D01*
X108782897Y-103885974D01*
X109032254Y-104189817D01*
X109310182Y-104467745D01*
X109310187Y-104467749D01*
X109310188Y-104467750D01*
X109614031Y-104717107D01*
X109940851Y-104935482D01*
X109940860Y-104935487D01*
X109940862Y-104935488D01*
X110287495Y-105120767D01*
X110287497Y-105120767D01*
X110287503Y-105120771D01*
X110650647Y-105271190D01*
X111026785Y-105385290D01*
X111026791Y-105385291D01*
X111026794Y-105385292D01*
X111026805Y-105385295D01*
X111412297Y-105461973D01*
X111803468Y-105500500D01*
X111803471Y-105500500D01*
X112196529Y-105500500D01*
X112196532Y-105500500D01*
X112587703Y-105461973D01*
X112662748Y-105447045D01*
X112973194Y-105385295D01*
X112973205Y-105385292D01*
X112973205Y-105385291D01*
X112973215Y-105385290D01*
X113349353Y-105271190D01*
X113712497Y-105120771D01*
X114059149Y-104935482D01*
X114385969Y-104717107D01*
X114689812Y-104467750D01*
X114967750Y-104189812D01*
X115217107Y-103885969D01*
X115435482Y-103559149D01*
X115620771Y-103212497D01*
X115771190Y-102849353D01*
X115885290Y-102473215D01*
X115885292Y-102473205D01*
X115885295Y-102473194D01*
X115947045Y-102162748D01*
X115961973Y-102087703D01*
X116000500Y-101696532D01*
X116000500Y-101303468D01*
X115961973Y-100912297D01*
X115943634Y-100820100D01*
X115885295Y-100526805D01*
X115885292Y-100526794D01*
X115885291Y-100526791D01*
X115885290Y-100526785D01*
X115771190Y-100150647D01*
X115620771Y-99787503D01*
X115608355Y-99764275D01*
X115435488Y-99440862D01*
X115435487Y-99440860D01*
X115435482Y-99440851D01*
X115217107Y-99114031D01*
X114967750Y-98810188D01*
X114967749Y-98810187D01*
X114967745Y-98810182D01*
X114689817Y-98532254D01*
X114385974Y-98282897D01*
X114385973Y-98282896D01*
X114385969Y-98282893D01*
X114059149Y-98064518D01*
X114059144Y-98064515D01*
X114059137Y-98064511D01*
X113712504Y-97879232D01*
X113712499Y-97879230D01*
X113349354Y-97728810D01*
X112973205Y-97614707D01*
X112973194Y-97614704D01*
X112587702Y-97538026D01*
X112293089Y-97509010D01*
X112196532Y-97499500D01*
X111803468Y-97499500D01*
X111714251Y-97508287D01*
X111412297Y-97538026D01*
X111026805Y-97614704D01*
X111026794Y-97614707D01*
X110650645Y-97728810D01*
X110287500Y-97879230D01*
X110287495Y-97879232D01*
X109940862Y-98064511D01*
X109940844Y-98064522D01*
X109614039Y-98282887D01*
X109614025Y-98282897D01*
X109310182Y-98532254D01*
X109032254Y-98810182D01*
X108782897Y-99114025D01*
X108782887Y-99114039D01*
X108564522Y-99440844D01*
X108564511Y-99440862D01*
X108379232Y-99787495D01*
X108379230Y-99787500D01*
X108228810Y-100150645D01*
X108114707Y-100526794D01*
X108114704Y-100526805D01*
X108038026Y-100912297D01*
X107999500Y-101303471D01*
X101954020Y-101303471D01*
X101966414Y-100895360D01*
X101966867Y-100887892D01*
X101973037Y-100820100D01*
X102021221Y-100290686D01*
X102022120Y-100283297D01*
X102112432Y-99690454D01*
X102113776Y-99683125D01*
X102239716Y-99096813D01*
X102241508Y-99089552D01*
X102402607Y-98511940D01*
X102404823Y-98504834D01*
X102600504Y-97937990D01*
X102603155Y-97931001D01*
X102832708Y-97376989D01*
X102835766Y-97370198D01*
X103098340Y-96831070D01*
X103101799Y-96824480D01*
X103396461Y-96302157D01*
X103400321Y-96295775D01*
X103725955Y-95792231D01*
X103730195Y-95786088D01*
X104085636Y-95303123D01*
X104090249Y-95297237D01*
X104189525Y-95178135D01*
X104474210Y-94836596D01*
X104479130Y-94831043D01*
X104890213Y-94394412D01*
X104895493Y-94389133D01*
X105332162Y-93978139D01*
X105337750Y-93973189D01*
X105798442Y-93589303D01*
X105804335Y-93584688D01*
X105827810Y-93567417D01*
X106287340Y-93229331D01*
X106293472Y-93225098D01*
X106797096Y-92899520D01*
X106803480Y-92895662D01*
X107325827Y-92601092D01*
X107332414Y-92597635D01*
X107871601Y-92335134D01*
X107878371Y-92332087D01*
X108432455Y-92102602D01*
X108439382Y-92099975D01*
X109006308Y-91904361D01*
X109013349Y-91902167D01*
X109591078Y-91741129D01*
X109598283Y-91739354D01*
X110184623Y-91613501D01*
X110191948Y-91612158D01*
X110784833Y-91521933D01*
X110792203Y-91521038D01*
X111389438Y-91466772D01*
X111396861Y-91466323D01*
X111998113Y-91448156D01*
X112001858Y-91448100D01*
X115084245Y-91448100D01*
X115084255Y-91448097D01*
X115184924Y-91448097D01*
X115553193Y-91413957D01*
X115916738Y-91345968D01*
X116272455Y-91244711D01*
X116319737Y-91226385D01*
X121939500Y-91226385D01*
X121939500Y-92842120D01*
X121939501Y-92842126D01*
X121945908Y-92901733D01*
X121996202Y-93036578D01*
X121996206Y-93036585D01*
X122082452Y-93151794D01*
X122082455Y-93151797D01*
X122197664Y-93238043D01*
X122197671Y-93238047D01*
X122332517Y-93288341D01*
X122332516Y-93288341D01*
X122339444Y-93289085D01*
X122392127Y-93294750D01*
X124007872Y-93294749D01*
X124067483Y-93288341D01*
X124202331Y-93238046D01*
X124317546Y-93151796D01*
X124403796Y-93036581D01*
X124454091Y-92901733D01*
X124460500Y-92842123D01*
X124460499Y-91935040D01*
X124939500Y-91935040D01*
X124939500Y-92133459D01*
X124952903Y-92218081D01*
X124970537Y-92329418D01*
X124991304Y-92393330D01*
X125031850Y-92518118D01*
X125074134Y-92601104D01*
X125121923Y-92694896D01*
X125238544Y-92855411D01*
X125378839Y-92995706D01*
X125539354Y-93112327D01*
X125652800Y-93170130D01*
X125716131Y-93202399D01*
X125716133Y-93202399D01*
X125716136Y-93202401D01*
X125904832Y-93263713D01*
X126002814Y-93279231D01*
X126100791Y-93294750D01*
X126100796Y-93294750D01*
X126299209Y-93294750D01*
X126388278Y-93280642D01*
X126495168Y-93263713D01*
X126683864Y-93202401D01*
X126860646Y-93112327D01*
X127021161Y-92995706D01*
X127161456Y-92855411D01*
X127278077Y-92694896D01*
X127368151Y-92518114D01*
X127429463Y-92329418D01*
X127447097Y-92218081D01*
X127460500Y-92133459D01*
X127460500Y-91935040D01*
X127939500Y-91935040D01*
X127939500Y-92133459D01*
X127952903Y-92218081D01*
X127970537Y-92329418D01*
X127991304Y-92393330D01*
X128031850Y-92518118D01*
X128074134Y-92601104D01*
X128121923Y-92694896D01*
X128238544Y-92855411D01*
X128378839Y-92995706D01*
X128539354Y-93112327D01*
X128652800Y-93170130D01*
X128716131Y-93202399D01*
X128716133Y-93202399D01*
X128716136Y-93202401D01*
X128904832Y-93263713D01*
X129002814Y-93279231D01*
X129100791Y-93294750D01*
X129100796Y-93294750D01*
X129299209Y-93294750D01*
X129388278Y-93280642D01*
X129495168Y-93263713D01*
X129683864Y-93202401D01*
X129860646Y-93112327D01*
X130021161Y-92995706D01*
X130161456Y-92855411D01*
X130278077Y-92694896D01*
X130368151Y-92518114D01*
X130429463Y-92329418D01*
X130447097Y-92218081D01*
X130460500Y-92133459D01*
X130460500Y-91935040D01*
X130439518Y-91802569D01*
X130429463Y-91739082D01*
X130368151Y-91550386D01*
X130368149Y-91550383D01*
X130368149Y-91550381D01*
X130325856Y-91467376D01*
X130278077Y-91373604D01*
X130161456Y-91213089D01*
X130021161Y-91072794D01*
X129860646Y-90956173D01*
X129796333Y-90923404D01*
X129683868Y-90866100D01*
X129636853Y-90850824D01*
X129495168Y-90804787D01*
X129495162Y-90804786D01*
X129299209Y-90773750D01*
X129299204Y-90773750D01*
X129100796Y-90773750D01*
X129100791Y-90773750D01*
X128904837Y-90804786D01*
X128904835Y-90804786D01*
X128904832Y-90804787D01*
X128825832Y-90830456D01*
X128716131Y-90866100D01*
X128539352Y-90956174D01*
X128539349Y-90956176D01*
X128469849Y-91006671D01*
X128378839Y-91072794D01*
X128378837Y-91072796D01*
X128378836Y-91072796D01*
X128238546Y-91213086D01*
X128238546Y-91213087D01*
X128238544Y-91213089D01*
X128215567Y-91244714D01*
X128121926Y-91373599D01*
X128121924Y-91373602D01*
X128031850Y-91550381D01*
X128011393Y-91613341D01*
X127970537Y-91739082D01*
X127970536Y-91739085D01*
X127970536Y-91739087D01*
X127939500Y-91935040D01*
X127460500Y-91935040D01*
X127439518Y-91802569D01*
X127429463Y-91739082D01*
X127368151Y-91550386D01*
X127368149Y-91550383D01*
X127368149Y-91550381D01*
X127325856Y-91467376D01*
X127278077Y-91373604D01*
X127161456Y-91213089D01*
X127021161Y-91072794D01*
X126860646Y-90956173D01*
X126796333Y-90923404D01*
X126683868Y-90866100D01*
X126636853Y-90850824D01*
X126495168Y-90804787D01*
X126495162Y-90804786D01*
X126299209Y-90773750D01*
X126299204Y-90773750D01*
X126100796Y-90773750D01*
X126100791Y-90773750D01*
X125904837Y-90804786D01*
X125904835Y-90804786D01*
X125904832Y-90804787D01*
X125825832Y-90830456D01*
X125716131Y-90866100D01*
X125539352Y-90956174D01*
X125539349Y-90956176D01*
X125469849Y-91006671D01*
X125378839Y-91072794D01*
X125378837Y-91072796D01*
X125378836Y-91072796D01*
X125238546Y-91213086D01*
X125238546Y-91213087D01*
X125238544Y-91213089D01*
X125215567Y-91244714D01*
X125121926Y-91373599D01*
X125121924Y-91373602D01*
X125031850Y-91550381D01*
X125011393Y-91613341D01*
X124970537Y-91739082D01*
X124970536Y-91739085D01*
X124970536Y-91739087D01*
X124939500Y-91935040D01*
X124460499Y-91935040D01*
X124460499Y-91226378D01*
X124454091Y-91166767D01*
X124451890Y-91160867D01*
X124403797Y-91031921D01*
X124403793Y-91031914D01*
X124317547Y-90916705D01*
X124317544Y-90916702D01*
X124202335Y-90830456D01*
X124202328Y-90830452D01*
X124067482Y-90780158D01*
X124067483Y-90780158D01*
X124007883Y-90773751D01*
X124007881Y-90773750D01*
X124007873Y-90773750D01*
X124007864Y-90773750D01*
X122392129Y-90773750D01*
X122392123Y-90773751D01*
X122332516Y-90780158D01*
X122197671Y-90830452D01*
X122197664Y-90830456D01*
X122082455Y-90916702D01*
X122082452Y-90916705D01*
X121996206Y-91031914D01*
X121996202Y-91031921D01*
X121945908Y-91166767D01*
X121939807Y-91223518D01*
X121939501Y-91226373D01*
X121939500Y-91226385D01*
X116319737Y-91226385D01*
X116617306Y-91111051D01*
X116948347Y-90946129D01*
X117262751Y-90751353D01*
X117557833Y-90528386D01*
X117831074Y-90279133D01*
X118080139Y-90005722D01*
X118302903Y-89710487D01*
X118497464Y-89395950D01*
X118662159Y-89064796D01*
X118795583Y-88719853D01*
X118896595Y-88364066D01*
X118920731Y-88234513D01*
X118952361Y-88172215D01*
X119012652Y-88136905D01*
X119082461Y-88139796D01*
X119139626Y-88179971D01*
X119162407Y-88225130D01*
X119170119Y-88253911D01*
X119194305Y-88344174D01*
X119292396Y-88580989D01*
X119292403Y-88581004D01*
X119420571Y-88802999D01*
X119576623Y-89006367D01*
X119576631Y-89006376D01*
X119757874Y-89187619D01*
X119757882Y-89187626D01*
X119757883Y-89187627D01*
X119797374Y-89217930D01*
X119961250Y-89343678D01*
X120183245Y-89471846D01*
X120183260Y-89471853D01*
X120270658Y-89508054D01*
X120420076Y-89569945D01*
X120667682Y-89636291D01*
X120921830Y-89669750D01*
X120921837Y-89669750D01*
X121178163Y-89669750D01*
X121178170Y-89669750D01*
X121432318Y-89636291D01*
X121679924Y-89569945D01*
X121916751Y-89471848D01*
X122138749Y-89343678D01*
X122342117Y-89187627D01*
X122342121Y-89187622D01*
X122342126Y-89187619D01*
X122523369Y-89006376D01*
X122523372Y-89006371D01*
X122523377Y-89006367D01*
X122679428Y-88802999D01*
X122807598Y-88581001D01*
X122905695Y-88344174D01*
X122972041Y-88096568D01*
X123005500Y-87842420D01*
X123005500Y-87586080D01*
X122972041Y-87331932D01*
X122905695Y-87084326D01*
X122807598Y-86847499D01*
X122794609Y-86825001D01*
X122679428Y-86625500D01*
X122523376Y-86422132D01*
X122523369Y-86422124D01*
X122342126Y-86240881D01*
X122342117Y-86240873D01*
X122138749Y-86084821D01*
X121916754Y-85956653D01*
X121916739Y-85956646D01*
X121679924Y-85858555D01*
X121432314Y-85792208D01*
X121178180Y-85758751D01*
X121178175Y-85758750D01*
X121178170Y-85758750D01*
X120921830Y-85758750D01*
X120921824Y-85758750D01*
X120921819Y-85758751D01*
X120667685Y-85792208D01*
X120420075Y-85858555D01*
X120183260Y-85956646D01*
X120183245Y-85956653D01*
X119961250Y-86084821D01*
X119757882Y-86240873D01*
X119576623Y-86422132D01*
X119420571Y-86625500D01*
X119292403Y-86847495D01*
X119292396Y-86847510D01*
X119239061Y-86976275D01*
X119195220Y-87030679D01*
X119128926Y-87052744D01*
X119061227Y-87035465D01*
X119013616Y-86984328D01*
X119000500Y-86928823D01*
X119000500Y-82502561D01*
X119000606Y-82497437D01*
X119010773Y-82251620D01*
X119019072Y-82050961D01*
X119019915Y-82040792D01*
X119074874Y-81599881D01*
X119076554Y-81589809D01*
X119167734Y-81154950D01*
X119170241Y-81145054D01*
X119297021Y-80719205D01*
X119300336Y-80709553D01*
X119461842Y-80295646D01*
X119465958Y-80286265D01*
X119547701Y-80119058D01*
X119661080Y-79887137D01*
X119665953Y-79878131D01*
X119672107Y-79867804D01*
X119893389Y-79496444D01*
X119898982Y-79487884D01*
X120157152Y-79126294D01*
X120163420Y-79118240D01*
X120450581Y-78779191D01*
X120457500Y-78771675D01*
X120771675Y-78457500D01*
X120779191Y-78450581D01*
X121118240Y-78163420D01*
X121126294Y-78157152D01*
X121487884Y-77898982D01*
X121496444Y-77893389D01*
X121878139Y-77665948D01*
X121887137Y-77661080D01*
X122286268Y-77465956D01*
X122295650Y-77461841D01*
X122709553Y-77300336D01*
X122719205Y-77297021D01*
X123145054Y-77170241D01*
X123154950Y-77167734D01*
X123589809Y-77076554D01*
X123599881Y-77074874D01*
X124040792Y-77019915D01*
X124050961Y-77019072D01*
X124497437Y-77000605D01*
X124502561Y-77000500D01*
X124565892Y-77000500D01*
X175434108Y-77000500D01*
X175497439Y-77000500D01*
X175502562Y-77000605D01*
G37*
%TD.AperFunction*%
%TD*%
M02*
